<svg width="94" height="94" viewBox="0 0 94 94" fill="none" xmlns="http://www.w3.org/2000/svg">
<circle cx="47" cy="47" r="47" fill="#7D1609"/>
<path d="M45.791 37.3779C39.791 37.3779 35.0098 42.2529 35.0098 48.1592C35.0098 54.1592 39.791 58.9404 45.791 58.9404C51.6973 58.9404 56.5723 54.1592 56.5723 48.1592C56.5723 42.2529 51.6973 37.3779 45.791 37.3779ZM45.791 55.1904C41.9473 55.1904 38.7598 52.0967 38.7598 48.1592C38.7598 44.3154 41.8535 41.2217 45.791 41.2217C49.6348 41.2217 52.7285 44.3154 52.7285 48.1592C52.7285 52.0967 49.6348 55.1904 45.791 55.1904ZM59.4785 37.0029C59.4785 35.5967 58.3535 34.4717 56.9473 34.4717C55.541 34.4717 54.416 35.5967 54.416 37.0029C54.416 38.4092 55.541 39.5342 56.9473 39.5342C58.3535 39.5342 59.4785 38.4092 59.4785 37.0029ZM66.6035 39.5342C66.416 36.1592 65.666 33.1592 63.2285 30.7217C60.791 28.2842 57.791 27.5342 54.416 27.3467C50.9473 27.1592 40.541 27.1592 37.0723 27.3467C33.6973 27.5342 30.791 28.2842 28.2598 30.7217C25.8223 33.1592 25.0723 36.1592 24.8848 39.5342C24.6973 43.0029 24.6973 53.4092 24.8848 56.8779C25.0723 60.2529 25.8223 63.1592 28.2598 65.6904C30.791 68.1279 33.6973 68.8779 37.0723 69.0654C40.541 69.2529 50.9473 69.2529 54.416 69.0654C57.791 68.8779 60.791 68.1279 63.2285 65.6904C65.666 63.1592 66.416 60.2529 66.6035 56.8779C66.791 53.4092 66.791 43.0029 66.6035 39.5342ZM62.1035 60.5342C61.4473 62.4092 59.9473 63.8154 58.166 64.5654C55.3535 65.6904 48.791 65.4092 45.791 65.4092C42.6973 65.4092 36.1348 65.6904 33.416 64.5654C31.541 63.8154 30.1348 62.4092 29.3848 60.5342C28.2598 57.8154 28.541 51.2529 28.541 48.1592C28.541 45.1592 28.2598 38.5967 29.3848 35.7842C30.1348 34.0029 31.541 32.5967 33.416 31.8467C36.1348 30.7217 42.6973 31.0029 45.791 31.0029C48.791 31.0029 55.3535 30.7217 58.166 31.8467C59.9473 32.5029 61.3535 34.0029 62.1035 35.7842C63.2285 38.5967 62.9473 45.1592 62.9473 48.1592C62.9473 51.2529 63.2285 57.8154 62.1035 60.5342Z" fill="#D9D9D6"/>
</svg>
