<svg width="122" height="118" viewBox="0 0 122 118" fill="none" xmlns="http://www.w3.org/2000/svg">
<ellipse cx="60.6667" cy="58.6667" rx="60.6667" ry="58.6667" fill="#7D1609"/>
<path d="M84.6562 40.6665H46.5L45.6562 36.5415C45.4688 35.5103 44.5312 34.6665 43.5 34.6665H34.125C33.4688 34.6665 33 35.229 33 35.7915V38.0415C33 38.6978 33.4688 39.1665 34.125 39.1665H41.625L48.0938 72.5415C47.0625 73.6665 46.5 75.0728 46.5 76.6665C46.5 80.0415 49.125 82.6665 52.5 82.6665C55.7812 82.6665 58.5 80.0415 58.5 76.6665C58.5 75.6353 58.125 74.604 57.6562 73.6665H71.25C70.7812 74.604 70.5 75.6353 70.5 76.6665C70.5 80.0415 73.125 82.6665 76.5 82.6665C79.7812 82.6665 82.5 80.0415 82.5 76.6665C82.5 74.979 81.75 73.479 80.625 72.354L80.7188 71.979C81 70.5728 79.9688 69.1665 78.4688 69.1665H52.0312L51.1875 64.6665H80.4375C81.5625 64.6665 82.4062 64.0103 82.6875 62.979L86.9062 43.479C87.1875 42.0728 86.1562 40.6665 84.6562 40.6665ZM52.5 78.9165C51.1875 78.9165 50.25 77.979 50.25 76.6665C50.25 75.4478 51.1875 74.4165 52.5 74.4165C53.7188 74.4165 54.75 75.4478 54.75 76.6665C54.75 77.979 53.7188 78.9165 52.5 78.9165ZM76.5 78.9165C75.1875 78.9165 74.25 77.979 74.25 76.6665C74.25 75.4478 75.1875 74.4165 76.5 74.4165C77.7188 74.4165 78.75 75.4478 78.75 76.6665C78.75 77.979 77.7188 78.9165 76.5 78.9165ZM78.6562 60.1665H50.25L47.3438 45.1665H81.9375L78.6562 60.1665Z" fill="#D9D9D6"/>
</svg>
