<svg width="94" height="94" viewBox="0 0 94 94" fill="none" xmlns="http://www.w3.org/2000/svg">
<circle cx="47" cy="47" r="47" fill="#7D1609"/>
<path d="M72.041 43.4092H72.791V33.6592C72.791 31.2217 70.7285 29.1592 68.291 29.1592H23.291C20.7598 29.1592 18.791 31.2217 18.791 33.6592V43.4092H19.541C21.6035 43.4092 23.291 45.0967 23.291 47.1592C23.291 49.3154 21.6035 50.9092 19.541 50.9092H18.791V60.6592C18.791 63.1904 20.7598 65.1592 23.291 65.1592H68.291C70.7285 65.1592 72.791 63.1904 72.791 60.6592V50.9092H72.041C69.8848 50.9092 68.291 49.3154 68.291 47.1592C68.291 45.0967 69.8848 43.4092 72.041 43.4092ZM68.291 39.8467C65.5723 41.2529 63.791 43.9717 63.791 47.1592C63.791 50.4404 65.5723 53.1592 68.291 54.5654V60.6592H23.291V54.5654C25.916 53.1592 27.791 50.4404 27.791 47.1592C27.791 43.9717 25.916 41.2529 23.291 39.8467V33.6592H68.291V39.8467Z" fill="#D9D9D6"/>
</svg>
