<svg width="94" height="94" viewBox="0 0 94 94" fill="none" xmlns="http://www.w3.org/2000/svg">
<circle cx="47" cy="47" r="47" fill="#D9D9D6"/>
<path d="M72.0413 43.4092H72.7913V33.6592C72.7913 31.2217 70.7288 29.1592 68.2913 29.1592H23.2913C20.76 29.1592 18.7913 31.2217 18.7913 33.6592V43.4092H19.5413C21.6038 43.4092 23.2913 45.0967 23.2913 47.1592C23.2913 49.3154 21.6038 50.9092 19.5413 50.9092H18.7913V60.6592C18.7913 63.1904 20.76 65.1592 23.2913 65.1592H68.2913C70.7288 65.1592 72.7913 63.1904 72.7913 60.6592V50.9092H72.0413C69.885 50.9092 68.2913 49.3154 68.2913 47.1592C68.2913 45.0967 69.885 43.4092 72.0413 43.4092ZM68.2913 39.8467C65.5725 41.2529 63.7913 43.9717 63.7913 47.1592C63.7913 50.4404 65.5725 53.1592 68.2913 54.5654V60.6592H23.2913V54.5654C25.9163 53.1592 27.7913 50.4404 27.7913 47.1592C27.7913 43.9717 25.9163 41.2529 23.2913 39.8467V33.6592H68.2913V39.8467Z" fill="#7D1609"/>
</svg>
