<svg width="94" height="94" viewBox="0 0 94 94" fill="none" xmlns="http://www.w3.org/2000/svg">
<circle cx="47" cy="47" r="47" fill="#7D1609"/>
<path d="M64.8223 38.4092C66.6973 37.0029 68.3848 35.3154 69.6973 33.3467C68.0098 34.0967 66.041 34.6592 64.0723 34.8467C66.1348 33.6279 67.6348 31.7529 68.3848 29.4092C66.5098 30.5342 64.3535 31.3779 62.1973 31.8467C60.3223 29.8779 57.791 28.7529 54.9785 28.7529C49.541 28.7529 45.1348 33.1592 45.1348 38.5967C45.1348 39.3467 45.2285 40.0967 45.416 40.8467C37.2598 40.3779 29.9473 36.4404 25.0723 30.5342C24.2285 31.9404 23.7598 33.6279 23.7598 35.5029C23.7598 38.8779 25.4473 41.8779 28.166 43.6592C26.5723 43.5654 24.9785 43.1904 23.666 42.4404V42.5342C23.666 47.3154 27.041 51.2529 31.541 52.1904C30.791 52.3779 29.8535 52.5654 29.0098 52.5654C28.3535 52.5654 27.791 52.4717 27.1348 52.3779C28.3535 56.3154 32.0098 59.1279 36.3223 59.2217C32.9473 61.8467 28.7285 63.4404 24.1348 63.4404C23.291 63.4404 22.541 63.3467 21.791 63.2529C26.1035 66.0654 31.2598 67.6592 36.8848 67.6592C54.9785 67.6592 64.8223 52.7529 64.8223 39.7217C64.8223 39.2529 64.8223 38.8779 64.8223 38.4092Z" fill="#D9D9D6"/>
</svg>
