<svg width="94" height="94" viewBox="0 0 94 94" fill="none" xmlns="http://www.w3.org/2000/svg">
<circle cx="47" cy="47" r="47" fill="#7D1609"/>
<path d="M69.041 48.1592C69.041 35.3154 58.6348 24.9092 45.791 24.9092C32.9473 24.9092 22.541 35.3154 22.541 48.1592C22.541 59.7842 30.9785 69.4404 42.1348 71.1279V54.9092H36.2285V48.1592H42.1348V43.0967C42.1348 37.2842 45.6035 34.0029 50.8535 34.0029C53.4785 34.0029 56.1035 34.4717 56.1035 34.4717V40.1904H53.1973C50.291 40.1904 49.3535 41.9717 49.3535 43.8467V48.1592H55.8223L54.791 54.9092H49.3535V71.1279C60.5098 69.4404 69.041 59.7842 69.041 48.1592Z" fill="#D9D9D6"/>
</svg>
