<?xml version="1.0" encoding="utf-8"?>
<!-- Generator: Adobe Illustrator 27.1.1, SVG Export Plug-In . SVG Version: 6.00 Build 0)  -->
<svg version="1.1" id="Capa_1" xmlns="http://www.w3.org/2000/svg" xmlns:xlink="http://www.w3.org/1999/xlink" x="0px" y="0px"
	 viewBox="0 0 800 800" style="enable-background:new 0 0 800 800;" xml:space="preserve">
<style type="text/css">
	.st0{fill:#F1F6FF;}
</style>
<g>
	<path class="st0" d="M18.8,207.3h762.3c10.4,0,18.8-16.4,18.8-36.6c0-20.2-8.5-36.6-18.8-36.6H18.8C8.4,134,0,150.5,0,170.7
		C0,191,8.4,207.3,18.8,207.3z"/>
	<path class="st0" d="M781.2,283.7H18.8C8.4,283.7,0,300.2,0,320.4c0,0,0,0,0,0c0,0,0,0,0,0c0,0,0,0,0,0.1C0,340.7,8.4,357,18.8,357
		h762.3c10.4,0,18.8-16.3,18.8-36.6c0,0,0,0,0-0.1c0,0,0,0,0,0c0,0,0,0,0,0C800,300.1,791.5,283.7,781.2,283.7z"/>
	<path class="st0" d="M781.2,434.7H18.8C8.4,434.7,0,451.2,0,471.4c0,1.1,0,2.1,0.1,3.2c0,0.8-0.1,1.5-0.1,2.3c0,4.9,1,9.5,2.7,13.5
		C6,500.9,12,508,18.8,508h762.3c6.8,0,12.8-7.1,16.1-17.7c1.7-3.9,2.7-8.5,2.7-13.5c0-0.8,0-1.5-0.1-2.3c0-1,0.1-2.1,0.1-3.2
		C800,451.1,791.5,434.7,781.2,434.7z"/>
	<path class="st0" d="M781.2,592.7H18.8C8.4,592.7,0,609.1,0,629.3c0,2.1,0.1,4.2,0.3,6.2c-0.2,1.4-0.3,2.9-0.3,4.4
		C0,654.3,8.4,666,18.8,666h762.3c10.4,0,18.8-11.7,18.8-26.1c0-1.5-0.1-3-0.3-4.4c0.2-2,0.3-4,0.3-6.1
		C800,609.1,791.5,592.7,781.2,592.7z"/>
</g>
</svg>
