<svg width="182" height="75" viewBox="0 0 182 75" fill="none" xmlns="http://www.w3.org/2000/svg">
<path d="M34.9561 59.5315C36.3093 58.9181 37.6123 58.1171 39.0264 57.7275C41.926 56.9192 42.5167 56.259 41.5502 53.4374C38.6075 44.8358 37.7412 36.0104 38.4608 26.9865C38.5312 25.9141 38.5479 24.8387 38.5109 23.7645C38.4178 19.4168 36.7926 17.4071 32.998 16.9091C28.7022 16.3427 26.1963 17.7101 25.534 22.1553C24.7646 27.3602 24.4388 32.622 24.5603 37.883C24.6928 44.7564 25.4517 51.6154 25.8562 58.4852C25.9027 59.2465 25.4982 60.65 25.1402 60.715C23.6666 60.9276 22.1678 60.8848 20.7084 60.5887C20.3504 60.5201 20.0784 59.1454 20.0927 58.3553C20.3075 47.1702 20.5939 36.0068 20.8087 24.8289C20.8301 23.6779 20.5509 22.5233 20.4507 21.3651C20.1965 18.7132 19.2085 16.8045 16.2301 16.4293C13.1586 16.0432 9.84365 17.2627 8.51553 19.3807C6.79006 22.1409 6.77215 25.1753 7.12298 28.2169C8.05373 36.2232 7.72081 44.0925 5.20061 51.821C4.01927 55.4472 4.60636 56.2842 7.91412 57.7744C8.89857 58.2182 9.70403 59.0516 11.1968 60.1449C7.25901 61.3392 4.09803 61.2057 1.17331 59.6361C0.439445 59.2429 -0.115428 57.5976 0.0206051 56.6378C0.604117 52.4921 1.20195 48.314 2.30454 44.2873C3.64697 39.4056 4.45243 34.5455 4.25912 29.4725C4.23555 27.3316 4.42262 25.1935 4.81757 23.0898C5.65525 17.9122 9.90093 14.7551 15.0487 15.0149C20.0605 15.2711 25.1044 15.4082 30.1269 15.2891C36.8713 15.1231 39.8999 17.4287 40.7125 24.1289C41.2817 28.8194 41.321 33.6074 42.0907 38.269C42.7673 42.3895 44.0883 46.4053 45.1908 50.4499C45.6383 52.0844 46.3793 53.6431 46.766 55.2884C47.6394 59.03 46.05 60.9892 42.2983 61C39.9595 61 37.6219 61 35.2855 61C35.1924 60.5021 35.0671 60.0186 34.9561 59.5315Z" fill="#313131"/>
<path d="M62.6999 59.5315C64.0818 58.9181 65.4126 58.1171 66.8567 57.7275C69.8181 56.9192 70.4213 56.259 69.4342 53.4374C66.429 44.8358 65.5442 36.0104 66.2791 26.9865C66.351 25.9141 66.3681 24.8387 66.3303 23.7645C66.2352 19.4168 64.5754 17.4071 60.7 16.9091C56.3128 16.3427 53.7537 17.7101 53.0773 22.1553C52.2915 27.3602 51.9588 32.622 52.0829 37.883C52.2181 44.7564 52.9932 51.6154 53.4063 58.4852C53.4539 59.2465 53.0407 60.65 52.6751 60.715C51.1702 60.9276 49.6394 60.8848 48.149 60.5887C47.7834 60.5201 47.5056 59.1454 47.5202 58.3553C47.7396 47.1702 48.032 36.0068 48.2514 24.8289C48.2733 23.6779 47.9882 22.5233 47.8858 21.3651C47.6262 18.7132 46.6172 16.8045 43.5754 16.4293C40.4385 16.0432 37.0531 17.2627 35.6967 19.3807C33.9345 22.1409 33.9162 25.1753 34.2745 28.2169C35.2251 36.2232 34.8851 44.0925 32.3113 51.821C31.1048 55.4472 31.7044 56.2842 35.0825 57.7744C36.0879 58.2182 36.9105 59.0516 38.4351 60.1449C34.4135 61.3392 31.1852 61.2057 28.1983 59.6361C27.4488 59.2429 26.8821 57.5976 27.021 56.6378C27.617 52.4921 28.2275 48.314 29.3536 44.2873C30.7246 39.4056 31.5472 34.5455 31.3497 29.4725C31.3257 27.3316 31.5167 25.1935 31.9201 23.0898C32.7756 17.9122 37.1116 14.7551 42.3689 15.0149C47.4873 15.2711 52.6386 15.4082 57.7679 15.2891C64.6558 15.1231 67.7488 17.4287 68.5787 24.1289C69.16 28.8194 69.2002 33.6074 69.9863 38.269C70.6772 42.3895 72.0263 46.4053 73.1523 50.4499C73.6093 52.0844 74.3661 53.6431 74.761 55.2884C75.653 59.03 74.0298 60.9892 70.1983 61C67.8097 61 65.4224 61 63.0362 61C62.9412 60.5021 62.8132 60.0186 62.6999 59.5315Z" fill="#313131"/>
<path d="M95.2109 25H93.8516V17.9141H93.8047L91.1484 25H90.0625L87.4219 17.7812H87.3906V25H86.0312V16.1172H88.0781L90.2188 21.9453C90.3229 22.2161 90.4089 22.4792 90.4766 22.7344C90.5495 22.9896 90.6068 23.2005 90.6484 23.3672H90.6641C90.7214 23.2057 90.7891 22.9922 90.8672 22.7266C90.9453 22.4557 91.0443 22.1641 91.1641 21.8516L93.3594 16.1172H95.2109V25ZM105.578 21.2578C105.578 21.5339 105.565 21.8229 105.539 22.125C105.518 22.4219 105.464 22.7161 105.375 23.0078C105.292 23.2943 105.169 23.5677 105.008 23.8281C104.846 24.0833 104.628 24.3099 104.352 24.5078C104.076 24.7005 103.734 24.8542 103.328 24.9688C102.922 25.0833 102.43 25.1406 101.852 25.1406C101.211 25.1406 100.674 25.0755 100.242 24.9453C99.8099 24.8151 99.4531 24.6432 99.1719 24.4297C98.8958 24.2161 98.6849 23.974 98.5391 23.7031C98.3932 23.4271 98.2865 23.1458 98.2188 22.8594C98.1562 22.5677 98.1198 22.2839 98.1094 22.0078C98.1042 21.7318 98.1016 21.4818 98.1016 21.2578V16.1172H99.5469V21.2422C99.5469 21.4661 99.5521 21.6875 99.5625 21.9062C99.5781 22.125 99.6094 22.3333 99.6562 22.5312C99.7083 22.724 99.7812 22.9062 99.875 23.0781C99.974 23.2448 100.104 23.3906 100.266 23.5156C100.432 23.6354 100.635 23.7292 100.875 23.7969C101.115 23.8646 101.406 23.8984 101.75 23.8984C102.286 23.8984 102.711 23.8359 103.023 23.7109C103.341 23.5807 103.581 23.3984 103.742 23.1641C103.904 22.9297 104.005 22.651 104.047 22.3281C104.094 22 104.117 21.638 104.117 21.2422V16.1172H105.578V21.2578ZM113.758 18.7578C113.711 18.2422 113.508 17.8438 113.148 17.5625C112.794 17.2812 112.284 17.1406 111.617 17.1406C111.326 17.1406 111.055 17.1693 110.805 17.2266C110.56 17.2786 110.346 17.3594 110.164 17.4688C109.982 17.5729 109.839 17.7031 109.734 17.8594C109.635 18.0104 109.586 18.1823 109.586 18.375C109.586 18.5469 109.622 18.6979 109.695 18.8281C109.768 18.9583 109.896 19.0755 110.078 19.1797C110.26 19.2839 110.51 19.3828 110.828 19.4766C111.146 19.5703 111.552 19.6667 112.047 19.7656C112.536 19.8698 112.99 19.9844 113.406 20.1094C113.823 20.2344 114.182 20.3984 114.484 20.6016C114.792 20.8047 115.031 21.0599 115.203 21.3672C115.375 21.6693 115.461 22.0495 115.461 22.5078C115.461 22.8932 115.375 23.2474 115.203 23.5703C115.031 23.8932 114.789 24.1719 114.477 24.4062C114.169 24.6354 113.799 24.8151 113.367 24.9453C112.935 25.0755 112.458 25.1406 111.938 25.1406C111.271 25.1406 110.685 25.0677 110.18 24.9219C109.68 24.776 109.258 24.5729 108.914 24.3125C108.576 24.0469 108.318 23.7292 108.141 23.3594C107.964 22.9896 107.865 22.5807 107.844 22.1328L109.234 22.0391C109.255 22.3672 109.339 22.6536 109.484 22.8984C109.63 23.138 109.82 23.3385 110.055 23.5C110.289 23.6615 110.56 23.7812 110.867 23.8594C111.174 23.9375 111.5 23.9766 111.844 23.9766C112.177 23.9766 112.479 23.9427 112.75 23.875C113.021 23.8073 113.253 23.7109 113.445 23.5859C113.638 23.4609 113.786 23.3125 113.891 23.1406C113.995 22.9635 114.047 22.7682 114.047 22.5547C114.047 22.3516 114.01 22.1745 113.938 22.0234C113.87 21.8724 113.732 21.7344 113.523 21.6094C113.32 21.4844 113.031 21.3698 112.656 21.2656C112.286 21.1562 111.802 21.0417 111.203 20.9219C110.672 20.8125 110.216 20.6797 109.836 20.5234C109.456 20.3672 109.146 20.1875 108.906 19.9844C108.667 19.776 108.49 19.5443 108.375 19.2891C108.266 19.0286 108.211 18.7396 108.211 18.4219C108.211 18.0677 108.289 17.7422 108.445 17.4453C108.602 17.1432 108.826 16.8854 109.117 16.6719C109.409 16.4531 109.76 16.2839 110.172 16.1641C110.589 16.0391 111.055 15.9766 111.57 15.9766C112.091 15.9766 112.568 16.0365 113 16.1562C113.438 16.276 113.812 16.4505 114.125 16.6797C114.438 16.9089 114.685 17.1901 114.867 17.5234C115.049 17.8568 115.151 18.237 115.172 18.6641L113.758 18.7578ZM124.961 25H117.875V16.1172H124.734V17.3672H119.328V19.7812H124.383V21.0312H119.328V23.75H124.961V25ZM134.734 21.2578C134.734 21.5339 134.721 21.8229 134.695 22.125C134.674 22.4219 134.62 22.7161 134.531 23.0078C134.448 23.2943 134.326 23.5677 134.164 23.8281C134.003 24.0833 133.784 24.3099 133.508 24.5078C133.232 24.7005 132.891 24.8542 132.484 24.9688C132.078 25.0833 131.586 25.1406 131.008 25.1406C130.367 25.1406 129.831 25.0755 129.398 24.9453C128.966 24.8151 128.609 24.6432 128.328 24.4297C128.052 24.2161 127.841 23.974 127.695 23.7031C127.549 23.4271 127.443 23.1458 127.375 22.8594C127.312 22.5677 127.276 22.2839 127.266 22.0078C127.26 21.7318 127.258 21.4818 127.258 21.2578V16.1172H128.703V21.2422C128.703 21.4661 128.708 21.6875 128.719 21.9062C128.734 22.125 128.766 22.3333 128.812 22.5312C128.865 22.724 128.938 22.9062 129.031 23.0781C129.13 23.2448 129.26 23.3906 129.422 23.5156C129.589 23.6354 129.792 23.7292 130.031 23.7969C130.271 23.8646 130.562 23.8984 130.906 23.8984C131.443 23.8984 131.867 23.8359 132.18 23.7109C132.497 23.5807 132.737 23.3984 132.898 23.1641C133.06 22.9297 133.161 22.651 133.203 22.3281C133.25 22 133.273 21.638 133.273 21.2422V16.1172H134.734V21.2578ZM142.062 16.1172H145.422C146.932 16.1172 148.062 16.4792 148.812 17.2031C149.568 17.9271 149.945 19.0286 149.945 20.5078C149.945 21.9922 149.578 23.112 148.844 23.8672C148.115 24.6224 147.021 25 145.562 25H142.062V16.1172ZM143.516 23.7656H145.422C145.974 23.7656 146.443 23.7005 146.828 23.5703C147.214 23.4349 147.529 23.2318 147.773 22.9609C148.018 22.6901 148.195 22.349 148.305 21.9375C148.419 21.5208 148.477 21.0312 148.477 20.4688C148.477 19.8958 148.411 19.4115 148.281 19.0156C148.151 18.6198 147.956 18.2995 147.695 18.0547C147.435 17.8099 147.109 17.6354 146.719 17.5312C146.333 17.4219 145.883 17.3672 145.367 17.3672H143.516V23.7656ZM159.523 25H152.438V16.1172H159.297V17.3672H153.891V19.7812H158.945V21.0312H153.891V23.75H159.523V25ZM167.758 25H161.875V16.1172H163.328V23.75H167.758V25ZM87.6719 43H86.3125V35.9141H86.2656L83.6094 43H82.5234L79.8828 35.7812H79.8516V43H78.4922V34.1172H80.5391L82.6797 39.9453C82.7839 40.2161 82.8698 40.4792 82.9375 40.7344C83.0104 40.9896 83.0677 41.2005 83.1094 41.3672H83.125C83.1823 41.2057 83.25 40.9922 83.3281 40.7266C83.4062 40.4557 83.5052 40.1641 83.625 39.8516L85.8203 34.1172H87.6719V43ZM94.6328 33.9766C95.2943 33.9766 95.8984 34.0885 96.4453 34.3125C96.9922 34.5312 97.4609 34.8438 97.8516 35.25C98.2474 35.651 98.5521 36.1328 98.7656 36.6953C98.9844 37.2578 99.0938 37.8828 99.0938 38.5703C99.0938 39.2526 98.9844 39.875 98.7656 40.4375C98.5521 41 98.25 41.4818 97.8594 41.8828C97.4688 42.2839 96.9974 42.5938 96.4453 42.8125C95.8984 43.0312 95.2943 43.1406 94.6328 43.1406C93.9453 43.1406 93.3229 43.026 92.7656 42.7969C92.2135 42.5625 91.7422 42.2448 91.3516 41.8438C90.9661 41.4375 90.6693 40.9635 90.4609 40.4219C90.2526 39.8802 90.1484 39.2995 90.1484 38.6797C90.1484 37.9401 90.2578 37.2786 90.4766 36.6953C90.6953 36.112 91.0026 35.6198 91.3984 35.2188C91.7943 34.8177 92.2656 34.5104 92.8125 34.2969C93.3646 34.0833 93.9714 33.9766 94.6328 33.9766ZM94.6172 41.9453C95.0755 41.9453 95.487 41.8672 95.8516 41.7109C96.2161 41.5547 96.5234 41.3333 96.7734 41.0469C97.0286 40.7552 97.224 40.401 97.3594 39.9844C97.5 39.5677 97.5755 39.0964 97.5859 38.5703C97.5859 38.0391 97.513 37.5625 97.3672 37.1406C97.2266 36.7188 97.026 36.3646 96.7656 36.0781C96.5104 35.7865 96.2031 35.5651 95.8438 35.4141C95.4844 35.2578 95.0859 35.1797 94.6484 35.1797C94.2057 35.1797 93.7995 35.25 93.4297 35.3906C93.0651 35.5312 92.75 35.7474 92.4844 36.0391C92.2188 36.3255 92.0104 36.6901 91.8594 37.1328C91.7135 37.5703 91.6406 38.0911 91.6406 38.6953C91.6406 39.1745 91.7083 39.612 91.8438 40.0078C91.9844 40.4036 92.1823 40.7474 92.4375 41.0391C92.6979 41.3255 93.0104 41.5495 93.375 41.7109C93.7448 41.8672 94.1589 41.9453 94.6172 41.9453ZM101.57 34.1172H104.93C106.44 34.1172 107.57 34.4792 108.32 35.2031C109.076 35.9271 109.453 37.0286 109.453 38.5078C109.453 39.9922 109.086 41.112 108.352 41.8672C107.622 42.6224 106.529 43 105.07 43H101.57V34.1172ZM103.023 41.7656H104.93C105.482 41.7656 105.951 41.7005 106.336 41.5703C106.721 41.4349 107.036 41.2318 107.281 40.9609C107.526 40.6901 107.703 40.349 107.812 39.9375C107.927 39.5208 107.984 39.0312 107.984 38.4688C107.984 37.8958 107.919 37.4115 107.789 37.0156C107.659 36.6198 107.464 36.2995 107.203 36.0547C106.943 35.8099 106.617 35.6354 106.227 35.5312C105.841 35.4219 105.391 35.3672 104.875 35.3672H103.023V41.7656ZM119.031 43H111.945V34.1172H118.805V35.3672H113.398V37.7812H118.453V39.0312H113.398V41.75H119.031V43ZM129.766 43H127.984L126.32 40.5703C126.128 40.2891 125.951 40.0573 125.789 39.875C125.633 39.6875 125.471 39.5391 125.305 39.4297C125.143 39.3151 124.966 39.237 124.773 39.1953C124.581 39.1484 124.357 39.125 124.102 39.125H122.836V43H121.383V34.1172H125.602C126.122 34.1172 126.591 34.1589 127.008 34.2422C127.424 34.3255 127.779 34.4635 128.07 34.6562C128.362 34.8438 128.586 35.0938 128.742 35.4062C128.898 35.7135 128.977 36.0964 128.977 36.5547C128.977 37.2318 128.75 37.7812 128.297 38.2031C127.849 38.6198 127.185 38.8854 126.305 39V39.0312C126.945 39.2865 127.544 39.8151 128.102 40.6172L129.766 43ZM122.836 38.0078H125.297C126.01 38.0078 126.555 37.8958 126.93 37.6719C127.305 37.4479 127.492 37.0755 127.492 36.5547C127.492 36.1432 127.331 35.8307 127.008 35.6172C126.69 35.3984 126.174 35.2891 125.461 35.2891H122.836V38.0078ZM139.133 43H137.648L133.07 36.2969H133.039V43H131.664V34.1172H133.133L137.711 40.8203H137.742V34.1172H139.133V43ZM143.523 43H142.07V34.1172H143.523V43ZM151.766 36.7578C151.719 36.2422 151.516 35.8438 151.156 35.5625C150.802 35.2812 150.292 35.1406 149.625 35.1406C149.333 35.1406 149.062 35.1693 148.812 35.2266C148.568 35.2786 148.354 35.3594 148.172 35.4688C147.99 35.5729 147.846 35.7031 147.742 35.8594C147.643 36.0104 147.594 36.1823 147.594 36.375C147.594 36.5469 147.63 36.6979 147.703 36.8281C147.776 36.9583 147.904 37.0755 148.086 37.1797C148.268 37.2839 148.518 37.3828 148.836 37.4766C149.154 37.5703 149.56 37.6667 150.055 37.7656C150.544 37.8698 150.997 37.9844 151.414 38.1094C151.831 38.2344 152.19 38.3984 152.492 38.6016C152.799 38.8047 153.039 39.0599 153.211 39.3672C153.383 39.6693 153.469 40.0495 153.469 40.5078C153.469 40.8932 153.383 41.2474 153.211 41.5703C153.039 41.8932 152.797 42.1719 152.484 42.4062C152.177 42.6354 151.807 42.8151 151.375 42.9453C150.943 43.0755 150.466 43.1406 149.945 43.1406C149.279 43.1406 148.693 43.0677 148.188 42.9219C147.688 42.776 147.266 42.5729 146.922 42.3125C146.583 42.0469 146.326 41.7292 146.148 41.3594C145.971 40.9896 145.872 40.5807 145.852 40.1328L147.242 40.0391C147.263 40.3672 147.346 40.6536 147.492 40.8984C147.638 41.138 147.828 41.3385 148.062 41.5C148.297 41.6615 148.568 41.7812 148.875 41.8594C149.182 41.9375 149.508 41.9766 149.852 41.9766C150.185 41.9766 150.487 41.9427 150.758 41.875C151.029 41.8073 151.26 41.7109 151.453 41.5859C151.646 41.4609 151.794 41.3125 151.898 41.1406C152.003 40.9635 152.055 40.7682 152.055 40.5547C152.055 40.3516 152.018 40.1745 151.945 40.0234C151.878 39.8724 151.74 39.7344 151.531 39.6094C151.328 39.4844 151.039 39.3698 150.664 39.2656C150.294 39.1562 149.81 39.0417 149.211 38.9219C148.68 38.8125 148.224 38.6797 147.844 38.5234C147.464 38.3672 147.154 38.1875 146.914 37.9844C146.674 37.776 146.497 37.5443 146.383 37.2891C146.273 37.0286 146.219 36.7396 146.219 36.4219C146.219 36.0677 146.297 35.7422 146.453 35.4453C146.609 35.1432 146.833 34.8854 147.125 34.6719C147.417 34.4531 147.768 34.2839 148.18 34.1641C148.596 34.0391 149.062 33.9766 149.578 33.9766C150.099 33.9766 150.576 34.0365 151.008 34.1562C151.445 34.276 151.82 34.4505 152.133 34.6797C152.445 34.9089 152.693 35.1901 152.875 35.5234C153.057 35.8568 153.159 36.237 153.18 36.6641L151.766 36.7578ZM165.062 43H163.703V35.9141H163.656L161 43H159.914L157.273 35.7812H157.242V43H155.883V34.1172H157.93L160.07 39.9453C160.174 40.2161 160.26 40.4792 160.328 40.7344C160.401 40.9896 160.458 41.2005 160.5 41.3672H160.516C160.573 41.2057 160.641 40.9922 160.719 40.7266C160.797 40.4557 160.896 40.1641 161.016 39.8516L163.211 34.1172H165.062V43ZM175.094 43H168.008V34.1172H174.867V35.3672H169.461V37.7812H174.516V39.0312H169.461V41.75H175.094V43ZM89.3359 56.25C89.6536 56.3333 89.9323 56.4479 90.1719 56.5938C90.4115 56.7396 90.6094 56.9089 90.7656 57.1016C90.9271 57.2943 91.0469 57.5026 91.125 57.7266C91.2031 57.9505 91.2422 58.1823 91.2422 58.4219C91.2422 58.875 91.1589 59.2656 90.9922 59.5938C90.8255 59.9167 90.5885 60.1823 90.2812 60.3906C89.974 60.599 89.6016 60.7526 89.1641 60.8516C88.7318 60.9505 88.2448 61 87.7031 61H84.0938V52.1172H87.6562C88.7031 52.1172 89.487 52.2943 90.0078 52.6484C90.5339 52.9974 90.7969 53.5469 90.7969 54.2969C90.7969 54.4792 90.7656 54.6641 90.7031 54.8516C90.6458 55.0391 90.5547 55.2188 90.4297 55.3906C90.3099 55.5625 90.1589 55.724 89.9766 55.875C89.7943 56.0208 89.5807 56.1458 89.3359 56.25ZM85.5469 55.7344H87.3984C87.6693 55.7344 87.9245 55.7161 88.1641 55.6797C88.4036 55.6432 88.612 55.5781 88.7891 55.4844C88.9714 55.3906 89.112 55.263 89.2109 55.1016C89.3151 54.9401 89.3672 54.7344 89.3672 54.4844C89.3672 54.2344 89.3151 54.0365 89.2109 53.8906C89.112 53.7396 88.9766 53.625 88.8047 53.5469C88.6328 53.4688 88.4297 53.4193 88.1953 53.3984C87.9661 53.3776 87.7188 53.3672 87.4531 53.3672H85.5469V55.7344ZM85.5469 59.75H87.6875C88.0885 59.75 88.4219 59.7161 88.6875 59.6484C88.9531 59.5755 89.1641 59.4792 89.3203 59.3594C89.4818 59.2344 89.5938 59.0885 89.6562 58.9219C89.724 58.7552 89.7578 58.5729 89.7578 58.375C89.7578 58.1719 89.7214 57.987 89.6484 57.8203C89.5807 57.6484 89.4609 57.5026 89.2891 57.3828C89.1172 57.263 88.888 57.1693 88.6016 57.1016C88.3203 57.0339 87.9688 57 87.5469 57H85.5469V59.75ZM101.43 61H99.8281L98.8516 58.4531H94.9766L94.0703 61H92.5469L96.0703 52.1172H97.6797L101.43 61ZM98.2891 57.2109L97.4141 54.875C97.3411 54.6823 97.2786 54.5182 97.2266 54.3828C97.1745 54.2422 97.1276 54.1172 97.0859 54.0078C97.0443 53.8932 97.0078 53.7812 96.9766 53.6719C96.9453 53.5625 96.9141 53.4401 96.8828 53.3047H96.8516C96.8255 53.4505 96.7969 53.5807 96.7656 53.6953C96.7396 53.8047 96.7083 53.9193 96.6719 54.0391C96.6406 54.1536 96.599 54.2812 96.5469 54.4219C96.5 54.5573 96.4401 54.724 96.3672 54.9219L95.5078 57.2109H98.2891ZM111.57 61H109.789L108.125 58.5703C107.932 58.2891 107.755 58.0573 107.594 57.875C107.438 57.6875 107.276 57.5391 107.109 57.4297C106.948 57.3151 106.771 57.237 106.578 57.1953C106.385 57.1484 106.161 57.125 105.906 57.125H104.641V61H103.188V52.1172H107.406C107.927 52.1172 108.396 52.1589 108.812 52.2422C109.229 52.3255 109.583 52.4635 109.875 52.6562C110.167 52.8438 110.391 53.0938 110.547 53.4062C110.703 53.7135 110.781 54.0964 110.781 54.5547C110.781 55.2318 110.555 55.7812 110.102 56.2031C109.654 56.6198 108.99 56.8854 108.109 57V57.0312C108.75 57.2865 109.349 57.8151 109.906 58.6172L111.57 61ZM104.641 56.0078H107.102C107.815 56.0078 108.359 55.8958 108.734 55.6719C109.109 55.4479 109.297 55.0755 109.297 54.5547C109.297 54.1432 109.135 53.8307 108.812 53.6172C108.495 53.3984 107.979 53.2891 107.266 53.2891H104.641V56.0078ZM121.258 58.1328C121.122 58.5911 120.94 59.0052 120.711 59.375C120.482 59.7448 120.203 60.0625 119.875 60.3281C119.547 60.5885 119.167 60.7891 118.734 60.9297C118.307 61.0703 117.831 61.1406 117.305 61.1406C116.602 61.1406 115.982 61.0312 115.445 60.8125C114.909 60.5885 114.458 60.2734 114.094 59.8672C113.734 59.4609 113.461 58.9714 113.273 58.3984C113.091 57.8255 113 57.1875 113 56.4844C113 55.7656 113.109 55.1276 113.328 54.5703C113.552 54.0078 113.859 53.5365 114.25 53.1562C114.641 52.7708 115.104 52.4792 115.641 52.2812C116.182 52.0781 116.773 51.9766 117.414 51.9766C117.935 51.9766 118.396 52.0391 118.797 52.1641C119.203 52.2891 119.555 52.4661 119.852 52.6953C120.148 52.9245 120.398 53.2005 120.602 53.5234C120.805 53.8411 120.969 54.1953 121.094 54.5859L119.672 54.8438C119.302 53.7344 118.534 53.1797 117.367 53.1797C116.898 53.1797 116.484 53.2552 116.125 53.4062C115.771 53.5573 115.474 53.776 115.234 54.0625C114.995 54.3438 114.812 54.6901 114.688 55.1016C114.568 55.5078 114.508 55.9688 114.508 56.4844C114.508 57.0885 114.573 57.6094 114.703 58.0469C114.839 58.4792 115.026 58.8359 115.266 59.1172C115.51 59.3984 115.802 59.6068 116.141 59.7422C116.484 59.8776 116.862 59.9453 117.273 59.9453C117.956 59.9453 118.508 59.7656 118.93 59.4062C119.357 59.0417 119.654 58.5286 119.82 57.8672L121.258 58.1328ZM130.648 61H123.562V52.1172H130.422V53.3672H125.016V55.7812H130.07V57.0312H125.016V59.75H130.648V61ZM138.883 61H133V52.1172H134.453V59.75H138.883V61ZM145.047 51.9766C145.708 51.9766 146.312 52.0885 146.859 52.3125C147.406 52.5312 147.875 52.8438 148.266 53.25C148.661 53.651 148.966 54.1328 149.18 54.6953C149.398 55.2578 149.508 55.8828 149.508 56.5703C149.508 57.2526 149.398 57.875 149.18 58.4375C148.966 59 148.664 59.4818 148.273 59.8828C147.883 60.2839 147.411 60.5938 146.859 60.8125C146.312 61.0312 145.708 61.1406 145.047 61.1406C144.359 61.1406 143.737 61.026 143.18 60.7969C142.628 60.5625 142.156 60.2448 141.766 59.8438C141.38 59.4375 141.083 58.9635 140.875 58.4219C140.667 57.8802 140.562 57.2995 140.562 56.6797C140.562 55.9401 140.672 55.2786 140.891 54.6953C141.109 54.112 141.417 53.6198 141.812 53.2188C142.208 52.8177 142.68 52.5104 143.227 52.2969C143.779 52.0833 144.385 51.9766 145.047 51.9766ZM145.031 59.9453C145.49 59.9453 145.901 59.8672 146.266 59.7109C146.63 59.5547 146.938 59.3333 147.188 59.0469C147.443 58.7552 147.638 58.401 147.773 57.9844C147.914 57.5677 147.99 57.0964 148 56.5703C148 56.0391 147.927 55.5625 147.781 55.1406C147.641 54.7188 147.44 54.3646 147.18 54.0781C146.924 53.7865 146.617 53.5651 146.258 53.4141C145.898 53.2578 145.5 53.1797 145.062 53.1797C144.62 53.1797 144.214 53.25 143.844 53.3906C143.479 53.5312 143.164 53.7474 142.898 54.0391C142.633 54.3255 142.424 54.6901 142.273 55.1328C142.128 55.5703 142.055 56.0911 142.055 56.6953C142.055 57.1745 142.122 57.612 142.258 58.0078C142.398 58.4036 142.596 58.7474 142.852 59.0391C143.112 59.3255 143.424 59.5495 143.789 59.7109C144.159 59.8672 144.573 59.9453 145.031 59.9453ZM159.453 61H157.969L153.391 54.2969H153.359V61H151.984V52.1172H153.453L158.031 58.8203H158.062V52.1172H159.453V61ZM170.086 61H168.484L167.508 58.4531H163.633L162.727 61H161.203L164.727 52.1172H166.336L170.086 61ZM166.945 57.2109L166.07 54.875C165.997 54.6823 165.935 54.5182 165.883 54.3828C165.831 54.2422 165.784 54.1172 165.742 54.0078C165.701 53.8932 165.664 53.7812 165.633 53.6719C165.602 53.5625 165.57 53.4401 165.539 53.3047H165.508C165.482 53.4505 165.453 53.5807 165.422 53.6953C165.396 53.8047 165.365 53.9193 165.328 54.0391C165.297 54.1536 165.255 54.2812 165.203 54.4219C165.156 54.5573 165.096 54.724 165.023 54.9219L164.164 57.2109H166.945Z" fill="#313131"/>
</svg>
