<svg width="120" height="120" viewBox="0 0 120 120" fill="none" xmlns="http://www.w3.org/2000/svg">
<circle cx="60" cy="60" r="60" fill="#7D1609"/>
<path fill-rule="evenodd" clip-rule="evenodd" d="M58.2873 90.7982C54.9657 91.179 52.0555 90.6592 49.3025 89.1883C48.3252 88.6668 47.5862 86.4851 47.7674 85.2124C48.5445 79.7152 49.3406 74.1749 50.8091 68.8355C52.5969 62.3622 53.6696 55.9176 53.4121 49.1908C53.3807 46.3519 53.6299 43.5168 54.1559 40.7272C54.6592 37.6293 56.0867 35.0769 58.1316 33.2401C57.3073 32.9053 56.3593 32.6726 55.2794 32.5315C49.5584 31.7804 46.2211 33.5937 45.3391 39.4881C44.3144 46.3899 43.8806 53.3671 44.0424 60.3432C44.155 66.1631 44.6078 71.9752 45.0607 77.7882C45.3171 81.0787 45.5735 84.3694 45.7682 87.6621C45.8302 88.6716 45.2915 90.5327 44.8147 90.6188C42.8522 90.9007 40.856 90.8441 38.9125 90.4513C38.4357 90.3604 38.0734 88.5376 38.0925 87.4898C38.2357 80.0656 38.4028 72.6486 38.5698 65.2328C38.7365 57.8337 38.9031 50.4359 39.046 43.0333C39.0639 42.0782 38.925 41.1213 38.7858 40.1624C38.7025 39.5891 38.6192 39.015 38.5692 38.4403C38.2307 34.9237 36.9149 32.3928 32.9483 31.8952C28.8578 31.3833 24.443 33.0004 22.6743 35.8089C20.3763 39.4689 20.3525 43.4926 20.8197 47.5258C22.0593 58.1424 21.6159 68.5771 18.2596 78.8253C16.6863 83.6336 17.4681 84.7436 21.8733 86.7195C22.7216 87.1003 23.47 87.6973 24.4312 88.464C24.9556 88.8823 25.5434 89.3511 26.2452 89.8629C21.0009 91.4465 16.7912 91.2695 12.8961 89.1883C11.9187 88.6668 11.1798 86.4851 11.3609 85.2124C12.138 79.7152 12.9342 74.1749 14.4026 68.8355C16.1904 62.3622 17.2631 55.9176 17.0057 49.1908C16.9743 46.3519 17.2234 43.5168 17.7494 40.7272C18.865 33.8616 24.5193 29.6753 31.375 30.0197C38.0496 30.3594 44.767 30.5412 51.4559 30.3834C55.0558 30.2952 57.8608 30.7334 59.9995 31.8623C62.213 30.5349 64.8904 29.8745 67.7815 30.0197C74.456 30.3594 81.1735 30.5412 87.8623 30.3834C96.8443 30.1633 100.878 33.2205 101.96 42.1051C102.279 44.7214 102.473 47.3606 102.667 50.0005C102.934 53.6365 103.202 57.2739 103.795 60.8551C104.47 64.9445 105.625 68.9562 106.779 72.9643C107.167 74.3114 107.555 75.6581 107.924 77.0072C108.195 77.9916 108.546 78.9552 108.897 79.9183C109.319 81.0757 109.741 82.2323 110.022 83.4231C111.185 88.3845 109.068 90.9824 104.072 90.9968H94.7323C94.6454 90.5337 94.5373 90.08 94.4296 89.6275C94.3837 89.4348 94.3378 89.2424 94.2937 89.0495C94.8577 88.795 95.4153 88.516 95.9728 88.237C97.1966 87.6247 98.4206 87.0123 99.7144 86.6573C103.576 85.5856 104.363 84.7101 103.075 80.9687C99.1566 69.5627 98.0028 57.8601 98.9611 45.8943C99.0549 44.4722 99.0771 43.0463 99.0278 41.6219C98.9039 35.8567 96.7394 33.1918 91.6859 32.5315C85.9648 31.7804 82.6275 33.5937 81.7456 39.4881C80.7209 46.3899 80.287 53.3671 80.4488 60.3432C80.5614 66.1631 81.0143 71.9751 81.4671 77.7881C81.7235 81.0786 81.9799 84.3694 82.1746 87.6621C82.2366 88.6716 81.6979 90.5327 81.2211 90.6188C79.2586 90.9007 77.2625 90.8441 75.3189 90.4513C74.8422 90.3604 74.4798 88.5376 74.4989 87.4898C74.6421 80.0658 74.8092 72.649 74.9762 65.2334C75.1429 57.8342 75.3095 50.4361 75.4524 43.0333C75.4703 42.0782 75.3314 41.1213 75.1922 40.1624C75.109 39.589 75.0256 39.015 74.9757 38.4403C74.6372 34.9237 73.3213 32.3928 69.3547 31.8952C66.7624 31.5708 64.0399 32.1014 61.9431 33.2485C63.9145 35.1165 65.0515 37.9839 65.5535 42.1051C65.8723 44.7214 66.0663 47.3606 66.2604 50.0005C66.5277 53.6365 66.7951 57.2739 67.389 60.8551C68.0634 64.9445 69.2185 68.9562 70.3726 72.9643C70.7605 74.3114 71.1483 75.6581 71.5176 77.0072C71.7883 77.9916 72.1396 78.9552 72.4907 79.9182C72.9126 81.0757 73.3343 82.2323 73.6153 83.4231C74.7786 88.3845 72.6618 90.9824 67.6655 90.9968H58.3259C58.3134 90.9304 58.3005 90.8642 58.2873 90.7982ZM60.1778 34.5027C59.7472 34.9018 59.3769 35.3386 59.0807 35.8089C56.7828 39.4689 56.7589 43.4926 57.2261 47.5258C58.4657 58.1424 58.0223 68.5771 54.666 78.8253C53.0927 83.6336 53.8746 84.7436 58.2798 86.7195C58.922 87.0078 59.507 87.4201 60.1705 87.9361C61.1947 87.4303 62.227 86.9539 63.3079 86.6573C67.1696 85.5856 67.9563 84.7101 66.6691 80.9687C62.7502 69.5627 61.5964 57.8601 62.5547 45.8943C62.6484 44.4722 62.6707 43.0463 62.6214 41.6219C62.5495 38.276 61.7902 35.9743 60.1778 34.5027Z" fill="#D9D9D6"/>
</svg>
