<svg width="66" height="68" viewBox="0 0 66 68" fill="none" xmlns="http://www.w3.org/2000/svg">
<path d="M33.015 16.9297C23.6454 16.9297 16.0878 24.5445 16.0878 33.9852C16.0878 43.4258 23.6454 51.0406 33.015 51.0406C42.3847 51.0406 49.9423 43.4258 49.9423 33.9852C49.9423 24.5445 42.3847 16.9297 33.015 16.9297ZM33.015 45.0734C26.9601 45.0734 22.0101 40.1008 22.0101 33.9852C22.0101 27.8695 26.9454 22.8969 33.015 22.8969C39.0847 22.8969 44.0199 27.8695 44.0199 33.9852C44.0199 40.1008 39.0699 45.0734 33.015 45.0734ZM54.5829 16.232C54.5829 18.4438 52.815 20.2102 50.6347 20.2102C48.4396 20.2102 46.6865 18.4289 46.6865 16.232C46.6865 14.0352 48.4543 12.2539 50.6347 12.2539C52.815 12.2539 54.5829 14.0352 54.5829 16.232ZM65.7941 20.2695C65.5436 14.9406 64.3356 10.2203 60.461 6.33126C56.6012 2.44219 51.9164 1.22501 46.6275 0.957819C41.1766 0.6461 24.8387 0.6461 19.3878 0.957819C14.1137 1.21016 9.42888 2.42735 5.55432 6.31641C1.67977 10.2055 0.486468 14.9258 0.221289 20.2547C-0.0880859 25.7469 -0.0880859 42.2086 0.221289 47.7008C0.471735 53.0297 1.67977 57.75 5.55432 61.6391C9.42888 65.5281 14.099 66.7453 19.3878 67.0125C24.8387 67.3242 41.1766 67.3242 46.6275 67.0125C51.9164 66.7602 56.6012 65.543 60.461 61.6391C64.3208 57.75 65.5289 53.0297 65.7941 47.7008C66.1034 42.2086 66.1034 25.7617 65.7941 20.2695ZM58.7521 53.5938C57.603 56.5031 55.3784 58.7445 52.4762 59.9172C48.1302 61.6539 37.8177 61.2531 33.015 61.2531C28.2124 61.2531 17.8851 61.6391 13.5539 59.9172C10.6664 58.7594 8.44182 56.518 7.27799 53.5938C5.55432 49.2149 5.95209 38.8242 5.95209 33.9852C5.95209 29.1461 5.56906 18.7406 7.27799 14.3766C8.42709 11.4672 10.6516 9.22579 13.5539 8.05313C17.8999 6.31641 28.2124 6.71719 33.015 6.71719C37.8177 6.71719 48.145 6.33126 52.4762 8.05313C55.3637 9.21094 57.5882 11.4524 58.7521 14.3766C60.4757 18.7555 60.078 29.1461 60.078 33.9852C60.078 38.8242 60.4757 49.2297 58.7521 53.5938Z" fill="white"/>
</svg>
