<svg width="76" height="62" viewBox="0 0 76 62" fill="none" xmlns="http://www.w3.org/2000/svg">
<path d="M68.1877 15.5203C68.236 16.1954 68.236 16.8707 68.236 17.5458C68.236 38.137 52.5635 61.863 23.9188 61.863C15.0939 61.863 6.89596 59.307 0 54.8707C1.25385 55.0153 2.45931 55.0635 3.76141 55.0635C11.043 55.0635 17.7461 52.6042 23.099 48.4088C16.2512 48.264 10.5126 43.7793 8.53545 37.6067C9.5 37.7512 10.4644 37.8477 11.4772 37.8477C12.8756 37.8477 14.2742 37.6548 15.5761 37.3174C8.43912 35.8705 3.08616 29.6016 3.08616 22.0305V21.8377C5.15969 22.9951 7.57105 23.7184 10.1267 23.8147C5.93127 21.0177 3.18265 16.2437 3.18265 10.8426C3.18265 7.94929 3.95408 5.29701 5.30441 2.98228C12.972 12.434 24.4974 18.6065 37.4211 19.2818C37.18 18.1244 37.0353 16.9189 37.0353 15.7133C37.0353 7.12947 43.9795 0.137177 52.6114 0.137177C57.0962 0.137177 61.1469 2.01788 63.9921 5.05595C67.5123 4.38086 70.888 3.07876 73.8779 1.29454C72.7204 4.91137 70.2611 7.94944 67.0302 9.87824C70.1648 9.54084 73.2028 8.67263 75.9997 7.46717C73.8782 10.5533 71.2258 13.302 68.1877 15.5203Z" fill="white"/>
</svg>
