<svg width="80" height="58" viewBox="0 0 80 58" fill="none" xmlns="http://www.w3.org/2000/svg">
<path d="M78.158 9.41857C77.2421 5.90802 74.5433 3.14323 71.1166 2.20495C64.9056 0.5 40 0.5 40 0.5C40 0.5 15.0946 0.5 8.8834 2.20495C5.45676 3.14337 2.75796 5.90802 1.84198 9.41857C0.177734 15.7816 0.177734 29.0576 0.177734 29.0576C0.177734 29.0576 0.177734 42.3335 1.84198 48.6966C2.75796 52.2072 5.45676 54.8568 8.8834 55.795C15.0946 57.5 40 57.5 40 57.5C40 57.5 64.9054 57.5 71.1166 55.795C74.5433 54.8568 77.2421 52.2072 78.158 48.6966C79.8223 42.3335 79.8223 29.0576 79.8223 29.0576C79.8223 29.0576 79.8223 15.7816 78.158 9.41857ZM31.8545 41.1112V17.004L52.6706 29.0579L31.8545 41.1112Z" fill="white"/>
</svg>
