<svg width="105" height="105" viewBox="0 0 105 105" fill="none" xmlns="http://www.w3.org/2000/svg">
<rect width="104.47" height="104.696" rx="52.235" fill="#313131"/>
<path fill-rule="evenodd" clip-rule="evenodd" d="M24.9184 26.6172H11.7127V59.2139H24.9184V26.6172ZM25.9764 69.5249C25.9664 68.0279 25.5062 66.5674 24.6541 65.3278C23.802 64.0882 22.5961 63.1251 21.1886 62.56C19.7811 61.9949 18.2352 61.8532 16.7461 62.1527C15.2569 62.4523 13.8912 63.1797 12.8215 64.2431C11.7517 65.3066 11.0258 66.6583 10.7354 68.1277C10.445 69.5972 10.6032 71.1184 11.1899 72.4994C11.7767 73.8803 12.7657 75.0591 14.032 75.8869C15.2984 76.7147 16.7854 77.1544 18.3054 77.1505C20.334 77.0942 22.2628 76.2706 23.6912 74.8506C25.1197 73.4307 25.938 71.5234 25.9764 69.5249ZM39.2227 31.8382C39.743 32.2515 40.0965 32.834 40.2198 33.4811H42.9972C42.6513 30.4749 40.2401 28.8516 37.3812 28.8516C33.3422 28.8516 30.9717 31.968 30.9717 35.6255C30.9717 39.2829 33.3117 42.2891 37.3812 42.2891C38.846 42.3406 40.2716 41.8177 41.3454 40.8352C42.4192 39.8527 43.0535 38.4909 43.1091 37.0484H40.3317C40.118 38.7619 39.1312 39.9243 37.3812 39.9243C34.8073 39.9243 33.8408 37.8701 33.8408 35.6255C33.8408 33.3809 34.8073 31.2265 37.3812 31.2265C38.0494 31.208 38.7023 31.4249 39.2227 31.8382ZM44.3911 35.6255C44.5336 33.1905 46.6904 32.479 48.8066 32.479C50.6786 32.479 52.927 32.8598 52.927 35.0844V39.9243C52.8923 40.6534 53.0172 41.3813 53.2932 42.0586H50.6582C50.5596 41.7533 50.5014 41.4367 50.4852 41.1167C50.0651 41.504 49.5705 41.8046 49.0306 42.0008C48.4907 42.197 47.9164 42.2848 47.3415 42.2591C45.5611 42.2591 44.1368 41.3672 44.1368 39.4633C44.1368 37.359 45.7442 36.848 47.3415 36.6375C47.588 36.6051 47.8311 36.5783 48.0659 36.5525C49.3531 36.4109 50.3937 36.2964 50.3937 35.415C50.3937 34.3729 49.6205 34.1825 48.715 34.1825C47.8095 34.1825 47.0872 34.4831 46.9956 35.6255H44.3911ZM50.3123 37.4392C49.6546 37.7766 48.9273 37.9616 48.1859 37.9803C47.3924 38.1406 46.6701 38.4112 46.6701 39.3431C46.6701 40.275 47.4026 40.5355 48.2368 40.5355C48.5219 40.5563 48.8082 40.5139 49.0744 40.4114C49.3407 40.3088 49.5802 40.1488 49.7755 39.9431C49.9707 39.7374 50.1165 39.4912 50.2024 39.2226C50.2883 38.954 50.3119 38.6699 50.2716 38.3911L50.3123 37.4392ZM59.896 32.7602H58.0139V29.9043H55.3992V32.7602H53.8019V34.3334H55.3992V39.8948C55.3992 41.7486 56.793 42.1093 58.3802 42.1093C58.8874 42.1183 59.3945 42.0848 59.896 42.0091V40.005C59.6352 40.0599 59.3692 40.0867 59.1025 40.0852C58.2275 40.0852 58.0139 39.8647 58.0139 39.003V34.3334H59.896V32.7602ZM60.8015 35.6255C60.9541 33.1905 63.1008 32.479 65.217 32.479C67.089 32.479 69.2865 32.8598 69.2865 35.0844V39.9243C69.2687 40.6654 69.4181 41.4013 69.724 42.0787H67.0788C66.9817 41.7726 66.9202 41.4566 66.8957 41.1368C66.4729 41.5292 65.9735 41.8329 65.4278 42.0293C64.8821 42.2257 64.3015 42.3107 63.7214 42.2791C61.941 42.2791 60.5167 41.3873 60.5167 39.4834C60.5167 37.3791 62.1241 36.868 63.7214 36.6576C63.9676 36.6251 64.2104 36.5984 64.4451 36.5726L64.4455 36.5726L64.4456 36.5726L64.4457 36.5725L64.4457 36.5725L64.4458 36.5725C65.733 36.4309 66.7736 36.3164 66.7736 35.4351C66.7736 34.3929 66.0004 34.2026 65.0949 34.2026C64.1894 34.2026 63.4671 34.5032 63.3755 35.6455L60.8015 35.6255ZM66.9058 37.4392C66.2192 37.7573 65.4763 37.9411 64.7184 37.9803C63.9147 38.1406 63.1618 38.4112 63.1618 39.3431C63.1618 40.275 63.9351 40.5355 64.7795 40.5355C65.0701 40.563 65.3633 40.526 65.6375 40.4272C65.9116 40.3284 66.1598 40.1704 66.3638 39.9647C66.5678 39.7589 66.7224 39.5108 66.8162 39.2385C66.91 38.9662 66.9406 38.6766 66.9058 38.3911V37.4392ZM73.7935 29.1924H71.2195L71.1788 42.0788H73.7935V29.1924ZM75.5129 35.6255C75.6553 33.1905 77.8529 32.479 79.969 32.479C81.8512 32.479 84.1301 32.8598 84.1301 35.0844V39.9243C84.0798 40.6473 84.1767 41.373 84.415 42.0586H81.7901C81.6882 41.7537 81.6266 41.4371 81.607 41.1167C81.1839 41.5087 80.6844 41.8121 80.1388 42.0084C79.5932 42.2048 79.0128 42.29 78.4328 42.259C76.6422 42.259 75.2178 41.3672 75.2178 39.4633C75.2178 37.359 76.8253 36.848 78.4328 36.6375C78.679 36.6053 78.9215 36.5787 79.1555 36.553C80.449 36.4112 81.4849 36.2975 81.4849 35.415C81.4849 34.3729 80.7219 34.1825 79.8063 34.1825C78.8906 34.1825 78.1784 34.4831 78.0869 35.6255H75.5129ZM81.5256 37.4392C80.853 37.7756 80.1127 37.9604 79.3586 37.9803C78.5549 38.1406 77.8122 38.4112 77.8122 39.3431C77.8122 40.275 78.5752 40.5355 79.4095 40.5355C79.6997 40.5633 79.9926 40.5265 80.2664 40.4276C80.5402 40.3288 80.7879 40.1705 80.9911 39.9646C81.1944 39.7586 81.348 39.5102 81.4405 39.2379C81.533 38.9655 81.5621 38.6761 81.5256 38.3911V37.4392ZM88.3421 32.7593H85.8801L85.8292 42.0784H88.4337V37.1183C88.4337 35.2344 89.0645 34.4528 90.4685 34.4528C91.669 34.4528 92.1064 35.2144 92.1064 36.7375V42.0784H94.7007V36.2866C94.7007 33.9818 93.9886 32.4888 91.2416 32.4888C90.6587 32.4663 90.0806 32.6009 89.5697 32.8781C89.0587 33.1553 88.6343 33.5647 88.3421 34.062V32.7593ZM35.1329 46.1974H38.0732L42.8956 59.1139H39.9147L38.8973 56.258H34.1155L33.0982 59.1139H30.1986L35.1329 46.1974ZM34.8074 54.1036H38.1851L36.5471 49.384L34.8074 54.1036ZM60.3233 57.6607C59.2551 57.6607 58.2886 57.2499 58.2886 56.1075L55.8367 56.1376C55.9486 58.5625 58.1258 59.4043 60.2725 59.4043C62.4191 59.4043 64.576 58.6026 64.576 56.1676C64.576 54.4341 63.0601 53.9331 61.5849 53.5523C61.2831 53.4744 60.9817 53.4091 60.6932 53.3465L60.6927 53.3464L60.6926 53.3464C59.5712 53.1034 58.6446 52.9026 58.6446 52.1695C58.6446 51.4179 59.4993 51.3077 60.0893 51.3077C61.0152 51.3077 61.7883 51.5582 61.8596 52.5603H64.3216C64.1182 50.2255 62.1953 49.5541 60.1606 49.5541C58.1258 49.5541 56.091 50.1854 56.091 52.5603C56.091 54.1936 57.5866 54.7147 59.0821 55.0353C59.3216 55.092 59.5479 55.1433 59.7604 55.1914C61.201 55.5175 62.0122 55.7011 62.0122 56.4783C62.0122 57.3701 61.066 57.6607 60.3233 57.6607ZM48.949 49.5244C48.2989 49.5359 47.6658 49.7308 47.1248 50.086C46.5838 50.4412 46.1576 50.9419 45.8969 51.5285H45.7952V49.775H43.3331V59.1141H45.9376V54.8854C45.9376 53.2521 46.6396 51.8793 48.5421 51.8793H48.9897V49.5345L48.949 49.5244ZM55.3992 49.7744V51.4879L53.5069 51.4979V56.1074C53.5069 56.9691 53.7205 57.1795 54.5955 57.1795C54.865 57.1802 55.134 57.1567 55.3992 57.1094V59.1235C54.8935 59.1906 54.3834 59.2208 53.8732 59.2137C52.286 59.2137 50.8922 58.853 50.8922 56.9992V51.518H49.8748V49.8045H50.8922V47.0889H53.5069V49.7744H55.3992Z" fill="#D9D9D6"/>
</svg>
