<svg width="105" height="106" viewBox="0 0 105 106" fill="none" xmlns="http://www.w3.org/2000/svg">
<rect x="0.530029" y="0.651855" width="104.47" height="104.696" rx="52.235" fill="#313131"/>
<g clip-path="url(#clip0_697_352)">
<path d="M59.045 35.9173C59.0749 27.6517 65.8383 20.9569 74.1108 21.0002C82.386 21.0435 89.0219 27.7706 88.9975 36.0931C88.9758 44.1667 82.2096 50.8669 74.0728 50.8723C65.7786 50.8777 59.0152 44.1478 59.045 35.92V35.9173ZM66.5657 38.1101L66.8181 38.1291C66.8181 39.481 66.8154 40.8329 66.8208 42.1848C66.8208 42.4092 66.8642 42.6337 66.905 42.8554C67.3555 45.3213 68.2403 46.0432 70.6477 45.3916C74.5206 44.3425 78.3638 43.1636 82.1634 41.8739C84.56 41.06 85.2656 39.5297 84.3401 37.1989C81.8975 31.0558 77.4328 27.1866 70.8784 25.8698C68.9948 25.4913 67.8603 26.2835 67.616 28.1762C67.1899 31.4776 66.905 34.7979 66.563 38.1074L66.5657 38.1101Z" fill="#D9D9D9"/>
<path d="M87.3121 84.4892C85.6429 84.4892 84.0579 84.5459 82.4837 84.4486C82.0956 84.4243 81.5528 83.9781 81.4008 83.5969C80.782 82.053 80.2881 80.4577 79.7154 78.7786C76.1437 78.7786 72.5747 78.757 69.0084 78.8165C68.6773 78.8219 68.205 79.3005 68.0612 79.6628C67.5428 80.9579 67.19 82.318 66.6553 83.605C66.4979 83.9835 65.9632 84.4243 65.5778 84.4486C64.0037 84.5432 62.4214 84.4892 60.6355 84.4892C60.8363 83.8294 60.9802 83.2914 61.1647 82.7668C64.1502 74.2227 67.152 65.6839 70.1076 57.1263C70.4387 56.1637 70.8865 55.7743 71.9314 55.8419C73.4649 55.9366 75.0092 55.8149 76.5426 55.9014C76.9552 55.9257 77.5794 56.2962 77.7043 56.6504C80.9421 65.7759 84.1257 74.9203 87.3148 84.062C87.3419 84.1404 87.3175 84.2377 87.3175 84.4892H87.3121ZM70.0669 73.5846H77.9458C76.6404 69.7721 75.3756 66.0733 73.9969 62.0472C72.6208 66.0895 71.3642 69.7748 70.0669 73.5846Z" fill="#D9D9D9"/>
<path d="M58.9799 68.4664C58.9799 70.9431 59.0179 73.4198 58.9718 75.8965C58.8578 82.1397 55.2291 85.4168 48.9623 84.9598C45.4421 84.703 42.4811 83.47 41.1648 79.9172C39.7833 76.1831 40.1524 72.66 42.9235 69.5858C43.9114 68.4907 45.13 67.8905 46.62 67.8823C48.0476 67.8769 49.2283 68.6773 49.6625 69.9292C50.1049 71.2108 49.7358 72.5789 48.604 73.4333C47.5618 74.2202 46.4572 74.9286 45.3634 75.6478C44.4841 76.2264 43.9467 76.9673 44.3674 78.0299C44.7799 79.0709 45.6267 79.3331 46.6988 79.1168C48.2485 78.8032 49.8172 78.5842 51.3588 78.2435C54.0213 77.6567 55.628 75.6883 55.1341 73.0359C54.7568 71.008 53.8015 69.072 52.9981 67.1388C52.0916 64.9514 50.8323 62.8829 50.1592 60.636C49.4047 58.1106 51.253 55.6312 53.758 55.2608C56.4965 54.8552 58.8768 56.6452 58.9935 59.422C59.121 62.4341 59.0233 65.4543 59.0233 68.4691H58.9772L58.9799 68.4664Z" fill="#D9D9D9"/>
<path d="M28.5686 50.3858C26.8506 50.3858 25.1326 50.402 23.4173 50.3831C20.4156 50.3506 18.5917 48.7797 18.1711 45.8136C17.6798 42.3499 18.2932 38.9566 19.3272 35.6985C20.44 32.197 21.778 28.7469 23.3196 25.4131C23.9629 24.026 25.2385 22.7957 26.4978 21.8575C28.1561 20.6218 30.3572 20.9598 31.736 22.2739C33.093 23.5663 33.4458 25.5483 32.4226 27.3625C31.8608 28.3603 30.9923 29.193 30.2459 30.0853C28.1398 32.5972 25.8844 35.0009 23.9602 37.6426C22.6601 39.4271 21.9273 41.5685 22.5027 43.8992C23.0347 46.0488 24.3048 46.7626 26.3214 45.7811C28.0177 44.9537 29.5593 43.8235 31.2013 42.8826C31.9748 42.4365 32.789 41.9579 33.6439 41.7713C35.9075 41.2792 38.0543 42.7366 38.5428 44.9565C39.0748 47.3737 37.8046 49.8153 35.4515 50.1316C33.1934 50.4344 30.8647 50.1965 28.5659 50.1965V50.3858H28.5686Z" fill="#D9D9D9"/>
<path d="M28.6719 60.9358H19.5364V55.9526H43.2492V60.9358H34.2141V84.3754H28.6719V60.9358Z" fill="#D9D9D9"/>
<path d="M41.4631 21.8521H46.8343V45.2457H59.9514V50.2803H41.4631V21.8521Z" fill="#D9D9D9"/>
</g>
<defs>
<clipPath id="clip0_697_352">
<rect width="71" height="64" fill="white" transform="translate(18 21)"/>
</clipPath>
</defs>
</svg>
