<svg width="105" height="105" viewBox="0 0 105 105" fill="none" xmlns="http://www.w3.org/2000/svg">
<rect x="0.176758" width="104.47" height="104.696" rx="52.235" fill="#313131"/>
<path fill-rule="evenodd" clip-rule="evenodd" d="M9.16275 34.3278C9.15013 34.1184 9.06926 33.9189 8.93257 33.76C8.77 33.5615 8.56413 33.4031 8.33081 33.2969C8.09749 33.1908 7.84296 33.1398 7.58685 33.1478L8.87945 34.5408C8.95489 34.4474 9.05223 34.3743 9.16275 34.3278ZM9.83071 34.9356C9.83071 34.8275 9.78789 34.7238 9.71166 34.6472V34.6561C9.63531 34.5797 9.53182 34.5368 9.42393 34.5368C9.31603 34.5368 9.21255 34.5797 9.13619 34.6561C9.09872 34.6933 9.06897 34.7375 9.04866 34.7862C9.02836 34.8349 9.0179 34.8872 9.0179 34.94C9.0179 34.9929 9.02836 35.0451 9.04866 35.0939C9.06897 35.1426 9.09872 35.1868 9.13619 35.224C9.21364 35.2983 9.31672 35.3397 9.42393 35.3397C9.53114 35.3397 9.63422 35.2983 9.71166 35.224C9.78789 35.1474 9.83071 35.0437 9.83071 34.9356ZM10.1632 33.7955C10.0326 33.6059 9.94224 33.3915 9.89758 33.1655L9.51689 34.248C9.60701 34.2568 9.69438 34.284 9.77364 34.3278C9.85031 34.1169 9.98544 33.9322 10.1632 33.7955ZM15.1361 33.1646L15.3336 33.1034L15.3159 33.1389C15.2559 33.1471 15.196 33.1557 15.1361 33.1646ZM15.1361 33.1646C13.3756 33.4254 11.6672 33.9647 10.0747 34.7626C10.0969 34.8439 10.0969 34.9297 10.0747 35.011C10.2938 35.1281 10.5352 35.1976 10.7829 35.2151C11.4633 35.2396 11.9489 34.8763 12.5239 34.446C12.9888 34.0981 13.5123 33.7064 14.2446 33.4406L15.1361 33.1646ZM10.6243 36.1601L10.6413 36.1733V36.2266C10.635 36.2045 10.6293 36.1824 10.6243 36.1601ZM9.8179 35.5345L10.6243 36.1601C10.5774 35.9538 10.5831 35.7386 10.6413 35.5345H9.8179ZM7.46291 42.2155C7.61824 41.3009 7.87971 40.4076 8.242 39.5538V39.536C8.44279 39.0186 8.72503 38.584 8.9863 38.1816C9.45083 37.4663 9.84908 36.853 9.60542 36.058C9.58031 35.8999 9.51643 35.7505 9.4195 35.6232C9.33462 35.6387 9.24764 35.6387 9.16275 35.6232C8.27388 37.7243 7.70103 39.9459 7.46291 42.2155ZM8.69353 35.0199C8.69353 35.0199 7.78163 35.3216 7.60456 35.3925C7.83786 35.4823 8.06298 35.5922 8.27742 35.7208C8.39124 35.5159 8.55988 35.3469 8.76435 35.2328L8.69353 35.0199ZM7.83021 34.5184C7.83173 34.514 7.83324 34.5097 7.83475 34.5053V34.523C7.83323 34.5215 7.83172 34.5199 7.83021 34.5184ZM7.25928 35.5345C7.50797 35.2322 7.70126 34.8882 7.83021 34.5184C7.6227 34.3045 7.46835 34.0447 7.37973 33.7598C7.29046 33.4729 7.27042 33.1689 7.32125 32.8727C7.61096 32.8372 7.90491 32.8648 8.18301 32.9536C8.4611 33.0424 8.71678 33.1904 8.93257 33.3873C9.30826 33.2786 9.66189 33.1044 9.97726 32.8727C10.064 33.149 10.1829 33.414 10.3314 33.6624C11.4119 32.9163 12.3551 32.9613 13.8616 33.0331C14.3795 33.0578 14.964 33.0857 15.6434 33.0857C15.034 33.3067 14.442 33.5737 13.8728 33.8842C13.3142 34.1623 12.9365 34.4596 12.6037 34.7214C12.0872 35.1278 11.6791 35.4489 10.8715 35.4813C10.8086 35.8065 10.8086 36.1409 10.8715 36.4661C10.5792 36.4155 10.2819 36.4006 9.98612 36.4218C10.0106 36.9751 9.85186 37.521 9.5346 37.9745C9.48092 38.0551 9.44219 38.1175 9.39827 38.1883C9.34077 38.2809 9.27437 38.3878 9.1539 38.5689C8.39615 39.8281 7.80116 41.1787 7.38322 42.5882L7.32125 38.0099C7.35507 37.2872 7.61181 36.5928 8.05608 36.0225C7.81211 35.8268 7.54437 35.6628 7.25928 35.5345ZM9.16275 60.5462C9.15013 60.7557 9.06926 60.9551 8.93257 61.1141C8.76738 61.3077 8.56034 61.4611 8.32716 61.5625C8.09399 61.664 7.84081 61.7109 7.58685 61.6997L8.85289 60.3776C8.93859 60.4615 9.04587 60.5199 9.16275 60.5462ZM9.7992 60.0967C9.77889 60.1455 9.74914 60.1897 9.71166 60.2268C9.65524 60.2852 9.58271 60.3254 9.50336 60.3422C9.42401 60.359 9.34146 60.3517 9.26628 60.3212C9.1911 60.2907 9.12672 60.2384 9.08139 60.171C9.03606 60.1036 9.01184 60.0242 9.01184 59.9429C9.01184 59.8616 9.03606 59.7822 9.08139 59.7148C9.12672 59.6474 9.1911 59.5951 9.26628 59.5646C9.34146 59.5341 9.42401 59.5268 9.50336 59.5436C9.58271 59.5604 9.65524 59.6006 9.71166 59.659C9.74914 59.6961 9.77889 59.7403 9.7992 59.789C9.8195 59.8378 9.82996 59.8901 9.82996 59.9429C9.82996 59.9957 9.8195 60.048 9.7992 60.0967ZM10.1632 61.0786C10.0308 61.2704 9.94033 61.4881 9.89758 61.7174L9.51689 60.6349C9.60846 60.627 9.69666 60.5965 9.77364 60.5462C9.84802 60.7584 9.9836 60.9437 10.1632 61.0786ZM15.0041 61.6632L15.3336 61.7706L15.3159 61.7085C15.2117 61.6944 15.1078 61.6793 15.0041 61.6632ZM15.0041 61.6632L14.2446 61.4157C13.5123 61.1499 12.9888 60.7582 12.5239 60.4103C11.9489 59.98 11.4633 59.6167 10.7829 59.6412C10.5352 59.6587 10.2938 59.7282 10.0747 59.8453C10.096 59.9267 10.096 60.0123 10.0747 60.0937C11.6278 60.8687 13.2906 61.398 15.0041 61.6632ZM9.8179 59.3484L10.6413 58.6741C10.5773 58.9003 10.5773 59.1399 10.6413 59.3662C10.4125 59.3829 10.1895 59.4463 9.98612 59.5525L9.8179 59.3484ZM7.46291 52.6408C7.61949 53.5551 7.88092 54.4483 8.242 55.3025V55.3203C8.44175 55.8318 8.7221 56.2626 8.98224 56.6623C9.4485 57.3787 9.84979 57.9953 9.60542 58.7983C9.57962 58.9535 9.51573 59.0999 9.4195 59.2242C9.33462 59.2087 9.24764 59.2087 9.16275 59.2242C8.27534 57.1257 7.70253 54.9072 7.46291 52.6408ZM8.69353 59.8719C8.69353 59.8719 7.78163 59.5614 7.60456 59.4904C7.83562 59.3989 8.0604 59.2922 8.27742 59.171C8.39255 59.3726 8.56107 59.5384 8.76435 59.6501L8.69353 59.8719ZM7.25928 59.3839C7.50613 59.6799 7.70075 60.016 7.83475 60.3776C7.62246 60.5879 7.46225 60.8451 7.36693 61.1286C7.27162 61.4121 7.24384 61.714 7.28584 62.0102C7.58317 62.0475 7.88507 62.0184 8.16981 61.9248C8.45455 61.8312 8.71505 61.6755 8.93257 61.469C9.30642 61.6106 9.65365 61.8146 9.95956 62.0723C10.0538 61.7861 10.1816 61.5121 10.3403 61.256C11.4163 61.999 12.3562 61.9526 13.8518 61.8788C14.3743 61.853 14.9646 61.8239 15.6523 61.8239C15.0431 61.6055 14.4513 61.3415 13.8816 61.0342C13.3253 60.7537 12.9484 60.4557 12.6166 60.1933C12.0982 59.7835 11.69 59.4607 10.8803 59.4283C10.8175 59.106 10.8175 58.7746 10.8803 58.4523C10.5863 58.4884 10.289 58.4884 9.99497 58.4523C10.0078 57.9102 9.84642 57.3783 9.5346 56.9351L9.1539 56.3495C8.39776 55.0895 7.80286 53.7391 7.38322 52.3302L7.32125 56.9085C7.35848 57.6305 7.61486 58.3239 8.05608 58.8959C7.80994 59.0885 7.5426 59.2523 7.25928 59.3839ZM30.6145 34.3278C30.6303 34.1175 30.7142 33.9181 30.8535 33.76C31.0155 33.5695 31.2182 33.4179 31.4465 33.3165C31.6749 33.2151 31.9231 33.1666 32.1727 33.1744L30.9067 34.5408C30.8287 34.4463 30.7282 34.373 30.6145 34.3278ZM29.9843 34.9231C29.9771 34.8243 30.006 34.7263 30.0656 34.6472C30.1419 34.5709 30.2454 34.5279 30.3533 34.5279C30.4612 34.5279 30.5647 34.5709 30.6411 34.6472C30.6785 34.6844 30.7083 34.7286 30.7286 34.7773C30.7489 34.8261 30.7593 34.8784 30.7593 34.9312C30.7593 34.984 30.7489 35.0363 30.7286 35.085C30.7083 35.1337 30.6785 35.178 30.6411 35.2151C30.5631 35.276 30.4658 35.3065 30.3671 35.3008C30.2684 35.2951 30.1752 35.2537 30.1047 35.1842C30.0343 35.1147 29.9915 35.0219 29.9843 34.9231ZM29.6229 33.7955C29.7493 33.6014 29.8365 33.3844 29.8797 33.1567L30.2604 34.248C30.1695 34.2529 30.0813 34.2803 30.0036 34.3278C29.9341 34.1155 29.8012 33.9297 29.6229 33.7955ZM24.625 33.1609L24.4437 33.1034L24.4083 33.13C24.4806 33.1399 24.5528 33.1501 24.625 33.1609ZM25.4795 33.4317L24.625 33.1609C26.372 33.4211 28.0676 33.9555 29.6495 34.7448C29.637 34.8302 29.637 34.9168 29.6495 35.0021C29.4276 35.1124 29.1876 35.1815 28.9412 35.2062C28.268 35.2062 27.7856 34.8504 27.2185 34.4323C26.749 34.086 26.2214 33.697 25.4795 33.4317ZM29.9239 35.4901L29.1094 36.1645C29.1712 35.9379 29.1712 35.6989 29.1094 35.4724C29.3362 35.4606 29.5573 35.3968 29.7557 35.2861L29.9239 35.4901ZM32.2878 42.2067C32.1336 41.2917 31.8721 40.3983 31.5087 39.5449V39.5272C31.3083 39.0108 31.0269 38.577 30.7661 38.1749C30.3008 37.4577 29.9013 36.8419 30.1453 36.0402C30.1711 35.885 30.235 35.7387 30.3312 35.6144C30.4161 35.6298 30.503 35.6298 30.5879 35.6144C31.4768 37.7154 32.0497 39.9371 32.2878 42.2067ZM31.0572 35.011C31.0572 35.011 31.9691 35.3127 32.1461 35.3837C31.9128 35.4735 31.6877 35.5833 31.4733 35.712C31.3654 35.5026 31.1952 35.3321 30.9863 35.224L31.0572 35.011ZM32.4914 35.5345C32.2428 35.2233 32.0482 34.8724 31.9159 34.4964L31.9514 34.5142C32.1528 34.2964 32.3015 34.035 32.386 33.7504C32.4704 33.4657 32.4883 33.1654 32.4383 32.8727C32.1483 32.8304 31.8527 32.8514 31.5716 32.934C31.2904 33.0167 31.0304 33.1592 30.8093 33.3519C30.4434 33.2288 30.1019 33.0427 29.8 32.8018C29.7058 33.0908 29.578 33.3678 29.4193 33.6269C28.3388 32.8808 27.3955 32.9258 25.8891 32.9976C25.3712 33.0223 24.7867 33.0502 24.1073 33.0502C24.7174 33.2696 25.3095 33.5365 25.8779 33.8487C26.4367 34.127 26.8159 34.4243 27.1499 34.6862C27.6679 35.0924 28.0772 35.4134 28.8792 35.4458C28.942 35.7681 28.942 36.0995 28.8792 36.4218C29.1735 36.3898 29.4703 36.3898 29.7646 36.4218C29.7414 36.9749 29.9 37.5204 30.2161 37.9745C30.2642 38.0467 30.3003 38.1043 30.3389 38.1659C30.3997 38.263 30.4667 38.37 30.5968 38.56C31.3582 39.8205 31.9534 41.1744 32.3675 42.5882L32.4294 38.0099C32.394 37.2848 32.1375 36.5881 31.6946 36.0136C31.9422 35.8257 32.2094 35.665 32.4914 35.5345ZM30.6145 60.5462C30.6303 60.7566 30.7142 60.956 30.8535 61.1141C31.0155 61.3046 31.2182 61.4562 31.4465 61.5575C31.6749 61.6589 31.9231 61.7075 32.1727 61.6997L30.9067 60.3333C30.8287 60.4278 30.7282 60.501 30.6145 60.5462ZM29.9843 59.951C29.9771 60.0497 30.006 60.1478 30.0656 60.2268C30.1419 60.3032 30.2454 60.3461 30.3533 60.3461C30.4612 60.3461 30.5647 60.3032 30.6411 60.2268C30.6785 60.1897 30.7083 60.1455 30.7286 60.0967C30.7489 60.048 30.7593 59.9957 30.7593 59.9429C30.7593 59.8901 30.7489 59.8378 30.7286 59.789C30.7083 59.7403 30.6785 59.6961 30.6411 59.659C30.5631 59.598 30.4658 59.5675 30.3671 59.5732C30.2684 59.5789 30.1752 59.6204 30.1047 59.6899C30.0343 59.7594 29.9915 59.8522 29.9843 59.951ZM29.6229 61.0786C29.7493 61.2727 29.8365 61.4897 29.8797 61.7174L30.2604 60.6261C30.1688 60.6256 30.0794 60.5978 30.0036 60.5462C29.9341 60.7585 29.8012 60.9444 29.6229 61.0786ZM24.625 61.7132L24.4437 61.7706L24.4083 61.744C24.4806 61.7342 24.5528 61.7239 24.625 61.7132ZM25.4795 61.4423L24.625 61.7132C26.372 61.453 28.0676 60.9185 29.6495 60.1292C29.637 60.0439 29.637 59.9572 29.6495 59.8719C29.4292 59.7576 29.1884 59.6883 28.9412 59.6678C28.268 59.6678 27.7856 60.0236 27.2185 60.4418C26.749 60.788 26.2214 61.1771 25.4795 61.4423ZM29.9239 59.3839L29.1094 58.7096C29.1716 58.9361 29.1716 59.1752 29.1094 59.4017C29.3362 59.4135 29.5573 59.4772 29.7557 59.588L29.9239 59.3839ZM32.273 52.7444C32.1172 53.6294 31.8608 54.4936 31.5087 55.3203V55.338C31.3083 55.8543 31.0269 56.2882 30.7661 56.6903C30.3008 57.4075 29.9013 58.0233 30.1453 58.8249C30.1711 58.9802 30.235 59.1265 30.3312 59.2508C30.4161 59.2353 30.503 59.2353 30.5879 59.2508C31.469 57.1681 32.0396 54.9669 32.2815 52.7179C32.3235 52.5863 32.364 52.4541 32.4029 52.3214L32.4649 56.9085C32.4276 57.6305 32.1712 58.3239 31.73 58.8959C31.9777 59.0839 32.2448 59.2445 32.5268 59.375C32.2798 59.6742 32.0852 60.0132 31.9514 60.3776C32.1688 60.5953 32.3312 60.8618 32.4252 61.155C32.5191 61.4482 32.5418 61.7596 32.4914 62.0634C32.1928 62.0997 31.8898 62.07 31.6038 61.9765C31.3178 61.883 31.0557 61.7279 30.8358 61.5222C30.47 61.6452 30.1284 61.8314 29.8265 62.0723C29.7324 61.7832 29.6046 61.5063 29.4458 61.2471C28.3679 61.9981 27.4266 61.9519 25.9263 61.8783C25.4058 61.8527 24.818 61.8239 24.1338 61.8239C24.7454 61.6081 25.3378 61.341 25.9045 61.0253C26.4633 60.7471 26.8425 60.4497 27.1765 60.1878C27.6945 59.7816 28.1038 59.4606 28.9058 59.4283C28.9686 59.106 28.9686 58.7746 28.9058 58.4523C29.2 58.4843 29.4969 58.4843 29.7911 58.4523C29.7783 57.9102 29.9397 57.3783 30.2515 56.9351C30.2996 56.8628 30.3357 56.8052 30.3743 56.7436C30.4351 56.6465 30.5022 56.5396 30.6322 56.3495C31.3173 55.2154 31.8679 54.0054 32.273 52.7444ZM32.273 52.7444C32.278 52.7158 32.283 52.6872 32.2878 52.6585C32.2857 52.6783 32.2836 52.6981 32.2815 52.7179C32.2787 52.7268 32.2758 52.7356 32.273 52.7444ZM31.0572 59.863C31.0572 59.863 31.9691 59.5614 32.1461 59.4904C31.9128 59.4006 31.6877 59.2908 31.4733 59.1621C31.3654 59.3714 31.1952 59.542 30.9863 59.6501L31.0572 59.863ZM30.6676 47.4193C30.6676 50.1448 29.917 52.8174 28.4985 55.1428V56.1188C30.2685 53.5645 31.217 50.5291 31.217 47.4193C31.217 44.3095 30.2685 41.274 28.4985 38.7197V39.6957C29.917 42.0212 30.6676 44.6938 30.6676 47.4193ZM23.6292 59.4904V60.076V60.0937C24.4248 59.7605 25.177 59.3315 25.8691 58.8161V58.124C25.1853 58.6756 24.4322 59.135 23.6292 59.4904ZM18.7598 60.768C19.1228 60.8301 19.5035 60.8301 19.8753 60.8301C20.0668 60.8301 20.256 60.8144 20.4442 60.7988C20.6301 60.7834 20.8149 60.768 20.9997 60.768V60.2002C20.6271 60.2506 20.2513 60.2743 19.8753 60.2712C19.5023 60.2746 19.1295 60.2509 18.7598 60.2002V60.768ZM13.8816 58.1151V58.8072V58.8161C14.5781 59.3272 15.3331 59.7531 16.1304 60.0848V59.4904C15.3267 59.1272 14.5714 58.6653 13.8816 58.1151ZM11.2964 38.7109C9.49489 41.2551 8.54062 44.3042 8.56958 47.4237H8.53416C8.51674 50.547 9.48341 53.5961 11.2964 56.1366V55.1606C9.87178 52.8325 9.11773 50.1547 9.11773 47.4237C9.11773 44.6927 9.87178 42.015 11.2964 39.6869V38.7109ZM16.1658 35.3659V34.7626C15.3682 35.0974 14.6133 35.5263 13.917 36.0402V36.7323C14.6053 36.1825 15.361 35.7233 16.1658 35.3659ZM21.0351 34.0794C20.6619 34.0364 20.2864 34.0156 19.9108 34.0173L19.8753 34.0262C19.5026 34.0245 19.1301 34.0452 18.7598 34.0883V34.6472C19.1416 34.5995 19.526 34.5758 19.9108 34.5763C20.2866 34.5775 20.6621 34.6012 21.0351 34.6472V34.0794ZM25.9045 36.7323V36.0402C25.2122 35.5274 24.46 35.1013 23.6646 34.7715V35.3659C24.4658 35.7247 25.2185 36.1838 25.9045 36.7323ZM30.3044 47.4193C30.3044 45.0103 29.705 42.6393 28.5605 40.5209V54.3177C29.705 52.1993 30.3044 49.8283 30.3044 47.4193ZM25.8691 37.309C25.2099 36.7279 24.4777 36.2358 23.6912 35.845H23.6292V59.0024C24.4365 58.6219 25.1897 58.1356 25.8691 57.5562V37.309ZM19.9373 35.0021C19.5644 35.0031 19.1919 35.0268 18.8218 35.0731V59.7654C19.1912 59.8191 19.564 59.8458 19.9373 59.8453C20.3135 59.8455 20.6893 59.8188 21.0617 59.7654V35.0731C20.6886 35.0271 20.3132 35.0034 19.9373 35.0021ZM16.1304 35.8628C15.3203 36.2431 14.5641 36.7294 13.8816 37.309V57.565C14.5665 58.1389 15.3223 58.622 16.1304 59.0024V35.8628ZM9.4721 47.4503C9.4721 49.8648 10.0749 52.2408 11.2256 54.3621V54.3354V40.5386C10.0749 42.6599 9.4721 45.0359 9.4721 47.4503ZM7.4452 47.4503C7.4452 39.4739 13.014 33.0058 19.8399 33.0058C26.7013 33.0058 32.2347 39.4739 32.2347 47.4503C32.2347 55.4268 26.7013 61.8948 19.8399 61.8948C12.9786 61.8948 7.4452 55.4268 7.4452 47.4503ZM43.6025 38.8616H40.6454V39.4294H43.0182C43.0493 40.0979 42.828 40.7537 42.3984 41.266C42.1704 41.504 41.8948 41.6911 41.5897 41.8149C41.2845 41.9388 40.9567 41.9966 40.6277 41.9847C40.0907 41.9989 39.5632 41.8403 39.1227 41.5322C38.7289 41.2424 38.4226 40.8495 38.2373 40.3965C38.0557 39.9271 37.9655 39.4271 37.9717 38.9237C37.964 38.4201 38.0542 37.9198 38.2373 37.4508C38.4226 36.9979 38.7289 36.6049 39.1227 36.3151C39.5601 35.9998 40.0891 35.8377 40.6277 35.8538C41.0279 35.851 41.4228 35.9454 41.7787 36.1288C42.0797 36.2896 42.3401 36.5172 42.5401 36.7943C42.7145 37.0319 42.8271 37.3094 42.8676 37.6017H43.5317C43.4352 36.9166 43.0764 36.296 42.5312 35.8715C41.9783 35.4718 41.3092 35.2659 40.6277 35.2859C39.9782 35.2713 39.3393 35.4538 38.7951 35.8094C38.3158 36.1393 37.9385 36.5973 37.7061 37.1314C37.4704 37.6932 37.349 38.2965 37.349 38.9059C37.349 39.5154 37.4704 40.1187 37.7061 40.6804C37.9384 41.217 38.3155 41.678 38.7951 42.0113C39.3403 42.3638 39.9791 42.5432 40.6277 42.5259C41.1142 42.5364 41.5954 42.4235 42.0266 42.1976C42.4683 41.9523 42.8215 41.5735 43.0359 41.1152L43.1244 42.384H43.6025V38.8616ZM56.2273 46.0751C56.5089 46.4307 56.6866 46.8576 56.7408 47.3083L56.0768 47.264C55.9759 46.769 55.699 46.3276 55.2977 46.0218C54.908 45.7271 54.4313 45.571 53.9432 45.5782C53.4086 45.5621 52.8834 45.721 52.4469 46.0307C52.0513 46.3184 51.7444 46.712 51.5616 47.1664C51.38 47.6358 51.2898 48.1358 51.296 48.6392C51.2882 49.1428 51.3785 49.6431 51.5616 50.1121C51.7455 50.5683 52.0519 50.9644 52.4469 51.2566C52.8834 51.5664 53.4086 51.7252 53.9432 51.7091C54.232 51.7139 54.5187 51.6588 54.7853 51.5473C55.0519 51.4359 55.2927 51.2705 55.4925 51.0614C55.8869 50.621 56.1264 50.0631 56.1742 49.4732H56.8382C56.787 50.2355 56.4742 50.9565 55.9529 51.5139C55.6895 51.7668 55.3785 51.9645 55.038 52.0955C54.6974 52.2265 54.3343 52.2882 53.9697 52.277C53.3227 52.2932 52.6863 52.1105 52.1459 51.7535C51.6601 51.4285 51.2787 50.9693 51.0481 50.4315C50.8124 49.8697 50.691 49.2664 50.691 48.657C50.691 48.0475 50.8124 47.4442 51.0481 46.8825C51.2807 46.3435 51.6615 45.8819 52.1459 45.5516C52.6034 45.2656 53.1224 45.093 53.6598 45.0483C54.1972 45.0035 54.7374 45.0879 55.2358 45.2943C55.624 45.471 55.9641 45.7388 56.2273 46.0751ZM38.1488 48.6309C38.0199 48.9562 37.948 49.3014 37.9363 49.6512V49.6778C37.933 50.028 37.9899 50.3762 38.1045 50.707C38.2111 51.0141 38.3939 51.2888 38.6357 51.5056C38.9176 51.7257 39.2709 51.8332 39.6273 51.8072C39.9999 51.8198 40.3655 51.7039 40.6631 51.4789C40.923 51.2713 41.1194 50.9946 41.2298 50.6804C41.442 50.0138 41.442 49.2975 41.2298 48.6309C41.1221 48.3153 40.9252 48.0379 40.6631 47.8323C40.3655 47.6073 39.9999 47.4915 39.6273 47.504C39.2825 47.4965 38.9465 47.613 38.68 47.8323C38.4364 48.0475 38.2532 48.3228 38.1488 48.6309ZM41.3448 45.2149H41.9646V52.1887H41.398V51.2394C41.2431 51.5714 40.9895 51.8473 40.672 52.029C40.349 52.2267 39.9791 52.3339 39.6007 52.3396C39.1506 52.3478 38.7088 52.2178 38.3347 51.9669C38 51.722 37.742 51.3865 37.591 50.9998C37.2581 50.1439 37.2581 49.194 37.591 48.3381C37.742 47.9514 38 47.6159 38.3347 47.371C38.7088 47.1201 39.1506 46.9901 39.6007 46.9983C39.9711 46.9956 40.3352 47.0937 40.6543 47.2822C40.9727 47.4649 41.2171 47.7538 41.3448 48.0985V45.2149ZM37.6264 61.939H40.6277C41.2497 61.9569 41.8639 61.7969 42.3984 61.4776C42.8722 61.1797 43.2431 60.743 43.4608 60.2266C43.702 59.6666 43.8227 59.062 43.8149 58.4521C43.83 57.7854 43.6842 57.1249 43.39 56.5268C43.1404 56.0423 42.7519 55.6437 42.2744 55.3822C41.7733 55.1252 41.2172 54.9943 40.6543 55.0007H37.6264V61.939ZM39.1581 56.2517H40.247C40.5407 56.2239 40.8368 56.2665 41.1109 56.376C41.3849 56.4856 41.629 56.6589 41.8229 56.8817C42.0735 57.3205 42.2198 57.8114 42.2505 58.316C42.2812 58.8207 42.1955 59.3257 42 59.7919C41.8626 60.0731 41.6393 60.303 41.3626 60.4484C41.0911 60.5949 40.7853 60.6653 40.4772 60.6525H39.1581V56.2517ZM57.4668 65.701C57.7604 66.1045 57.9407 66.5793 57.9891 67.0763L56.4929 67.0585C56.4432 66.7072 56.2591 66.389 55.9794 66.1713C55.6911 65.9449 55.3364 65.8202 54.9701 65.8164C54.5719 65.8066 54.182 65.9316 53.8635 66.1713C53.5815 66.4025 53.3724 66.7107 53.2614 67.0585C53.1353 67.4329 53.0725 67.8257 53.0755 68.2208C53.0731 68.6043 53.136 68.9854 53.2614 69.3477C53.3719 69.6957 53.5811 70.004 53.8635 70.2349C54.1801 70.4773 54.5721 70.5999 54.9701 70.5809C55.1768 70.5904 55.3831 70.5557 55.5755 70.4792C55.7678 70.4028 55.9417 70.2862 56.0857 70.1373C56.3525 69.8345 56.5195 69.4564 56.5637 69.0549H58.0246C57.9815 69.8419 57.6431 70.5836 57.0772 71.131C56.4989 71.6493 55.7458 71.9284 54.9701 71.9118C54.3201 71.8955 53.688 71.6956 53.1463 71.3351C52.6415 71.0238 52.236 70.5744 51.9777 70.0397C51.6979 69.4688 51.5583 68.8391 51.5704 68.2031C51.5584 67.5558 51.6978 66.9146 51.9777 66.331C52.2328 65.7895 52.6386 65.3335 53.1463 65.0179C53.7015 64.6823 54.3396 64.5101 54.9878 64.521C55.4755 64.5159 55.9585 64.6158 56.4044 64.8138C56.8279 65.0145 57.1935 65.3198 57.4668 65.701ZM41.0792 71.7077H42.3895V64.7338H41.0083V67.2714C40.8505 67.0271 40.6262 66.8332 40.362 66.7124C40.0282 66.563 39.6617 66.5017 39.2976 66.5343C38.9334 66.5669 38.5836 66.6923 38.2815 66.8987C37.9449 67.14 37.6839 67.4724 37.5289 67.857C37.3584 68.2615 37.2682 68.6955 37.2633 69.1346C37.2611 69.5871 37.3453 70.0358 37.5112 70.4566C37.6654 70.8513 37.926 71.1953 38.2638 71.4504C38.5758 71.6642 38.9369 71.7952 39.3132 71.8309C39.6895 71.8666 40.0687 71.8058 40.4151 71.6544C40.6846 71.5283 40.9077 71.3203 41.0526 71.06V71.7077H41.0792ZM41.0792 69.1701C41.0899 69.5636 40.9951 69.9527 40.8047 70.2969C40.7094 70.4592 40.5715 70.5921 40.406 70.6813C40.2406 70.7705 40.0539 70.8125 39.8662 70.8027C39.6111 70.8052 39.3634 70.7172 39.1668 70.5542C38.9866 70.3907 38.8522 70.1827 38.7773 69.9509C38.6889 69.7032 38.644 69.442 38.6445 69.179C38.6318 68.7882 38.7268 68.4014 38.9189 68.061C39.0182 67.9011 39.1584 67.7706 39.325 67.6832C39.4916 67.5959 39.6785 67.5548 39.8662 67.5642C40.0517 67.5542 40.2363 67.5952 40.4002 67.6827C40.564 67.7703 40.7008 67.9011 40.7958 68.061C40.9807 68.4004 41.0695 68.7839 41.0526 69.1701H41.0792ZM48.2062 69.5165C48.2452 69.0188 48.1726 68.5185 47.9937 68.0526C47.8339 67.6147 47.551 67.2325 47.1792 66.9524C46.7654 66.6605 46.2684 66.511 45.7626 66.5265C45.2908 66.5152 44.8251 66.635 44.4169 66.8725C44.0419 67.1033 43.736 67.4313 43.5316 67.8219C43.3147 68.2444 43.2023 68.7131 43.204 69.1882C43.1809 69.8921 43.428 70.578 43.8946 71.1047C44.1408 71.3517 44.4356 71.5447 44.7603 71.6715C45.0849 71.7982 45.4322 71.856 45.7803 71.8411C46.2969 71.864 46.8077 71.7244 47.2411 71.4419C47.6696 71.1187 47.9806 70.6637 48.1265 70.1465H46.8959C46.8272 70.3306 46.6996 70.4866 46.5329 70.5901C46.3156 70.7278 46.064 70.8016 45.8069 70.803C45.4827 70.8188 45.1652 70.7074 44.9216 70.4925C44.6938 70.219 44.5713 69.8728 44.5763 69.5165H48.2062ZM44.5674 68.6293C44.5804 68.4731 44.6193 68.3202 44.6825 68.1768C44.761 68.006 44.8831 67.859 45.0366 67.7509C45.239 67.6182 45.4767 67.5502 45.7184 67.5557C45.8574 67.5453 45.9971 67.5644 46.1283 67.6118C46.2595 67.6592 46.3793 67.7338 46.4797 67.8307C46.6684 68.0585 46.7882 68.3356 46.825 68.6293H44.5674ZM63.673 66.6591H62.2919V69.3209C62.3238 69.7005 62.2405 70.0809 62.0529 70.4122C61.9583 70.5348 61.8333 70.6304 61.6904 70.6896C61.5475 70.7487 61.3917 70.7693 61.2383 70.7494C61.1065 70.7598 60.9741 70.7369 60.8534 70.6826C60.7327 70.6284 60.6276 70.5445 60.5478 70.4388C60.4041 70.1658 60.3339 69.86 60.3442 69.5516V66.6591H58.9453V69.7645C58.9013 70.2945 59.0319 70.8244 59.3172 71.2728C59.4987 71.4787 59.727 71.6378 59.9828 71.7366C60.2386 71.8354 60.5144 71.8711 60.7868 71.8407C61.0939 71.8435 61.3972 71.7736 61.6722 71.6366C61.9527 71.4932 62.1886 71.2753 62.3539 71.0067V71.7076H63.673V66.6591ZM66.1343 71.7077H64.7531V64.7338H66.1343V71.7077ZM68.9939 65.1419H67.6039V66.6592H66.7717V67.5464H67.6039V70.5276C67.5868 70.7185 67.6223 70.9105 67.7066 71.0826C67.7909 71.2547 67.9208 71.4003 68.082 71.5036C68.4278 71.6748 68.8127 71.7513 69.1975 71.7254H69.6136C69.7433 71.7354 69.8735 71.7354 70.0032 71.7254V70.634C69.9324 70.6383 69.8614 70.6383 69.7907 70.634H69.5782C69.4128 70.6588 69.2442 70.6174 69.109 70.5187C69.0584 70.4525 69.0221 70.3766 69.0023 70.2957C68.9825 70.2147 68.9796 70.1306 68.9939 70.0485V67.5819H70.0209V66.6946H68.9939V65.1419ZM74.0138 66.6591H75.3949V71.7076H74.0757V71.0067C73.9104 71.2753 73.6746 71.4932 73.394 71.6366C73.1191 71.7736 72.8157 71.8435 72.5087 71.8407C72.2362 71.8711 71.9605 71.8354 71.7047 71.7366C71.4489 71.6378 71.2206 71.4787 71.039 71.2728C70.7538 70.8244 70.6232 70.2945 70.6672 69.7645V66.6591H72.0483V69.5693C72.0318 69.8783 72.1024 70.1858 72.2519 70.4566C72.3298 70.5622 72.4333 70.6461 72.5526 70.7004C72.6719 70.7548 72.803 70.7777 72.9337 70.7671C73.088 70.7835 73.244 70.7613 73.3877 70.7025C73.5314 70.6437 73.6583 70.55 73.757 70.4299C73.9543 70.0955 74.044 69.7082 74.0138 69.3209V66.6591ZM76.4396 71.7078H77.8207V69.4276C77.8016 69.0242 77.9067 68.6246 78.1217 68.283C78.247 68.1237 78.4093 67.9975 78.5946 67.9155C78.7798 67.8335 78.9822 67.7983 79.1841 67.8128H79.4497H79.6799V66.5884H79.5382H79.3789C79.0357 66.5902 78.7004 66.6919 78.4139 66.8812C78.1285 67.0705 77.9041 67.3386 77.7676 67.6531V66.6594H76.4396V71.7078ZM83.3187 70.1907C83.3493 70.0476 83.3671 69.9021 83.3718 69.7559V69.2324C83.2244 69.3423 83.05 69.4098 82.8672 69.4276L82.2209 69.5252C82.0165 69.5609 81.821 69.6363 81.6454 69.747C81.563 69.8058 81.4969 69.8848 81.4535 69.9765C81.4101 70.0681 81.3908 70.1693 81.3975 70.2705C81.3897 70.3716 81.4095 70.4728 81.4547 70.5635C81.5 70.6541 81.5689 70.7307 81.6543 70.7851C81.8365 70.882 82.0414 70.9279 82.2474 70.9182C82.5247 70.9349 82.7985 70.8497 83.0177 70.6786C83.1692 70.5539 83.275 70.3822 83.3187 70.1907ZM81.6742 67.8891C81.6268 67.9902 81.6019 68.1004 81.6011 68.2121L80.22 68.1943C80.2254 67.8188 80.3634 67.4572 80.6096 67.174C80.8551 66.9265 81.16 66.7463 81.4949 66.6505C81.8518 66.5488 82.2218 66.501 82.5927 66.5085C82.9347 66.501 83.2765 66.5337 83.6108 66.6061C83.9258 66.6654 84.2175 66.8131 84.4519 67.032C84.5694 67.147 84.6616 67.2853 84.7226 67.4381C84.7836 67.5909 84.812 67.7548 84.8061 67.9193V70.5811C84.7919 70.7997 84.7919 71.019 84.8061 71.2376C84.8227 71.402 84.8708 71.5617 84.9477 71.7079H83.54C83.4895 71.5494 83.4568 71.3857 83.4426 71.2199C83.2261 71.4412 82.9585 71.6057 82.6635 71.699C82.3786 71.7963 82.0792 71.8443 81.7782 71.841C81.3418 71.8604 80.9115 71.7323 80.5564 71.4772C80.2863 71.2216 80.1144 70.8789 80.0707 70.5092C80.027 70.1394 80.1143 69.766 80.3174 69.4542C80.478 69.2428 80.6964 69.0826 80.946 68.9929C81.2149 68.8957 81.4942 68.8301 81.7782 68.7977C82.212 68.7444 82.5927 68.6912 82.9114 68.6291C83.2301 68.567 83.4161 68.3984 83.4161 68.1322C83.428 68.0223 83.4095 67.9112 83.3627 67.811C83.3158 67.7109 83.2424 67.6255 83.1505 67.5644C82.9513 67.472 82.7319 67.4323 82.513 67.449C82.2867 67.4347 82.0621 67.4972 81.8756 67.6265C81.7903 67.6984 81.7216 67.788 81.6742 67.8891ZM49.2686 58.2838C49.4392 58.7519 49.5116 59.2503 49.4811 59.7477H45.8512C45.8378 60.1053 45.9613 60.4545 46.1965 60.7237C46.4391 60.9403 46.7574 61.0519 47.0818 61.0343C47.3363 61.0341 47.5854 60.9601 47.7989 60.8213C47.9745 60.726 48.1074 60.5674 48.1708 60.3777H49.3571C49.2131 60.8957 48.9017 61.3513 48.4718 61.6731C48.0384 61.9566 47.5282 62.0991 47.011 62.0812C46.6639 62.0921 46.3183 62.0316 45.9955 61.9034C45.6727 61.7752 45.3795 61.5821 45.1341 61.3359C44.6651 60.8107 44.4176 60.1238 44.4435 59.4195C44.4386 58.9439 44.5511 58.4745 44.7711 58.0531C44.975 57.6645 45.2811 57.3392 45.6564 57.1126C46.0642 56.8733 46.5296 56.7505 47.0021 56.7577C47.4944 56.7291 47.9824 56.8629 48.3917 57.1384C48.8009 57.414 49.1089 57.8163 49.2686 58.2838ZM45.9574 58.408C45.8924 58.5507 45.8534 58.704 45.8423 58.8605H48.0911C48.0623 58.562 47.9417 58.2798 47.7458 58.0531C47.646 57.9578 47.5277 57.8841 47.3982 57.8368C47.2687 57.7895 47.1308 57.7695 46.9933 57.778C46.7512 57.7696 46.5126 57.8379 46.3116 57.9732C46.1556 58.0825 46.033 58.233 45.9574 58.408ZM50.2955 63.7141H51.6767V61.3185C51.8421 61.5615 52.0679 61.7572 52.3318 61.8863C52.6097 62.0139 52.9115 62.0805 53.2172 62.0815C53.6548 62.0898 54.0834 61.956 54.4389 61.7C54.7703 61.4554 55.0276 61.1238 55.1826 60.7417C55.3389 60.3435 55.4171 59.9187 55.4128 59.4907C55.4213 59.0299 55.3401 58.5718 55.1738 58.1421C55.0223 57.7483 54.7611 57.4064 54.4212 57.1572C54.0428 56.8935 53.5893 56.7596 53.1286 56.7757C52.823 56.767 52.5196 56.8308 52.2433 56.962C51.9749 57.0932 51.7504 57.2998 51.597 57.5565V56.9088H50.2955V63.7141ZM52.8365 61.0523C52.6499 61.062 52.4641 61.0209 52.2989 60.9335C52.1337 60.846 51.9952 60.7154 51.898 60.5554C51.707 60.2179 51.612 59.8342 51.6235 59.4464C51.6207 59.1787 51.6595 58.9123 51.7386 58.6567C51.8021 58.4264 51.9313 58.2198 52.1105 58.0622C52.3135 57.9018 52.5646 57.8145 52.8232 57.8145C53.0818 57.8145 53.3328 57.9018 53.5359 58.0622C53.7155 58.2282 53.8471 58.4397 53.9166 58.6744C53.9956 58.924 54.0344 59.1846 54.0317 59.4464C54.0486 59.8326 53.9598 60.2161 53.7749 60.5554C53.6777 60.7154 53.5392 60.846 53.374 60.9335C53.2088 61.0209 53.0231 61.062 52.8365 61.0523ZM59.3969 60.4218C59.4154 60.2775 59.4154 60.1314 59.3969 59.9871V59.4902C59.2614 59.5824 59.1072 59.643 58.9453 59.6677L58.2902 59.7653C58.0881 59.794 57.8947 59.8667 57.7236 59.9782C57.6417 60.0376 57.5761 60.1167 57.5328 60.2082C57.4895 60.2997 57.4699 60.4006 57.4757 60.5017C57.4672 60.6041 57.4867 60.7068 57.5319 60.799C57.5771 60.8912 57.6464 60.9694 57.7324 61.0252C57.9149 61.1206 58.1202 61.1636 58.3256 61.1494C58.6013 61.1647 58.8737 61.0831 59.0958 60.9187C59.2438 60.7872 59.3487 60.614 59.3969 60.4218ZM57.7033 58.1191C57.6543 58.2202 57.628 58.3309 57.6262 58.4433L56.1654 58.4167C56.1775 58.0435 56.3183 57.686 56.5638 57.4052C56.8036 57.1504 57.1106 56.9689 57.4491 56.8817C57.8077 56.7731 58.1813 56.7222 58.5558 56.7309C58.8978 56.7239 59.2395 56.7566 59.5739 56.8285C59.8815 56.9153 60.1599 57.0839 60.3796 57.3165C60.4942 57.4331 60.5839 57.572 60.6433 57.7245C60.7026 57.877 60.7304 58.0401 60.7249 58.2037V60.8655C60.7255 61.0851 60.7403 61.3044 60.7691 61.522C60.7845 61.6827 60.8296 61.8392 60.9019 61.9834H59.5031C59.4783 61.9047 59.4576 61.8247 59.4411 61.7439C59.4319 61.6613 59.4319 61.578 59.4411 61.4954C59.2233 61.7215 58.9524 61.8893 58.6532 61.9834C58.3672 62.0767 58.0685 62.1246 57.7678 62.1254C57.3331 62.1424 56.9055 62.011 56.5549 61.7527C56.3892 61.6137 56.2581 61.4379 56.172 61.2392C56.086 61.0405 56.0473 60.8244 56.0592 60.6082C56.041 60.293 56.1283 59.9808 56.307 59.7209C56.4728 59.511 56.6935 59.3512 56.9445 59.2595C57.2102 59.1617 57.4866 59.0962 57.7678 59.0643C58.2105 59.02 58.5912 58.9579 58.9099 58.8958C59.2286 58.8337 59.4057 58.6651 59.4057 58.3989C59.418 58.2902 59.3996 58.1802 59.3527 58.0814C59.3057 57.9826 59.2321 57.8989 59.1401 57.8399C58.9449 57.7444 58.7283 57.7016 58.5115 57.7157C58.3012 57.7022 58.0917 57.7516 57.9095 57.8577C57.8226 57.9287 57.7522 58.0179 57.7033 58.1191ZM61.8315 61.9392H63.2127V59.6678C63.1912 59.2642 63.2965 58.8639 63.5137 58.5233C63.637 58.3611 63.7987 58.2323 63.9843 58.1486C64.1698 58.065 64.3732 58.0291 64.5761 58.0442H64.8417H65.0719V56.8286H64.9303H64.7709C64.4307 56.8321 64.0988 56.9338 63.8147 57.1214C63.5224 57.3068 63.2962 57.5801 63.1684 57.9022V56.8907H61.8315V61.9392ZM65.9926 55.3823H67.3649V55.4267V56.935H68.4007V57.8223H67.3826V60.2711C67.3585 60.3536 67.357 60.4411 67.3782 60.5244C67.3995 60.6077 67.4427 60.6837 67.5033 60.7445C67.564 60.8053 67.6399 60.8487 67.723 60.8699C67.8061 60.8912 67.8934 60.8897 67.9758 60.8656H68.1882H68.4007V62.0013H68.0112H67.5951C67.2105 62.0235 66.8265 61.9472 66.4795 61.7794C66.3095 61.6717 66.1734 61.5178 66.0872 61.3356C66.001 61.1534 65.9682 60.9504 65.9926 60.7502V57.7779H65.1604V56.8907H65.9926V55.3823ZM72.19 59.9871C72.2085 60.1314 72.2085 60.2775 72.19 60.4218C72.1418 60.614 72.0369 60.7872 71.889 60.9187C71.6668 61.0831 71.3944 61.1647 71.1187 61.1494C70.9134 61.1627 70.7084 61.1198 70.5256 61.0252C70.4395 60.9694 70.3702 60.8912 70.325 60.799C70.2798 60.7068 70.2604 60.6041 70.2688 60.5017C70.263 60.4006 70.2826 60.2997 70.3259 60.2082C70.3693 60.1167 70.4349 60.0376 70.5167 59.9782C70.6878 59.8667 70.8812 59.794 71.0833 59.7653L71.7385 59.6677C71.9172 59.6444 72.0875 59.5774 72.2343 59.4725V59.9871H72.19ZM70.4193 58.4433C70.4211 58.3309 70.4474 58.2202 70.4964 58.1191C70.5453 58.0179 70.6157 57.9287 70.7026 57.8577C70.8908 57.732 71.1142 57.6699 71.3401 57.6802C71.5568 57.6661 71.7735 57.7089 71.9687 57.8044C72.0638 57.8601 72.14 57.9432 72.1874 58.0429C72.2347 58.1426 72.2511 58.2543 72.2343 58.3634C72.2343 58.6296 72.0572 58.7982 71.7385 58.8603C71.4197 58.9224 71.0391 58.9845 70.5964 59.0289C70.3151 59.0607 70.0387 59.1262 69.773 59.2241C69.522 59.3158 69.3013 59.4755 69.1356 59.6854C68.9568 59.9453 68.8696 60.2575 68.8877 60.5727C68.8758 60.789 68.9145 61.005 69.0005 61.2037C69.0866 61.4024 69.2177 61.5782 69.3835 61.7172C69.734 61.9755 70.1616 62.1069 70.5964 62.0899C70.897 62.0882 71.1956 62.0403 71.4817 61.9479C71.7773 61.8515 72.0448 61.6839 72.2608 61.4599C72.2559 61.5427 72.2559 61.6256 72.2608 61.7084C72.2773 61.7892 72.298 61.8692 72.3228 61.9479H73.7216C73.6493 61.8037 73.6042 61.6473 73.5888 61.4866C73.5705 61.2681 73.5705 61.0485 73.5888 60.83V58.1682C73.5927 58.004 73.5633 57.8407 73.5024 57.6883C73.4415 57.5358 73.3505 57.3972 73.2347 57.281C72.9855 57.0582 72.6786 56.9105 72.3493 56.8551C72.015 56.7827 71.6732 56.7499 71.3312 56.7575C70.9595 56.7479 70.5888 56.7988 70.2334 56.9083C69.8945 56.9946 69.5873 57.1762 69.348 57.4318C69.1026 57.7127 68.9618 58.0701 68.9496 58.4433H70.4193ZM76.0678 61.9393H74.6779V56.9351H76.0413V57.6183C76.213 57.3684 76.4403 57.1619 76.7053 57.015C76.9768 56.8679 77.282 56.7945 77.5906 56.802C77.8965 56.7902 78.2006 56.8542 78.476 56.9884C78.7441 57.1297 78.9563 57.358 79.078 57.6361C79.241 57.4023 79.4486 57.2033 79.6889 57.0505C79.957 56.891 80.2624 56.8053 80.5742 56.802C81.0493 56.7687 81.5197 56.9143 81.8934 57.2102C82.0759 57.3906 82.2171 57.6086 82.3073 57.8491C82.3975 58.0897 82.4344 58.3469 82.4157 58.6032V61.9481H80.9815V59.0912C81.0059 58.7891 80.9604 58.4855 80.8487 58.2039C80.7513 57.9732 80.5122 57.8401 80.1315 57.8401C79.9811 57.8274 79.8302 57.8583 79.6968 57.9291C79.5634 57.9999 79.4531 58.1076 79.379 58.2394C79.2488 58.5163 79.188 58.8209 79.2019 59.1267V61.9393H77.8208V59.1089C77.8343 58.9139 77.8343 58.7183 77.8208 58.5233C77.7998 58.3458 77.7257 58.1788 77.6083 58.0442C77.525 57.9719 77.4279 57.9174 77.3229 57.8838C77.2178 57.8503 77.1071 57.8384 76.9974 57.849C76.8723 57.8509 76.7488 57.878 76.6345 57.9289C76.477 58.0046 76.3426 58.1209 76.2449 58.266C76.1147 58.4919 76.0532 58.7509 76.0678 59.0113V61.9393ZM88.25 59.7475C88.2876 59.2506 88.2182 58.7513 88.0464 58.2836C87.8799 57.847 87.5947 57.4658 87.2231 57.1834C86.8079 56.8944 86.3118 56.7452 85.8065 56.7575C85.3338 56.7489 84.868 56.8718 84.4608 57.1124C84.0855 57.339 83.7793 57.6642 83.5754 58.0529C83.3512 58.4727 83.2384 58.9432 83.2479 59.4192C83.222 60.1235 83.4695 60.8105 83.9384 61.3357C84.1839 61.5819 84.4771 61.775 84.7999 61.9032C85.1227 62.0314 85.4683 62.0919 85.8154 62.081C86.3326 62.0989 86.8428 61.9564 87.2762 61.6729C87.7037 61.3488 88.0145 60.8941 88.1615 60.3775H86.9486C86.8777 60.5629 86.7467 60.7191 86.5768 60.8211C86.3632 60.9599 86.1142 61.0339 85.8596 61.0341C85.6989 61.0433 85.538 61.0206 85.386 60.9673C85.2341 60.914 85.0942 60.8312 84.9743 60.7235C84.7391 60.4543 84.6156 60.1051 84.629 59.7475H88.25ZM84.6201 58.8603C84.6279 58.7042 84.6639 58.5509 84.7264 58.4078C84.8056 58.2324 84.9311 58.0821 85.0894 57.973C85.2905 57.8377 85.529 57.7694 85.7711 57.7778C85.9087 57.7692 86.0465 57.7892 86.176 57.8366C86.3055 57.8839 86.4239 57.9575 86.5236 58.0529C86.7126 58.2839 86.8323 58.5638 86.8689 58.8603H84.6201ZM90.4545 61.9392H89.0646V61.877V56.8286H90.3837V57.5295C90.5511 57.2626 90.7864 57.0451 91.0654 56.8995C91.3403 56.7625 91.6437 56.6926 91.9507 56.6955C92.2233 56.6635 92.4995 56.6985 92.7556 56.7974C93.0116 56.8964 93.2398 57.0563 93.4204 57.2633C93.7056 57.7118 93.8363 58.2417 93.7922 58.7717V61.877H92.4111V59.029C92.4276 58.7199 92.357 58.4125 92.2075 58.1417C92.1296 58.0361 92.0261 57.9522 91.9068 57.8978C91.7875 57.8435 91.6564 57.8205 91.5258 57.8312C91.3715 57.8155 91.2157 57.8381 91.0722 57.8969C90.9286 57.9557 90.8016 58.0489 90.7024 58.1683C90.5043 58.5022 90.4175 58.8907 90.4545 59.2774V61.9392ZM96.5811 55.3821H95.2V56.8905H94.3146V57.7777H95.2V60.75C95.1791 60.9426 95.2129 61.1373 95.2974 61.3115C95.382 61.4857 95.5139 61.6325 95.678 61.7349C96.0221 61.9019 96.403 61.9782 96.7847 61.9567H97.2097H97.5992V60.8654H97.3779H97.1654C96.9988 60.8866 96.8306 60.8421 96.6962 60.7412C96.6018 60.6037 96.5609 60.4365 96.5811 60.2709V57.8221H97.5992V56.9348H96.5811V55.4265V55.3821ZM47.3562 49.8193C47.3774 49.3556 47.3113 48.8921 47.1614 48.4529C47.0286 48.044 46.783 47.681 46.4532 47.406C46.0709 47.1404 45.6169 46.998 45.1517 46.998C44.6866 46.998 44.2325 47.1404 43.8503 47.406C43.5147 47.6574 43.2569 47.9988 43.1066 48.3908C42.9537 48.7993 42.8757 49.2322 42.8764 49.6685C42.872 50.1224 42.95 50.5734 43.1066 50.9993C43.255 51.3875 43.5135 51.7237 43.8503 51.9664C44.2321 52.222 44.6839 52.3523 45.1429 52.3391C45.6777 52.367 46.2041 52.1964 46.6214 51.86C46.9991 51.5068 47.251 51.0393 47.3385 50.5291H46.7276C46.6424 50.8712 46.4575 51.18 46.1964 51.4163C45.902 51.6636 45.5268 51.7932 45.1429 51.7801C44.8049 51.8005 44.4703 51.7034 44.1955 51.5051C43.9498 51.3101 43.7653 51.0483 43.6643 50.7509C43.5528 50.4682 43.4928 50.1676 43.4873 49.8637L47.3562 49.8193ZM43.4607 49.3047C43.4913 48.9967 43.5751 48.6965 43.7086 48.4174C43.8396 48.1571 44.0309 47.932 44.2664 47.7609C44.5258 47.5802 44.8359 47.4869 45.1517 47.4947C45.4677 47.4857 45.7782 47.579 46.037 47.7609C46.2763 47.9255 46.4661 48.1526 46.586 48.4174C46.7148 48.6957 46.7842 48.9979 46.7896 49.3047H43.4607ZM60.9815 50.2184C60.9902 50.4394 60.9475 50.6594 60.8569 50.8611C60.7663 51.0628 60.6301 51.2407 60.4592 51.3807C60.1102 51.6605 59.6755 51.811 59.2286 51.8065C58.9498 51.804 58.6794 51.7106 58.4583 51.5404C58.3463 51.4541 58.2565 51.3423 58.1965 51.2142C58.1364 51.086 58.1078 50.9454 58.113 50.8039C58.1075 50.6658 58.1391 50.5287 58.2045 50.4069C58.2699 50.2852 58.3667 50.1833 58.4849 50.1119C58.7565 49.9521 59.0577 49.8495 59.3702 49.8102L60.4415 49.6416C60.5402 49.6277 60.6378 49.6069 60.7336 49.5795C60.8242 49.5548 60.9028 49.4981 60.955 49.4198V50.2184H60.9815ZM58.3255 48.6745C58.3198 48.5068 58.3519 48.34 58.4193 48.1864C58.4868 48.0328 58.5879 47.8964 58.7151 47.7873C58.992 47.5858 59.3295 47.4856 59.6712 47.5034C59.979 47.4931 60.2842 47.5634 60.5566 47.7074C60.6898 47.7985 60.7957 47.9243 60.8628 48.0713C60.9299 48.2183 60.9556 48.3809 60.9373 48.5414C60.9523 48.6403 60.9414 48.7413 60.9057 48.8346C60.87 48.9279 60.8107 49.0104 60.7336 49.0738C60.553 49.1683 60.3531 49.22 60.1493 49.2246C59.7405 49.2246 59.3461 49.3047 58.9794 49.3791L58.8656 49.4021C58.4986 49.456 58.1512 49.6025 57.8563 49.828C57.7179 49.9577 57.6097 50.1164 57.5394 50.2927C57.469 50.469 57.4381 50.6587 57.449 50.8483C57.4393 51.0604 57.479 51.2719 57.5651 51.466C57.6512 51.6601 57.7812 51.8313 57.9448 51.9662C58.2931 52.2138 58.7134 52.3386 59.14 52.3211C59.5296 52.3413 59.9168 52.249 60.2556 52.055C60.5481 51.857 60.793 51.5964 60.9727 51.2919C60.9548 51.5122 60.9977 51.7332 61.0966 51.9308C61.1657 52.0195 61.2569 52.0884 61.3611 52.1305C61.4652 52.1725 61.5786 52.1863 61.6898 52.1703H61.9023H62.0882V51.6557H61.9997H61.8934C61.8448 51.6592 61.796 51.6522 61.7502 51.6354C61.7044 51.6186 61.6627 51.5923 61.6278 51.5581C61.5951 51.5208 61.5704 51.4771 61.5551 51.4298C61.5399 51.3825 61.5345 51.3325 61.5393 51.2831V48.6213C61.5542 48.2598 61.4551 47.9028 61.256 47.601C61.0817 47.3685 60.8359 47.2001 60.5566 47.1218C60.2709 47.029 59.9713 46.987 59.6712 46.9976C59.1631 46.9756 58.661 47.1153 58.237 47.3969C58.0469 47.5524 57.8941 47.7488 57.7899 47.9715C57.6857 48.1942 57.6327 48.4375 57.635 48.6834L58.3255 48.6745ZM63.2126 45.6226H63.8235V47.1398H64.8682V47.6544H63.8501V51.0259C63.8333 51.187 63.8609 51.3497 63.9297 51.4962C63.9772 51.5611 64.0401 51.613 64.1129 51.6472C64.1856 51.6813 64.2657 51.6965 64.3459 51.6914C64.5197 51.7049 64.6944 51.7049 64.8682 51.6914V52.2237H64.3281C64.1721 52.2467 64.0129 52.2373 63.8606 52.1961C63.7083 52.1549 63.5661 52.0828 63.4428 51.9842C63.3482 51.8587 63.2792 51.7157 63.2397 51.5635C63.2002 51.4113 63.191 51.2527 63.2126 51.0969V47.6544H62.3273V47.1398H63.2126V45.6226ZM68.9142 50.2188C68.9209 50.4396 68.8773 50.659 68.7868 50.8604C68.6963 51.0617 68.5612 51.2398 68.3919 51.3811C68.0415 51.6585 67.6077 51.8086 67.1612 51.807C66.8797 51.8045 66.6066 51.7111 66.3821 51.5408C66.2701 51.4546 66.1804 51.3427 66.1203 51.2146C66.0602 51.0865 66.0316 50.9459 66.0369 50.8044C66.0313 50.6663 66.0629 50.5292 66.1283 50.4074C66.1937 50.2857 66.2906 50.1838 66.4087 50.1124C66.6803 49.9526 66.9816 49.85 67.294 49.8107L68.3653 49.6421C68.464 49.6281 68.5616 49.6074 68.6575 49.58C68.7491 49.5526 68.8297 49.4966 68.8876 49.4203V50.2188H68.9142ZM66.2582 48.675C66.2523 48.5064 66.2851 48.3387 66.3542 48.1848C66.4233 48.031 66.5268 47.8951 66.6566 47.7878C66.9295 47.585 67.2647 47.4845 67.6039 47.5038C67.9117 47.4935 68.2169 47.5639 68.4892 47.7079C68.6241 47.7979 68.7318 47.9232 68.8004 48.0703C68.8691 48.2174 68.8962 48.3805 68.8788 48.5419C68.8913 48.6406 68.8792 48.7408 68.8437 48.8337C68.8082 48.9266 68.7503 49.0092 68.6752 49.0743C68.4937 49.1666 68.2943 49.218 68.0908 49.2251C67.6888 49.2251 67.3008 49.3025 66.9331 49.3758L66.7983 49.4026C66.4312 49.4564 66.0839 49.603 65.789 49.8284C65.6522 49.959 65.5456 50.118 65.4768 50.2943C65.408 50.4706 65.3785 50.6599 65.3906 50.8488C65.3787 51.0612 65.4175 51.2734 65.5037 51.4678C65.5899 51.6622 65.7211 51.8332 65.8864 51.9667C66.2313 52.2142 66.6488 52.3391 67.0727 52.3216C67.4623 52.3418 67.8495 52.2494 68.1882 52.0555C68.4807 51.8575 68.7257 51.5969 68.9054 51.2924C68.8858 51.5138 68.932 51.7361 69.0382 51.9312C69.1267 52.0909 69.3215 52.1708 69.6313 52.1708H69.835H70.0297V51.6562H69.9324H69.835C69.7851 51.6621 69.7345 51.6565 69.6872 51.6398C69.6398 51.623 69.5969 51.5955 69.5618 51.5595C69.5267 51.5235 69.5004 51.4799 69.4848 51.432C69.4692 51.3842 69.4648 51.3334 69.472 51.2835V48.6218C69.4913 48.2598 69.3918 47.9014 69.1887 47.6014C69.0163 47.3711 68.7739 47.2029 68.4981 47.1223C68.2121 47.0311 67.9128 46.9891 67.6128 46.9981C67.1072 46.9748 66.6076 47.1148 66.1874 47.3974C65.9946 47.5511 65.8395 47.747 65.7336 47.9699C65.6277 48.1928 65.574 48.437 65.5765 48.6839L66.2582 48.675ZM71.3666 52.171H70.7557V45.2061H71.3666V52.171ZM76.6079 47.1396H76.0058V49.8014C76.0083 50.1334 75.9544 50.4635 75.8465 50.7774C75.7451 51.0625 75.5675 51.3142 75.333 51.5049C75.0858 51.7127 74.77 51.8203 74.4476 51.8066C74.2611 51.8239 74.0731 51.8012 73.896 51.74C73.7189 51.6788 73.5569 51.5805 73.4206 51.4517C73.1953 51.1543 73.0824 50.7865 73.1019 50.4136V47.1396H72.491V50.4047C72.4577 50.9055 72.6019 51.402 72.8983 51.8066C73.0716 51.9881 73.2831 52.1285 73.5175 52.2175C73.7518 52.3066 74.0031 52.342 74.2529 52.3212C74.6316 52.3339 75.0062 52.2385 75.333 52.0462C75.6426 51.8639 75.8896 51.5916 76.0413 51.2654V52.1526H76.6079V47.1396ZM78.3785 52.1702H77.7676L77.7853 52.1436V47.1129H78.3962V48.0001C78.5185 47.6939 78.7399 47.4377 79.0248 47.2726C79.3198 47.0886 79.66 46.9903 80.0075 46.9886C80.2733 46.9604 80.5419 46.9929 80.7934 47.0835C81.0449 47.1742 81.2726 47.3207 81.4595 47.5121C81.7522 47.9245 81.8902 48.4273 81.849 48.9317V52.1702H81.2382V49.0293C81.2626 48.6469 81.1699 48.2662 80.9726 47.938C80.8519 47.7869 80.6958 47.6681 80.5181 47.5922C80.3404 47.5163 80.1468 47.4858 79.9544 47.5033C79.7394 47.4973 79.5256 47.5386 79.3283 47.6245C79.1309 47.7103 78.9548 47.8386 78.8123 48.0001C78.5286 48.3479 78.3751 48.7842 78.3785 49.2334V52.1702ZM84.4519 52.1528L84.2394 52.7295C84.1614 52.9361 84.0541 53.1304 83.9207 53.3062C83.85 53.3818 83.763 53.4403 83.6663 53.4771C83.5697 53.514 83.466 53.5284 83.363 53.5192C83.2203 53.5171 83.078 53.5023 82.938 53.4748V53.9894C82.9965 54.0005 83.0566 54.0005 83.1151 53.9894H83.4072C83.7006 54.0161 83.9935 53.934 84.2306 53.7588C84.4631 53.5047 84.6356 53.2014 84.7352 52.8715L86.9132 47.0688H86.3023L84.7529 51.3632L83.0974 47.0688H82.4156L84.4254 52.0818L84.4519 52.1528ZM90.6104 50.8604C90.7009 50.659 90.7445 50.4396 90.7378 50.2188H90.7113V49.4203C90.6553 49.4986 90.5739 49.555 90.4811 49.58C90.3852 49.6074 90.2876 49.6281 90.1889 49.6421L89.1177 49.8107C88.8054 49.8512 88.5044 49.9537 88.2323 50.1124C88.1142 50.1838 88.0173 50.2857 87.9519 50.4074C87.8865 50.5292 87.8549 50.6663 87.8605 50.8044C87.8552 50.9459 87.8839 51.0865 87.9439 51.2146C88.004 51.3427 88.0938 51.4546 88.2058 51.5408C88.4302 51.7111 88.7034 51.8045 88.9849 51.807C89.4315 51.81 89.8658 51.6597 90.2155 51.3811C90.3849 51.2398 90.5199 51.0617 90.6104 50.8604ZM88.1778 48.1848C88.1087 48.3387 88.0759 48.5064 88.0818 48.675L87.4532 48.6839C87.4507 48.437 87.5045 48.1928 87.6103 47.9699C87.7162 47.747 87.8714 47.5511 88.0641 47.3974C88.4843 47.1148 88.984 46.9748 89.4895 46.9981C89.7895 46.9891 90.0888 47.0311 90.3748 47.1223C90.6527 47.1986 90.8963 47.3676 91.0654 47.6014C91.2685 47.9014 91.368 48.2598 91.3487 48.6218V51.2835C91.3416 51.3334 91.346 51.3842 91.3615 51.432C91.3771 51.4799 91.4035 51.5235 91.4386 51.5595C91.4736 51.5955 91.5165 51.623 91.5639 51.6398C91.6113 51.6565 91.6618 51.6621 91.7117 51.6562H91.7825H91.8711V52.1708H91.6851H91.4727C91.1716 52.1708 90.968 52.0909 90.8795 51.9312C90.7733 51.7361 90.7271 51.5138 90.7467 51.2924C90.567 51.5969 90.3221 51.8575 90.0296 52.0554C89.6916 52.2513 89.3038 52.3439 88.914 52.3216C88.4903 52.3378 88.0732 52.213 87.7277 51.9667C87.5592 51.8351 87.4246 51.6648 87.3353 51.4703C87.2459 51.2758 87.2044 51.0627 87.2142 50.8488C87.2014 50.659 87.2314 50.4688 87.3019 50.2921C87.3724 50.1155 87.4816 49.957 87.6214 49.8284C87.912 49.6012 88.257 49.4544 88.6219 49.4026L88.7567 49.3758C89.1244 49.3025 89.5124 49.2251 89.9145 49.2251C90.1182 49.2204 90.3181 49.1688 90.4988 49.0743C90.5739 49.0092 90.6318 48.9266 90.6673 48.8337C90.7028 48.7408 90.7149 48.6406 90.7024 48.5419C90.7198 48.3805 90.6927 48.2174 90.6241 48.0703C90.5554 47.9232 90.4477 47.7979 90.3129 47.7079C90.0405 47.5639 89.7353 47.4935 89.4275 47.5038C89.0887 47.4874 88.7544 47.5876 88.4802 47.7878C88.3504 47.8951 88.2469 48.031 88.1778 48.1848ZM48.7728 38.6932C48.9281 39.1286 49.0031 39.5885 48.9942 40.0507L45.1253 40.104C45.1348 40.4075 45.1947 40.7074 45.3023 40.9912C45.4067 41.2868 45.5906 41.5478 45.8335 41.7454C46.1035 41.931 46.4274 42.0215 46.7543 42.0027C47.1361 42.0196 47.5099 41.8895 47.799 41.6389C48.06 41.4026 48.245 41.0937 48.3302 40.7517H48.941C48.8493 41.2604 48.5981 41.7266 48.2239 42.0826C47.8089 42.416 47.2853 42.5835 46.7543 42.5528C46.2927 42.5643 45.8386 42.4343 45.4528 42.1802C45.1167 41.9406 44.8581 41.6074 44.7091 41.2219C44.554 40.7955 44.4761 40.3449 44.479 39.891C44.4783 39.4519 44.5563 39.0161 44.7091 38.6045C44.8619 38.2139 45.1192 37.8731 45.4528 37.6197C45.8321 37.3489 46.2888 37.2088 46.7543 37.2204C47.224 37.2083 47.6836 37.3587 48.0557 37.6463C48.3892 37.9198 48.638 38.283 48.7728 38.6932ZM45.382 38.6489C45.2402 38.9253 45.153 39.2266 45.1253 39.5361L48.3833 39.5273C48.3759 39.2208 48.3066 38.919 48.1797 38.64C48.0554 38.3805 47.8701 38.1552 47.6396 37.9834C47.3862 37.8156 47.0891 37.726 46.7853 37.726C46.4814 37.726 46.1843 37.8156 45.9309 37.9834C45.6961 38.1566 45.5075 38.3852 45.382 38.6489ZM49.8087 42.4108H50.4284V39.4651C50.4109 39.0044 50.5621 38.5531 50.8534 38.1963C50.9977 38.0352 51.1756 37.9079 51.3745 37.8236C51.5735 37.7393 51.7885 37.6999 52.0043 37.7083C52.1956 37.6882 52.3889 37.7176 52.5656 37.7937C52.7423 37.8699 52.8965 37.9901 53.0136 38.1431C53.2119 38.4676 53.3047 38.8458 53.2792 39.2255V42.3753H53.8901V39.1634C53.936 38.6585 53.7976 38.1541 53.5006 37.7438C53.3136 37.5524 53.0859 37.4059 52.8345 37.3152C52.583 37.2246 52.3144 37.1921 52.0486 37.2203C51.7011 37.222 51.3609 37.3203 51.0659 37.5042C50.7809 37.671 50.5621 37.9311 50.4462 38.2407V37.3534H49.8264V42.393L49.8087 42.4108ZM59.087 38.6926C59.2374 39.1286 59.3035 39.5893 59.2818 40.0501L55.4129 40.1034C55.4193 40.4064 55.4761 40.7063 55.5811 40.9906C55.6888 41.2868 55.8756 41.5477 56.1211 41.7448C56.3909 41.931 56.7149 42.0215 57.0419 42.0021C57.4262 42.0177 57.8023 41.8878 58.0954 41.6383C58.3565 41.402 58.5414 41.0931 58.6266 40.7511H59.2375C59.1393 41.2595 58.8856 41.7246 58.5115 42.0819C58.1043 42.4106 57.5907 42.5779 57.0684 42.5522C56.6069 42.5637 56.1528 42.4337 55.767 42.1795C55.4356 41.9372 55.1805 41.6046 55.0322 41.2213C54.8728 40.7961 54.7947 40.3446 54.802 39.8904C54.7969 39.4509 54.875 39.0143 55.0322 38.6039C55.1848 38.2157 55.4386 37.8756 55.767 37.619C56.1463 37.3483 56.6029 37.2082 57.0684 37.2198C57.5386 37.2047 57.9992 37.3554 58.3699 37.6457C58.7088 37.9142 58.9588 38.2792 59.087 38.6926ZM55.6608 38.6483C55.5259 38.9268 55.4419 39.2273 55.4129 39.5355L58.6709 39.5266C58.6649 39.219 58.5924 38.9163 58.4584 38.6394C58.3398 38.3763 58.1534 38.1497 57.9184 37.9828C57.6667 37.8146 57.371 37.7248 57.0684 37.7248C56.7659 37.7248 56.4702 37.8146 56.2185 37.9828C55.9783 38.1526 55.7861 38.3819 55.6608 38.6483ZM60.1051 42.4104H60.716V39.7486C60.712 39.5047 60.7561 39.2623 60.8457 39.0354C60.9354 38.8086 61.0688 38.6017 61.2384 38.4266C61.4175 38.2548 61.6306 38.1225 61.8639 38.0385C62.0973 37.9544 62.3456 37.9204 62.5929 37.9386V37.3087C62.1825 37.2779 61.7733 37.3838 61.4291 37.6101C61.0849 37.8363 60.8249 38.1701 60.6894 38.5597V37.3708H60.1051V42.4104ZM66.2723 41.0961C66.3628 40.8962 66.4065 40.6781 66.3998 40.4586H66.3644V39.6512C66.3123 39.7294 66.2337 39.7861 66.1431 39.8109C66.0473 39.8409 65.9498 39.8646 65.8509 39.8819L64.7797 40.0416C64.4681 40.0847 64.1676 40.1871 63.8943 40.3433C63.7748 40.4154 63.6771 40.5187 63.6116 40.6422C63.5461 40.7656 63.5153 40.9046 63.5225 41.0442C63.5187 41.1842 63.548 41.3231 63.608 41.4495C63.668 41.576 63.757 41.6864 63.8678 41.7717C64.0855 41.9481 64.3581 42.0423 64.638 42.0379C65.0881 42.0452 65.5265 41.8945 65.8775 41.612C66.0467 41.4725 66.1817 41.296 66.2723 41.0961ZM63.8417 38.4254C63.7727 38.5791 63.7392 38.7464 63.7438 38.9148L63.1152 38.8793C63.1114 38.6309 63.1645 38.385 63.2704 38.1604C63.3763 37.9358 63.5322 37.7386 63.7261 37.5839C64.1464 37.3013 64.646 37.1614 65.1515 37.1846C65.4512 37.1801 65.7499 37.222 66.0368 37.3089C66.3163 37.411 66.5554 37.6008 66.7186 37.8501C66.9199 38.1509 67.0193 38.5086 67.0019 38.8704V41.5322C66.9978 41.5803 67.0035 41.6287 67.0188 41.6744C67.034 41.7202 67.0584 41.7624 67.0904 41.7984C67.1259 41.8342 67.169 41.8616 67.2165 41.8785C67.264 41.8954 67.3147 41.9013 67.3649 41.896H67.4622H67.5596V42.4106H67.3649H67.1789C67.0658 42.4236 66.9512 42.4076 66.8459 42.3642C66.7406 42.3207 66.6481 42.2512 66.5769 42.1621C66.4778 41.9678 66.4349 41.7496 66.453 41.5322C66.2732 41.8342 66.0281 42.0919 65.7358 42.2864C65.3971 42.4803 65.0099 42.5727 64.6203 42.5525C64.1963 42.5714 63.7783 42.4464 63.434 42.1976C63.2687 42.0641 63.1375 41.8931 63.0513 41.6987C62.9651 41.5043 62.9263 41.2921 62.9382 41.0797C62.919 40.8982 62.9391 40.7146 62.9972 40.5416C63.0552 40.3685 63.1498 40.2101 63.2746 40.0771C63.5667 39.8453 63.915 39.6953 64.2839 39.6423C64.3645 39.628 64.4469 39.6122 64.5307 39.5961C64.8614 39.5326 65.2145 39.4649 65.5676 39.4649C65.774 39.4588 65.9765 39.4073 66.1608 39.3141C66.2359 39.249 66.2938 39.1664 66.3293 39.0735C66.3648 38.9806 66.3769 38.8804 66.3644 38.7817C66.3802 38.6217 66.3523 38.4604 66.2837 38.3151C66.215 38.1697 66.1083 38.0458 65.9749 37.9566C65.7054 37.8048 65.3981 37.734 65.0895 37.7525C64.7514 37.7306 64.4163 37.8279 64.1422 38.0275C64.0134 38.1358 63.9107 38.2718 63.8417 38.4254ZM68.2413 42.402H68.8522V35.437H68.2413V42.402ZM70.6318 42.4108H70.0209V37.3712H70.6318V42.4108ZM70.6318 36.4219H70.0209V35.437H70.6318V36.4219ZM72.8008 35.854H72.1899V37.3712H71.3046V37.8858H72.1899V41.3372C72.1668 41.493 72.1752 41.6519 72.2148 41.8044C72.2543 41.9568 72.3242 42.0997 72.4201 42.2245C72.5434 42.3231 72.6856 42.3952 72.8379 42.4365C72.9902 42.4777 73.1493 42.4871 73.3054 42.4641H73.8455V41.9228C73.6715 41.9319 73.4971 41.9319 73.3231 41.9228C73.243 41.9279 73.1629 41.9127 73.0901 41.8786C73.0174 41.8445 72.9544 41.7926 72.907 41.7276C72.8381 41.5811 72.8106 41.4185 72.8273 41.2574V37.8858H73.8455V37.3712H72.8008V35.854ZM77.7906 41.0959C77.8811 40.896 77.9247 40.6779 77.9181 40.4585H77.8915V39.6511C77.8336 39.7274 77.753 39.7833 77.6614 39.8108C77.5656 39.8407 77.468 39.8645 77.3692 39.8817L76.2979 40.0414C75.9864 40.0846 75.6859 40.187 75.4126 40.3431C75.2931 40.4152 75.1954 40.5186 75.1299 40.642C75.0644 40.7655 75.0336 40.9044 75.0408 41.044C75.0369 41.184 75.0662 41.3229 75.1263 41.4494C75.1863 41.5758 75.2753 41.6862 75.386 41.7716C75.6065 41.9493 75.8823 42.0435 76.1651 42.0378C76.6123 42.0437 77.0475 41.8931 77.3958 41.6119C77.565 41.4724 77.7 41.2959 77.7906 41.0959ZM75.3599 38.4253C75.2909 38.5789 75.2575 38.7462 75.2621 38.9146L74.6158 38.9412C74.612 38.6929 74.6651 38.4469 74.771 38.2224C74.8769 37.9978 75.0328 37.8006 75.2267 37.6459C75.6469 37.3633 76.1465 37.2233 76.6521 37.2466C76.9518 37.2421 77.2504 37.284 77.5374 37.3708C77.8116 37.4548 78.053 37.6222 78.228 37.8499C78.4293 38.1507 78.5287 38.5085 78.5113 38.8703V41.532C78.5072 41.5801 78.513 41.6285 78.5282 41.6743C78.5434 41.72 78.5678 41.7622 78.5998 41.7982C78.6353 41.834 78.6785 41.8614 78.726 41.8783C78.7735 41.8952 78.8242 41.9012 78.8743 41.8958H78.9805H79.069V42.4104H78.8743H78.6884C78.3785 42.4015 78.1837 42.3217 78.0952 42.162C77.9887 41.9702 77.9424 41.7506 77.9624 41.532C77.7826 41.834 77.5376 42.0917 77.2453 42.2862C76.9065 42.4802 76.5193 42.5726 76.1297 42.5524C75.7059 42.5699 75.2883 42.445 74.9434 42.1975C74.7781 42.064 74.6469 41.8929 74.5607 41.6985C74.4745 41.5041 74.4357 41.2919 74.4476 41.0795C74.4296 40.8973 74.4511 40.7134 74.5107 40.5403C74.5703 40.3673 74.6665 40.2092 74.7929 40.0769C75.085 39.8451 75.4333 39.6951 75.8022 39.6422C75.8905 39.6268 75.9801 39.6097 76.0709 39.5924C76.3985 39.53 76.7412 39.4647 77.0947 39.4647C77.2981 39.4577 77.4976 39.4062 77.6791 39.3139C77.7542 39.2489 77.8121 39.1662 77.8476 39.0733C77.8831 38.9805 77.8952 38.8802 77.8827 38.7815C77.8985 38.6215 77.8705 38.4602 77.8019 38.3149C77.7333 38.1696 77.6266 38.0457 77.4931 37.9564C77.2237 37.8047 76.9163 37.7338 76.6078 37.7523C76.2699 37.7319 75.9352 37.8291 75.6605 38.0274C75.5317 38.1356 75.4289 38.2716 75.3599 38.4253ZM80.7246 35.854H80.1137V37.3712H79.2284V37.8858H80.1137V41.3372C80.0757 41.6515 80.1579 41.9686 80.3439 42.2245C80.4672 42.3231 80.6094 42.3952 80.7617 42.4365C80.914 42.4777 81.0732 42.4871 81.2292 42.4641H81.7782V41.9228H81.247C81.1681 41.9281 81.0891 41.9129 81.0178 41.8787C80.9465 41.8445 80.8851 41.7925 80.8397 41.7276C80.7678 41.582 80.7371 41.4193 80.7512 41.2574V37.8858H81.7782V37.3712H80.7246V35.854Z" fill="#D9D9D6"/>
</svg>
