<svg width="105" height="105" viewBox="0 0 105 105" fill="none" xmlns="http://www.w3.org/2000/svg">
<rect x="0.353516" width="104.47" height="104.696" rx="52.235" fill="#313131"/>
<path fill-rule="evenodd" clip-rule="evenodd" d="M59.8104 37.3323C60.0089 36.8053 60.2413 36.2298 60.9916 36.1146C60.9443 36.0695 60.894 36.0275 60.8411 35.9889C59.9503 35.4614 59.0156 35.0375 57.9638 34.973C57.345 34.935 56.7626 35.0618 56.4766 35.7067C56.3356 36.0248 56.194 36.35 56.1165 36.6863C55.7665 38.206 55.4326 39.7297 55.1048 41.2544C54.5558 43.8133 53.9555 46.3573 53.0982 48.8379C52.2621 51.2606 51.2259 53.5896 49.7538 55.7085C49.6945 55.7938 49.6356 55.8797 49.5768 55.9657L49.5763 55.9663C49.1672 56.5637 48.755 57.1657 48.1529 57.5993C47.3854 58.1511 46.722 58.2294 45.8731 57.7553C44.9294 57.2283 44.2215 56.4527 43.5794 55.6165C42.3236 53.9798 41.58 52.1012 41.0198 50.1504C40.3838 47.9344 40.0499 45.661 39.9106 43.3657C39.667 39.3361 39.8314 35.3203 40.4931 31.3354C41.0009 28.2787 41.8944 25.3268 43.0761 22.4604C43.2619 22.0096 43.4666 21.5661 43.6744 21.1158C43.782 20.8827 43.8904 20.6478 43.9975 20.4092H43.7522C40.9566 20.4191 38.1609 20.4261 35.3649 20.4301C35.1961 20.4307 35.1342 20.5012 35.0957 20.6402C35.0579 20.7771 35.0181 20.9135 34.9782 21.0499L34.9782 21.0499C34.9177 21.2572 34.8571 21.4646 34.8036 21.6737C34.645 22.2965 34.4831 22.9186 34.3213 23.5407L34.3213 23.5407C33.9284 25.0514 33.5354 26.5621 33.1872 28.0825C32.7998 29.7731 32.4341 31.4748 32.3193 33.2129C31.9849 38.2794 32.5384 43.2218 34.4146 47.9862C35.3031 50.2479 36.468 52.3377 38.0934 54.1667C39.75 56.0332 41.745 57.3474 44.216 57.9074C45.1195 58.1142 46.032 58.129 46.955 58.1142C48.3614 58.0895 49.7403 57.7246 50.9711 57.0514C52.7565 56.0939 53.9688 54.5851 54.9538 52.8823C56.0825 50.932 56.825 48.8235 57.3824 46.6577C57.6912 45.4574 57.9707 44.2497 58.2502 43.042C58.4802 42.0482 58.7102 41.0544 58.9565 40.0648C59.1884 39.1387 59.4735 38.2264 59.8104 37.3323ZM71.3812 46.0938C71.3561 46.0519 71.3308 46.0101 71.3064 45.9678L71.2623 46.008C71.2954 46.179 71.3314 46.3497 71.3674 46.5203L71.3674 46.5205L71.3675 46.5208L71.3675 46.5211L71.3676 46.5213L71.3677 46.5216L71.3677 46.5219L71.3678 46.5222L71.3678 46.5224L71.3679 46.5227L71.368 46.523L71.368 46.5233L71.3681 46.5235L71.3681 46.5238L71.3682 46.5241L71.3682 46.5244L71.3683 46.5246L71.3684 46.5249L71.3684 46.5252L71.3685 46.5255C71.4492 46.9081 71.5299 47.2908 71.5784 47.6777C71.672 48.4236 71.6079 49.16 71.2891 49.8612C71.0293 50.4317 70.4296 50.7399 69.8287 50.5618C69.4826 50.4602 69.1448 50.3329 68.8181 50.1809C67.9497 49.7724 67.4553 49.0139 67.0155 48.2179C66.3775 47.0633 65.9074 45.8356 65.4382 44.6102L65.4382 44.6101L65.4381 44.6101C65.3789 44.4555 65.3197 44.3009 65.2602 44.1465C64.5183 42.2182 63.7675 40.2922 62.9871 38.3805C62.6839 37.6396 62.2469 36.9616 61.641 36.4103C61.5425 36.3335 61.4382 36.2644 61.3289 36.2036C61.4154 36.4265 61.5252 36.6221 61.6327 36.8132L61.6327 36.8133C61.6886 36.9128 61.7439 37.0111 61.7948 37.1115C62.4487 38.3998 62.821 39.785 63.185 41.1698C63.4354 42.1234 63.6756 43.0798 63.9157 44.0361L63.9157 44.0363C64.2096 45.2066 64.5034 46.3767 64.816 47.5416C65.1554 48.8122 65.6264 50.0409 66.4257 51.1131C67.2875 52.2707 68.3828 53.0893 69.8627 53.2949C70.9686 53.4492 71.9658 52.9443 72.4825 51.9719C72.9033 51.1792 72.8504 50.3342 72.6932 49.4957C72.4858 48.3861 72.031 47.3602 71.5293 46.3536C71.4844 46.2651 71.4329 46.1795 71.3812 46.0938ZM64.0641 35.1326L66.0958 34.4711C66.1233 34.462 66.1507 34.4524 66.1781 34.4428C66.2117 34.431 66.2454 34.4192 66.2792 34.4083C66.6097 34.3014 66.8021 34.1112 66.8829 33.7468C66.9924 33.251 67.1362 32.7628 67.2842 32.2607L67.2843 32.2602C67.3464 32.0496 67.4091 31.8366 67.4704 31.6196C67.5019 31.6434 67.5296 31.6621 67.5536 31.6784C67.5975 31.7082 67.6294 31.7298 67.651 31.759L67.7919 31.948L67.7923 31.9486C68.2079 32.5059 68.6232 33.0628 69.0278 33.6277C69.1353 33.7777 69.2407 33.808 69.4213 33.7964C70.0194 33.7599 70.6185 33.7354 71.2411 33.7099C71.4829 33.7 71.7283 33.69 71.9786 33.679L71.8863 33.8096C71.7567 33.9928 71.6467 34.1482 71.5361 34.3025C71.4404 34.4358 71.3443 34.5687 71.2482 34.7016L71.2475 34.7027L71.2462 34.7045L71.2461 34.7046C70.9761 35.0781 70.7062 35.4514 70.4469 35.8316C70.3945 35.9082 70.4006 36.0565 70.4346 36.1524C70.598 36.6124 70.7685 37.0698 70.939 37.5273L70.9391 37.5276L70.9392 37.528L70.9394 37.5284L70.9395 37.5287L70.9397 37.5291L70.9398 37.5295L70.9399 37.5299L70.9401 37.5302L70.9402 37.5306L70.9403 37.531L70.9405 37.5314L70.9406 37.5317L70.9408 37.5321L70.9409 37.5325L70.941 37.5328L70.9412 37.5332L70.9413 37.5336L70.9414 37.534L70.9416 37.5343L70.9417 37.5347L70.9419 37.5351L70.942 37.5354L70.9421 37.5358L70.9423 37.5362L70.9424 37.5366L70.9425 37.5369L70.9427 37.5373L70.9428 37.5377L70.943 37.538L70.9431 37.5384L70.9432 37.5388L70.9434 37.5392L70.9435 37.5395L70.9436 37.5399L70.9438 37.5403L70.9439 37.5406L70.944 37.541L70.9442 37.5414L70.9443 37.5418L70.9445 37.5421L70.9446 37.5426C71.0223 37.7511 71.1 37.9596 71.1771 38.1683C71.2014 38.2345 71.2215 38.302 71.2471 38.3879C71.2603 38.4324 71.275 38.4817 71.2925 38.5382C71.2328 38.5213 71.178 38.5059 71.1268 38.4916L71.1251 38.4911L71.1249 38.4911C71.0018 38.4566 70.8988 38.4278 70.7964 38.396L70.5367 38.316L70.536 38.3158L70.5358 38.3157L70.5356 38.3157L70.5354 38.3156L70.5352 38.3156L70.535 38.3155L70.5349 38.3155L70.5347 38.3154L70.5345 38.3153L70.5343 38.3153L70.5341 38.3152L70.5339 38.3152L70.5338 38.3151L70.5336 38.3151L70.5334 38.315L70.5332 38.3149L70.533 38.3149L70.5328 38.3148L70.5327 38.3148L70.5325 38.3147L70.5323 38.3147L70.5321 38.3146L70.5319 38.3145L70.5317 38.3145L70.5316 38.3144L70.5314 38.3144L70.5312 38.3143L70.531 38.3143L70.5308 38.3142L70.5306 38.3141L70.5305 38.3141L70.5303 38.314L70.5301 38.314L70.5299 38.3139L70.5297 38.3139L70.5295 38.3138L70.5294 38.3137L70.5292 38.3137L70.529 38.3136L70.5288 38.3136L70.5286 38.3135L70.5285 38.3135L70.5283 38.3134L70.5281 38.3133L70.5279 38.3133L70.5277 38.3132L70.5275 38.3132C69.9711 38.1419 69.4149 37.9707 68.86 37.7946C68.6811 37.7395 68.5528 37.7786 68.4063 37.8988C67.9439 38.2793 67.473 38.6504 67.0024 39.0213C66.871 39.1248 66.7397 39.2283 66.6086 39.332C66.5548 39.3697 66.4989 39.4047 66.4414 39.4367C66.4387 39.3979 66.4356 39.3633 66.4327 39.3314C66.4275 39.2727 66.423 39.223 66.423 39.1727C66.423 39.0085 66.4227 38.8443 66.4224 38.6801C66.4213 38.1277 66.4202 37.5752 66.4314 37.0228C66.4353 36.815 66.3717 36.6745 66.2017 36.562C65.7554 36.2684 65.3107 35.9719 64.8661 35.6755L64.8656 35.6752L64.4693 35.411C64.3567 35.3322 64.2447 35.255 64.0641 35.1326ZM44.5354 84.255L45.644 81.6476L45.7081 81.6509C45.7121 81.6673 45.7164 81.6838 45.7208 81.7002C45.7298 81.7346 45.7389 81.7691 45.7449 81.8041C45.7745 81.9729 45.8043 82.1417 45.8342 82.3105L45.8342 82.3106L45.8342 82.3106L45.8342 82.3106L45.8342 82.3107L45.8342 82.3107L45.8342 82.3107L45.8342 82.3108L45.8342 82.3108L45.8342 82.3108L45.8342 82.3109L45.8342 82.3109L45.8342 82.3109L45.8342 82.311L45.8342 82.311L45.8342 82.311L45.8342 82.3111L45.8343 82.3111L45.8343 82.3111L45.8343 82.3112L45.8343 82.3112L45.8343 82.3112L45.8343 82.3113L45.8343 82.3113L45.8343 82.3113L45.8343 82.3114L45.8343 82.3114L45.8343 82.3115L45.8343 82.3115L45.8343 82.3115L45.8343 82.3116L45.8343 82.3116L45.8343 82.3116L45.8343 82.3117L45.8343 82.3117L45.8344 82.3117L45.8344 82.3118L45.8344 82.3118L45.8344 82.3118L45.8344 82.3119L45.8344 82.3119L45.8344 82.3119L45.8344 82.312L45.8344 82.312L45.8344 82.312L45.8344 82.3121L45.8344 82.3121C45.9353 82.8832 46.0362 83.4546 46.1295 84.0273C46.163 84.2302 46.2605 84.2572 46.4601 84.1971L45.8224 80.4867L45.7577 80.4983L44.5872 83.4529L44.5198 83.4419L43.3381 80.485L43.2768 80.4983C43.168 81.1469 43.0595 81.7956 42.9502 82.4483L42.6575 84.1965C42.8102 84.2269 42.9356 84.2462 42.9652 84.0472C42.9838 83.9221 43.0087 83.7979 43.0337 83.6736L43.0337 83.6735L43.0337 83.6734C43.0485 83.6 43.0632 83.5266 43.0767 83.4529C43.1551 83.0205 43.2327 82.5878 43.313 82.1405L43.3131 82.14L43.425 81.5164C43.7633 82.3516 44.0886 83.1537 44.4312 83.9981L44.5354 84.255ZM68.4078 83.4518C68.798 82.4672 69.1882 81.4824 69.5784 80.4971L69.6308 80.4894C69.8389 81.7205 70.0466 82.9516 70.2539 84.1827C69.9976 84.2648 69.9706 84.1154 69.9468 83.9837L69.9463 83.981C69.8615 83.5044 69.7797 83.0295 69.6978 82.5545C69.666 82.3702 69.6343 82.1859 69.6023 82.0014C69.5891 81.9255 69.5744 81.8498 69.5597 81.7741L69.5597 81.7737C69.5521 81.7346 69.5445 81.6955 69.5371 81.6564L69.4647 81.6365C69.1604 82.3589 68.8569 83.0809 68.5368 83.8425L68.5292 83.8608L68.3498 84.2874L67.2735 81.5682H67.2178L67.1789 81.8103L67.15 81.9914L67.1499 81.9919L67.1498 81.9924L67.1497 81.993L67.1497 81.9931L67.1497 81.9932L67.1496 81.9933L67.1496 81.9935L67.1496 81.9936L67.1496 81.9937L67.1496 81.9939L67.1495 81.994L67.1495 81.9941L67.1495 81.9942L67.1495 81.9944L67.1494 81.9945L67.1494 81.9946L67.1494 81.9947L67.1494 81.9949L67.1493 81.995L67.1493 81.9951L67.1493 81.9952L67.1493 81.9954L67.1493 81.9955L67.1492 81.9956L67.1492 81.9957L67.1492 81.9959L67.1492 81.996L67.1491 81.9961L67.1491 81.9962L67.1491 81.9964L67.1491 81.9965L67.1491 81.9966L67.149 81.9967L67.149 81.9969L67.149 81.997L67.149 81.9971L67.1489 81.9972L67.1489 81.9974L67.1489 81.9975L67.1489 81.9976L67.1488 81.9978L67.1488 81.9979L67.1488 81.998L67.1488 81.9981L67.1488 81.9983L67.1487 81.9984L67.1487 81.9985L67.1487 81.9986C67.0964 82.3269 67.0442 82.6551 66.9876 82.9827L66.9862 82.9902C66.9254 83.3399 66.8643 83.6907 66.7785 84.035C66.7646 84.0922 66.7061 84.1387 66.647 84.1857L66.6469 84.1857L66.6469 84.1857C66.6183 84.2084 66.5896 84.2312 66.5656 84.2555L66.4614 84.1893L67.1135 80.4646L67.1603 80.4569C67.5516 81.4579 67.9431 82.4586 68.3348 83.4589L68.4078 83.4518ZM48.0549 65.1407L45.3281 62.0322L45.3253 62.664C45.3247 62.9214 45.3243 63.179 45.324 63.4369L45.324 63.4393C45.323 64.1711 45.322 64.9042 45.3158 65.6373C45.3158 65.8639 45.3977 65.9378 45.6502 65.8529V62.8381L48.3219 65.9124C48.3462 65.7568 48.3395 65.6185 48.3331 65.4856C48.3303 65.4265 48.3275 65.3685 48.3275 65.3105C48.3259 64.8397 48.3268 64.3682 48.3277 63.8963C48.3288 63.3769 48.3298 62.857 48.3275 62.3371C48.3275 62.2906 48.2952 62.244 48.2631 62.1977C48.2484 62.1765 48.2337 62.1553 48.2221 62.1342C48.2046 62.1544 48.1835 62.1741 48.1624 62.1938L48.1624 62.1939C48.1149 62.2382 48.0674 62.2827 48.0605 62.3327C48.0441 62.452 48.0479 62.5742 48.0516 62.6964C48.0533 62.7493 48.0549 62.8021 48.0549 62.8547V65.1407ZM59.8167 74.7943C60.8262 74.7943 61.611 75.6211 61.6277 76.6685C61.6422 77.5951 60.8289 78.6034 59.8501 78.5979C58.7515 78.5918 58.0781 77.5935 58.0664 76.6889C58.0547 75.7843 58.7994 74.7094 59.8167 74.7943ZM61.2807 76.5219L61.2807 76.5218L61.2807 76.5217C61.2697 76.423 61.2587 76.3243 61.2364 76.2281C61.1032 75.6597 60.6076 75.1879 60.0658 75.1052C59.4527 75.0115 58.9326 75.2457 58.6367 75.7816C58.3552 76.2898 58.3022 76.8383 58.5207 77.3763C58.8356 78.148 59.917 78.8139 60.8618 77.8217C61.1801 77.4915 61.291 77.1012 61.2977 76.663C61.2912 76.6161 61.286 76.569 61.2807 76.5219ZM65.2936 69.6506C65.2875 68.8419 64.7011 67.7537 63.5127 67.7901C62.5406 67.7747 61.763 68.5878 61.7435 69.6351C61.724 70.6825 62.4949 71.5369 63.4492 71.586C64.4709 71.6383 65.3014 70.6808 65.2936 69.6506ZM63.2485 68.085C64.1682 67.9263 64.9765 68.6594 64.9647 69.6467C64.9564 70.5441 64.38 71.2337 63.6002 71.2773C62.6788 71.3291 61.9604 70.4697 62.0952 69.4808C62.1961 68.7465 62.656 68.1881 63.2485 68.085ZM43.2651 67.7929C44.2533 67.8094 44.978 68.4543 45.0755 69.3529C45.1312 69.8843 45.0499 70.3782 44.7271 70.8412C44.0136 71.8665 42.4312 71.8754 41.8008 70.5849C41.3665 69.6963 41.5984 68.6704 42.386 68.0641C42.6376 67.8742 42.9489 67.7781 43.2651 67.7929ZM44.7505 69.6765C44.745 68.9383 44.3971 68.3623 43.8297 68.1501C42.9864 67.8348 42.1603 68.3419 41.9301 69.3159C41.6937 70.3131 42.4072 71.2971 43.3531 71.28C44.1619 71.2657 44.7578 70.5816 44.7505 69.6765ZM53.2181 63.9607C53.2153 62.947 52.4126 62.1223 51.4316 62.1256C50.3948 62.0424 49.6601 63.0627 49.6802 63.9976C49.7042 65.0913 50.455 65.9242 51.4438 65.9182C52.4204 65.9121 53.2181 65.029 53.2181 63.9607ZM51.9333 62.4878C52.5185 62.7375 52.8881 63.3097 52.8808 64.0054C52.8927 64.2222 52.8588 64.4391 52.7812 64.6423C52.7037 64.8455 52.5842 65.0305 52.4305 65.1856C52.0068 65.6095 51.4912 65.7126 50.945 65.5053C50.3642 65.2859 50.0671 64.8113 49.9974 64.2165C49.931 63.657 50.1133 63.168 50.5191 62.7634C50.7012 62.5849 50.9325 62.4635 51.1841 62.4144C51.4357 62.3654 51.6963 62.3909 51.9333 62.4878ZM48.6022 80.4708C49.6975 80.4025 50.4038 81.4961 50.3687 82.3947C50.3268 83.4707 49.5883 84.2352 48.576 84.2523C47.4657 84.2705 46.8319 83.173 46.8481 82.3329C46.8648 81.2988 47.6502 80.4587 48.6022 80.4708ZM50.0325 82.3715C50.0476 81.393 49.4194 80.742 48.493 80.7779C47.8029 80.8049 47.2873 81.3467 47.1625 82.1758C46.9986 83.2595 47.9952 84.1994 48.9969 83.9062C49.6267 83.7215 50.0214 83.1372 50.0325 82.3715ZM33.5791 81.8801C33.5786 82.0272 33.578 82.1743 33.578 82.3214H33.592C33.592 82.4772 33.5927 82.6331 33.5935 82.7889C33.5955 83.1741 33.5974 83.5593 33.5875 83.9443C33.5825 84.162 33.6678 84.2172 33.8662 84.1962C34.0959 84.1714 34.3277 84.151 34.5591 84.1455C35.1962 84.1301 35.6047 83.7927 35.8924 83.2597C36.098 82.8777 36.1393 82.4725 36.0835 82.0574C35.9782 81.2697 35.4085 80.6291 34.7519 80.5531C34.5797 80.5333 34.4061 80.5261 34.2322 80.5189H34.2321L34.2319 80.5189C34.0907 80.5131 33.9494 80.5072 33.8088 80.4946C33.6209 80.4781 33.5697 80.5442 33.5736 80.7256C33.582 81.1104 33.5806 81.4952 33.5791 81.8801ZM33.942 83.7106C33.9364 82.7624 33.9364 81.8116 33.9364 80.8441C34.7452 80.7537 35.3193 80.9836 35.5886 81.5354C35.7231 81.7987 35.79 82.0907 35.7834 82.3857C35.7768 82.6806 35.6969 82.9694 35.5507 83.2266C35.2865 83.7155 34.6259 83.9928 34.0685 83.8759C34.0354 83.8608 34.0065 83.8377 33.9844 83.8089C33.9623 83.7801 33.9478 83.7463 33.942 83.7106ZM56.4939 70.8166V68.1751C56.4939 68.1548 56.4915 68.1332 56.4892 68.1116L56.4892 68.1116C56.484 68.0645 56.4789 68.0176 56.4984 67.9855C56.5279 67.9372 56.576 67.9002 56.6241 67.8632C56.6441 67.8478 56.6642 67.8324 56.6829 67.8162C56.6968 67.8359 56.7146 67.8557 56.7324 67.8755C56.7708 67.9182 56.8094 67.9611 56.8094 68.0036C56.8094 68.5342 56.8057 69.0647 56.802 69.5947L56.802 69.5952V69.5955V69.5959V69.5963V69.5967V69.5969V69.5971V69.5973V69.5975V69.5977V69.5979V69.5981V69.5983V69.5985V69.5987V69.5989V69.599V69.5992V69.5994V69.5996V69.5998V69.6V69.6002V69.6004V69.6006V69.6008V69.601V69.6012V69.6014V69.6016V69.6018V69.602V69.6022V69.6024V69.6025V69.6027V69.6029V69.6031V69.6033V69.6035V69.6037V69.6039C56.7989 70.0622 56.7957 70.5202 56.7949 70.9776C56.7949 71.0434 56.798 71.1092 56.8012 71.1758C56.8079 71.3179 56.8149 71.4638 56.7921 71.6226L54.1138 68.5505C54.0978 68.6168 54.087 68.6843 54.0814 68.7522C54.0824 69.0412 54.084 69.3302 54.0855 69.6192L54.0855 69.6199C54.0885 70.166 54.0915 70.7122 54.0904 71.2582C54.0904 71.2815 54.0951 71.3089 54.0999 71.3373C54.117 71.4372 54.1361 71.5488 53.9599 71.5338C53.9098 71.5305 53.8345 71.3607 53.8334 71.267C53.8253 70.535 53.8247 69.803 53.8241 69.07V69.0697V69.0695V69.0693V69.069V69.0688V69.0686V69.0684V69.0681V69.0679V69.0677V69.0674V69.0672V69.067V69.0668V69.0665V69.0663V69.0661V69.0658V69.0656V69.0654V69.0652V69.0649V69.0647V69.0645V69.0642L53.8238 68.7424L53.8234 68.4005V67.7831L56.4939 70.8166ZM61.8467 83.4911L59.1756 80.4394V81.5794C59.1756 81.7619 59.1754 81.9444 59.1751 82.1266C59.1742 82.7539 59.1734 83.3795 59.1829 84.0048C59.1832 84.054 59.2319 84.1031 59.2808 84.1524C59.3048 84.1767 59.3289 84.201 59.3473 84.2253C59.3602 84.2013 59.3765 84.1773 59.3928 84.1534C59.428 84.1017 59.4632 84.0501 59.4632 83.9977C59.4704 83.6648 59.469 83.3313 59.4677 82.9977V82.9976V82.9975V82.9974V82.9973V82.9973V82.9972V82.9971V82.997V82.9969V82.9969V82.9968V82.9967V82.9966V82.9965V82.9965V82.9964V82.9963V82.9962V82.9961V82.9961V82.996V82.9959V82.9958V82.9957V82.9957V82.9956V82.9955V82.9954V82.9953V82.9953V82.9952V82.9951V82.995V82.9949V82.9949V82.9948C59.4671 82.8609 59.4666 82.727 59.4666 82.5931V81.215C59.8677 81.6674 60.2528 82.1145 60.6324 82.5553C61.128 83.1307 61.6142 83.6953 62.1148 84.2468L62.1706 84.1917V80.5144C61.9415 80.4421 61.8317 80.4592 61.8395 80.7348C61.8532 81.2411 61.8508 81.7466 61.8485 82.2516V82.2518V82.252V82.2522V82.2524V82.2525V82.2527V82.2529V82.2531V82.2533V82.2535V82.2537V82.2539V82.2541V82.2543V82.2545V82.2547V82.2549V82.2551V82.2553V82.2555V82.2557V82.2559V82.2561V82.2562V82.2564V82.2566V82.2568V82.257V82.2572V82.2574V82.2576V82.2578V82.258C61.8476 82.4486 61.8467 82.6391 61.8467 82.8296V83.4911ZM51.3892 80.4928L51.3897 80.4929H51.3898C51.669 80.5046 51.9348 80.5158 52.1947 80.5598C52.79 80.6601 53.1596 81.0719 53.3625 81.5972C53.4726 81.8669 53.5218 82.1572 53.5066 82.4478C53.4914 82.7383 53.4121 83.022 53.2744 83.279C53.0046 83.7928 52.6094 84.1302 51.9924 84.1489C51.8727 84.1526 51.7531 84.1616 51.6335 84.1707C51.4847 84.1819 51.3359 84.1932 51.1869 84.1941C51.1217 84.1941 50.9991 84.1109 50.9985 84.0651C50.9879 83.0874 50.9884 82.1093 50.9888 81.1043L50.989 80.4727C51.1257 80.4818 51.2588 80.4874 51.3889 80.4928H51.389H51.389H51.3891H51.3891H51.3892H51.3892H51.3892ZM51.3079 83.8964L51.4174 83.8925C52.036 83.8707 52.6131 83.8504 52.9322 83.246C53.2666 82.6153 53.2861 81.9715 52.8764 81.3651C52.5149 80.8324 51.9545 80.8238 51.3714 80.8148L51.3107 80.8139L51.3079 83.8964ZM57.0101 78.523L55.8986 76.8726C56.32 76.8163 56.5524 76.5749 56.7291 76.2679C57.0051 75.7954 56.7264 74.8859 55.9844 74.8616C55.7437 74.8539 55.5029 74.8451 55.2626 74.8264C55.1194 74.8153 55.0664 74.8578 55.0664 75.0083C55.0826 76.1107 55.0982 77.2132 55.0982 78.3157C55.0987 78.5357 55.1779 78.5941 55.4259 78.5263V76.8224L55.5084 76.7987L55.5308 76.8272C55.5467 76.8472 55.5627 76.867 55.5788 76.8868L55.5789 76.887L55.5789 76.8871L55.579 76.8871L55.579 76.8871L55.579 76.8872L55.579 76.8872L55.579 76.8872L55.5791 76.8873L55.5791 76.8873L55.5791 76.8873L55.5791 76.8874L55.5792 76.8874L55.5792 76.8874L55.5792 76.8875L55.5792 76.8875L55.5793 76.8875L55.5794 76.8877C55.6327 76.9536 55.6859 77.0193 55.7314 77.0898C55.8749 77.3102 56.0162 77.5336 56.1578 77.7573C56.2774 77.9463 56.3972 78.1356 56.5184 78.3234C56.626 78.4899 56.757 78.6189 57.0101 78.523ZM56.5129 76.0248C56.4471 76.4382 56.0118 76.6394 55.4343 76.4961C55.4343 76.3997 55.434 76.3043 55.4338 76.2095V76.2093C55.433 75.9038 55.4322 75.6048 55.4399 75.3032C55.4458 75.2711 55.4596 75.241 55.4802 75.2156C55.5007 75.1901 55.5272 75.17 55.5575 75.1571C56.1388 75.0132 56.606 75.441 56.5129 76.0248ZM33.9074 78.5409L33.89 78.543C33.7113 78.5636 33.5852 78.5782 33.5852 78.3816V74.7881C33.7101 74.8033 33.8333 74.8152 33.9549 74.8269H33.9549L33.955 74.8269L33.9551 74.827L33.9552 74.827L33.9553 74.827C34.2286 74.8533 34.4935 74.8788 34.7496 74.9402C35.0841 75.0213 35.292 75.4193 35.2831 75.8222C35.2719 76.2979 35.0395 76.6766 34.6855 76.793C34.6294 76.8115 34.5721 76.8266 34.5072 76.8438L34.5068 76.8439C34.4732 76.8528 34.4376 76.8622 34.399 76.8729L35.4742 78.536L35.4185 78.6154C35.3801 78.5914 35.338 78.57 35.296 78.5486C35.2036 78.5017 35.1113 78.4548 35.0584 78.3805C34.87 78.1177 34.6944 77.8465 34.5184 77.5748L34.5183 77.5747L34.5182 77.5745L34.5181 77.5744L34.5181 77.5744C34.424 77.429 34.3298 77.2835 34.2335 77.1391C34.1515 77.012 34.0386 76.9072 33.9052 76.8343L33.9074 78.5409ZM33.9353 75.1651C33.9353 75.2652 33.935 75.3637 33.9348 75.4609C33.934 75.7719 33.9332 76.0705 33.9408 76.369C33.9459 76.4019 33.9591 76.433 33.9792 76.4597C33.9993 76.4863 34.0258 76.5076 34.0562 76.5217C34.3282 76.5769 34.5919 76.5576 34.8087 76.3564C35.0423 76.1392 35.0411 75.868 34.9681 75.5924C34.8951 75.3167 34.6894 75.1905 34.4163 75.1679C34.3177 75.1593 34.2181 75.1611 34.1057 75.1631H34.1056H34.1056H34.1056H34.1055H34.1055H34.1055H34.1054H34.1054H34.1054H34.1053H34.1053H34.1052H34.1052H34.1051H34.1051H34.105H34.105H34.1049H34.1049H34.1047H34.1046H34.1044H34.1042H34.1041H34.1039H34.1037H34.1035H34.1033H34.1031H34.1029H34.1027H34.1025H34.1023H34.1021H34.1018H34.1016H34.1013H34.1011H34.1008H34.1005H34.1002H34.0999C34.0482 75.1641 33.9936 75.1651 33.9353 75.1651ZM58.5106 84.2224L57.4515 82.6156C57.5194 82.5715 57.5868 82.5321 57.6521 82.4939L57.6521 82.4939C57.7895 82.4134 57.9175 82.3385 58.0206 82.238C58.4771 81.7937 58.3623 80.8069 57.8138 80.6278C57.5609 80.5454 57.2888 80.522 57.0147 80.4984H57.0147C56.8835 80.4872 56.7518 80.4758 56.6216 80.458V84.1987C56.8334 84.2379 56.9198 84.1954 56.9137 83.9827C56.9029 83.6397 56.905 83.2964 56.907 82.9531V82.9531V82.9531V82.953V82.953V82.953V82.9529V82.9529V82.9529V82.9528V82.9528V82.9527V82.9527V82.9527V82.9526V82.9526V82.9526V82.9525V82.9525V82.9525V82.9524V82.9524V82.9524V82.9523V82.9523V82.9523V82.9522V82.9522V82.9522V82.9521V82.9521V82.9521V82.952C56.9078 82.8145 56.9086 82.677 56.9086 82.5395L56.9895 82.5009C57.076 82.5817 57.1557 82.6693 57.228 82.7628C57.3829 82.9981 57.534 83.2374 57.6852 83.4768L57.6853 83.4769L57.6853 83.477L57.6854 83.477L57.6854 83.4771L57.6855 83.4772L57.6855 83.4773L57.6856 83.4774L57.6856 83.4774L57.6857 83.4775L57.6858 83.4776L57.6858 83.4777L57.6859 83.4778L57.6859 83.4778L57.686 83.4779L57.686 83.478L57.6861 83.4781L57.6861 83.4782L57.6862 83.4782L57.6862 83.4783L57.6863 83.4784L57.6863 83.4785L57.6864 83.4786L57.6864 83.4786L57.6865 83.4787L57.6865 83.4788L57.6866 83.4789L57.6866 83.479L57.6867 83.479L57.6867 83.4791L57.6868 83.4792L57.6868 83.4793L57.687 83.4796C57.7959 83.6519 57.9047 83.8243 58.0151 83.9953C58.1204 84.1546 58.2564 84.2572 58.5106 84.2224ZM56.9348 81.9001V80.781H56.9365C57.0278 80.7969 57.1142 80.8084 57.1963 80.8193L57.1964 80.8193H57.1965C57.3682 80.8421 57.5209 80.8624 57.66 80.915C58.097 81.0787 58.1678 81.776 57.7804 82.0632C57.6515 82.1516 57.5056 82.2128 57.3518 82.2429C57.0363 82.3124 56.9348 82.2231 56.9348 81.9001ZM59.3869 67.8125C59.4955 67.8187 59.6017 67.8227 59.7061 67.8266C59.9352 67.8353 60.1557 67.8436 60.3751 67.8742C60.8071 67.9349 61.087 68.2689 61.1221 68.7099C61.16 69.1884 60.9365 69.5825 60.5379 69.7336C60.4717 69.7584 60.4038 69.779 60.3292 69.8017L60.2724 69.819L60.2312 69.8317L60.2035 69.8405L61.3044 71.5146C61.0379 71.6094 60.9142 71.4882 60.8077 71.3228C60.7201 71.1835 60.6332 71.0438 60.5464 70.904L60.5463 70.9039L60.5462 70.9037L60.5461 70.9036L60.546 70.9034L60.5459 70.9033L60.5459 70.9032L60.5458 70.903L60.5455 70.9027L60.5455 70.9025C60.3807 70.6374 60.216 70.3722 60.0457 70.1101C59.9715 70.0119 59.8895 69.9198 59.8005 69.8345L59.7269 69.8587C59.7246 69.8895 59.7218 69.9203 59.7189 69.9512C59.7132 70.0125 59.7075 70.0738 59.7068 70.1343C59.7055 70.2618 59.7055 70.3893 59.7055 70.5167C59.7054 70.7837 59.7053 71.0505 59.694 71.3173C59.6906 71.3972 59.612 71.5306 59.5502 71.5416C59.3817 71.5708 59.3823 71.442 59.3829 71.3236L59.3829 71.303C59.3852 70.2942 59.3863 69.2856 59.3863 68.2772L59.3869 67.8125ZM59.7213 68.8047H59.7124C59.7124 68.8597 59.7118 68.9148 59.7113 68.9698V68.9699V68.9699V68.9699V68.97V68.97V68.9701V68.9701V68.9701V68.9702V68.9702V68.9702V68.9703V68.9703V68.9703V68.9704V68.9704V68.9704V68.9705V68.9705V68.9705V68.9706V68.9706V68.9706V68.9707V68.9707V68.9707V68.9708V68.9708V68.9708V68.9709V68.9709C59.7099 69.1082 59.7086 69.2453 59.7157 69.3808C59.7196 69.4447 59.7492 69.5379 59.7971 69.5638C60.1037 69.7319 60.7046 69.426 60.7804 69.0726C60.8919 68.5512 60.6165 68.1686 60.0814 68.1002C59.7542 68.0589 59.7313 68.076 59.7224 68.3935C59.7214 68.4769 59.722 68.5609 59.7227 68.6451L59.7231 68.7017C59.7234 68.7355 59.7235 68.7693 59.7235 68.8031L59.7213 68.8047ZM54.7679 62.7091C54.7689 62.5314 54.7699 62.3537 54.7699 62.1759L54.6868 62.0933C54.6629 62.1154 54.6323 62.1374 54.6017 62.1595C54.5362 62.2069 54.4706 62.2543 54.4706 62.3016C54.4707 62.462 54.4701 62.6225 54.4695 62.783V62.7831V62.7832V62.7832V62.7832V62.7833V62.7833V62.7834V62.7834V62.7834V62.7835V62.7835V62.7835V62.7836V62.7836V62.7836V62.7837V62.7837V62.7837V62.7838V62.7838V62.7838V62.7839V62.7839V62.7839V62.784V62.784V62.784V62.7841V62.7841V62.7841V62.7842C54.4668 63.4956 54.4642 64.2078 54.5224 64.9145C54.5754 65.5529 55.0809 65.915 55.7169 65.9029C56.3011 65.8924 56.82 65.4669 56.8496 64.8644C56.8804 64.2382 56.8735 63.6105 56.8667 62.9775V62.9774C56.8637 62.7055 56.8607 62.4325 56.8607 62.1583C56.6461 62.0999 56.5553 62.1556 56.5592 62.3909C56.5682 62.859 56.5648 63.3274 56.5614 63.7959C56.5606 63.9062 56.5598 64.0165 56.5592 64.1268C56.5589 64.1739 56.5588 64.221 56.5587 64.2683V64.2683C56.5584 64.4689 56.5581 64.6704 56.5391 64.8699C56.5245 65.0599 56.4407 65.2383 56.3032 65.3718C56.1658 65.5054 55.984 65.5852 55.7916 65.5964C55.2972 65.6372 54.9622 65.4404 54.8719 64.9994C54.8093 64.6568 54.7765 64.3096 54.7738 63.9614C54.7632 63.5442 54.7656 63.1267 54.7679 62.7091ZM38.3026 64.1774C38.4583 64.4188 38.6111 64.655 38.7629 64.8896L38.764 64.8913L38.7644 64.8919L38.7663 64.8948L38.7678 64.8972L38.768 64.8975C38.9757 65.2186 39.1816 65.5368 39.3906 65.8615C39.1509 65.9304 39.016 65.8477 38.9146 65.6856C38.8366 65.5607 38.759 65.4354 38.6814 65.3102L38.6813 65.3101C38.4925 65.0055 38.3036 64.7007 38.1097 64.3996C38.0669 64.3332 38.0081 64.2771 37.9492 64.2209L37.9491 64.2208L37.9491 64.2208L37.9491 64.2207C37.9214 64.1943 37.8938 64.1679 37.8678 64.1405L37.7992 64.1785C37.7992 64.3045 37.7996 64.4306 37.7999 64.5566C37.8009 64.9206 37.8018 65.2845 37.7948 65.6481C37.7948 65.7017 37.7635 65.7547 37.7323 65.8075L37.7323 65.8076C37.7179 65.832 37.7035 65.8564 37.6922 65.8807C37.6756 65.8564 37.6545 65.8323 37.6335 65.8081L37.6335 65.808C37.5882 65.756 37.543 65.7041 37.5423 65.6514C37.5294 64.9214 37.5226 64.1914 37.5158 63.4614C37.5123 63.0817 37.5088 62.7021 37.5044 62.3225C37.5044 62.1725 37.5685 62.1301 37.7084 62.1433C37.8066 62.1526 37.9048 62.1585 38.0028 62.1644C38.1271 62.1718 38.251 62.1793 38.3739 62.1935C38.8711 62.2486 39.1459 62.5342 39.2044 63.0363C39.2602 63.4939 39.0149 63.9145 38.6002 64.0765C38.5359 64.1031 38.4696 64.1241 38.3857 64.1508L38.3856 64.1508C38.3598 64.1591 38.3322 64.1678 38.3026 64.1774ZM37.7964 62.4531V63.2083C37.7964 63.3737 37.7964 63.5391 37.8115 63.7044C37.8155 63.7377 37.8268 63.7697 37.8445 63.7982C37.8622 63.8268 37.8859 63.8512 37.9141 63.8698C38.2485 64.0242 38.763 63.7739 38.8483 63.4239C39.011 62.7585 38.564 62.3274 37.7964 62.4531ZM40.8942 71.5289C40.9352 71.5553 40.9763 71.5817 41.0143 71.6103L41.104 71.5182L40.8991 71.1948C40.7912 71.0244 40.6833 70.8541 40.5761 70.6853C40.4833 70.5391 40.3909 70.3921 40.2979 70.2441L40.2976 70.2437L40.2963 70.2416L40.2949 70.2393L40.2929 70.2361C40.2121 70.1077 40.1309 69.9783 40.0483 69.848C40.0989 69.8305 40.1446 69.8154 40.187 69.8014C40.2686 69.7744 40.3376 69.7515 40.4045 69.7239C40.7919 69.5624 40.9741 69.2223 40.9407 68.7317C40.9128 68.2813 40.7116 67.9952 40.2997 67.9087C40.0292 67.852 39.749 67.8469 39.4713 67.8419L39.3894 67.8403C39.3448 67.8392 39.2579 67.9561 39.2579 68.019C39.2519 68.4283 39.2539 68.8377 39.2559 69.2471C39.2569 69.4518 39.2579 69.6565 39.2579 69.8612C39.2583 69.9901 39.2582 70.1189 39.2582 70.2478C39.258 70.6048 39.2578 70.9619 39.2685 71.3187C39.2704 71.3734 39.3139 71.4272 39.3574 71.4809C39.3774 71.5056 39.3974 71.5303 39.4134 71.5552C39.4276 71.5299 39.4447 71.505 39.4619 71.4801C39.4995 71.4256 39.537 71.3712 39.5427 71.3137C39.5628 71.1153 39.5625 70.9168 39.5623 70.7184L39.5622 70.6522V69.8491C39.6902 69.9134 39.7985 70.0102 39.876 70.1297C39.9731 70.2778 40.0679 70.4274 40.1626 70.577C40.3234 70.8311 40.4842 71.085 40.6564 71.3314C40.7131 71.4125 40.8036 71.4707 40.8942 71.5289ZM39.5589 69.3712C39.5459 69.1807 39.5441 68.9896 39.5533 68.799V68.7968C39.5535 68.7491 39.5536 68.7016 39.5536 68.6541C39.5537 68.5829 39.5537 68.5118 39.5544 68.4407C39.5544 68.0719 39.5801 68.0504 39.9446 68.095C40.41 68.1529 40.6659 68.4952 40.5973 68.9693C40.5321 69.4246 40.1904 69.6628 39.7188 69.5624C39.6786 69.5456 39.6431 69.5194 39.6153 69.4861C39.5874 69.4528 39.5681 69.4134 39.5589 69.3712ZM51.31 74.8377L51.6378 74.814V75.6823C51.6389 75.8337 51.6395 75.9852 51.64 76.1367V76.1369C51.6416 76.5724 51.6432 77.0078 51.659 77.4429C51.6707 77.7659 51.7911 78.0548 52.1088 78.2147C52.7124 78.5167 53.3562 78.1353 53.378 77.4396C53.3962 76.8728 53.3966 76.3055 53.3971 75.7383C53.3973 75.489 53.3975 75.2397 53.3992 74.9904V74.8372L53.7041 74.808V75.5632C53.7029 75.753 53.704 75.9431 53.7051 76.1331V76.1332C53.7076 76.5766 53.7101 77.0201 53.684 77.4611C53.6416 78.1744 53.1823 78.5834 52.4984 78.5785C51.8295 78.5741 51.3641 78.1408 51.3279 77.4369C51.3055 76.9787 51.3069 76.5195 51.3083 76.0603C51.3089 75.8681 51.3095 75.6759 51.3084 75.4838L51.309 75.295C51.3095 75.1527 51.31 75.005 51.31 74.8377ZM37.0227 75.0901C37.0238 74.8459 36.9619 74.7626 36.7055 74.8459C36.7055 75.0402 36.7051 75.2332 36.7047 75.4253V75.4253C36.7037 75.9124 36.7027 76.3929 36.7083 76.8717C36.7065 77.1193 36.7267 77.3667 36.7685 77.6109C36.8961 78.2862 37.3727 78.629 38.0639 78.5739C38.6453 78.5276 39.1001 78.0364 39.1107 77.4163C39.1203 76.8687 39.119 76.3214 39.1177 75.7742V75.7741C39.1173 75.5865 39.1168 75.3989 39.1168 75.2113V74.8106L38.7936 74.8365V75.0834C38.7917 75.3267 38.7915 75.5702 38.7913 75.8137C38.7908 76.3693 38.7903 76.9253 38.7701 77.4802C38.7462 78.1313 38.147 78.4796 37.5399 78.2288C37.1793 78.08 37.0667 77.773 37.0556 77.4301C37.0292 76.6499 37.0182 75.8699 37.0227 75.0901ZM51.766 67.6953L51.8668 67.9546L51.8731 67.9706L51.8811 67.9913C52.3561 69.2124 52.8057 70.3681 53.2576 71.5314C53.0424 71.5909 52.9232 71.5402 52.8624 71.3159C52.8269 71.1848 52.7758 71.0613 52.7248 70.9379C52.6885 70.8501 52.6522 70.7623 52.6216 70.672C52.5703 70.5199 52.4873 70.4515 52.3189 70.4559C52.1391 70.4592 51.9593 70.457 51.7795 70.4548C51.5692 70.4523 51.3588 70.4497 51.1484 70.4559C51.0998 70.4629 51.0535 70.4806 51.0128 70.5079C50.9722 70.5351 50.9383 70.571 50.9137 70.613C50.8571 70.7356 50.8129 70.8633 50.7686 70.991C50.7258 71.1147 50.6829 71.2384 50.6289 71.3572C50.5977 71.426 50.5305 71.4804 50.4647 71.5337C50.4377 71.5556 50.411 71.5773 50.387 71.5998L50.2649 71.5154C50.7565 70.2674 51.247 69.0177 51.766 67.6953ZM51.7961 68.5773L51.7024 68.5823L51.1172 70.1257H52.4165L51.7961 68.5773ZM67.7473 65.8608L66.2585 62.0065L64.7536 65.8503L64.8416 65.9269C64.8686 65.905 64.8982 65.8846 64.9278 65.8643C64.9972 65.8164 65.0663 65.7688 65.0992 65.7031C65.2183 65.4646 65.3186 65.2172 65.399 64.9633C65.4492 64.8128 65.5211 64.7588 65.6777 64.7638C66.0397 64.7737 66.4018 64.7748 66.7641 64.7671C66.9269 64.7632 67.0222 64.8195 67.0807 64.9711C67.1722 65.2212 67.2781 65.466 67.3979 65.7042C67.4327 65.77 67.5006 65.8185 67.5686 65.867C67.5997 65.8891 67.6308 65.9113 67.6587 65.9352L67.7473 65.8608ZM66.1967 62.8697H66.2903L66.8828 64.476H65.6209C65.7801 64.0338 65.9305 63.6133 66.0792 63.1979L66.0797 63.1964L66.1967 62.8697ZM69.2049 62.1506C69.2049 62.3439 69.2041 62.5367 69.2032 62.7291C69.2012 63.1985 69.1991 63.6659 69.2094 64.1351C69.2166 64.4432 69.23 64.7624 69.3147 65.0562C69.434 65.4729 69.7607 65.6367 70.2283 65.5942C70.6007 65.5606 70.9117 65.2965 70.9457 64.9052C70.9808 64.4988 70.9876 64.0902 70.9945 63.6815C70.9965 63.558 70.9986 63.4344 71.0014 63.311C71.0063 63.0556 71.0047 62.7999 71.0031 62.5449V62.5444C71.0023 62.417 71.0014 62.2897 71.0014 62.1627C71.23 62.1076 71.3153 62.1236 71.3063 62.3711C71.2928 62.745 71.2917 63.1193 71.2907 63.4935C71.2896 63.8719 71.2886 64.2502 71.2746 64.6279C71.2645 64.8848 71.2149 65.1703 71.0862 65.3853C70.8075 65.8478 70.3058 66.006 69.7763 65.8737C69.3303 65.7634 68.9764 65.3495 68.948 64.8131C68.9215 64.3159 68.9176 63.8173 68.9137 63.3188V63.3188V63.3187V63.3186V63.3185V63.3184V63.3184V63.3183V63.3182V63.3181V63.318V63.318V63.3179V63.3178V63.3177V63.3176V63.3176V63.3175V63.3174V63.3173V63.3172V63.3172V63.3171V63.317C68.912 63.1005 68.9103 62.884 68.9067 62.6677C68.9109 62.5758 68.9093 62.4837 68.9017 62.392C68.8671 62.1495 68.9898 62.1082 69.2049 62.1506ZM36.125 65.876C36.1559 65.9009 36.1867 65.9257 36.2145 65.952L36.3126 65.8682C36.0854 65.2707 35.8578 64.6739 35.6285 64.0724L35.6275 64.0698L35.6267 64.0679L35.6244 64.0616L35.6237 64.0598L35.6215 64.0542C35.3641 63.3792 35.1045 62.6982 34.8405 62.0034L34.4386 63.0316C34.0604 63.9991 33.6906 64.9451 33.3193 65.8908L33.4369 65.9575C33.4592 65.9332 33.4835 65.9097 33.5078 65.8861C33.5638 65.8319 33.62 65.7774 33.6527 65.7116C33.7714 65.4732 33.8756 65.2281 33.9648 64.9774C34.0139 64.8346 34.0757 64.7663 34.2368 64.7696C34.3876 64.7732 34.5382 64.7713 34.6886 64.7694H34.6887H34.6888H34.6888H34.6889H34.689H34.689H34.6891H34.6892H34.6893H34.6893H34.6894H34.6895H34.6895H34.6896H34.6897H34.6898H34.6898H34.6899H34.69H34.69H34.6901H34.6902C34.9113 64.7667 35.132 64.764 35.3516 64.7784C35.4587 64.785 35.5991 64.8886 35.6515 64.9862C35.7163 65.1056 35.7646 65.2336 35.813 65.3616C35.8557 65.4747 35.8984 65.5878 35.9525 65.6951C35.9886 65.7661 36.0569 65.8211 36.125 65.876ZM34.8829 62.8358C35.0701 63.3843 35.2574 63.93 35.4486 64.4868L34.18 64.4851C34.3946 63.9151 34.598 63.3733 34.8009 62.8314L34.8829 62.8358ZM43.818 74.7014C44.3253 76.0178 44.8074 77.2696 45.289 78.5215L45.2026 78.5998C45.1754 78.5766 45.145 78.555 45.1147 78.5333C45.0476 78.4855 44.9806 78.4377 44.9468 78.3732C44.8311 78.1433 44.7304 77.9064 44.6452 77.6638C44.5895 77.5138 44.5098 77.4499 44.3387 77.4554C43.968 77.467 43.5956 77.4626 43.2238 77.4488C43.0639 77.4427 42.9936 77.4984 42.9451 77.6467C42.9075 77.7663 42.8612 77.8833 42.8148 78.0003C42.7662 78.1227 42.7177 78.2451 42.6793 78.3705C42.6235 78.543 42.531 78.5849 42.3119 78.5237C42.8069 77.2707 43.2969 76.026 43.818 74.7014ZM44.454 77.1605L43.852 75.5619L43.7645 75.5553L43.1648 77.1605H44.454ZM71.1868 77.444L71.1864 77.4432L71.1704 77.4017C70.8287 76.5198 70.4854 75.634 70.1302 74.7163L68.6129 78.5309C68.9076 78.56 68.9078 78.5596 68.9777 78.368L68.9786 78.3655C69.0084 78.284 69.04 78.203 69.0716 78.1222C69.0901 78.0747 69.1087 78.0272 69.1268 77.9797L69.1275 77.9779C69.332 77.4472 69.3326 77.4455 69.8894 77.456C69.9817 77.4569 70.0806 77.4498 70.18 77.4426C70.4287 77.4247 70.6801 77.4065 70.837 77.5144C70.9928 77.6216 71.0631 77.8573 71.1327 78.0911C71.1612 78.1868 71.1897 78.2822 71.2238 78.3683C71.2929 78.543 71.4027 78.6053 71.609 78.5337L71.1868 77.444ZM69.4528 77.1418H70.7634C70.561 76.6133 70.3668 76.1053 70.1726 75.5975L70.1703 75.5913L70.1664 75.5812H70.0856L69.8516 76.1581C69.7228 76.4756 69.591 76.8004 69.4528 77.1418ZM48.6228 74.8227L48.6249 74.8227H48.6251C49.0159 74.8211 49.4042 74.8195 49.7917 74.8347C49.8364 74.8347 49.8784 74.906 49.9204 74.9772C49.9397 75.01 49.959 75.0427 49.9785 75.0684L49.9132 75.1395H48.5889V76.366C48.7063 76.366 48.8235 76.3657 48.9404 76.3653H48.941H48.9416H48.9421H48.9427H48.9432H48.9438H48.9443H48.9449H48.9454H48.946H48.9466H48.9471H48.9477H48.9482H48.9488H48.9493H48.9499H48.9504H48.951C49.1809 76.3646 49.4101 76.3638 49.639 76.366C49.6615 76.366 49.6861 76.3633 49.7111 76.3605C49.8142 76.3491 49.9255 76.3368 49.9322 76.5088C49.9399 76.6994 49.8181 76.6897 49.707 76.6809C49.6809 76.6789 49.6554 76.6768 49.6323 76.6775C49.3892 76.6833 49.1461 76.6823 48.8943 76.6811C48.7917 76.6807 48.6877 76.6802 48.5816 76.6802V78.2717H49.6752C49.6976 78.2717 49.722 78.269 49.7467 78.2663C49.8453 78.2556 49.9477 78.2445 49.9339 78.4001C49.9294 78.4552 49.7666 78.5269 49.6741 78.5296C49.3342 78.5394 48.9938 78.5381 48.6431 78.5367L48.6412 78.5367C48.5168 78.5362 48.3912 78.5357 48.2639 78.5357L48.2622 74.8236C48.3827 74.8236 48.5029 74.8232 48.6228 74.8227ZM71.1665 82.0378V80.7843C71.2441 80.7843 71.3109 80.7833 71.3748 80.7823L71.4273 80.7816C71.464 80.7826 71.5007 80.7838 71.5374 80.785C71.5914 80.7869 71.6453 80.7889 71.6992 80.7909H71.6993H71.6995H71.6996H71.6997H71.6998H71.7H71.7001H71.7002H71.7003H71.7005H71.7006H71.7007H71.7008H71.701H71.7011H71.7012H71.7014H71.7015C71.9264 80.7995 72.1509 80.808 72.3749 80.8025C72.4199 80.8018 72.4635 80.7544 72.5073 80.7068L72.5074 80.7068C72.5276 80.6848 72.5479 80.6628 72.5683 80.6454C72.559 80.6378 72.5498 80.6292 72.5405 80.6201C72.5308 80.6105 72.521 80.6003 72.5113 80.5901L72.5112 80.59C72.4703 80.5472 72.4294 80.5043 72.3872 80.5043C71.9229 80.4894 71.458 80.4855 70.9937 80.4966C70.9323 80.4966 70.8209 80.6035 70.8209 80.6619C70.8183 81.4953 70.8234 82.3287 70.8284 83.162C70.8301 83.44 70.8317 83.7179 70.8331 83.9958C70.8337 84.1452 70.8922 84.2064 71.0527 84.2004C71.2453 84.1937 71.4379 84.1915 71.6305 84.1894C71.8654 84.1868 72.1001 84.1843 72.3348 84.1733C72.3915 84.1707 72.4466 84.1288 72.5018 84.0868L72.5018 84.0868L72.5018 84.0868C72.5275 84.0673 72.5531 84.0478 72.5789 84.0322C72.5533 84.0174 72.5279 83.9988 72.5025 83.9802L72.5024 83.9802C72.4476 83.9401 72.3928 83.9 72.3364 83.8977C72.0544 83.8873 71.772 83.8888 71.484 83.8905C71.3775 83.8911 71.2703 83.8917 71.162 83.8917V82.3118C71.2933 82.3118 71.4225 82.3126 71.5501 82.3133C71.8012 82.3148 72.0465 82.3162 72.2919 82.3118C72.3122 82.3115 72.3347 82.3136 72.3577 82.3158C72.4536 82.3248 72.5587 82.3346 72.5583 82.1723C72.5578 82.0104 72.4542 82.022 72.3582 82.0327C72.3349 82.0353 72.3121 82.0378 72.2913 82.0378H71.1665ZM65.924 67.8407C66.1219 67.7856 66.2217 67.8219 66.2172 68.0705C66.2033 68.8423 66.1966 69.614 66.2172 70.3858C66.2334 70.9921 66.5517 71.287 67.1091 71.281C67.5293 71.2771 67.9072 70.9839 67.929 70.5693C67.9602 69.9917 67.9696 69.413 67.9789 68.8344V68.8343V68.8342V68.8341V68.834V68.8339V68.8338V68.8337V68.8336V68.8335V68.8334V68.8333V68.8333V68.8332V68.8331V68.833V68.8329V68.8328C67.9828 68.5952 67.9866 68.3576 67.992 68.1202C67.992 68.1049 67.9896 68.0884 67.9872 68.0721V68.0721C67.9825 68.0395 67.9779 68.0073 67.992 67.9846C68.0328 67.9269 68.0799 67.8738 68.1324 67.8263C68.1474 67.8422 68.1665 67.8582 68.1856 67.8742C68.2277 67.9094 68.2699 67.9447 68.2696 67.9796C68.2672 68.1762 68.2659 68.3729 68.2646 68.5696V68.5696V68.5697V68.5698V68.5698V68.5699V68.57V68.57V68.5701V68.5702V68.5702V68.5703V68.5704V68.5705V68.5705V68.5706V68.5707V68.5707C68.26 69.2639 68.2554 69.9573 68.2055 70.6471C68.1631 71.2198 67.6642 71.5842 67.0829 71.5787C66.5015 71.5731 65.9681 71.19 65.9363 70.6267C65.9035 69.9786 65.9106 69.3295 65.9179 68.6772V68.6771V68.6771V68.677V68.677V68.677V68.6769V68.6769V68.6768V68.6768V68.6767V68.6767V68.6766V68.6766V68.6765V68.6765V68.6764V68.6764C65.9209 68.3985 65.924 68.1199 65.924 67.8407ZM66.0968 78.2766V76.6841L66.352 76.6843H66.3521H66.3521H66.3522H66.3522H66.3523H66.3523H66.3524H66.3524H66.3525H66.3525H66.3526H66.3526H66.3526H66.3527H66.3527H66.3528C66.6489 76.6848 66.9303 76.6852 67.2116 76.6797C67.233 76.6794 67.2557 76.6809 67.2786 76.6824C67.3849 76.6895 67.496 76.6968 67.4993 76.5259C67.5026 76.35 67.3905 76.3561 67.2799 76.3622C67.2599 76.3633 67.2398 76.3643 67.2206 76.3643H66.1024V75.1329H67.5165C67.5589 74.9328 67.5572 74.8082 67.3248 74.8143C66.8789 74.8264 66.4329 74.8302 65.987 74.8214C65.7964 74.8181 65.7518 74.8876 65.7602 75.0651C65.7802 75.489 65.7858 75.9112 65.7858 76.3329C65.7877 76.813 65.787 77.2931 65.7864 77.7793V77.7794V77.7795V77.7796V77.7797V77.7798V77.7799V77.78V77.7801V77.7802V77.7803V77.7804V77.7805V77.7806V77.7807V77.7808V77.781C65.7861 78.0267 65.7858 78.2739 65.7858 78.5236C65.8314 78.5278 65.8729 78.5326 65.9116 78.537C65.9883 78.5458 66.0543 78.5533 66.1202 78.5533L66.2405 78.5535H66.2407C66.5907 78.5542 66.9408 78.5549 67.2908 78.5401C67.3487 78.5374 67.4063 78.4993 67.4639 78.4612C67.49 78.444 67.5161 78.4267 67.5422 78.4128C67.5135 78.3984 67.485 78.3804 67.4564 78.3623C67.3952 78.3236 67.334 78.2849 67.2713 78.2827C66.991 78.2719 66.7101 78.2736 66.4232 78.2753L66.422 78.2753C66.3146 78.276 66.2063 78.2766 66.0968 78.2766ZM38.4208 69.6065V69.6066C38.4253 69.8988 38.4299 70.1914 38.4118 70.4828C38.3722 71.1234 37.9134 71.5644 37.3114 71.5737C36.6013 71.5848 36.1448 71.2209 36.1035 70.5214C36.0645 69.8663 36.0633 69.2088 36.062 68.5502V68.5501C36.0617 68.3621 36.0613 68.1739 36.0601 67.9857C36.0601 67.9482 36.0969 67.9095 36.1338 67.8707L36.1338 67.8706C36.1512 67.8524 36.1686 67.8341 36.1821 67.8159C36.1975 67.8354 36.2171 67.8547 36.2366 67.874C36.2784 67.9155 36.3202 67.9568 36.3209 67.9989C36.3256 68.295 36.3243 68.5911 36.3231 68.8872V68.8873V68.8873V68.8873V68.8874V68.8874V68.8874V68.8875V68.8875V68.8876V68.8876V68.8876V68.8877V68.8877V68.8877V68.8878V68.8878C36.3219 69.161 36.3208 69.4343 36.3243 69.7078C36.3257 69.984 36.3449 70.2598 36.3817 70.5335C36.453 71.0225 36.8075 71.2987 37.317 71.286C37.524 71.2846 37.7224 71.2043 37.8711 71.0619C38.0198 70.9195 38.1072 70.7259 38.1152 70.5214C38.1414 69.9683 38.1438 69.4141 38.1461 68.8591C38.1471 68.6232 38.1481 68.3872 38.1509 68.1511C38.1509 68.1327 38.1488 68.1135 38.1467 68.0944C38.1425 68.056 38.1383 68.0177 38.1509 67.9857C38.1861 67.9255 38.2288 67.8699 38.278 67.8203C38.2931 67.8393 38.3122 67.8582 38.3313 67.877C38.3722 67.9173 38.413 67.9576 38.4145 67.9989C38.4237 68.3015 38.4226 68.6048 38.4214 68.9081V68.9082C38.4211 69.0093 38.4207 69.1105 38.4207 69.2117L38.4168 69.215C38.4168 69.3452 38.4188 69.4756 38.4208 69.606V69.6061V69.6061V69.6061V69.6062V69.6062V69.6062V69.6063V69.6063V69.6063V69.6064V69.6064V69.6064V69.6065V69.6065ZM54.7849 83.8879C54.6767 83.8884 54.5666 83.8889 54.4538 83.8889L54.4516 82.3222H55.601C55.619 82.3221 55.6385 82.3232 55.6584 82.3243C55.7608 82.3302 55.8732 82.3367 55.8373 82.1701C55.8251 82.1122 55.6879 82.0439 55.6066 82.0439C55.323 82.0337 55.0391 82.0352 54.7596 82.0367C54.66 82.0373 54.561 82.0378 54.4628 82.0378V80.7925H54.7331C54.8235 80.7944 54.9139 80.797 55.0044 80.7995C55.2384 80.8062 55.4723 80.8128 55.7063 80.8069C55.7643 80.8058 55.8501 80.7154 55.8657 80.652C55.8763 80.6095 55.786 80.4943 55.7392 80.4943C55.3194 80.4852 54.9024 80.486 54.4886 80.4867H54.4884H54.4882H54.488H54.4877H54.4875H54.4873H54.4871H54.4868H54.4866H54.4864H54.4862H54.486H54.4857H54.485H54.4843H54.4835H54.4828H54.482L54.3526 80.487L54.1434 80.4872C54.1288 80.5254 54.1178 80.5649 54.1105 80.6051C54.1125 81.0108 54.1148 81.4165 54.1171 81.8222L54.1172 81.8227L54.1172 81.8242C54.1214 82.5546 54.1256 83.285 54.1278 84.0156C54.1283 84.1617 54.1891 84.202 54.3295 84.202C54.5035 84.1985 54.6775 84.1978 54.8515 84.197H54.8519C55.1237 84.1958 55.3955 84.1946 55.6673 84.1832C55.7166 84.181 55.764 84.1293 55.8114 84.0776C55.8332 84.0539 55.855 84.0302 55.8769 84.0112C55.853 83.9982 55.8293 83.9816 55.8057 83.965C55.7553 83.9296 55.7051 83.8944 55.6539 83.8944C55.3697 83.8855 55.0852 83.8867 54.7861 83.8879H54.786H54.7859H54.7858H54.7857H54.7857H54.7856H54.7855H54.7854H54.7853H54.7853H54.7852H54.7851H54.785H54.7849ZM33.9498 67.8284H33.953H33.9534C34.3733 67.8278 34.7769 67.8271 35.1805 67.8349C35.2184 67.8349 35.2539 67.874 35.2896 67.9133C35.3064 67.9318 35.3233 67.9504 35.3405 67.965C35.3218 67.9812 35.3033 68.0015 35.2847 68.0219C35.2439 68.0665 35.2031 68.1112 35.161 68.1127C34.9486 68.1198 34.7359 68.1139 34.5227 68.1079H34.5226H34.5225H34.5223H34.5222H34.5221H34.522H34.5219H34.5218H34.5217H34.5216H34.5214H34.5213H34.5212C34.4373 68.1056 34.3533 68.1032 34.2692 68.1017H33.9275V69.4026C34.0299 69.4026 34.1315 69.4021 34.2324 69.4017C34.516 69.4004 34.7945 69.3992 35.0724 69.4081C35.1257 69.41 35.178 69.4456 35.2301 69.4811L35.2301 69.4811C35.2537 69.4971 35.2773 69.5132 35.3009 69.5261C35.2758 69.5382 35.2508 69.5536 35.2258 69.5691L35.2257 69.5691C35.1712 69.6027 35.1166 69.6363 35.0613 69.6363C34.7922 69.6451 34.5229 69.6438 34.2448 69.6424H34.2446C34.1395 69.6418 34.0333 69.6413 33.9252 69.6413V71.2366C34.0279 71.2366 34.1298 71.236 34.2313 71.2354H34.2319H34.2324H34.2329H34.2335H34.234H34.2345H34.2351H34.2356H34.2361H34.2367H34.2372H34.2377H34.2382C34.5269 71.2338 34.8117 71.2322 35.0958 71.2432C35.1509 71.2432 35.2045 71.2855 35.2579 71.3278C35.2822 71.3471 35.3066 71.3663 35.331 71.3816C35.3089 71.397 35.2869 71.4164 35.2649 71.4358C35.2177 71.4776 35.1705 71.5193 35.1215 71.5216C34.725 71.5382 34.3286 71.541 33.9321 71.5437L33.7837 71.5447C33.7178 71.5392 33.6525 71.5279 33.5886 71.5111L33.5908 67.8288C33.7109 67.8288 33.8294 67.8286 33.9466 67.8284H33.9498ZM46.0387 71.5312V69.9657C46.1359 69.9412 46.2316 69.9199 46.3256 69.899L46.3256 69.899C46.5306 69.8533 46.7275 69.8094 46.9143 69.7391C47.3391 69.5782 47.5498 69.1173 47.4651 68.6212C47.3898 68.1802 47.0782 67.888 46.6156 67.8583C46.408 67.845 46.1991 67.8482 45.9849 67.8514H45.9849H45.9849H45.9848H45.9848H45.9847H45.9847H45.9846H45.9846H45.9845H45.9845H45.9844H45.9844L45.9839 67.8515C45.8873 67.8529 45.7895 67.8544 45.6903 67.8544V71.5158L46.0387 71.5312ZM46.2588 69.5798C46.189 69.5862 46.1145 69.5929 46.0337 69.6024V69.603C46.0337 69.485 46.0334 69.3703 46.0331 69.2582V69.2582V69.2582V69.2581V69.2581V69.2581V69.258V69.258V69.258V69.2579V69.2579V69.2579V69.2578C46.0322 68.9072 46.0313 68.5816 46.0398 68.2563C46.0415 68.1995 46.1212 68.1014 46.1719 68.097C46.6663 68.0501 47.149 68.2199 47.1629 68.818C47.1719 69.1824 46.9996 69.4409 46.6407 69.5274C46.5227 69.5559 46.4003 69.567 46.2588 69.5798ZM64.0155 83.2111C64.0971 83.2658 64.1731 83.3284 64.2423 83.3979C64.276 83.4388 64.3006 83.4866 64.3252 83.5345L64.3252 83.5346C64.3471 83.5771 64.369 83.6197 64.3973 83.6576C64.5606 83.8731 64.7797 84.0434 65.0539 83.9944C65.3989 83.9304 65.6024 83.673 65.7077 83.3461C65.798 83.0655 65.7022 82.8362 65.4775 82.6653C65.3979 82.605 65.3096 82.5557 65.221 82.5064L65.221 82.5064L65.2209 82.5063L65.2208 82.5063L65.2208 82.5062L65.2207 82.5062L65.2206 82.5062L65.2206 82.5061L65.2205 82.5061L65.2204 82.506L65.2204 82.506L65.2203 82.5059C65.1474 82.4653 65.0744 82.4246 65.006 82.3776C64.9554 82.3428 64.9042 82.3085 64.853 82.2742C64.6526 82.1397 64.4514 82.0048 64.2814 81.8401C64.0679 81.6334 64.0082 81.3396 64.1576 81.0546C64.3204 80.7454 64.5277 80.4797 64.9196 80.4433C65.3393 80.4047 65.7155 80.58 65.8276 80.8815C65.8439 80.9252 65.8385 80.9769 65.833 81.0289V81.029V81.029V81.029C65.8303 81.0551 65.8276 81.0812 65.8276 81.1064C65.7534 81.0938 65.6811 81.072 65.6124 81.0414C65.5643 81.0132 65.5217 80.9759 65.4789 80.9383C65.438 80.9024 65.3968 80.8663 65.3504 80.838C65.0718 80.6649 64.7262 80.7459 64.521 81.0259C64.3159 81.306 64.3505 81.5606 64.6481 81.7889C64.7563 81.8715 64.8792 81.9358 65.0013 81.9998L65.0013 81.9998C65.0422 82.0212 65.0829 82.0425 65.123 82.0645C65.1736 82.0922 65.2237 82.118 65.2732 82.1435L65.2733 82.1435L65.2733 82.1436C65.3802 82.1986 65.4838 82.2521 65.5818 82.3191C66.0517 82.64 66.167 83.0909 65.9285 83.6239C65.7055 84.1201 65.2624 84.3488 64.7301 84.2413C64.2853 84.1548 63.9174 83.6548 64.0155 83.2111ZM63.1513 74.827C63.0569 74.8226 62.9609 74.8181 62.8627 74.8125C62.8497 74.8704 62.8409 74.9292 62.8365 74.9883C62.8403 75.4929 62.8447 75.9974 62.8491 76.5019V76.502V76.502V76.5021V76.5021V76.5022V76.5022V76.5023V76.5024V76.5024C62.8544 77.1079 62.8596 77.7134 62.8639 78.319L62.864 78.3427C62.8642 78.4596 62.8644 78.5635 63.0389 78.5599C63.1932 78.5567 63.1863 78.4671 63.1794 78.3781C63.178 78.3598 63.1766 78.3415 63.1766 78.3239V76.9045C63.2628 76.8929 63.3445 76.8836 63.4231 76.8746C63.5847 76.8561 63.7326 76.8392 63.8778 76.808C64.3415 76.7066 64.608 76.2998 64.5801 75.7606C64.555 75.2684 64.2423 74.9145 63.7719 74.8676C63.5673 74.8463 63.3633 74.8368 63.1518 74.827L63.1516 74.827L63.1514 74.827L63.1513 74.827ZM63.1972 76.507V75.1554C63.2523 75.1561 63.3073 75.1553 63.3619 75.1545C63.692 75.1499 64.0042 75.1455 64.2122 75.4685C64.2879 75.5962 64.3225 75.7437 64.3116 75.8913C64.3006 76.039 64.2446 76.1799 64.1509 76.2953C63.9525 76.5357 63.5706 76.6239 63.1972 76.507ZM36.7679 80.4946C36.8807 80.4946 36.9933 80.4944 37.1056 80.4942H37.1062H37.1063H37.1064H37.1066H37.1067H37.1068H37.107H37.1071H37.1073C37.5052 80.4933 37.9008 80.4925 38.2964 80.5024C38.3306 80.5024 38.3637 80.5516 38.3966 80.6007L38.3966 80.6007C38.413 80.6251 38.4293 80.6495 38.4458 80.6677C38.4272 80.683 38.4087 80.7022 38.3901 80.7215L38.39 80.7217L38.3899 80.7217C38.349 80.7643 38.3079 80.807 38.2657 80.8078C37.9419 80.8144 37.6163 80.8078 37.293 80.7868C37.1169 80.7747 37.0611 80.8326 37.0656 80.999C37.074 81.2747 37.074 81.5503 37.0656 81.8259C37.0589 81.9852 37.1252 82.0343 37.2763 82.0321C37.6013 82.0277 37.9262 82.0265 38.2501 82.0403C38.295 82.0422 38.3386 82.0783 38.3822 82.1143C38.4024 82.1311 38.4226 82.1478 38.443 82.161C38.4231 82.1778 38.4035 82.1983 38.3838 82.2187L38.3838 82.2188C38.3388 82.2656 38.2939 82.3124 38.2473 82.3143C37.9655 82.3253 37.6834 82.3239 37.3916 82.3225H37.3914C37.2902 82.322 37.1879 82.3215 37.084 82.3215V83.8991C37.188 83.8991 37.2907 83.8986 37.3923 83.8981L37.3938 83.8981C37.6802 83.8968 37.9582 83.8954 38.2356 83.9052C38.2851 83.9052 38.3334 83.9433 38.3817 83.9815C38.4041 83.9992 38.4265 84.0169 38.4491 84.0309C38.427 84.0473 38.405 84.0681 38.3831 84.0889C38.3365 84.133 38.2901 84.1771 38.2423 84.1786C37.8811 84.1881 37.5199 84.1871 37.1449 84.1859C37.0216 84.1856 36.8969 84.1852 36.7702 84.1852L36.7679 80.4946ZM62.531 63.6844C62.4305 63.6849 62.3282 63.6854 62.2235 63.6854L62.2263 62.422C62.2724 62.422 62.3154 62.4216 62.3566 62.4212H62.3572H62.3574C62.4349 62.4205 62.5059 62.4198 62.5785 62.422C62.6664 62.4247 62.7542 62.4283 62.842 62.4319C63.0417 62.4401 63.2414 62.4484 63.4408 62.4457C63.4755 62.4368 63.5073 62.4193 63.5332 62.3948C63.5591 62.3702 63.5781 62.3396 63.5885 62.3057C63.593 62.2566 63.5088 62.1519 63.462 62.1519C63.0585 62.1431 62.6561 62.1437 62.2362 62.1444C62.1259 62.1445 62.0144 62.1447 61.9013 62.1447V63.4522L61.8999 63.7422C61.8967 64.3705 61.8936 64.9992 61.9013 65.6274C61.9024 65.7118 61.9838 65.8672 62.0323 65.8672C62.427 65.8809 62.8217 65.8797 63.2078 65.8784C63.3184 65.8781 63.4283 65.8777 63.5373 65.8777C63.6487 65.58 63.5573 65.5172 63.3143 65.5293C63.057 65.5425 62.7989 65.5396 62.5413 65.5367C62.4322 65.5355 62.3233 65.5343 62.2146 65.5343V63.9737C62.3173 63.9737 62.4187 63.9743 62.5191 63.9749H62.5192H62.5192H62.5193H62.5193H62.5193H62.5194H62.5194H62.5195C62.7981 63.9766 63.0692 63.9783 63.3399 63.9665C63.3947 63.9639 63.4476 63.9175 63.5007 63.871C63.5237 63.8508 63.5468 63.8306 63.5701 63.8139C63.5462 63.8004 63.5223 63.7835 63.4984 63.7666C63.4468 63.73 63.395 63.6934 63.3416 63.6915C63.0764 63.6817 62.8105 63.6831 62.531 63.6844ZM48.3469 71.2337H49.5626L49.581 71.2337C49.6934 71.2332 49.8144 71.2327 49.7806 71.3853C49.7661 71.4526 49.6395 71.5391 49.5615 71.5413C49.2004 71.5525 48.8384 71.5512 48.4704 71.5499H48.4702C48.3497 71.5495 48.2286 71.549 48.1067 71.549V67.8342H49.0047C49.1809 67.8276 49.3573 67.8314 49.5331 67.8458C49.5934 67.8534 49.6506 67.8903 49.7073 67.9269C49.7323 67.943 49.7572 67.9591 49.7822 67.9726C49.7564 67.9877 49.7309 68.0067 49.7053 68.0257C49.6509 68.0662 49.5967 68.1065 49.5409 68.1087C49.2616 68.1193 48.9824 68.1179 48.6911 68.1164H48.6909C48.5869 68.1159 48.4813 68.1153 48.3737 68.1153V69.4058C48.4798 69.4058 48.5849 69.4054 48.6891 69.405H48.6895H48.6898H48.6902H48.6905H48.6909H48.6912H48.6916H48.6919C48.9845 69.4038 49.2707 69.4026 49.5565 69.4108C49.606 69.4108 49.655 69.4432 49.7038 69.4755C49.7265 69.4905 49.7491 69.5055 49.7717 69.5171C49.7483 69.531 49.7251 69.5485 49.7018 69.5659C49.6513 69.6039 49.6006 69.6419 49.5487 69.6434C49.3859 69.6487 49.2231 69.6468 49.0604 69.6448H49.0601C48.8885 69.6428 48.717 69.6407 48.5454 69.6472C48.4768 69.6472 48.3564 69.7421 48.3547 69.7961C48.3438 70.1494 48.3449 70.5031 48.3461 70.8724C48.3465 70.991 48.3469 71.1113 48.3469 71.2337ZM59.5598 64.5684C59.505 64.7247 59.4502 64.8809 59.3958 65.0371L59.311 65.0228L59.2903 64.9655L59.2903 64.9654C59.2724 64.9163 59.2545 64.8672 59.238 64.8172C59.1461 64.5374 59.0544 64.2575 58.9627 63.9776C58.792 63.4566 58.6213 62.9355 58.4487 62.4149C58.3908 62.2407 58.3189 62.0681 58.0402 62.1232C58.3469 63.0227 58.6505 63.9126 58.9533 64.7998L59.3322 65.9103L59.3913 65.9075L60.7357 62.1343C60.4671 62.0576 60.3773 62.2021 60.316 62.3752C60.2364 62.6019 60.1592 62.8296 60.082 63.0573L60.082 63.0574L60.082 63.0574L60.082 63.0574L60.082 63.0575L60.082 63.0575L60.0819 63.0577L60.0818 63.0579L60.0817 63.0582C60.0207 63.2382 59.9597 63.4183 59.8974 63.5978C59.7865 63.9215 59.6731 64.245 59.5598 64.5684ZM72.9145 71.537H71.8554C71.5569 71.537 71.4091 71.537 71.3359 71.4631C71.2641 71.3905 71.2643 71.2468 71.2646 70.962C71.2646 70.6442 71.2651 70.3263 71.2656 70.0084C71.2665 69.3723 71.2675 68.7362 71.2646 68.1C71.2646 67.89 71.3203 67.81 71.5499 67.8244C71.7762 67.8391 72.0034 67.8399 72.2306 67.8408C72.4024 67.8414 72.5742 67.842 72.7456 67.8486C72.7942 67.8486 72.8414 67.8832 72.8887 67.9177C72.9102 67.9334 72.9318 67.9492 72.9535 67.9616C72.9319 67.9775 72.9104 67.9974 72.8889 68.0173C72.8423 68.0604 72.7957 68.1036 72.7472 68.1055C72.4685 68.1161 72.1889 68.1147 71.8991 68.1132C71.796 68.1127 71.6917 68.1121 71.5856 68.1121V69.4009C71.6857 69.4009 71.785 69.4005 71.8836 69.4C72.1606 69.3987 72.4325 69.3975 72.7038 69.4064C72.7572 69.4064 72.8096 69.4391 72.8619 69.4718C72.8882 69.4881 72.9144 69.5045 72.9407 69.5167C72.9165 69.5299 72.8925 69.5466 72.8685 69.5632C72.8167 69.5991 72.7649 69.635 72.7116 69.6369C72.4416 69.6461 72.1714 69.6448 71.8923 69.6434C71.7899 69.6429 71.6863 69.6424 71.5812 69.6424V71.2338C71.6923 71.2338 71.8032 71.2345 71.9141 71.2352C72.18 71.237 72.4452 71.2387 72.7099 71.2305C72.9022 71.2244 72.992 71.2768 72.9145 71.537ZM41.3594 78.5278V75.1476C41.4349 75.1476 41.5062 75.1483 41.5744 75.149C41.76 75.1507 41.9226 75.1523 42.084 75.1394C42.1258 75.1345 42.165 75.085 42.2035 75.0365C42.2213 75.0139 42.2391 74.9915 42.2568 74.974C42.239 74.9592 42.2212 74.9403 42.2034 74.9214C42.1655 74.881 42.1275 74.8406 42.0896 74.8406C41.5136 74.8318 40.9376 74.8318 40.3616 74.8406C40.3203 74.841 40.2793 74.8774 40.2383 74.9138C40.2196 74.9304 40.2008 74.9471 40.1821 74.9602C40.1997 74.9795 40.2162 75.0024 40.2327 75.0252C40.2684 75.0748 40.3039 75.124 40.3493 75.135C40.4778 75.1605 40.6097 75.1646 40.7395 75.1471C40.9669 75.1245 41.0467 75.205 41.0422 75.4387C41.0333 75.928 41.0309 76.4177 41.0285 76.9074V76.9075C41.0263 77.3638 41.0241 77.8202 41.0166 78.2765C41.0121 78.5163 41.0946 78.594 41.3594 78.5278ZM41.3476 65.8461C41.1012 65.931 41.0165 65.8621 41.0193 65.6317C41.0261 64.9479 41.0268 64.264 41.0276 63.5802C41.0278 63.3198 41.0281 63.0593 41.0287 62.7989V62.4422C40.9632 62.4422 40.8995 62.4433 40.8372 62.4444H40.8372H40.8371H40.8371C40.6875 62.447 40.546 62.4494 40.4067 62.4362C40.3505 62.4309 40.2975 62.3937 40.2443 62.3565L40.2443 62.3565C40.22 62.3394 40.1956 62.3223 40.1709 62.3083C40.1963 62.2912 40.2215 62.2701 40.2467 62.2489C40.3028 62.2019 40.3588 62.1549 40.4162 62.1534C40.9736 62.1385 41.531 62.1402 42.0845 62.1479C42.1225 62.1479 42.1605 62.1853 42.1985 62.2228C42.2163 62.2402 42.234 62.2577 42.2517 62.2714C42.2363 62.2877 42.2215 62.3078 42.2066 62.3279C42.1739 62.3722 42.1412 62.4165 42.1029 62.4218C41.9372 62.4399 41.7704 62.4447 41.604 62.4362C41.4133 62.4312 41.3543 62.5128 41.3554 62.7008C41.3604 63.693 41.3554 64.6808 41.3492 65.6714L41.3476 65.8461ZM68.9781 68.1194C69.1838 68.1329 69.3902 68.1353 69.5962 68.1266L69.5998 68.1872L69.5998 68.1874C69.6049 68.273 69.6088 68.3387 69.6079 68.4044C69.6053 69.3573 69.6022 70.3115 69.5984 71.267C69.5973 71.5592 69.6202 71.5768 69.9373 71.4985V68.1106C70.0012 68.1106 70.0632 68.112 70.1237 68.1134H70.1238C70.2673 68.1166 70.4027 68.1197 70.536 68.1034C70.5951 68.0962 70.6497 68.0525 70.7041 68.0088C70.7288 67.989 70.7534 67.9693 70.7785 67.9529C70.754 67.9399 70.7296 67.9233 70.7053 67.9068C70.6524 67.8709 70.5995 67.835 70.546 67.835C70.0169 67.8273 69.4881 67.8309 68.9597 67.846C68.9089 67.8475 68.8586 67.8857 68.8082 67.924C68.7844 67.9421 68.7606 67.9601 68.7367 67.9744C68.7618 67.9903 68.7865 68.0095 68.8111 68.0287C68.8655 68.0711 68.9198 68.1133 68.9781 68.1194ZM39.7246 83.9022H39.7252H39.7252C39.9133 83.9003 40.0845 83.8985 40.255 83.9099C40.3081 83.9133 40.359 83.9482 40.41 83.9832L40.4101 83.9832C40.4336 83.9993 40.4571 84.0154 40.4808 84.0284C40.4601 84.0452 40.4396 84.0656 40.4192 84.086C40.3724 84.1327 40.3256 84.1794 40.2768 84.1817C40.0261 84.1938 39.7749 84.1923 39.5058 84.1906C39.4092 84.19 39.3103 84.1894 39.2083 84.1894V83.0318L39.2095 82.6415C39.2114 81.991 39.2134 81.3406 39.225 80.6901C39.225 80.6357 39.2653 80.5823 39.3056 80.5288C39.3245 80.5038 39.3434 80.4788 39.3582 80.4536C39.3728 80.4795 39.3913 80.5056 39.4099 80.5316C39.4501 80.5881 39.4905 80.6447 39.4908 80.7006C39.4953 81.3433 39.4938 81.9866 39.4923 82.6295V82.6297V82.63C39.4916 82.9512 39.4908 83.2725 39.4908 83.5935L39.4892 83.9038C39.5711 83.9038 39.6492 83.903 39.7246 83.9022ZM63.2903 82.7609C63.29 82.6334 63.2898 82.5059 63.2898 82.3784L63.297 82.3756C63.297 82.243 63.2973 82.1105 63.2976 81.978C63.2986 81.5408 63.2996 81.1038 63.2898 80.6668C63.289 80.621 63.2415 80.5765 63.1938 80.5319C63.1726 80.5121 63.1514 80.4922 63.1342 80.4722C63.1175 80.4909 63.0961 80.5095 63.0747 80.5281C63.0287 80.5683 62.9826 80.6084 62.9826 80.6491C62.9715 81.7707 62.9715 82.8916 62.9826 84.0117C62.983 84.061 63.0384 84.1097 63.0937 84.1583C63.1188 84.1804 63.1439 84.2024 63.1638 84.2245C63.1768 84.2021 63.1933 84.1795 63.2099 84.1568C63.2468 84.1063 63.2842 84.0553 63.2842 84.004C63.2919 83.5896 63.2911 83.1753 63.2903 82.7609Z" fill="#D9D9D6"/>
</svg>
