<svg width="105" height="105" viewBox="0 0 105 105" fill="none" xmlns="http://www.w3.org/2000/svg">
<rect x="0.530273" width="104.47" height="104.696" rx="52.235" fill="#313131"/>
<path fill-rule="evenodd" clip-rule="evenodd" d="M52.5459 51.4227C60.7388 51.4813 67.3851 44.983 67.431 36.8766C67.4769 28.9003 60.9231 22.3066 52.9665 22.1834C44.8311 22.0588 38.102 28.5639 38.0047 36.6165C37.9068 44.727 44.4667 51.3683 52.5459 51.4227ZM47.4641 36.801C47.4573 33.9988 49.7595 31.7195 52.5877 31.7195C53.2572 31.7217 53.9195 31.8561 54.5364 32.1147C55.1532 32.3733 55.7123 32.751 56.1812 33.2259C56.6501 33.7009 57.0194 34.2636 57.2678 34.8815C57.5163 35.4994 57.6388 36.1602 57.6284 36.8255C57.5702 39.9797 54.9556 41.8206 52.5247 41.8125C49.793 41.8043 47.4703 39.5052 47.4641 36.801ZM59.1031 47.4645C59.1533 47.4676 59.2031 47.4753 59.2518 47.4877C56.8907 48.8602 54.4282 49.4627 51.7822 49.2761C49.8144 49.14 47.9089 48.5327 46.2285 47.506C46.4463 47.506 46.6569 47.5133 46.8619 47.5203C47.2933 47.535 47.6999 47.549 48.0964 47.4931C49.878 47.2433 51.2239 46.3153 52.1281 44.7638C52.6028 43.9509 52.7555 43.9509 53.235 44.7678C54.4659 46.8695 56.7057 47.8982 59.1031 47.4645ZM63.5609 43.1216L63.4712 43.1073C63.4828 43.0186 63.4978 42.9295 63.5128 42.8403L63.5128 42.8403L63.5129 42.8399C63.5462 42.6413 63.5797 42.442 63.5773 42.2434C63.5486 39.9756 62.5458 38.277 60.5402 37.1653C60.4047 37.0896 60.2848 36.9842 60.165 36.8788C60.108 36.8287 60.0509 36.7785 59.9922 36.7316C60.0477 36.691 60.1017 36.6478 60.1557 36.6046C60.2739 36.5101 60.3919 36.4158 60.5244 36.349C62.6883 35.2535 63.8794 32.8074 63.4184 30.3824C64.1602 31.1394 65.3151 34.186 65.2904 36.7221C65.2685 39.0123 64.7253 41.1473 63.5609 43.1216ZM46.6367 26.0061H46.4312C50.3307 23.6608 55.4995 23.8296 58.9463 26.0102C58.7886 26.0102 58.6286 26.006 58.4672 26.0018C58.1096 25.9923 57.7453 25.9827 57.3852 26.0184C55.5762 26.1968 54.2392 27.1315 53.2754 28.6293C53.2273 28.7046 53.1829 28.7823 53.1385 28.8601L53.1385 28.8601C53.0817 28.9596 53.0249 29.0591 52.9603 29.1535C52.7809 29.417 52.5055 29.4313 52.3165 29.163C52.2268 29.0359 52.147 28.9017 52.0673 28.7674C51.9788 28.6186 51.8903 28.4697 51.7883 28.3304C50.5602 26.6468 48.9019 25.8611 46.8079 25.9973L46.7868 25.9988C46.737 26.0025 46.6871 26.0061 46.6367 26.0061ZM40.1281 36.8943C40.1131 34.7334 40.6569 32.6964 41.7227 30.8045C41.6488 32.1463 41.9268 33.3854 42.681 34.5026C43.2194 35.2998 43.9256 35.9078 44.7667 36.3769C44.8996 36.4511 45.0476 36.6478 45.0407 36.7806C45.0274 36.8691 44.9947 36.9535 44.945 37.0281C44.8953 37.1027 44.8298 37.1655 44.753 37.2122C42.6858 38.3138 41.5159 40.5754 41.8481 42.8629C41.8509 42.8822 41.8496 42.9018 41.8441 42.9205C41.8387 42.9391 41.8293 42.9564 41.8166 42.9712C40.7166 41.1323 40.1335 39.0336 40.1281 36.8943ZM58.8175 45.6209C57.2667 45.9381 55.6468 45.226 54.8769 43.8562C57.353 43.0018 58.9415 41.3066 59.7792 38.8918C61.1457 39.6584 61.8204 41.0391 61.6834 42.4463C61.5327 43.987 60.3326 45.3111 58.8175 45.6209ZM59.7675 34.6204C58.9456 32.1886 57.3017 30.5226 54.8618 29.6274C55.5557 28.3624 57.1756 27.6258 58.6093 27.8756C59.3613 28.0086 60.0532 28.3704 60.5895 28.911C61.1258 29.4516 61.48 30.1444 61.6033 30.8937C61.8348 32.3873 61.095 33.9341 59.7675 34.6204ZM50.3855 29.5945C49.9851 28.9366 49.3856 28.4214 48.6726 28.1228C47.9589 27.8239 47.1682 27.7574 46.4141 27.9328C44.9332 28.2657 43.8078 29.5777 43.6276 31.1789C43.4872 32.4336 44.3092 34.0383 45.3709 34.5264C46.2509 32.1121 47.8848 30.4286 50.3855 29.5945ZM50.4342 43.9314C49.2557 43.5758 48.1809 42.9428 47.3011 42.0861C46.4175 41.2283 45.8065 40.1942 45.3866 39.0429C44.2044 39.6904 43.5571 41.1732 43.6742 42.3789C43.829 43.9516 45.0133 45.2982 46.5175 45.6127C48.0537 45.9373 49.6884 45.2486 50.4342 43.9314ZM19.2051 78.07C19.1921 78.1296 19.1792 78.1893 19.1653 78.2487L19.0825 78.2603C19.0213 78.1433 18.9667 78.0231 18.9187 77.9002C18.8214 77.6059 18.7273 77.3105 18.6331 77.0151C18.5688 76.8135 18.5046 76.6118 18.4393 76.4105C18.3364 76.0942 18.2355 75.7771 18.1346 75.46L18.1345 75.4598C17.878 74.6536 17.6214 73.8472 17.3324 73.0528C17.0919 72.3911 16.4878 72.1078 15.8193 72.2358C15.1638 72.3618 14.7041 72.8642 14.7 73.5491C14.6915 75.1374 14.6917 76.7267 14.692 78.316C14.6921 79.2794 14.6922 80.2429 14.6904 81.2061C14.6898 81.4097 14.763 81.49 14.9685 81.486C15.3879 81.4772 15.8061 81.4811 16.2242 81.4849L16.3385 81.486C16.5426 81.488 16.6063 81.4002 16.6063 81.1959C16.5959 80.1611 16.593 79.1263 16.5901 78.0915C16.5892 77.7647 16.5883 77.4379 16.5871 77.1111V76.3193C16.6596 76.36 16.7134 76.4272 16.7371 76.5065C16.8457 76.8444 16.953 77.1835 17.0603 77.523C17.2436 78.1023 17.4271 78.6825 17.618 79.259C17.8139 79.85 18.0187 80.4389 18.2509 81.0162C18.4132 81.4199 18.7208 81.6248 19.1907 81.601C19.6393 81.5779 19.9133 81.3695 20.062 80.9651C20.0804 80.9146 20.1002 80.8644 20.1201 80.8141L20.1201 80.8139C20.1586 80.7164 20.1972 80.6187 20.2257 80.5185C20.5645 79.3072 20.9017 78.0951 21.2374 76.8823C21.2645 76.7828 21.2879 76.6824 21.3113 76.5818L21.3113 76.5818C21.3228 76.5324 21.3343 76.483 21.3463 76.4337L21.4689 76.4494V77.2187C21.4684 77.5448 21.4681 77.8709 21.4679 78.197C21.4671 79.1753 21.4663 80.1536 21.4586 81.1319C21.4566 81.39 21.5326 81.5071 21.8107 81.4914C22.2217 81.4703 22.6326 81.4662 23.0436 81.4703C23.2799 81.473 23.3861 81.4165 23.3861 81.1442C23.3767 79.8384 23.374 78.5337 23.3712 77.2293C23.3696 76.4464 23.368 75.6636 23.3649 74.8808C23.3635 74.4253 23.3621 73.9699 23.3238 73.5192C23.2477 72.6341 22.5826 72.1235 21.6956 72.2256C21.0052 72.3053 20.6969 72.7798 20.5257 73.3592C20.2398 74.3329 19.9657 75.3099 19.6915 76.2875C19.5591 76.7597 19.4266 77.232 19.2927 77.7041C19.2586 77.8239 19.2319 77.9467 19.2051 78.07ZM80.3043 78.2674C80.335 78.1538 80.3653 78.0401 80.3955 77.9265C80.4624 77.6751 80.5292 77.4239 80.6009 77.174C80.7016 76.8231 80.8008 76.4718 80.9 76.1205L80.9002 76.1197L80.9005 76.1189L80.9007 76.1181L80.9009 76.1173L80.9012 76.1165L80.9014 76.1158L80.9016 76.115L80.9018 76.1142L80.9021 76.1134L80.9023 76.1126L80.9027 76.1111L80.9032 76.1095L80.9032 76.1093L80.9033 76.109L80.9034 76.1088L80.9035 76.1085L80.9035 76.1083L80.9036 76.108L80.9037 76.1078L80.9037 76.1075L80.9038 76.1073L80.9039 76.107L80.9039 76.1068L80.904 76.1065L80.9041 76.1063L80.9041 76.106L80.9042 76.1058C81.1791 75.1325 81.4541 74.1592 81.7585 73.1953C82.0044 72.4165 82.5702 72.1135 83.3449 72.2347C83.9689 72.3321 84.4156 72.8093 84.4854 73.4983C84.5179 73.8181 84.5183 74.1429 84.5187 74.4649V74.465V74.4651V74.4652V74.4653V74.4654V74.4655V74.4656V74.4656V74.4657V74.4658V74.4659V74.466V74.4661V74.4662V74.4663L84.519 74.6196C84.5281 76.8091 84.5329 78.9985 84.5334 81.188C84.5334 81.2752 84.4477 81.4358 84.3964 81.4379C83.9419 81.4513 83.4869 81.4503 83.0151 81.4493H83.015H83.0148H83.0147H83.0145H83.0143H83.0142H83.014H83.0139H83.0137H83.0135H83.0134H83.0132H83.0131H83.0129H83.0123H83.0107L82.8548 81.449L82.6284 81.4488V76.4108L82.5456 76.3945C82.5269 76.4553 82.5077 76.5161 82.4885 76.5769C82.4492 76.7011 82.41 76.8254 82.375 76.9507C82.2523 77.3929 82.1301 77.8353 82.008 78.2778L82.006 78.2849L82.0059 78.2855L82.0057 78.2861L82.0055 78.2867L82.0054 78.2873L82.0052 78.2879L82.0051 78.2885L82.0049 78.2891L82.0047 78.2897L82.0046 78.2903L82.0044 78.2909L82.0043 78.2915L82.0041 78.2921L82.0039 78.2928L82.0038 78.2934C81.8015 79.0261 81.5991 79.7589 81.3941 80.4909C81.3617 80.6071 81.3171 80.7196 81.2725 80.8322C81.2502 80.8885 81.2279 80.9447 81.2071 81.0015C81.0619 81.4011 80.7749 81.5924 80.3502 81.6054C79.9255 81.6183 79.5968 81.4583 79.4461 81.0689C79.1721 80.3738 78.9221 79.6691 78.6816 78.9584C78.4945 78.4077 78.3163 77.854 78.1383 77.3007C78.0458 77.0133 77.9533 76.7261 77.8597 76.4394C77.8481 76.4047 77.8297 76.3726 77.8055 76.3451C77.7812 76.3176 77.7517 76.2953 77.7186 76.2794V76.5606C77.722 76.9328 77.7252 77.3051 77.7284 77.6774C77.7384 78.8479 77.7485 80.0186 77.7672 81.1901C77.7706 81.4038 77.6987 81.4753 77.5 81.476L77.2962 81.4757H77.2961C76.9308 81.475 76.5647 81.4743 76.1986 81.4944C75.9205 81.51 75.8479 81.4032 75.8493 81.1417C75.8535 80.0414 75.853 78.9411 75.8524 77.8406V77.8405V77.8405V77.8404V77.8403V77.8402V77.8401V77.8401V77.84V77.8399V77.8398V77.8397V77.8397V77.8396V77.8395V77.8394C75.852 76.9887 75.8516 76.1379 75.8534 75.2868C75.8534 74.6972 75.8534 74.1069 75.8678 73.5167C75.8856 72.8577 76.2979 72.3743 76.9343 72.2347C77.5706 72.0951 78.1919 72.3368 78.4412 72.9421C78.6864 73.531 78.8804 74.1416 79.0738 74.7504C79.1203 74.8967 79.1667 75.0429 79.2139 75.1887C79.396 75.7533 79.5712 76.3194 79.7465 76.8861L79.7471 76.888C79.8564 77.2412 79.9658 77.5946 80.0769 77.9481C80.1189 78.0589 80.1671 78.1674 80.2215 78.2728L80.3043 78.2674ZM62.1053 72.3026V77.7886C62.0551 77.7337 62.0091 77.6752 61.9676 77.6136C61.818 77.2962 61.6691 76.9784 61.5201 76.6605L61.5196 76.6592L61.519 76.6579L61.5184 76.6567L61.5178 76.6554C61.302 76.1949 61.0862 75.7344 60.8683 75.275C60.778 75.0845 60.6891 74.8934 60.6001 74.7021L60.6001 74.7021L60.6001 74.7021L60.6 74.702L60.6 74.702L60.6 74.7019L60.6 74.7019L60.6 74.7018L60.5999 74.7018L60.5999 74.7017L60.5999 74.7017L60.5999 74.7016L60.5998 74.7016L60.5998 74.7016L60.5998 74.7015C60.3156 74.0905 60.0314 73.4795 59.7038 72.8922C59.5324 72.6024 59.2666 72.3795 58.9504 72.2604C58.0763 71.9697 57.3078 72.5899 57.2544 73.588C57.2352 73.9544 57.2386 74.3212 57.2421 74.6882V74.6882V74.6882V74.6883V74.6883V74.6884V74.6884V74.6885V74.6885V74.6886V74.6886V74.6887V74.6887V74.6887V74.6888C57.2434 74.8322 57.2448 74.9757 57.2448 75.1191C57.2448 75.7847 57.2457 76.4503 57.2466 77.116C57.2484 78.4474 57.2503 79.779 57.2448 81.1102C57.2434 81.4125 57.3496 81.5078 57.6462 81.486C58.0219 81.4602 58.3987 81.4547 58.775 81.4697C59.0579 81.4799 59.173 81.4104 59.1668 81.0939C59.1472 80.147 59.1482 79.2 59.1492 78.2531C59.1495 78.0427 59.1497 77.8322 59.1497 77.6218V75.706C59.1929 75.7851 59.2324 75.8547 59.2685 75.9185L59.2686 75.9186L59.2687 75.9188L59.2688 75.919C59.3367 76.0388 59.393 76.1381 59.4408 76.2411C59.5948 76.5731 59.7465 76.9061 59.8983 77.2392L59.8983 77.2394C60.1461 77.7834 60.394 78.3274 60.6518 78.867L60.7707 79.1139L60.7708 79.114L60.7708 79.1141L60.7709 79.1142L60.7709 79.1143L60.771 79.1144L60.771 79.1145L60.7711 79.1146L60.7711 79.1147L60.7711 79.1148L60.7712 79.1149L60.7712 79.1149L60.7713 79.115L60.7713 79.1151L60.7714 79.1152C61.0844 79.766 61.3984 80.4186 61.7587 81.0455C62.0423 81.5371 62.48 81.6664 63.028 81.5371C63.2695 81.4852 63.4881 81.3582 63.6523 81.1747C63.8164 80.9911 63.9175 80.7604 63.941 80.5159C63.9794 80.1893 63.9986 79.8609 63.9986 79.5321C64.0013 77.4329 64.0027 75.3338 64.0027 73.2346C64.0027 73.1652 64.0038 73.0956 64.0049 73.026C64.0076 72.8573 64.0103 72.6882 63.9972 72.5205C63.991 72.4442 63.902 72.3121 63.8485 72.3121C63.3921 72.3003 62.9387 72.3012 62.4778 72.3021C62.3543 72.3024 62.2301 72.3026 62.1053 72.3026ZM29.3947 72.1659C31.7763 72.0331 34.1484 74.0429 34.186 76.8975C34.2196 79.4805 32.016 81.6142 29.3474 81.6155C28.0833 81.612 26.8715 81.1139 25.9741 80.229C25.0768 79.3441 24.5661 78.1436 24.5526 76.8873C24.5355 74.3152 26.752 72.0597 29.3947 72.1659ZM29.3871 79.8025C30.9626 79.8243 32.2681 78.5199 32.277 76.9213C32.2852 75.3003 30.9872 73.97 29.3803 73.953C27.8048 73.9367 26.489 75.252 26.4698 76.8635C26.4669 77.2469 26.5401 77.6272 26.6852 77.9825C26.8303 78.3378 27.0445 78.6612 27.3154 78.9341C27.5864 79.2071 27.9088 79.4243 28.2643 79.5733C28.6198 79.7223 29.0013 79.8002 29.3871 79.8025ZM34.4312 61.1217C34.3866 61.0937 34.3404 61.0647 34.2928 61.0335C34.3222 60.9974 34.3492 60.9625 34.3755 60.9286C34.414 60.8789 34.4508 60.8314 34.4907 60.7857C35.8196 59.1572 35.0038 56.9105 32.9153 56.581C32.1249 56.4564 31.2981 56.4993 30.4933 56.5483C29.8295 56.5885 29.398 57.1114 29.3467 57.7799C29.3275 58.0291 29.3145 58.2789 29.3145 58.5288C29.3158 60.549 29.3179 62.5687 29.3206 64.588C29.3208 64.6537 29.3205 64.7195 29.3201 64.7854C29.3191 65.0032 29.318 65.2212 29.3343 65.4376C29.3412 65.5255 29.4295 65.68 29.485 65.68C29.9276 65.6938 30.371 65.6927 30.8318 65.6916H30.8322H30.8326H30.8331H30.8335H30.8339H30.8343C30.9632 65.6912 31.0935 65.6909 31.2255 65.6909V61.7089C31.5624 62.1109 31.9628 62.1307 32.3596 62.1503L32.4351 62.1541C32.4699 62.156 32.5046 62.1574 32.5392 62.1588H32.5393C32.6192 62.162 32.6988 62.1653 32.7776 62.1738C33.2023 62.2201 33.2927 62.2971 33.3044 62.7239C33.3173 63.2433 33.3187 63.7631 33.32 64.2829C33.3205 64.4779 33.3211 64.6728 33.3222 64.8678V65.6466H35.2058C35.2058 65.3305 35.2062 65.0172 35.2067 64.7062V64.7042V64.7023V64.7004V64.6984V64.6966V64.6947V64.6928V64.6909V64.689V64.6871V64.6868V64.6865V64.6862V64.6858V64.6855V64.6852V64.6849V64.6846V64.6843V64.684V64.6837V64.6834C35.2078 63.8597 35.2088 63.0512 35.2024 62.2426C35.1997 61.8552 35.0079 61.5482 34.7085 61.3106C34.6237 61.2427 34.5313 61.1847 34.4312 61.1217ZM31.2378 60.6223V58.2762C31.3838 58.2877 31.528 58.2956 31.6705 58.3033C31.992 58.3208 32.3051 58.3378 32.6112 58.3954C32.9838 58.4668 33.1612 58.7746 33.2009 59.1442C33.2407 59.5391 33.1729 59.9027 32.79 60.1117C32.6643 60.1802 32.5225 60.2206 32.3812 60.261C32.3246 60.2771 32.268 60.2932 32.2125 60.3112C31.9882 60.3861 31.7636 60.4567 31.5342 60.5288C31.4364 60.5595 31.3377 60.5905 31.2378 60.6223ZM54.7473 76.8495C54.822 76.893 54.8987 76.9387 54.9768 76.9856C55.4042 77.2307 55.6467 77.5929 55.6529 78.0892C55.6583 78.547 55.6611 79.0049 55.6639 79.4627L55.6639 79.4646C55.6674 80.0376 55.6708 80.6105 55.6796 81.1835C55.683 81.3877 55.6179 81.4688 55.4104 81.4681C54.9549 81.4681 54.4987 81.4742 54.0405 81.4878C53.7952 81.4953 53.7665 81.3517 53.7665 81.159C53.7637 80.3084 53.7585 79.4581 53.7507 78.608C53.7452 78.0858 53.6651 78.0028 53.1432 77.9565C53.0934 77.9522 53.0436 77.9504 52.9939 77.9487C52.941 77.9469 52.8882 77.945 52.8356 77.9401C52.7589 77.9329 52.6809 77.9296 52.6026 77.9263H52.6026C52.2619 77.9118 51.9165 77.8972 51.6486 77.5561V78.2036C51.6502 78.4453 51.6522 78.6871 51.6542 78.9288C51.6604 79.6844 51.6666 80.4401 51.6629 81.1958C51.6629 81.2843 51.5581 81.447 51.4979 81.449C51.0595 81.4643 50.6208 81.4629 50.1775 81.4614C50.0472 81.461 49.9166 81.4606 49.7854 81.4606C49.7836 81.4394 49.7816 81.4192 49.7796 81.3998L49.774 81.3469C49.7665 81.2772 49.7601 81.218 49.7601 81.159C49.7601 80.3418 49.7606 79.525 49.761 78.7085V78.7079V78.7072V78.7065V78.7058V78.7052V78.7045V78.7038V78.7031V78.7025V78.7018V78.7011C49.7619 77.0712 49.7628 75.4423 49.7601 73.8124C49.7601 73.2303 49.9656 72.7755 50.4848 72.4841L50.4942 72.4791C50.6188 72.4121 50.7622 72.335 50.8958 72.3343C51.1089 72.3343 51.3227 72.3308 51.5366 72.3273H51.5369H51.5372H51.5376H51.5379H51.5382H51.5386H51.5389H51.5392H51.5396H51.5399H51.5402C52.1698 72.3169 52.8004 72.3066 53.4192 72.3847C54.3871 72.5066 55.0919 73.0744 55.4234 74.0187C55.7659 74.9963 55.5481 75.8684 54.8754 76.6411C54.8378 76.6833 54.8023 76.7274 54.7693 76.7732C54.7583 76.7974 54.7509 76.8231 54.7473 76.8495ZM51.967 76.3388L51.9684 76.3382C52.1638 76.2626 52.3496 76.1907 52.537 76.1237C52.6245 76.0923 52.7152 76.0669 52.8056 76.0416C52.9678 75.9963 53.1295 75.9511 53.2719 75.8711C53.6343 75.6669 53.7083 75.3027 53.65 74.9248C53.5939 74.5592 53.4267 74.2311 53.0185 74.1705C52.7223 74.1268 52.422 74.1111 52.1137 74.0949H52.1137H52.1136H52.1135H52.1134C51.9697 74.0873 51.8242 74.0797 51.6766 74.069V76.4505C51.731 76.4298 51.7843 76.4094 51.8368 76.3891L51.9664 76.339L51.967 76.3388ZM67.5926 58.1756C66.6083 56.9501 65.2719 56.477 63.8253 56.5069L63.5225 56.5049C62.1403 56.5069 61.6094 57.0073 61.5875 58.3791C61.571 59.3966 61.5753 60.4141 61.5796 61.4316C61.5805 61.6396 61.5813 61.8475 61.582 62.0555V62.0567C61.5848 62.7684 61.5875 63.4842 61.6183 64.1973C61.6553 65.0354 62.1615 65.5446 62.9992 65.6522C63.7945 65.752 64.602 65.6866 65.3706 65.4602C68.3283 64.6072 69.7934 60.9179 67.5926 58.1756ZM66.3734 62.4885C65.7535 63.5717 64.7336 63.9162 63.4965 63.8719L63.4951 58.2954C64.5637 58.3226 65.535 58.5194 66.1905 59.4249C66.8939 60.3984 66.972 61.4462 66.3734 62.4885ZM35.3803 75.8873L35.3803 75.8857C35.3781 75.2429 35.3758 74.6001 35.3826 73.9578C35.3963 72.8903 35.9696 72.33 37.0382 72.3014C38.0848 72.2742 39.1075 72.3436 40.0569 72.8576C41.7289 73.7617 42.6858 75.7436 42.3604 77.6676C42.0419 79.5486 40.5309 81.0764 38.6438 81.3555C38.0011 81.4429 37.3512 81.4657 36.7039 81.4236C35.997 81.3861 35.5504 80.915 35.4333 80.2131C35.4025 80.0345 35.386 79.8537 35.384 79.6725C35.3808 79.0448 35.3819 78.417 35.3829 77.7895V77.7893V77.7892V77.789V77.7889V77.7887V77.7886V77.7884V77.7883V77.7881C35.3835 77.4749 35.384 77.1617 35.384 76.8485L35.3826 76.8499C35.3826 76.5291 35.3815 76.2082 35.3803 75.8873ZM37.2882 79.6616C38.4355 79.6964 39.4226 79.42 40.0671 78.4362C40.7439 77.402 40.7186 76.3345 40.0466 75.3099C39.4068 74.3357 38.4027 74.1192 37.2882 74.0811V79.6616ZM38.6705 56.5294H36.8286C36.8194 56.575 36.8129 56.6212 36.8094 56.6676C36.8094 57.0807 36.8092 57.4936 36.8091 57.9065V57.9068V57.9071V57.9074V57.9077V57.908V57.9083V57.9086V57.9089C36.8085 59.3112 36.8079 60.7124 36.8142 62.114C36.8122 62.4878 36.8381 62.8613 36.8916 63.2313C37.1368 64.793 38.6123 65.964 40.2356 65.9048C41.9755 65.8408 43.3913 64.6235 43.455 62.9896C43.5098 61.585 43.5142 60.1777 43.5186 58.7702C43.5207 58.1017 43.5228 57.4332 43.5303 56.7649C43.5331 56.5702 43.4557 56.5096 43.268 56.5096C42.8241 56.5192 42.3775 56.5287 41.9337 56.5096C41.683 56.4987 41.6289 56.592 41.6289 56.8228C41.6371 57.5622 41.6361 58.3028 41.635 59.0431C41.6347 59.2897 41.6343 59.5364 41.6343 59.783C41.6337 60.0058 41.6337 60.2286 41.6338 60.4514C41.6339 61.1817 41.634 61.912 41.6104 62.6424C41.5864 63.4464 41.0021 64.0482 40.285 64.0761C39.4452 64.1047 38.8342 63.5819 38.7314 62.7288C38.6973 62.4362 38.6806 62.1418 38.6814 61.8472C38.6807 60.9757 38.6831 60.1043 38.6855 59.2329C38.6876 58.4704 38.6897 57.7079 38.6897 56.9454C38.6901 56.8452 38.684 56.7488 38.6779 56.6534L38.675 56.6084C38.6734 56.582 38.6718 56.5557 38.6705 56.5294ZM57.1222 65.6978C56.961 65.6978 56.8032 65.6983 56.6479 65.6988H56.6478H56.6478H56.6477H56.6477H56.6477H56.6476H56.6476C56.1679 65.7004 55.7123 65.702 55.257 65.6876C55.1748 65.6876 55.0515 65.5582 55.0262 65.4663C54.8981 65.0319 54.7905 64.5921 54.6885 64.151C54.6433 63.957 54.5597 63.8644 54.346 63.8691C53.6959 63.8827 53.0445 63.8827 52.3958 63.8732C52.1842 63.8732 52.0951 63.9481 52.0534 64.1517C51.9623 64.5717 51.8588 64.9911 51.7294 65.4009C51.6944 65.5126 51.5547 65.6671 51.4554 65.6733C51.0267 65.692 50.5974 65.6897 50.1427 65.6872H50.1425H50.1424H50.1423H50.1422H50.1421H50.1419H50.1418L50.1404 65.6872C49.9825 65.6864 49.8216 65.6855 49.6566 65.6855C49.7375 65.398 49.8097 65.1397 49.8793 64.8909L49.8796 64.8897L49.9909 64.4921C50.6238 62.2486 51.2581 60.0055 51.8938 57.763C51.9659 57.5005 52.0728 57.2486 52.2116 57.0141C52.787 56.0684 54.0494 56.0957 54.5679 57.0706C54.7363 57.4043 54.8701 57.7543 54.9673 58.1149C55.6714 60.5291 56.3694 62.9448 57.0612 65.3621C57.0713 65.4066 57.079 65.4519 57.0885 65.5087C57.0971 65.5599 57.1073 65.6204 57.1222 65.6978ZM54.1508 62.1201C53.8912 61.1119 53.6466 60.1621 53.4014 59.2124L53.311 59.2192L52.5753 62.1201H54.1508ZM69.7151 79.4909C69.4816 79.4357 69.2458 79.3799 69.0064 79.3261C69.0064 79.4412 69.006 79.558 69.0057 79.6761V79.6762V79.6762V79.6763V79.6763V79.6764V79.6764C69.0044 80.1013 69.003 80.5436 69.018 80.9846C69.0262 81.0357 69.0466 81.0841 69.0775 81.1258C69.1083 81.1675 69.1488 81.2012 69.1954 81.2242C70.4544 81.6388 71.7236 81.8301 73.0045 81.3127C74.0375 80.8947 74.7115 79.7952 74.667 78.6154C74.6211 77.4171 73.9676 76.545 72.834 76.1801C72.6521 76.1217 72.4686 76.0681 72.2852 76.0146C72.0093 75.9341 71.7336 75.8536 71.464 75.7567C70.9592 75.5742 70.7709 75.3128 70.7791 74.8934C70.7866 74.4938 71.1058 74.0472 71.5435 73.9546C71.8872 73.8834 72.2408 73.8732 72.5881 73.9246C72.8863 73.9699 73.1783 74.0584 73.4796 74.1498C73.6128 74.1902 73.7479 74.2311 73.8861 74.2691C73.8861 74.1106 73.8852 73.9538 73.8842 73.7983C73.882 73.4236 73.8798 73.0563 73.8909 72.6896C73.8984 72.4432 73.7964 72.3261 73.5648 72.3104C73.345 72.296 73.1247 72.2754 72.9043 72.2547L72.904 72.2547L72.9037 72.2547C72.3861 72.2062 71.8681 72.1577 71.3551 72.1892C69.703 72.2914 68.4721 74.1588 68.9338 75.739C69.2584 76.85 70.0763 77.3783 71.1175 77.6752C71.2214 77.7048 71.3263 77.7325 71.4312 77.7603L71.4312 77.7603C71.6905 77.8289 71.95 77.8975 72.1963 77.9945C72.7169 78.2042 72.8764 78.7093 72.6189 79.2049C72.3737 79.6747 71.899 79.9348 71.2935 79.8306C70.7675 79.7398 70.2471 79.6167 69.7151 79.4909ZM74.4745 65.6123C74.4673 65.6153 74.4603 65.6187 74.4535 65.6223L74.439 65.6301C74.4164 65.6423 74.3956 65.6536 74.3751 65.6531C74.049 65.65 73.7226 65.6505 73.3962 65.651C72.5827 65.6523 71.7692 65.6536 70.9592 65.5986C70.2969 65.5544 69.8544 64.8498 69.8462 63.9736C69.832 62.3532 69.8356 60.7328 69.8393 59.1124C69.84 58.7714 69.8408 58.4304 69.8414 58.0893C69.8448 57.9426 69.8679 57.797 69.9099 57.6563C70.1017 56.9578 70.5839 56.5466 71.3106 56.5276C71.9025 56.5117 72.4948 56.5127 73.0874 56.5137C73.4645 56.5143 73.8418 56.5149 74.219 56.5112C74.4354 56.5112 74.493 56.6045 74.4882 56.7999L74.4838 56.9359C74.4725 57.2871 74.4611 57.639 74.4745 57.9899C74.4834 58.2371 74.3868 58.3004 74.156 58.2963C73.6256 58.2873 73.0953 58.2882 72.565 58.289L72.3233 58.2893L72.1011 58.2895C72.0282 58.2895 71.9552 58.2936 71.8779 58.298L71.8771 58.298L71.8097 58.3017L71.7524 58.3045V60.0106H74.2786V61.7371H71.7641V63.8721H73.4395C73.4767 63.8721 73.514 63.8723 73.5513 63.8727C73.5975 63.8731 73.6437 63.8736 73.6899 63.8742H73.6901H73.6902C73.8577 63.8764 74.0253 63.8785 74.1929 63.8721C74.3786 63.8646 74.4758 63.9314 74.4758 64.1193L74.4745 65.6123ZM48.266 72.7076L48.2652 72.5224L48.2649 72.4107L48.2649 72.3345C48.225 72.3241 48.1845 72.3163 48.1436 72.3114C47.851 72.3114 47.5584 72.3109 47.2658 72.3105H47.2657H47.2657H47.2656H47.2655C46.68 72.3096 46.0944 72.3087 45.5085 72.3114C44.1749 72.3189 43.6523 72.8281 43.6132 74.1571V74.3273C43.6123 76.0161 43.6146 77.7052 43.6201 79.3945C43.6221 79.6422 43.639 79.8895 43.6708 80.1352C43.7626 80.8603 44.2715 81.4042 44.9476 81.4287C45.6087 81.4532 46.2707 81.4559 46.9328 81.4586H46.9328H46.9329H46.9329H46.933C47.2861 81.46 47.6392 81.4615 47.9922 81.4662C48.2217 81.4689 48.2799 81.3641 48.2703 81.1517C48.2514 80.7888 48.2514 80.4252 48.2703 80.0624C48.2888 79.7615 48.2094 79.6491 47.8778 79.6614C47.3314 79.6816 46.7844 79.6776 46.23 79.6736C46.0019 79.6719 45.7725 79.6702 45.5414 79.6702V77.542H45.8901C46.0582 77.5422 46.2264 77.5419 46.3946 77.5417C46.8429 77.5409 47.2912 77.5402 47.7395 77.5481C47.9881 77.5481 48.1128 77.5019 48.0888 77.2077C48.0672 76.8343 48.0672 76.4599 48.0888 76.0865C48.095 75.8822 48.0155 75.8094 47.81 75.8094C47.2718 75.8157 46.7345 75.8119 46.1977 75.8081L45.8921 75.806C45.8138 75.8055 45.7343 75.7995 45.6582 75.7938L45.6577 75.7937C45.6207 75.791 45.5845 75.7882 45.5496 75.7862V74.076H45.8832C46.0321 74.0768 46.1811 74.0778 46.33 74.0788H46.3302H46.3304H46.3306H46.3308C46.8771 74.0825 47.4237 74.0862 47.9703 74.076C48.0696 74.0747 48.2518 73.9685 48.2518 73.9004C48.2696 73.5059 48.2678 73.1098 48.266 72.7079V72.7076ZM90.814 72.5113L90.8144 72.6718V72.672V72.6722V72.6724C90.8158 73.1088 90.8172 73.5323 90.8 73.9554C90.8 74.0017 90.6034 74.0752 90.4965 74.0772C90.0555 74.084 89.6145 74.0818 89.1731 74.0795L89.1712 74.0795C88.9509 74.0784 88.7306 74.0772 88.5101 74.0772H88.0909V75.8147H89.8102C90.2276 75.8147 90.4355 75.8147 90.5388 75.9186C90.6412 76.0217 90.6407 76.2271 90.6397 76.6364C90.6397 77.5398 90.6397 77.5405 89.7239 77.5432H88.0957V79.6694H88.4704C88.6587 79.6694 88.8471 79.6699 89.0354 79.6705C89.5321 79.672 90.0287 79.6735 90.5253 79.6646C90.7493 79.6605 90.8376 79.7395 90.8349 79.956C90.833 80.1092 90.8333 80.2626 90.8336 80.4161C90.8341 80.6937 90.8347 80.9716 90.8219 81.2495C90.8219 81.3176 90.6917 81.4449 90.6219 81.4456C90.3835 81.4456 90.1451 81.4467 89.9066 81.4478H89.9063H89.9062H89.9061C89.0605 81.4516 88.2145 81.4555 87.371 81.4109C86.7415 81.3775 86.2312 80.7028 86.2066 79.9669C86.1785 79.048 86.1778 78.1284 86.1772 77.2087L86.1771 77.1429C86.1771 76.9301 86.1767 76.7172 86.1763 76.5043C86.1745 75.6393 86.1728 74.7742 86.1997 73.9104C86.2333 72.8579 86.8237 72.3133 87.8745 72.3092C88.5562 72.3058 89.2382 72.3065 89.9316 72.3072C90.2234 72.3075 90.5171 72.3078 90.8137 72.3078L90.814 72.5113ZM47.6852 65.6882H47.6873H47.6893C47.8209 65.6878 47.9547 65.6875 48.0915 65.6875L48.0935 58.2953C48.2661 58.2953 48.4347 58.2945 48.6009 58.2937C48.9259 58.2922 49.2414 58.2908 49.5587 58.2953C49.7683 58.2987 49.8683 58.2408 49.8566 58.0039C49.8388 57.5954 49.8429 57.1869 49.8566 56.7784C49.8635 56.5667 49.784 56.5013 49.5785 56.5061C49.2457 56.5135 48.9137 56.5123 48.5818 56.5111C48.4574 56.5106 48.333 56.5102 48.2086 56.5102C47.8944 56.5102 47.5802 56.5106 47.266 56.5111H47.2659H47.2659C46.4281 56.5123 45.5903 56.5135 44.7529 56.5061C44.5173 56.5041 44.4296 56.564 44.4413 56.8104C44.4575 57.1843 44.4545 57.5588 44.4324 57.9324C44.418 58.2061 44.4995 58.3245 44.7961 58.3C44.9614 58.2863 45.1279 58.2883 45.2944 58.2903H45.2945C45.4592 58.2922 45.6238 58.2942 45.7872 58.281C46.0866 58.2565 46.1777 58.3531 46.1777 58.6554C46.167 60.2174 46.1711 61.7786 46.1751 63.3414C46.176 63.6838 46.1769 64.0262 46.1777 64.3687C46.1777 64.408 46.1777 64.4473 46.1777 64.4866C46.1777 64.5142 46.1777 64.5418 46.1776 64.5694C46.1773 64.8665 46.1769 65.1629 46.1948 65.458C46.1996 65.5411 46.3058 65.6773 46.3695 65.6773C46.8011 65.6904 47.2298 65.6893 47.6852 65.6882ZM75.9445 56.5259H77.8507V63.8787H78.8097C78.933 63.8787 79.0564 63.8781 79.1797 63.8775C79.5587 63.8758 79.9379 63.874 80.3166 63.8889C80.4118 63.893 80.5797 64.0094 80.5824 64.0795C80.6 64.4629 80.598 64.8474 80.596 65.2401V65.2404C80.5954 65.3672 80.5947 65.4948 80.5947 65.6236C80.4859 65.649 80.3753 65.666 80.2639 65.6746C80.0298 65.6733 79.7958 65.6728 79.5618 65.6724C78.8485 65.6709 78.1354 65.6695 77.4226 65.6433C76.5801 65.612 76.0678 65.1191 76.0061 64.2769C75.9527 63.5539 75.9486 62.8261 75.9452 62.0984C75.9401 60.9183 75.9418 59.7382 75.9435 58.5582C75.9443 57.9681 75.9452 57.3781 75.9452 56.7881L75.9445 56.5259ZM67.5858 72.314H65.7103C65.7103 72.3889 65.7102 72.461 65.7102 72.531C65.71 72.7323 65.7099 72.9158 65.7109 73.0983C65.7109 73.9906 65.7117 74.8829 65.7125 75.7751C65.714 77.5595 65.7155 79.3438 65.7109 81.1284C65.7103 81.4198 65.8144 81.5022 66.0884 81.4879C66.4994 81.4681 66.9104 81.464 67.3214 81.4681C67.5495 81.4708 67.6331 81.4014 67.6331 81.1543C67.6236 79.2617 67.6207 77.3688 67.6178 75.476C67.6164 74.6242 67.6151 73.7723 67.6132 72.9206C67.6127 72.7815 67.6045 72.6415 67.5961 72.4983C67.5925 72.4375 67.5889 72.3761 67.5858 72.314Z" fill="#D9D9D6"/>
</svg>
