<svg width="105" height="105" viewBox="0 0 105 105" fill="none" xmlns="http://www.w3.org/2000/svg">
<rect width="104.47" height="104.696" rx="52.235" fill="#313131"/>
<g clip-path="url(#clip0_267_1756)">
<path d="M88.9999 66.4958C88.4741 73.1946 86.2818 79.0315 80.5935 82.9945C76.9342 85.5502 72.8843 86.8044 68.4685 86.6849C68.4339 86.594 68.3976 86.503 68.3613 86.4104C68.5471 86.2831 68.7422 86.1706 68.9448 86.0737C75.2974 83.5905 78.5496 78.7385 79.2534 71.9572C79.3375 71.1508 79.3655 70.336 79.3836 69.5245C79.3968 68.91 79.5913 68.8141 80.1435 69.0599C83.1665 70.4067 86.3543 69.5834 88.1444 66.9925C88.3105 66.7127 88.4581 66.422 88.5861 66.1221L88.9999 66.4958Z" fill="#D9D9D6"/>
<path d="M75.9733 62.4586C74.3497 62.1943 72.7261 61.9334 71.1042 61.664C70.4745 61.5596 70.2949 61.1589 70.4449 60.5613C70.4581 60.5074 70.4844 60.4569 70.4993 60.403C70.9674 58.8003 70.9624 58.8272 72.6173 59.0848C73.7533 59.2811 74.8999 59.4065 76.0508 59.4602C77.8639 59.5124 78.8628 58.8659 79.1826 57.6083C79.6408 55.7463 78.9881 53.8288 77.5524 53.0628C76.3409 52.4079 75.0618 51.8843 73.8453 51.2344C70.585 49.4987 69.5136 45.1905 71.5954 42.2292C72.675 40.6921 74.3234 40.219 76.0162 40.2089C77.676 40.1887 79.3425 40.5069 81.004 40.6904C81.4655 40.7409 81.6913 41.0069 81.5792 41.5019C81.566 41.5574 81.5611 41.613 81.5512 41.6702C81.2216 43.4868 81.2314 43.4733 79.4529 43.273C78.5006 43.1447 77.5419 43.0716 76.5815 43.0541C75.108 43.0625 74.2739 43.6164 73.9607 44.6568C73.5256 46.0862 73.8948 47.4229 75.0404 48.2462C75.6145 48.6315 76.2213 48.9634 76.8535 49.2378C78.4244 49.9802 80.0265 50.6637 81.1952 52.0526C82.8567 54.0274 82.9984 58.3575 81.4886 60.4603C80.6364 61.6505 79.4018 62.0495 78.0683 62.2398C77.3909 62.3357 76.7002 62.3374 76.0162 62.3829L75.9733 62.4586Z" fill="#D9D9D6"/>
<path d="M54.8583 40.9475C54.7215 41.6546 54.6374 42.3515 54.4264 43.0064C54.3638 43.2017 53.932 43.4004 53.688 43.3802C52.732 43.3027 51.7858 43.126 50.8331 43.0132C50.4776 42.9772 50.1198 42.9716 49.7634 42.9963C48.1002 43.0704 47.2909 43.5906 47.0057 44.7506C46.6151 46.3399 47.0733 47.6126 48.4678 48.4123C49.6364 49.0857 50.8578 49.6665 52.0858 50.2204C56.2066 52.0723 56.1209 56.8637 54.9885 59.7712C54.3111 61.5086 52.7188 62.0187 51.0326 62.214C48.7084 62.4867 46.4354 62.1433 44.1838 61.5742C43.5245 61.4059 43.3761 61.0304 43.5739 60.3856C44.0684 58.7779 44.0421 58.8402 45.7168 59.0523C47.2002 59.2425 48.72 59.4142 50.2051 59.3132C51.6902 59.2122 52.3479 58.2391 52.404 56.6852C52.465 54.6532 51.6194 53.2912 49.7518 52.5016C48.4909 51.9679 47.2151 51.3837 46.1041 50.5908C43.6432 48.8332 42.9608 45.4156 44.3849 42.7118C45.2387 41.0939 46.714 40.2942 48.3623 40.2538C50.398 40.2033 52.4435 40.5619 54.4825 40.7589C54.6176 40.7989 54.7448 40.8627 54.8583 40.9475Z" fill="#D9D9D6"/>
<path d="M26.3739 27.9996C28.0832 29.907 28.4607 32.8145 29.6705 35.5755C28.6815 35.5755 27.8904 35.6277 27.1239 35.5418C26.903 35.5166 26.6442 35.1226 26.542 34.8448C25.9931 33.3499 25.4756 31.8431 24.9712 30.3313C24.6119 29.2555 23.8817 28.7588 22.7938 28.7757C20.2636 28.8194 20.8043 28.3699 20.7383 30.7269C20.7021 32.0737 20.7218 33.4206 20.7647 34.7674C20.7845 35.3718 20.6114 35.6092 19.9883 35.6277C18.0928 35.6933 18.0796 35.7186 18.0779 33.7758C18.0779 28.7538 18.0878 23.7318 18.0664 18.7115C18.0664 17.9656 18.2543 17.671 19.0472 17.7013C20.7466 17.7838 22.4542 17.7131 24.1569 17.7939C26.8519 17.9252 28.2612 19.3512 28.4722 22.0987C28.5793 23.5095 28.5662 24.9153 27.7156 26.1392C27.3052 26.7369 26.87 27.3144 26.3739 27.9996ZM20.796 26.4322C21.9762 26.3446 23.0872 26.3834 24.1306 26.1325C24.6448 26.0079 25.2349 25.4305 25.4492 24.9136C25.9237 23.7329 25.9391 22.4118 25.4921 21.2199C25.3536 20.8445 24.9695 20.3445 24.6448 20.2889C23.3921 20.1037 22.1163 20.0768 20.796 19.9859V26.4322Z" fill="#D9D9D6"/>
<path d="M20.1794 51.1866C20.3442 52.764 20.4464 54.5536 20.7217 56.3163C21.0332 58.3012 22.2727 59.3972 24.2243 59.4258C25.3386 59.441 26.4627 59.2575 27.5688 59.0756C28.622 58.8989 28.6121 58.8467 28.8363 59.8736C28.863 60.0105 28.8966 60.146 28.9369 60.2794C29.3358 61.5302 29.3489 61.6077 28.0253 61.8232C26.5715 62.0589 25.0864 62.2912 23.6243 62.2457C20.3343 62.1414 18.4305 60.542 17.6723 57.2591C16.7876 53.3371 16.7746 49.2624 17.6344 45.3346C18.358 41.9237 20.664 40.1391 24.0925 40.1593C25.4556 40.1593 26.8188 40.4001 28.1803 40.5297C28.7753 40.587 28.9764 40.8984 28.8544 41.4995C28.4473 43.4961 29.0555 43.449 26.7116 43.119C25.8418 43.0031 24.9635 42.9688 24.0875 43.0163C22.3106 43.1055 21.1321 44.0753 20.809 45.8682C20.5074 47.5501 20.3986 49.2606 20.1794 51.1866Z" fill="#D9D9D6"/>
<path d="M46.6168 24.3736C47.7311 24.0016 48.7596 23.5521 49.8294 23.3282C51.0804 23.0655 51.7892 24.1312 52.6117 24.8434C53.1507 24.4949 53.6353 24.1346 54.1578 23.8467C56.6567 22.4645 58.9379 23.6649 59.0682 26.5538C59.1934 29.3519 59.1094 32.1617 59.0682 34.9715C59.0682 35.1769 58.7121 35.5473 58.511 35.5541C56.177 35.6365 56.5133 35.7426 56.5149 33.7796C56.5149 31.4513 56.5149 29.1229 56.4803 26.7963C56.4622 25.6902 55.8985 25.2811 54.8551 25.5403C53.4936 25.8669 52.8969 26.6346 52.9002 28.0539C52.9068 30.1314 52.9128 32.2077 52.9183 34.283C52.9183 35.6079 52.9183 35.6079 51.5865 35.618H51.5041C50.4178 35.618 50.314 35.5305 50.3156 34.4396C50.3156 32.3065 50.3337 30.1751 50.3403 28.0421C50.3403 27.7054 50.3338 27.3687 50.3206 27.032C50.2497 25.5319 49.6612 25.1346 48.2865 25.6666C47.0503 26.1498 46.6382 26.7508 46.6382 28.0892C46.6382 30.2778 46.6069 32.4664 46.6382 34.655C46.6382 35.3739 46.4421 35.6416 45.702 35.6214C44.1031 35.5793 44.1229 35.6214 44.1377 33.9968C44.1674 30.9125 44.1559 27.8266 44.1954 24.7373C44.1954 24.3433 44.2844 23.776 44.5399 23.5975C45.0015 23.2743 46.2245 23.7221 46.4882 24.1548C46.5575 24.2743 46.6283 24.3905 46.6168 24.3736Z" fill="#D9D9D6"/>
<path d="M41.6899 50.5504C41.6899 51.7002 41.6767 52.8501 41.6899 53.9983C41.6998 54.5033 41.502 54.6818 41.0174 54.7155C39.2372 54.8417 39.1943 54.8131 39.2504 53.0134C39.313 51.0504 39.313 51.0537 37.3861 51.0689C36.4268 51.0689 35.4642 51.1093 34.5065 51.0689C33.8785 51.0403 33.6824 51.276 33.7219 51.8922C33.7681 52.6194 33.7219 53.3501 33.7582 54.0808C33.7829 54.6027 33.5505 54.7542 33.0791 54.7811C31.3929 54.8838 31.3302 54.8367 31.3203 53.0976C31.3104 51.3585 31.289 49.5621 31.2973 47.8011C31.322 42.466 36.2554 41.306 39.5504 43.1495C40.7784 43.8364 41.4542 45.0334 41.5498 46.4526C41.6437 47.818 41.5696 49.1934 41.5696 50.5655L41.6899 50.5504ZM36.5224 48.8988C36.8224 48.8988 37.124 48.9089 37.424 48.8988C39.3723 48.8281 39.4976 49.4039 39.1449 46.8382C38.9355 45.3146 38.3207 44.759 36.8208 44.6496C34.7851 44.4963 33.9477 45.2186 33.7532 47.2944C33.7269 47.5722 33.7137 47.8516 33.6807 48.1362C33.6148 48.6867 33.8851 48.9022 34.3895 48.9022L36.5224 48.8988Z" fill="#D9D9D6"/>
<path d="M68.0184 50.4146C68.0184 51.5644 68.0003 52.7143 68.0184 53.8625C68.0316 54.4584 67.8355 54.7733 67.2157 54.7042C67.1059 54.6975 66.9958 54.6975 66.8861 54.7042C65.5971 54.7278 65.5509 54.6807 65.5888 53.3456C65.6515 51.0307 65.6515 51.0324 63.4098 51.061C62.6697 51.0711 61.9263 51.0728 61.1878 51.0728C60.1247 51.0728 60.1247 51.0728 60.1296 52.1907C60.1296 52.8355 60.1873 53.487 60.1148 54.1217C60.0884 54.349 59.7571 54.5443 59.5577 54.7446C59.5296 54.7733 59.4522 54.7446 59.3928 54.7547C57.7808 54.8423 57.7231 54.7867 57.7148 53.1486C57.7066 51.327 57.6588 49.5038 57.6951 47.6822C57.7824 43.2561 62.007 40.8066 65.7718 43.0238C66.3971 43.3714 66.9225 43.8799 67.2961 44.4989C67.6696 45.1178 67.8783 45.8258 67.9014 46.5525C67.9674 47.8387 67.9146 49.13 67.9146 50.4247L68.0184 50.4146ZM62.8526 48.8994V48.9095C63.0435 48.9365 63.2371 48.9365 63.4279 48.9095C64.1581 48.6906 65.2938 49.5172 65.5888 48.3758C65.7866 47.6115 65.4702 46.6586 65.2213 45.8505C65.1042 45.4649 64.6592 45.071 64.2718 44.9043C62.0103 43.9312 60.2532 45.0727 60.1247 47.5273C60.1131 47.7512 60.1247 47.9768 60.1049 48.2007C60.0686 48.7058 60.3307 48.9162 60.7939 48.9179C61.4796 48.8977 62.1669 48.896 62.8526 48.896V48.8994Z" fill="#D9D9D6"/>
<path d="M41.6919 31.3567C41.6919 32.4494 41.6589 33.5454 41.7018 34.6363C41.7298 35.3467 41.4463 35.6161 40.7837 35.5488C40.7019 35.5437 40.6199 35.5437 40.5381 35.5488C39.2705 35.5589 39.259 35.5303 39.2359 34.2474C39.2211 33.4763 39.4205 32.4527 39.0233 32.0133C38.6755 31.6295 37.6305 31.8972 36.8937 31.8854C36.0431 31.8702 35.1926 31.8854 34.3421 31.8517C33.8838 31.8349 33.6827 32.0083 33.7009 32.4814C33.7273 33.2086 33.7009 33.941 33.7553 34.67C33.8047 35.3434 33.508 35.5925 32.8981 35.5757C32.8438 35.5757 32.7877 35.5757 32.7333 35.5841C31.3751 35.6515 31.3438 35.6313 31.3323 34.2373C31.3174 32.3315 31.3009 30.4241 31.3174 28.5132C31.3339 26.6815 31.9059 25.0973 33.4454 24.0115C36.7931 21.6545 41.3111 23.7926 41.6128 27.9038C41.6969 29.0469 41.626 30.2002 41.626 31.35L41.6919 31.3567ZM36.5904 29.7641V29.7978C36.8656 29.7978 37.1393 29.8096 37.4145 29.7978C39.3628 29.6985 39.4057 30.2624 39.1634 27.6563C39.0793 26.7405 38.6689 25.9913 37.7854 25.6361C35.6887 24.7791 33.9531 25.86 33.752 28.1462C33.724 28.4526 33.7042 28.759 33.6844 29.0671C33.6547 29.5082 33.8492 29.7675 34.2926 29.7725C35.0574 29.7709 35.8239 29.7641 36.5904 29.7641Z" fill="#D9D9D6"/>
<path d="M70.9262 29.8614C70.8289 30.7032 70.7778 31.7133 70.585 32.6965C70.2355 34.4844 69.1378 35.6174 67.3559 35.7858C66.163 35.8769 64.9637 35.8203 63.784 35.6174C62.7374 35.4491 62.0533 34.6662 61.7022 33.6578C60.7775 31.0011 60.7132 28.3193 61.7945 25.7064C62.1215 24.9974 62.6294 24.3914 63.2648 23.9521C66.2318 21.8427 70.257 23.6558 70.7185 27.2654C70.8125 28.0684 70.8471 28.8748 70.9262 29.8614ZM68.4422 29.4035L68.368 29.39C68.3466 28.9152 68.335 28.4388 68.2988 27.964C68.2786 27.6853 68.2383 27.4084 68.1784 27.1357C67.9658 26.1828 67.3345 25.5481 66.4906 25.4168C65.5296 25.2687 64.6774 25.5852 64.3066 26.3748C63.4247 28.262 63.3176 30.2654 63.7478 32.2756C63.9637 33.2992 64.773 33.7436 65.9648 33.7419C67.0741 33.7419 67.7285 33.348 67.9971 32.2907C68.2378 31.353 68.3004 30.3681 68.4422 29.4035Z" fill="#D9D9D6"/>
<path d="M75.329 24.5858C75.632 24.4484 75.927 24.2933 76.2125 24.1211C77.0889 23.5302 78.1322 23.2526 79.1795 23.3315C80.7404 23.4157 81.9602 24.5858 81.9899 26.1767C82.0443 29.0909 82.0047 32.0068 82.0146 34.9227C82.0146 35.3739 81.8497 35.5961 81.3899 35.5961C79.3344 35.5961 79.5635 35.7359 79.547 33.857C79.5273 31.4748 79.4959 29.0926 79.4366 26.7121C79.4152 25.7845 79.0377 25.4831 78.141 25.4831C77.1323 25.4831 76.3559 26.0286 75.6587 26.6616C75.4329 26.8653 75.4048 27.3788 75.4015 27.7508C75.3752 30.0219 75.3554 32.2964 75.3933 34.5625C75.4081 35.3571 75.1658 35.6652 74.3697 35.6584C73.0329 35.6467 72.8862 35.613 72.878 34.6045C72.8571 31.1566 72.8571 27.7082 72.878 24.2592C72.878 24.0218 73.117 23.5942 73.267 23.5858C73.8867 23.5453 74.6021 23.2608 75.0801 23.9662C75.1828 24.1639 75.2662 24.3714 75.329 24.5858Z" fill="#D9D9D6"/>
<path d="M19.2716 73.3513C19.2716 74.7453 19.2864 76.0029 19.2716 77.2605C19.2551 77.8497 19.6194 77.8666 20.0249 77.8666L24.0599 77.9154C24.1967 77.9154 24.3599 77.8632 24.4654 77.9154C24.6505 78.0394 24.8232 78.1815 24.9813 78.3396C24.8165 78.4844 24.6698 78.7521 24.5083 78.7555C22.6704 78.7925 20.8309 78.8144 18.9947 78.7689C18.7622 78.7689 18.3353 78.3497 18.3353 78.1225C18.2958 74.7037 18.2958 71.2839 18.3353 67.8629C18.3353 67.6744 18.6864 67.3326 18.8793 67.3276C20.7452 67.2771 22.6111 67.272 24.4835 67.3006C24.6484 67.3006 24.8132 67.6373 24.9681 67.8057C24.7753 67.9505 24.5841 68.2182 24.3879 68.2232C22.9885 68.2518 21.5858 68.2687 20.1897 68.2047C19.4446 68.1693 19.2205 68.4185 19.2848 69.1576C19.3404 69.942 19.3481 70.7292 19.3078 71.5145C19.2798 72.188 19.5089 72.4607 20.2029 72.4388C21.4375 72.4001 22.6753 72.422 23.9083 72.4759C24.1654 72.486 24.4127 72.7452 24.6649 72.8883C24.416 73.0398 24.1704 73.3126 23.9149 73.3193C22.41 73.3715 20.9034 73.3513 19.2716 73.3513Z" fill="#D9D9D6"/>
<path d="M51.867 78.9668C51.5917 78.7092 51.2324 78.5004 51.0593 78.1839C50.6815 77.4697 50.3479 76.732 50.0604 75.9751C49.8577 75.4701 49.5659 75.2411 49.0072 75.2596C47.7742 75.3 46.5347 75.2933 45.3051 75.2748C44.8106 75.2663 44.4809 75.4263 44.288 75.9246C44.0078 76.6553 43.6897 77.3691 43.3699 78.0812C43.271 78.3035 43.1573 78.5695 42.9727 78.6839C42.7881 78.7984 42.5211 78.7328 42.2903 78.7479C42.2903 78.5442 42.2227 78.3136 42.2903 78.1418C42.8441 76.795 43.426 75.4734 43.9979 74.1417C44.8963 72.0424 45.7897 69.9329 46.7012 67.8453C46.7786 67.6668 47.0308 67.4042 47.1231 67.4328C47.3447 67.5094 47.5277 67.6722 47.6325 67.8857C48.8292 70.6501 50.0121 73.4206 51.1813 76.1973C51.5324 77.0273 51.862 77.8691 52.2016 78.7058L51.867 78.9668ZM47.2764 69.576L46.9468 69.6231L45.0397 74.2529H49.3253C48.6297 72.6653 47.9522 71.1215 47.2764 69.576Z" fill="#D9D9D6"/>
<path d="M33.5294 70.103C33.1678 69.8587 32.8235 69.5887 32.4992 69.2949C31.7508 68.5171 30.9118 68.0036 29.8025 68.1164C28.9866 68.2006 28.319 68.5087 28.0339 69.3774C27.7487 70.2461 27.9564 71.0761 28.7443 71.5896C29.4531 72.0509 30.2575 72.364 31.0289 72.7226C31.4508 72.9179 31.9058 73.0458 32.3261 73.2495C33.6991 73.9128 34.2447 74.8236 34.1392 76.221C34.0552 77.3304 33.0777 78.455 31.8712 78.8271C30.8519 79.1452 29.7564 79.0951 28.7691 78.6851C27.7818 78.2752 26.9628 77.5305 26.4499 76.5762C26.3854 76.4074 26.3422 76.2309 26.3213 76.051L26.5075 75.8254C26.8537 76.056 27.2691 76.2244 27.5361 76.5274C28.6322 77.7732 29.8915 78.4416 31.5563 77.9079C32.4711 77.6133 33.1915 76.7968 33.1832 76.0021C33.1733 75.0391 32.5799 74.4634 31.7838 74.1065C30.7553 73.6452 29.6855 73.2782 28.6668 72.7967C27.7652 72.3707 27.0548 71.7057 26.8718 70.6451C26.6196 69.1754 27.3877 67.938 28.8498 67.379C30.5954 66.7157 32.6409 67.4615 33.5541 69.1047C33.6583 69.3461 33.7384 69.5976 33.7931 69.8555L33.5294 70.103Z" fill="#D9D9D6"/>
<path d="M62.3783 73.371C62.3783 74.7734 62.3783 76.026 62.3783 77.2802C62.3783 77.861 62.7821 77.861 63.1761 77.8678C64.4947 77.8863 65.8134 77.8678 67.132 77.9334C67.4238 77.9452 67.704 78.1944 67.9892 78.3341C67.7254 78.5025 67.465 78.7988 67.1963 78.8089C65.6057 78.8594 64.0134 78.8392 62.4162 78.8493C61.6992 78.8493 61.3761 78.5126 61.3794 77.7684C61.3943 74.6 61.4025 71.4333 61.3794 68.2665C61.3794 67.5308 61.6662 67.2833 62.3684 67.2985C63.959 67.3305 65.5529 67.285 67.1485 67.3254C67.4238 67.3254 67.6941 67.5965 67.9727 67.743C67.7122 67.9113 67.4551 68.1958 67.1881 68.2059C65.8183 68.2598 64.4436 68.2581 63.0673 68.2362C62.5365 68.2278 62.3239 68.4046 62.342 68.9618C62.3734 69.8289 62.3865 70.7009 62.3503 71.568C62.319 72.2885 62.6437 72.4703 63.2882 72.4518C64.4947 72.4198 65.7046 72.4232 66.9145 72.4771C67.1914 72.4905 67.4584 72.7683 67.7287 72.9249C67.4666 73.0747 67.2078 73.3441 66.9408 73.3525C65.431 73.3929 63.9244 73.371 62.3783 73.371Z" fill="#D9D9D6"/>
<path d="M36.4766 59.7525C35.0788 59.7525 33.6744 59.7171 32.2865 59.7676C31.5069 59.7962 31.2399 59.4713 31.319 58.7306C31.3434 58.5363 31.3489 58.3401 31.3355 58.1447C31.2827 57.4831 31.5778 57.3029 32.2091 57.3029C35.0859 57.3265 37.9622 57.3203 40.838 57.2844C41.5138 57.276 41.8138 57.4949 41.7297 58.1902C41.7281 58.2182 41.7281 58.2463 41.7297 58.2743C41.7528 59.7491 41.7528 59.7508 40.3386 59.7525H36.4766Z" fill="#D9D9D6"/>
<path d="M62.9202 57.3051C64.3444 57.3051 65.7685 57.3286 67.1926 57.2966C67.8701 57.2798 68.1536 57.5492 68.0976 58.2327C68.0761 58.5105 68.175 58.8287 68.0712 59.061C67.9525 59.327 67.674 59.7108 67.4597 59.7142C64.4762 59.7563 61.4928 59.7411 58.5077 59.7445C57.9984 59.7445 57.7462 59.5088 57.7511 58.9869C57.7511 58.7344 57.7643 58.4819 57.7511 58.231C57.7033 57.5576 57.9637 57.2865 58.6544 57.3067C60.0769 57.3505 61.5027 57.3202 62.9252 57.3202L62.9202 57.3051Z" fill="#D9D9D6"/>
<path d="M39.2771 73.5411C39.2771 75.0271 39.2771 76.5136 39.2771 78.0008C39.2771 78.3594 39.3678 78.7836 38.7974 78.76C38.2271 78.7365 38.2403 78.3459 38.2436 77.9183C38.2689 75.1124 38.2881 72.3065 38.3013 69.5006C38.3013 68.2749 38.3013 68.2733 37.07 68.2564C36.5211 68.2564 35.964 68.3052 35.4217 68.2312C35.2058 68.2009 35.0245 67.8945 34.8267 67.7261C35.0228 67.5796 35.2157 67.3069 35.4135 67.3052C37.6651 67.2732 39.9183 67.2682 42.1715 67.3052C42.3842 67.3052 42.5919 67.6217 42.8012 67.7901C42.5902 67.9584 42.3891 68.2329 42.1633 68.2547C41.479 68.3123 40.7916 68.3201 40.1062 68.2783C39.5738 68.2531 39.3727 68.4467 39.3826 68.9972C39.409 70.5124 39.3925 72.0276 39.3925 73.5427L39.2771 73.5411Z" fill="#D9D9D6"/>
<path d="M55.0232 73.4026C55.0232 72.0288 54.9705 70.6517 55.043 69.2813C55.0892 68.4311 54.7776 68.1971 54.0145 68.256C53.4106 68.3076 52.8032 68.2975 52.2013 68.2257C51.9442 68.192 51.7184 67.9109 51.4761 67.7408C51.7068 67.6011 51.9343 67.3418 52.1651 67.3368C54.3892 67.3031 56.6122 67.3031 58.8341 67.3368C59.0319 67.3368 59.2248 67.6129 59.4193 67.7593C59.2133 67.9277 59.0188 68.2156 58.7979 68.2392C58.1141 68.3034 57.4266 68.318 56.7408 68.2829C56.1639 68.261 55.9842 68.4984 55.9892 69.0742C56.0056 71.7931 55.9892 74.5137 55.9892 77.2343C55.9892 77.4869 56.0386 77.7562 55.9677 77.9869C55.8562 78.2547 55.7164 78.5093 55.5507 78.7461C55.3859 78.4818 55.1123 78.2411 55.0562 77.9498C54.9689 77.4599 55.0117 76.9397 55.0084 76.4346C55.0084 75.4245 55.0084 74.4144 55.0084 73.4043L55.0232 73.4026Z" fill="#D9D9D6"/>
</g>
<defs>
<clipPath id="clip0_267_1756">
<rect width="72" height="69" fill="white" transform="translate(17 17.6963)"/>
</clipPath>
</defs>
</svg>
