<svg width="105" height="106" viewBox="0 0 105 106" fill="none" xmlns="http://www.w3.org/2000/svg">
<rect y="0.652344" width="104.47" height="104.696" rx="52.235" fill="#313131"/>
<path d="M85.759 53.9192C85.8266 57.9225 85.6937 61.9268 85.3608 65.9167C85.1105 68.9738 84.7115 72.0141 84.3357 75.0559C83.9938 77.7919 83.39 80.4727 82.4457 83.0676C82.0064 84.2758 81.5231 85.463 80.7555 86.5068C79.8221 87.7747 78.5647 88.6292 77.1927 89.3396C74.7912 90.5836 72.2354 91.3777 69.6183 91.9789C63.061 93.4776 56.4064 93.9391 49.702 93.7862C46.2406 93.7013 42.7878 93.3979 39.364 92.8778C36.0298 92.3778 32.7418 91.6834 29.5952 90.4424C28.3818 89.9642 27.2053 89.3695 26.0561 88.7457C24.2426 87.7609 23.0884 86.1836 22.3252 84.2809C21.2835 81.6831 20.6538 78.9776 20.1827 76.2256C19.6056 72.8417 19.2348 69.4323 18.9795 66.0113C18.8446 64.2098 18.7133 62.404 18.6859 60.5988C18.6231 56.367 18.5488 52.133 18.6238 47.9026C18.6779 44.8258 18.8936 41.7477 19.1663 38.6819C19.4152 35.8846 19.7708 33.0918 20.2015 30.3171C20.661 27.3496 21.3636 24.4345 22.4832 21.6322C23.3791 19.3903 24.9553 17.8421 27.0523 16.7554C29.5944 15.4343 32.2938 14.5893 35.0682 13.9597C38.3317 13.2194 41.6363 12.7616 44.9698 12.485C48.8047 12.1673 52.6562 12.1032 56.4994 12.2928C61.2345 12.5257 65.9285 13.0811 70.5352 14.2544C73.0895 14.9052 75.5602 15.7757 77.8737 17.0793C79.7803 18.1537 81.1054 19.6997 81.9177 21.7377C82.9629 24.358 83.605 27.0883 84.0818 29.8615C84.8071 34.0168 85.2705 38.2144 85.469 42.429C85.6414 46.2561 85.7445 50.0869 85.878 53.9162L85.759 53.9192ZM84.4165 53.0581C84.4836 49.6473 84.3408 46.243 84.1857 42.838C84.0089 38.9708 83.6446 35.1226 83.0077 31.3071C82.5417 28.5106 81.9213 25.7548 80.9258 23.0894C80.0861 20.8439 78.6809 19.1625 76.5398 18.0707C74.7467 17.1642 72.867 16.4436 70.9297 15.9198C65.6933 14.4815 60.3364 13.9072 54.9326 13.7464C48.8111 13.5644 42.7234 13.9153 36.7036 15.1257C33.8455 15.7015 31.0379 16.4577 28.4078 17.7591C26.8107 18.5489 25.2705 19.4478 24.3934 21.1074C23.919 21.9904 23.5038 22.9045 23.1504 23.8434C22.1405 26.5839 21.6298 29.4481 21.1869 32.3261C20.5961 36.1642 20.2916 40.0313 20.1012 43.9087C19.9088 47.8242 19.8817 51.7406 20.0197 55.658C20.2015 60.9795 20.4741 66.2937 21.1017 71.5861C21.6002 75.8019 22.4413 79.9341 23.8776 83.9301C24.0645 84.4405 24.3064 84.9287 24.599 85.3858C25.2164 86.359 26.1304 87.0163 27.0985 87.5928C29.0253 88.7406 31.1165 89.4852 33.2626 90.0733C38.38 91.4789 43.6165 92.0575 48.8962 92.2511C53.8289 92.4324 58.7494 92.2322 63.6453 91.5546C67.2847 91.0509 70.8778 90.3383 74.3065 88.975C75.4513 88.5193 76.5536 87.9305 77.6248 87.3118C79.4044 86.284 80.3992 84.6048 81.0636 82.7094C82.1004 79.7369 82.8001 76.6553 83.1491 73.5237C83.4982 70.4055 83.8077 67.2785 83.9945 64.1465C84.2116 60.4555 84.2809 56.7535 84.4165 53.0581Z" fill="#D9D9D6"/>
<path d="M50.2277 38.8354L50.9491 38.7219L50.9592 38.62L50.675 38.3841C51.3581 38.1374 51.0876 37.5667 51.1078 37.0958C51.1208 36.7581 51.0768 36.4181 51.0617 36.0768C51.053 35.8781 51.0393 35.651 51.3242 35.6626C51.6092 35.6743 51.5854 35.8868 51.5486 36.0913C51.5414 36.1299 51.5486 36.1714 51.6207 36.2129C51.6207 36.0477 51.6272 35.8817 51.6207 35.7172C51.6121 35.5119 51.5753 35.3059 51.5825 35.1021C51.5861 34.9951 51.6344 34.8314 51.7066 34.8015C51.7787 34.7717 51.9114 34.8656 52.0672 34.9245C52.0802 34.8195 52.1057 34.7163 52.143 34.6174C52.2043 34.517 52.2769 34.4242 52.3594 34.3408C52.4452 34.4259 52.5888 34.5009 52.6068 34.5985C52.6493 34.8972 52.6756 35.198 52.6855 35.4996C52.692 35.5862 52.6855 35.6743 52.6855 35.7609L52.8009 35.7696C52.7983 35.6284 52.8089 35.4873 52.8326 35.3482C52.8636 35.2295 52.9459 35.1247 53.0057 35.0141C53.101 35.1211 53.2669 35.2215 53.277 35.3365C53.3094 35.6844 53.277 36.0382 53.277 36.3898C53.2766 36.4242 53.2855 36.4582 53.3028 36.4879C53.3201 36.5177 53.3451 36.5421 53.3751 36.5586C53.3976 36.4653 53.4152 36.3707 53.4277 36.2755C53.44 36.1299 53.4003 35.9669 53.4552 35.8446C53.51 35.7223 53.6442 35.5534 53.7632 35.5374C53.9796 35.5039 54.0207 35.6917 54.0092 35.8839C53.963 36.6336 53.9183 37.384 53.88 38.1345C53.8666 38.3738 53.8804 38.6138 53.9212 38.85C54.2169 38.5959 53.8671 37.9925 54.4918 37.8681C54.4665 38.1745 54.4449 38.4111 54.4268 38.6403L54.4911 38.6636C54.5906 38.4773 54.6894 38.2902 54.7919 38.0966C55.0992 38.2553 54.9477 38.4511 54.9116 38.6403C54.8983 38.7744 54.8983 38.9095 54.9116 39.0436L55.0609 39.0581C55.2175 38.6076 55.3762 38.1578 55.5291 37.7057C55.664 37.3054 55.7787 36.8971 55.9302 36.5026C55.9792 36.3752 56.1141 36.2842 56.2101 36.1721C56.2772 36.2937 56.3486 36.413 56.4092 36.5361C56.4304 36.6003 56.4447 36.6667 56.4517 36.734C56.803 36.3424 56.6357 35.6422 57.3174 35.4501V36.1314L57.3729 36.1408C57.4912 35.822 57.6088 35.5032 57.7293 35.1858C57.7455 35.1149 57.7776 35.0487 57.8231 34.9922C57.914 34.9239 58.0105 34.8635 58.1116 34.8117C58.1513 34.9275 58.2494 35.0614 58.2205 35.1546C58.0972 35.5447 57.9363 35.9232 57.7877 36.3053C57.7495 36.4036 57.704 36.4989 57.6615 36.5965L57.7387 36.6394C57.8411 36.4545 57.9443 36.2689 58.0474 36.0848C58.1249 35.9223 58.2161 35.767 58.3201 35.6204C58.3742 35.5542 58.504 35.552 58.6 35.5214C58.618 35.6189 58.6764 35.7325 58.6469 35.8125C58.5026 36.1845 58.3403 36.547 58.1845 36.9138C58.1527 36.9866 58.1253 37.0659 58.0748 37.1962L58.7168 37.2501C58.2357 38.2502 57.7791 39.2037 57.3224 40.1579L57.3801 40.2009C57.4811 40.0823 57.5857 39.9658 57.6824 39.8435C57.8642 39.6135 58.0157 39.2721 58.3316 39.7212L58.1239 39.8923L58.147 39.9418C58.1898 39.9276 58.2337 39.9171 58.2783 39.9105C58.3583 39.9054 58.4384 39.9105 58.5185 39.9105C58.5105 39.9971 58.5278 40.099 58.4882 40.1674C58.3749 40.3625 58.2379 40.5445 58.1102 40.7308L58.2544 40.8451L60.5939 38.2502L60.7013 38.3186C60.7237 38.537 60.7461 38.751 60.7735 39.0276C61.0346 38.7415 61.2287 38.4969 61.4573 38.291C61.5554 38.2022 61.7242 38.1941 61.8606 38.1497C61.8461 38.2936 61.8189 38.4359 61.7791 38.5748C61.7351 38.6913 61.6427 38.7895 61.6247 38.9388C61.856 38.7277 62.0878 38.5166 62.3201 38.3055C62.3829 38.2495 62.4413 38.1643 62.5134 38.1483C62.6332 38.1342 62.7543 38.1342 62.8741 38.1483C62.8532 38.2626 62.8705 38.4147 62.802 38.486C62.5749 38.7185 62.3361 38.9388 62.0864 39.1462C61.9688 39.2481 61.8361 39.3325 61.7105 39.4243L61.8303 39.5582C62.015 39.4126 62.1874 39.2452 62.3886 39.1295C62.499 39.0654 62.6584 39.088 62.7962 39.072C62.7688 39.2124 62.7832 39.3864 62.7053 39.4876C62.5531 39.6848 62.3489 39.8413 62.1664 40.0146L62.2343 40.1026C62.3743 39.9803 62.5228 39.8682 62.6786 39.7671C62.7695 39.7161 62.895 39.7336 63.0097 39.7198C63.0177 39.8588 63.0775 40.0284 63.0198 40.1303C62.9426 40.2686 62.7753 40.3559 62.6462 40.4644C61.9277 41.0695 61.2092 41.6761 60.4907 42.2841C60.4081 42.3585 60.3544 42.4601 60.3392 42.5709L60.9408 42.2288L61.0404 42.3532L60.6573 42.7783L61.2669 42.8234C61.321 42.7113 61.3787 42.5905 61.4371 42.4704C61.492 43.076 60.9567 43.2849 60.6184 43.6284C60.6443 43.6576 60.671 43.6867 60.697 43.7165C60.948 43.595 61.202 43.4785 61.4501 43.3526C62.424 42.8511 63.3935 42.3416 64.3717 41.851C64.4763 41.7978 64.6249 41.835 64.7533 41.8299C64.6855 41.9558 64.6487 42.1283 64.5441 42.1982C64.2505 42.3962 63.9288 42.5527 63.6467 42.7972C63.8292 42.7324 64.0074 42.6451 64.1971 42.6102C64.301 42.5905 64.4207 42.6589 64.534 42.6873C64.4756 42.7907 64.4402 42.9224 64.3551 42.9901C64.2209 43.0956 64.0528 43.1582 63.928 43.3038C64.3993 43.1466 64.8706 42.9894 65.3419 42.8322C65.4674 42.7907 65.593 42.7288 65.7206 42.723C65.8094 42.7186 65.9017 42.7958 65.9926 42.8322C65.937 42.9122 65.8995 43.0316 65.8238 43.0665C65.3773 43.2732 64.9214 43.4603 64.4698 43.6561C64.4357 43.6706 64.4061 43.694 64.384 43.724C64.3619 43.7539 64.3482 43.7893 64.3443 43.8264C64.5109 43.7806 64.6754 43.7071 64.8434 43.6976C64.9769 43.6903 65.1147 43.7609 65.251 43.7966C65.1601 43.8934 65.0858 44.0288 64.974 44.079C64.6927 44.2049 64.3969 44.2923 64.0081 44.4291C64.2245 44.4735 64.3529 44.4822 64.4662 44.5296C64.5519 44.5792 64.6301 44.641 64.6985 44.713C64.6314 44.7741 64.5744 44.8658 64.4958 44.8913C63.8689 45.0988 63.2355 45.2887 62.6079 45.4933C62.2565 45.6012 61.9178 45.7476 61.598 45.93C62.147 45.7189 62.6353 45.8244 63.1677 46.16L61.8375 46.636C61.8231 46.6615 61.8094 46.6877 61.7949 46.7139C61.8988 46.751 62.0041 46.8238 62.1058 46.8202C62.9585 46.7903 63.8097 46.7387 64.6617 46.7139C64.8305 46.7088 65.1421 46.7772 65.1479 46.8369C65.1767 47.1135 64.9315 47.1623 64.715 47.211C64.5998 47.2336 64.4902 47.2792 64.3926 47.345C64.7821 47.3173 65.171 47.2795 65.5612 47.2664C65.7596 47.2591 66.0481 47.1659 66.0662 47.4971C66.0842 47.8283 65.7935 47.8123 65.5742 47.8312C65.2568 47.8574 64.9372 47.8625 64.6205 47.9389C65.0851 47.9389 65.5504 47.9295 66.0142 47.9433C66.2379 47.9491 66.5913 47.8508 66.5993 48.1864C66.6072 48.5219 66.2458 48.4288 66.0308 48.4462C65.7098 48.4724 65.3859 48.4528 65.0635 48.4528C65.0599 48.4863 65.0555 48.5198 65.0519 48.5532C65.2885 48.5747 65.5238 48.6092 65.7567 48.6566C65.8844 48.6879 66.1037 48.8131 66.095 48.8582C66.0503 49.0824 65.888 49.1879 65.6413 49.1581C65.2461 49.1015 64.8457 49.0913 64.4481 49.1275C64.6243 49.1758 64.8033 49.2125 64.9841 49.2374C65.1832 49.2535 65.3448 49.3168 65.2727 49.5337C65.2407 49.5933 65.1948 49.6441 65.1388 49.6816C65.0828 49.719 65.0185 49.742 64.9517 49.7484C64.0398 49.7135 63.1288 49.6516 62.2177 49.5985C62.1643 49.5985 62.1109 49.5985 62.0092 49.5985L63.185 50.2135L63.1634 50.3751C62.6101 50.2055 62.0734 50.1393 61.5922 50.5847C61.9637 50.7238 62.3324 50.8701 62.7075 50.9996C63.1951 51.1685 63.6921 51.3126 64.1762 51.4917C64.3125 51.5419 64.4178 51.6787 64.5989 51.8265C63.9807 52.0885 63.5522 51.638 63.0357 51.7129C63.1558 51.7854 63.2801 51.8505 63.4079 51.908C63.8682 52.0812 64.3385 52.2297 64.7908 52.4175C64.9026 52.4648 64.9632 52.6359 65.0469 52.7487C64.9192 52.7771 64.7807 52.8528 64.666 52.8259C64.3645 52.7531 64.0737 52.6359 63.7773 52.542C63.6359 52.4943 63.4883 52.4683 63.3394 52.4648C64.0233 53.0406 65.0866 52.9314 65.655 53.6971L65.5706 53.8856L63.4454 53.0588L63.4144 53.1316L64.4813 53.6862L64.4575 53.8376L63.8948 53.9475C64.1423 54.1302 64.4972 54.2539 64.3601 54.7569L61.0418 53.3157L60.9372 53.4453L61.8577 54.2423L61.8029 54.3347C61.5775 54.2039 61.3457 54.0849 61.1082 53.9781C60.9827 53.9271 60.8269 53.9511 60.6847 53.941C60.7569 54.0654 60.798 54.2205 60.9012 54.3049C61.3657 54.7074 61.8462 55.0925 62.3208 55.4833C62.367 55.5212 62.4319 55.5503 62.4572 55.5998C62.5293 55.7366 62.5805 55.8829 62.6404 56.0249C62.4961 56.0023 62.3518 55.9834 62.2119 55.9521C62.1369 55.924 62.0645 55.8894 61.9955 55.8487C62.1729 56.0845 62.3273 56.2469 62.4283 56.4383C62.481 56.5409 62.437 56.6938 62.437 56.8241C62.3114 56.7818 62.1556 56.7724 62.0669 56.6901C61.8822 56.5033 61.7083 56.306 61.5461 56.0991L61.4299 56.209L62.8655 57.7841L62.7594 57.9392C62.6151 57.8846 62.4333 57.8664 62.3266 57.7696C61.9572 57.442 61.6139 57.0846 61.2582 56.7411C61.1508 56.6363 61.0361 56.5395 60.8817 56.4004C60.9365 56.72 61.3866 56.8867 61.0368 57.2637L60.1892 56.5533C60.4489 57.1152 61.0808 57.3314 61.0548 58.0702C60.8752 57.953 60.728 57.8955 60.6342 57.7899C60.0658 57.148 59.5055 56.4992 58.9535 55.8436C58.8532 55.7242 58.7962 55.5678 58.7147 55.4207C58.473 55.6886 58.473 55.6886 58.7976 56.4812L58.2061 56.0198L57.8454 56.2083L57.8801 56.276L58.0885 56.1595L57.8959 56.3699L58.82 57.0191L58.8243 57.049C58.7387 57.0161 58.656 56.9762 58.5769 56.9296C58.3049 56.7389 58.0416 56.5366 57.7682 56.3473C57.7088 56.3185 57.6408 56.3133 57.5778 56.3327C57.541 56.4368 57.484 56.5693 57.5194 56.6581C57.6543 56.9937 57.8195 57.3176 57.9782 57.6436C58.1946 58.0935 58.4204 58.5411 58.6418 58.9902L58.5358 59.1016L57.8678 58.6816C57.994 58.9727 58.103 59.2239 58.2076 59.4742C58.2726 59.6038 58.3225 59.7406 58.3562 59.8819C58.3778 60.018 58.3453 60.1635 58.3367 60.3048C58.2249 60.2123 58.0755 60.1424 58.0077 60.0245C57.7697 59.6111 57.5598 59.1816 57.2691 58.7908C57.5735 59.5368 57.8779 60.2829 58.1975 61.0647C57.8231 61.1484 57.6391 61.069 57.5554 60.7786C57.4775 60.5071 57.3881 60.2392 57.3044 59.9692L57.2149 59.9947C57.2691 60.3055 57.3232 60.617 57.3787 60.9336C57.1262 61.0647 56.9928 60.9722 56.9134 60.756C56.78 60.3921 56.6501 60.0282 56.5195 59.6686L56.407 59.697L56.7446 60.8616C56.438 60.9642 56.2519 60.8572 56.1524 60.5515C55.8744 59.7013 55.594 58.8522 55.3113 58.0039C55.2492 57.8198 55.167 57.6436 55.084 57.4471C54.6296 57.7834 55.1194 58.0549 54.9967 58.389C54.8097 58.1619 54.6223 57.935 54.4348 57.7084L54.3295 57.7776L54.7623 58.8978L54.706 58.9495C54.5141 58.6583 54.3194 58.3737 54.1289 58.0826C54.0525 57.9654 53.989 57.8387 53.9197 57.7186L53.756 57.7667C53.756 57.9508 53.7466 58.1364 53.756 58.3198C53.7956 58.9495 53.8534 59.5776 53.8764 60.2072C53.8815 60.347 53.7956 60.5952 53.7134 60.6134C53.471 60.6658 53.4472 60.4481 53.4306 60.2574C53.4196 60.1676 53.3743 60.0856 53.3044 60.0289C53.3164 60.2785 53.3133 60.5286 53.295 60.7779C53.2806 60.8958 53.1702 61.0013 53.1031 61.112C53.031 61.0035 52.9033 60.9009 52.8867 60.7837C52.8492 60.4969 52.8644 60.2014 52.8535 59.9102C52.8492 59.785 52.8348 59.6606 52.8247 59.5354L52.7057 59.531V60.0988C52.7057 60.4139 52.7179 60.7298 52.7057 61.045C52.7006 61.1484 52.6393 61.3223 52.5801 61.3361C52.4429 61.3499 52.3046 61.3226 52.1827 61.2575C52.1538 61.2437 52.2166 61.0661 52.2101 60.9664C52.1949 60.732 52.1632 60.4984 52.1379 60.2654L52.0182 60.2691C52.0182 60.3957 52.0182 60.5217 52.0182 60.6483C52.0124 60.8048 52.0903 61.0312 51.8184 61.0173C51.602 61.0064 51.4678 60.8914 51.4938 60.6352C51.5353 60.2933 51.5305 59.9473 51.4793 59.6067C51.4014 59.9949 51.3238 60.3831 51.2463 60.7713C50.9275 60.8143 50.8856 60.6257 50.8936 60.3965C50.9231 59.6941 50.9571 58.9917 50.9874 58.29C50.9976 58.1957 50.9749 58.1007 50.9231 58.0214C50.8813 58.1743 50.8395 58.3271 50.7854 58.5309C50.491 58.2521 50.5408 57.6757 49.9551 57.6742C50.0856 58.1189 50.5055 58.4996 50.2357 59.0441L49.6709 57.6007C49.5936 57.7283 49.5261 57.8616 49.4689 57.9996C49.2597 58.6314 49.0627 59.2668 48.8586 59.9001C48.8326 59.9794 48.8088 60.0777 48.7504 60.125C48.6782 60.1839 48.5693 60.1978 48.4763 60.2349C48.4575 60.1504 48.4106 60.0616 48.4243 59.983C48.4575 59.7872 48.5188 59.5958 48.4871 59.376C48.3428 59.6992 48.205 60.0238 48.0543 60.3441C48.0218 60.4331 47.9647 60.5109 47.8898 60.5682C47.8485 60.5893 47.8032 60.601 47.757 60.6026C47.7108 60.6043 47.6648 60.5958 47.6222 60.5777C47.5818 60.5551 47.5782 60.4052 47.6041 60.3288C47.7484 59.9175 47.9035 59.5121 48.0506 59.103C48.0634 59.0641 48.0653 59.0223 48.0563 58.9823C48.0473 58.9423 48.0276 58.9055 47.9994 58.8759C47.8227 59.2639 47.6387 59.6489 47.4699 60.0405C47.3163 60.3943 47.1915 60.7611 47.0198 61.1054C46.9614 61.2226 46.8034 61.2881 46.6865 61.3769C46.6541 61.2386 46.5581 61.077 46.5985 60.9657C46.7969 60.4096 47.0314 59.8666 47.2528 59.3178C47.304 59.1897 47.3451 59.0579 47.3913 58.9276L47.3084 58.8941C47.1872 59.1802 47.0559 59.4619 46.9477 59.753C46.8755 59.943 46.7717 60.0704 46.587 59.9503C46.5149 59.9059 46.4975 59.7159 46.5213 59.6074C46.5754 59.3556 46.6707 59.1125 46.75 58.8657L46.6526 58.8272L46.3143 59.5783C45.9536 59.4837 46.0041 59.2093 46.1022 58.9815C46.3121 58.4938 46.5632 58.0243 46.7962 57.5461C46.9145 57.3037 47.0292 57.0584 47.1453 56.8146L47.0732 56.7505L46.1491 57.3146C46.2602 56.835 46.8755 56.6909 46.8445 56.1158L46.178 56.7411L46.0647 56.6348L46.6151 55.9928C46.6072 55.9652 46.5985 55.9375 46.5906 55.9091C46.4752 55.9564 46.323 55.971 46.2501 56.0547C45.8065 56.5642 45.3888 57.097 44.9459 57.6073C44.8059 57.7688 44.6169 57.8875 44.4503 58.0258L44.3204 57.9319C44.4099 57.7043 44.4998 57.476 44.5902 57.247L44.5578 57.2055C44.376 57.3882 44.1935 57.5694 44.0131 57.7543C43.9713 57.7972 43.946 57.8671 43.8963 57.8904C43.7354 57.9676 43.5666 58.0294 43.4007 58.0971C43.4555 57.9333 43.4873 57.7557 43.5709 57.6094C43.669 57.4391 43.8126 57.2957 43.9121 57.1189C43.4029 57.3219 43.2629 58.028 42.5985 58.0251C42.8799 57.359 43.4505 56.9245 43.959 56.3473C43.5796 56.3932 43.413 56.8947 42.9491 56.5824L43.6084 55.7767L43.5854 55.7352C43.3689 55.9135 43.146 56.0896 42.9296 56.2701C42.8373 56.3429 42.7644 56.4601 42.6606 56.506C42.574 56.5438 42.455 56.506 42.3497 56.506C42.3655 56.4034 42.3446 56.2607 42.403 56.2061C42.7579 55.88 43.1239 55.5661 43.501 55.2642C43.8667 54.9731 44.2505 54.6979 44.6234 54.4126C44.6762 54.3646 44.7245 54.3117 44.7677 54.2547C44.5866 54.0625 44.4236 53.8696 44.236 53.7037C44.174 53.6484 44.0492 53.644 43.9561 53.6534C43.923 53.6571 43.8609 53.7896 43.884 53.826C43.9303 53.9125 44.0008 53.9833 44.0867 54.0298C44.2057 54.0762 44.3289 54.1108 44.4546 54.1331L44.2483 54.4243C44.1649 54.3713 44.0851 54.3127 44.0095 54.2488C43.8653 54.1106 43.7607 54.0356 43.6164 54.2663C43.5551 54.3646 43.3863 54.3951 43.2312 54.4745C43.2456 54.1186 44.0369 54.2467 43.5493 53.7561C43.7267 53.4868 44.1913 53.5486 44.2029 53.0362L43.5233 53.3827C42.8279 53.7393 42.1368 54.1033 41.435 54.4461C41.2856 54.5189 41.0988 54.5189 40.93 54.548L40.8579 54.3704L42.113 53.5974L42.0936 53.5297C41.9075 53.6025 41.7206 53.6629 41.5374 53.7379C41.326 53.8245 41.1233 53.9344 40.9084 54.0079C40.7128 54.0745 40.5064 54.1029 40.3002 54.0916C40.534 53.5821 41.0548 53.505 41.4212 53.176C41.2835 53.2066 41.1476 53.2455 41.0144 53.2924C40.5816 53.4707 40.1588 53.6731 39.721 53.8361C39.6005 53.8813 39.4418 53.8223 39.3011 53.8114C39.3891 53.6935 39.4519 53.5304 39.5688 53.4664C39.9576 53.2531 40.3666 53.077 40.7655 52.8841C40.8809 52.828 40.9899 52.7596 41.1017 52.6978C41.0887 52.6665 41.0764 52.6352 41.0642 52.6046L39.998 53.0151C39.9085 52.713 39.998 52.5522 40.2548 52.4466C40.5809 52.312 40.8968 52.1518 41.2171 52.0034L41.1854 51.8985C40.912 51.9713 40.6414 52.0499 40.3652 52.1031C40.2555 52.1235 40.1343 52.0805 40.0189 52.066C40.091 51.9706 40.1524 51.825 40.2497 51.7872C41.0346 51.4873 41.8243 51.1998 42.6187 50.9247C43.0566 50.774 43.0725 50.7725 42.9599 50.3191C42.8979 50.0687 42.8979 50.0687 42.6533 50.2077L42.9304 50.6393C42.5863 50.7427 42.5581 50.7252 42.4304 50.3482L41.7091 50.6015L41.6478 50.4908L42.9462 49.7346L42.8972 49.6618C42.3778 49.6618 41.8584 49.6618 41.339 49.6618C41.2561 49.6618 41.1637 49.7076 41.0901 49.6836C40.9527 49.6303 40.8192 49.5673 40.6905 49.4951C40.8059 49.3954 40.9156 49.2891 41.0389 49.1996C41.088 49.1639 41.1644 49.1668 41.2207 49.0809C40.9495 49.094 40.6775 49.1086 40.4056 49.1195C40.2375 49.1261 40.0694 49.1312 39.9006 49.129C39.7318 49.1268 39.5147 49.1843 39.5017 48.899C39.4887 48.6137 39.7102 48.653 39.879 48.6268C40.0066 48.6064 40.1372 48.6005 40.2642 48.5168H38.2249L39.5724 50.9188C38.315 49.8605 37.2806 48.6282 36.4063 47.2496C35.532 45.871 34.908 44.3934 34.4333 42.7244C34.3656 42.8301 34.3032 42.9392 34.2465 43.0512C33.7415 44.2886 33.5597 45.5988 33.4927 46.9199C33.3643 49.4747 33.5251 52.0085 34.1022 54.5065C34.165 54.7736 34.2422 55.0371 34.2465 55.3261C33.968 54.6608 33.6744 54.0014 33.4147 53.3281C32.5166 50.9945 31.9258 48.5816 31.9525 46.0719C32.0138 40.5823 34.4939 36.4982 39.1857 33.7614C41.9673 32.139 45.0029 31.315 48.1646 30.9227C49.1659 30.7975 50.1751 30.7407 51.1814 30.6701C51.2651 30.6643 51.4346 30.7859 51.4353 30.8506C51.4519 31.7969 51.4469 32.7387 51.4469 33.7148C50.6281 33.7519 49.8598 33.7876 49.0981 33.8218C45.9479 33.9514 42.8149 34.2382 39.7419 34.9901C38.9484 35.1837 38.1794 35.4581 37.4068 35.7179C37.2548 35.7736 37.1303 35.8869 37.0598 36.0338C36.438 37.6715 36.1365 39.3682 36.2274 41.1238C36.3414 43.3286 36.9278 45.4183 37.7588 47.4491C37.8548 47.6834 37.9565 47.9156 38.0286 48.0852L40.2894 47.9629L40.2988 47.9032C40.1949 47.888 40.0918 47.8661 39.9872 47.8596C39.8681 47.8523 39.739 47.888 39.6308 47.8523C39.5031 47.8108 39.3942 47.7133 39.2766 47.6398C39.4021 47.5611 39.5212 47.4316 39.6546 47.4141C39.9287 47.3785 40.2108 47.4032 40.4943 47.3166C40.4005 47.3078 40.2952 47.3224 40.2151 47.2846C40.1173 47.2249 40.0267 47.1538 39.9453 47.0727C40.0232 46.9847 40.0896 46.8544 40.1841 46.8194C40.2988 46.778 40.4423 46.8194 40.5736 46.8194C41.3368 46.8194 42.1008 46.8194 42.8322 46.8194L41.1579 46.0013L41.2221 45.8514L42.5516 46.3609C42.506 46.2908 42.4648 46.2179 42.4283 46.1425C42.3983 46.0579 42.3742 45.9714 42.3561 45.8834C42.4418 45.8557 42.53 45.8367 42.6194 45.8266C42.7255 45.8266 42.8359 45.871 42.9383 45.8521C43.0407 45.8332 43.1439 45.7618 43.2463 45.7131C43.1872 45.6221 43.1489 45.4867 43.066 45.4474C42.737 45.296 42.398 45.1686 42.0633 45.0383C41.7286 44.9081 41.3837 44.7974 41.0533 44.6584C40.9264 44.6053 40.8218 44.4968 40.7071 44.4138L40.7388 44.3068L41.3044 44.1816C41.0432 44.0863 40.8377 44.0361 40.6552 43.9363C40.5296 43.8708 40.4387 43.7449 40.3284 43.6452L40.7071 43.4217C40.5859 43.3489 40.4517 43.2572 40.3096 43.1808C40.0456 43.0352 39.77 42.918 39.5161 42.7608C39.4497 42.7201 39.444 42.5781 39.4137 42.482C39.4995 42.4704 39.5962 42.426 39.6683 42.4515C39.9222 42.5417 40.1668 42.6553 40.4322 42.7674L40.2808 42.2964L40.3601 42.2193L40.9964 42.4573C40.9401 42.2389 40.8867 42.0359 40.8341 41.8313L40.9249 41.7513C41.1377 41.8444 41.3542 41.9281 41.5612 42.0322C42.3667 42.4403 43.1699 42.8508 43.9706 43.2638C44.1148 43.3366 44.2591 43.4254 44.3111 43.1713C43.8277 43.0258 43.5565 42.6618 43.5846 42.1771L44.2736 42.822C44.2368 42.5927 44.2158 42.458 44.1942 42.3226L44.2736 42.255L44.7295 42.573L44.9552 42.3103C44.2736 41.6938 43.6056 41.1042 42.9556 40.4928C42.802 40.3472 42.706 40.1405 42.5841 39.9622L43.1749 40.0895C43.2087 40.0867 43.2422 40.0813 43.2752 40.0735L42.3547 39.0661C42.6937 38.7088 42.8597 39.1229 43.2131 39.1506C43.0429 38.9395 42.9405 38.8048 42.8301 38.6767C42.7197 38.5486 42.5682 38.4227 42.4694 38.2735C42.4153 38.1912 42.4319 38.0609 42.4167 37.9525C42.5394 37.9612 42.7053 37.9227 42.7774 37.9874C42.9938 38.1767 43.1699 38.4096 43.3675 38.62C43.4858 38.7466 43.6149 38.8623 43.7397 38.9839L43.8234 38.9155C43.6243 38.62 43.4202 38.3237 43.2139 38.0195C43.4303 37.8237 43.6056 37.8928 43.7455 38.0391C44.0189 38.3252 44.2735 38.6294 44.5347 38.9257C44.593 39.0022 44.6455 39.0829 44.6919 39.1673L44.8081 39.0785C44.7259 38.9329 44.614 38.7939 44.57 38.636C44.534 38.5057 44.578 38.3521 44.5866 38.2087C44.7114 38.2517 44.8752 38.2567 44.9545 38.3419C45.5475 38.9761 46.1296 39.6205 46.701 40.2751C46.8611 40.4593 46.9635 40.5073 47.0948 40.2751L46.5249 39.8479C46.7601 39.6601 46.9578 39.4767 47.1843 39.3384C47.2449 39.302 47.4086 39.39 47.4938 39.4592C47.6258 39.5655 47.7318 39.7052 47.9143 39.9017C47.3596 38.8099 46.851 37.8069 46.3396 36.8003C46.8979 36.4414 46.8885 37.0696 47.2377 37.2647C47.1561 37.0339 47.11 36.8964 47.058 36.761C47.0148 36.6489 46.9534 36.5426 46.9188 36.4283C46.8568 36.2245 46.644 35.9567 46.9397 35.8315C47.2218 35.7128 47.1929 36.0695 47.3004 36.2172C47.3552 36.29 47.4029 36.373 47.493 36.5128C47.5313 35.9945 47.0227 35.6226 47.3069 35.092C47.858 35.4559 47.7744 36.1328 48.1899 36.6365C48.1026 36.3097 48.0247 36.0833 47.9872 35.8497C47.972 35.7587 48.0463 35.6531 48.0795 35.5542C48.1834 35.6138 48.332 35.648 48.3825 35.7383C48.5058 35.9567 48.5837 36.2012 48.7179 36.424C48.7057 36.3643 48.6703 36.298 48.6847 36.2449C48.7221 36.1282 48.7667 36.0139 48.8182 35.9028C48.9192 35.9851 49.075 36.0484 49.1132 36.1532C49.3556 36.8083 49.5554 37.4859 49.8036 38.1417C49.8981 38.3914 50.0828 38.6061 50.227 38.8369L50.2277 38.8354ZM50.9159 45.3069C50.9729 45.181 51.0097 45.1388 51.0076 45.0988C50.9621 44.2464 50.8856 43.4166 50.2472 42.7441C49.7841 42.2525 49.3582 41.7265 48.9733 41.1704C48.7973 40.9178 48.7446 40.5714 48.6696 40.2591C48.6487 40.174 48.7475 40.0597 48.7922 39.9585C48.8694 40.0218 48.9848 40.0699 49.0166 40.1514C49.1435 40.4782 49.4011 40.6311 49.7019 40.7453C49.9378 40.8341 50.1708 40.9317 50.4045 41.0256C51.8126 41.5889 52.3399 42.3467 52.3745 43.8643C52.3818 44.1736 52.3745 44.4837 52.3745 44.8724C52.4517 44.7698 52.5419 44.7042 52.5571 44.6242C52.7533 43.5884 52.7215 42.5949 52.1574 41.645C51.6315 40.7599 51.5709 39.8464 52.3168 38.9934C49.458 38.8158 45.3556 40.698 43.6965 44.868C42.9533 46.7386 42.8272 48.801 43.3368 50.7496C43.8464 52.6982 44.9646 54.4293 46.5257 55.6864C50.02 58.5178 54.8597 58.4763 58.3756 55.5547C61.6095 52.8681 62.5336 48.1944 60.8651 44.4786C59.0855 40.5001 55.0292 38.775 52.446 39.0065C52.4331 39.0896 52.4141 39.1716 52.389 39.2517C52.2397 39.6368 52.3507 39.9265 52.6321 40.2256C53.0353 40.6551 53.3845 41.1369 53.7553 41.5977C54.5625 42.5978 54.5488 43.6787 54.0669 44.8069C54.0128 44.9328 53.9666 45.0616 53.9161 45.189L54.0315 45.2487C54.1657 45.0158 54.3735 44.7967 54.4182 44.5478C54.5365 43.8854 54.5978 43.2114 54.6555 42.5403C54.6988 42.0308 54.6627 41.5213 54.7313 41.0176C54.807 40.4702 55.1324 40.0502 55.5803 39.7249C55.5875 39.8668 55.5803 40.0124 55.5082 40.1034C55.2456 40.4309 55.3069 40.7439 55.4873 41.0794C55.739 41.5475 55.9973 42.014 56.2086 42.501C56.7078 43.643 56.5224 44.6162 55.6654 45.4554C55.4887 45.6286 55.2817 45.7706 55.0883 45.9263C55.6654 45.7611 56.148 45.4423 56.4359 44.9335C56.7064 44.456 56.8831 43.9225 57.0851 43.405C57.3369 42.771 57.6622 42.2011 58.3114 41.9056C58.4304 41.8654 58.5532 41.8383 58.6779 41.8248C58.6743 41.9565 58.6526 42.022 58.6094 42.0431C58.1246 42.2921 58.0063 42.7361 57.9883 43.2288C57.9738 43.6044 57.9832 43.9807 57.9681 44.3563C57.914 45.7495 57.1746 46.5472 55.8039 46.7074C55.682 46.7219 55.5623 46.7496 55.4433 46.7707C55.4433 46.8027 55.4433 46.8347 55.4382 46.866C55.558 46.8951 55.682 46.9607 55.7989 46.9461C56.085 46.9153 56.3681 46.8602 56.6451 46.7816C57.4487 46.5348 58.0113 45.9547 58.5589 45.3499C59.0588 44.7967 59.6575 44.44 60.4344 44.5558C60.5787 44.5776 60.7136 44.6846 60.8521 44.7523L60.8132 44.852C60.7468 44.872 60.6782 44.8837 60.609 44.8869C60.1834 44.8564 59.8876 45.0689 59.7015 45.4219C59.5205 45.7611 59.3776 46.1214 59.2218 46.4737C58.7125 47.6281 57.9233 48.1777 56.8319 48.075C56.1069 48.0081 55.5197 47.8079 55.1006 47.0371C53.9544 44.9168 51.5053 44.5922 49.9385 46.3616C49.6947 46.636 49.5057 46.9599 49.2892 47.2664C49.2479 47.238 49.2082 47.2074 49.1702 47.1746C49.1089 47.1164 49.0505 47.0553 48.9942 46.9934C48.1733 46.0894 47.1836 45.5777 45.9406 45.6294C45.3354 45.6546 44.738 45.4843 44.2353 45.1432C44.1141 45.0631 44.0276 44.9299 43.9251 44.8214C43.9453 44.7887 43.9648 44.7552 43.9843 44.7224C44.6804 45.0049 45.3549 44.9066 46.0265 44.6664C46.4424 44.509 46.8698 44.3841 47.3048 44.293C47.56 44.2468 47.823 44.272 48.0651 44.3658C48.7302 44.6358 49.062 45.2458 49.4054 45.8324C49.4919 45.978 49.5836 46.1236 49.673 46.2692C49.7278 45.6978 49.4645 45.2552 49.2041 44.8134C48.8276 44.1787 48.1769 43.94 47.5515 43.6532C47.0634 43.4286 46.5991 43.1548 46.1657 42.8358C46.0181 42.7281 45.9047 42.5793 45.8395 42.4076C45.7743 42.236 45.7601 42.0489 45.7985 41.8692C46.4377 42.3125 46.4377 42.3015 47.2867 42.2841C47.7184 42.2682 48.1506 42.2867 48.5794 42.3394C49.4905 42.466 50.2328 42.8678 50.5495 43.8068C50.6606 44.1365 50.6938 44.491 50.7724 44.8331C50.8056 44.9685 50.8532 45.098 50.9159 45.3069ZM47.4476 39.984C47.2074 39.5524 47.102 39.5538 46.8748 39.9367L47.4476 39.984Z" fill="#D9D9D6"/>
<path d="M35.9969 65.7594C36.5574 65.7594 37.084 65.7448 37.6084 65.7739C37.6928 65.7783 37.8176 65.9661 37.8378 66.0847C38.1596 67.9495 38.6739 69.7459 39.7285 71.3363C41.1446 73.4726 43.0865 74.972 45.4642 75.8346C49.6697 77.3631 53.9525 77.5589 58.2324 76.1825C61.3343 75.1838 63.6175 73.1524 65.1157 70.2052C65.7801 68.895 66.0946 67.5084 66.3421 66.0898C66.3839 65.854 66.4423 65.7477 66.6891 65.7521C67.3116 65.763 67.9334 65.7557 68.5826 65.7557C68.4434 67.0375 68.2833 68.2982 67.8764 69.5079C67.3585 71.0459 66.7641 72.5526 65.9107 73.9406C64.1354 76.8267 61.6351 78.8174 58.5123 80.0388C56.5678 80.7937 54.5143 81.2239 52.4326 81.3125C50.9127 81.3853 49.4202 81.0687 47.9471 80.6975C45.1266 79.9871 42.6306 78.6805 40.566 76.5865C38.6638 74.6591 37.4591 72.3175 36.724 69.735C36.3843 68.5427 36.2321 67.2959 36.0027 66.0731C35.9924 65.9688 35.9904 65.8639 35.9969 65.7594Z" fill="#D9D9D6"/>
<path d="M64.3337 65.7793H66.0238C65.9315 66.3201 65.8579 66.8405 65.7497 67.3537C65.6669 67.7574 65.5587 68.1554 65.4258 68.5452C64.7986 70.3929 63.732 72.0574 62.3196 73.3929C60.6107 75.0066 58.5598 75.9237 56.2846 76.348C53.19 76.9354 50.0037 76.806 46.9659 75.9695C43.9405 75.1419 41.4835 73.4766 39.8099 70.7645C38.9443 69.3641 38.4725 67.7984 38.2308 66.1665C38.2219 66.031 38.2219 65.8951 38.2308 65.7596C38.7235 65.7596 39.2003 65.7516 39.6736 65.7691C39.7407 65.7691 39.8517 65.8972 39.8604 65.9751C40.1273 68.3589 41.6112 69.7637 43.6216 70.7412C45.2087 71.5128 46.9104 71.8592 48.6438 72.0849C51.89 72.5078 55.1116 72.4903 58.3001 71.6576C59.816 71.2564 61.2299 70.5344 62.448 69.5395C63.4824 68.7054 64.0184 67.5444 64.2586 66.2415C64.2846 66.0974 64.3055 65.954 64.3337 65.7793Z" fill="#D9D9D6"/>
<path d="M45.4559 71.0774C44.1617 70.6559 42.8827 70.1246 41.8447 69.1325C41.1716 68.4898 40.6292 67.759 40.3969 66.8368C40.3125 66.5012 40.275 66.154 40.2007 65.7202C40.8499 65.7202 41.4342 65.71 42.0171 65.7312C42.1008 65.7348 42.2285 65.8767 42.2523 65.975C42.5156 67.061 43.0133 67.5173 44.1134 67.6083C44.6631 67.6535 45.2171 67.668 45.7726 67.668C50.1354 67.6709 54.4983 67.669 58.8611 67.6622C59.2935 67.6605 59.7254 67.6362 60.1553 67.5894C61.0642 67.4919 61.7625 66.8557 61.8202 65.9677C61.8345 65.9179 61.8613 65.8725 61.8979 65.8361C61.9345 65.7997 61.9798 65.7733 62.0294 65.7595C62.6635 65.7421 63.2983 65.7493 63.9468 65.7493C63.7715 67.3805 63.1165 68.6965 61.8094 69.6238C60.2411 70.7367 58.4838 71.3882 56.5931 71.6764C55.9785 71.7696 55.361 71.8453 54.7832 71.9239C54.6195 71.7477 54.9433 71.3823 54.4716 71.4245C54.5055 71.5759 54.5358 71.7099 54.574 71.8787C54.4715 71.9148 54.3652 71.9392 54.2573 71.9515C52.9495 71.9355 51.6359 71.9814 50.3345 71.8744C48.9892 71.763 47.6546 71.5104 46.3172 71.3023C46.0741 71.2651 45.7444 71.2768 45.8382 70.8488C45.8447 70.8197 45.7661 70.7709 45.7271 70.7316C45.6506 70.8277 45.5778 70.9209 45.4559 71.0774Z" fill="#D9D9D6"/>
<path d="M72.7149 63.7921C72.4069 63.7921 72.1335 63.7717 71.863 63.7957C71.089 63.8641 70.3092 63.9093 69.5452 64.0432C69.01 64.1371 68.6998 64.5367 68.6796 65.103C68.6709 65.3213 68.5685 65.3781 68.391 65.3825C68.091 65.3905 67.7909 65.397 67.4901 65.397C65.3635 65.397 63.2364 65.3951 61.1088 65.3912C60.9119 65.3912 60.7481 65.3912 60.7481 65.1241C60.7481 63.9842 60.7402 62.8444 60.7373 61.7031C60.7373 61.6827 60.7589 61.6623 60.7878 61.6121H62.1324C65.5339 61.6043 68.9354 61.5937 72.3369 61.5801C72.6378 61.5801 72.7366 61.6587 72.725 61.9659C72.6991 62.5591 72.7149 63.1516 72.7149 63.7921ZM72.0527 62.2213H69.6852C67.007 62.2213 64.3283 62.2172 61.6491 62.209C61.3923 62.209 61.2791 62.2672 61.2942 62.5518C61.3173 62.9747 61.2993 63.3998 61.3036 63.8241C61.3122 64.7704 61.3137 64.7704 62.2363 64.7704L67.7851 64.7623C67.9669 64.7623 68.1458 64.7813 68.2179 64.544C68.2991 64.268 68.4541 64.0201 68.6661 63.8274C68.878 63.6348 69.1386 63.5049 69.419 63.4522C70.0412 63.3297 70.6719 63.256 71.3054 63.2316C72.1617 63.1821 72.1631 63.2047 72.0989 62.3254C72.0863 62.2895 72.0709 62.2547 72.0527 62.2213Z" fill="#D9D9D6"/>
<path d="M37.7331 61.5898C39.4997 61.5898 41.2678 61.5898 43.0323 61.5898C43.23 61.5898 43.3115 61.6452 43.31 61.8592C43.3014 62.8898 43.292 63.9212 43.3151 64.9512C43.323 65.31 43.204 65.3981 42.8642 65.3959C40.4116 65.377 37.9589 65.3692 35.5062 65.3726C34.5208 65.3726 33.535 65.3828 32.5486 65.4032C32.2478 65.4097 32.1223 65.3304 32.1237 64.9999C32.1309 63.9693 32.1151 62.9386 32.0949 61.9079C32.0898 61.6466 32.2161 61.6168 32.4281 61.6168C34.1955 61.6226 35.9629 61.6168 37.7295 61.6168L37.7331 61.5898ZM42.6868 62.2064H42.2814L34.14 62.2122C33.7562 62.2122 33.3717 62.1969 32.9858 62.2122C32.897 62.2122 32.7376 62.3148 32.7362 62.373C32.7196 63.157 32.7254 63.9401 32.7254 64.7393H42.6868V62.2064Z" fill="#D9D9D6"/>
<path d="M51.6417 16.7681L52.7656 16.6953C52.7425 18.0521 53.0801 20.6717 53.5281 22.6493C53.2092 22.6835 52.8933 22.741 52.5766 22.7388C52.4604 22.7388 52.3284 22.6129 52.2325 22.5161C51.2 21.468 50.1708 20.4172 49.145 19.3637C49.1306 19.3491 49.101 19.3499 49.0484 19.3339C49.1292 19.9744 49.1876 20.6054 49.2936 21.2263C49.3997 21.8472 49.5512 22.4499 49.6961 23.1188L48.4821 23.2804C48.4518 22.7367 48.4431 22.2315 48.3919 21.7315C48.2779 20.6229 48.1531 19.5158 48.0038 18.4116C47.98 18.2319 47.8314 18.0477 47.6943 17.9116C47.5025 17.7216 47.268 17.5768 46.978 17.3562C47.5292 17.306 47.9879 17.2601 48.4518 17.2281C48.5216 17.2363 48.5858 17.2709 48.6314 17.3249C49.2958 18.0208 49.9638 18.7144 50.6173 19.4212C51.0992 19.9424 51.5623 20.4817 52.0341 21.0123L52.2217 20.8813C52.0298 19.5216 51.8379 18.1612 51.6417 16.7681Z" fill="#D9D9D6"/>
<path d="M57.8167 17.2111C59.7183 17.2242 60.9323 18.4056 60.9489 20.1954C60.9626 21.7494 59.7565 23.3456 57.8333 23.2845C56.0256 23.227 54.725 21.9081 54.712 20.0819C54.7026 18.7702 55.9433 17.1267 57.8167 17.2111ZM59.8488 20.2871L59.939 20.2566C59.7868 19.8053 59.6974 19.3183 59.4708 18.91C58.7343 17.5838 56.9626 17.5765 56.1973 18.8772C56.0124 19.1835 55.8938 19.5257 55.849 19.8814C55.8043 20.2371 55.8344 20.5983 55.9376 20.9415C56.2586 22.0741 57.3998 22.7612 58.4386 22.4642C59.2782 22.2262 59.8503 21.3447 59.8488 20.2871Z" fill="#D9D9D6"/>
<path d="M65.9603 26.7466C65.6184 26.5829 65.2266 26.4053 64.8472 26.2044C64.7909 26.1738 64.757 26.0297 64.77 25.9474C64.8458 25.459 64.9569 24.9765 65.0117 24.4866C65.0254 24.365 64.9056 24.1714 64.7953 24.103C64.3949 23.8592 63.965 23.6663 63.5596 23.4312C63.3619 23.3162 63.1989 23.3162 63.0373 23.4661C62.6412 23.8301 62.2488 24.2013 61.8225 24.5994L60.6099 23.9385C62.4631 22.6225 64.3156 21.3087 66.2164 19.96C66.1312 22.2477 66.0447 24.4888 65.9603 26.7466ZM65.0694 23.3256C65.1206 22.8161 65.1653 22.3794 65.2194 21.8386L64.0292 22.6946L65.0694 23.3256Z" fill="#D9D9D6"/>
<path d="M43.0039 23.4482C43.216 23.7786 43.3891 24.0305 43.5392 24.2969C43.5695 24.35 43.5349 24.4665 43.4937 24.5305C42.7147 25.7592 41.4948 26.5685 39.9785 26.2978C38.2688 25.995 37.2041 23.9162 37.849 22.2035C38.2818 21.0629 39.1201 20.3518 40.2339 19.9376C40.4503 19.859 40.5996 19.9092 40.7165 20.1138C40.8333 20.3183 40.9834 20.5294 41.1284 20.7514C39.3293 21.183 38.5523 21.9291 38.6036 23.1403C38.6468 24.2241 39.4634 25.2082 40.4467 25.361C41.484 25.5226 42.5285 24.7816 43.0039 23.4482Z" fill="#D9D9D6"/>
<path d="M53.0139 64.6524C53.0139 65.4764 53.0075 66.3011 53.0176 67.1272C53.0176 67.3922 52.9779 67.5123 52.6612 67.5028C51.7133 67.473 51.7133 67.4904 51.714 66.5442C51.714 65.0775 51.722 63.6109 51.709 62.1442C51.709 61.8531 51.7862 61.7475 52.0783 61.7905C52.2683 61.8197 52.4613 61.8216 52.6518 61.7963C52.9404 61.7562 53.0341 61.848 53.0284 62.1457C53.0118 62.9813 53.0226 63.8198 53.0226 64.6546L53.0139 64.6524Z" fill="#D9D9D6"/>
<path d="M43.356 18.6599L44.5549 18.1846C45.0973 20.1338 45.7747 22.0059 46.7529 23.7892L45.5186 24.2863C44.9675 22.3502 44.3334 20.4519 43.356 18.6599Z" fill="#D9D9D6"/>
<path d="M71.633 32.0318C70.7796 32.0231 70.0186 31.2355 70.02 30.3642C70.02 29.5534 70.8078 28.867 71.6914 28.8546C72.6711 28.8408 73.3044 29.814 73.3116 30.4865C73.3203 31.2399 72.4301 32.0405 71.633 32.0318ZM71.2413 31.5085C71.8566 31.5085 72.6068 30.9866 72.8074 30.4487C72.8576 30.321 72.8744 30.1824 72.8561 30.0462C72.8378 29.91 72.7852 29.7809 72.7031 29.6713C72.6211 29.5616 72.5125 29.4751 72.3877 29.42C72.263 29.3649 72.1263 29.3432 71.9908 29.3569C71.3978 29.4049 70.9722 29.7448 70.6166 30.1903C70.5126 30.3096 70.448 30.4587 70.4317 30.6167C70.4154 30.7748 70.4482 30.9341 70.5257 31.0725C70.6822 31.3913 70.934 31.5405 71.2413 31.5085Z" fill="#D9D9D6"/>
<path d="M27.5423 54.7442C27.5538 55.6329 26.8563 56.3018 25.9106 56.3069C25.0081 56.3113 24.3163 55.5958 24.3091 54.6503C24.3033 53.8438 25.042 53.1152 25.8723 53.1087C26.0886 53.1048 26.3034 53.1441 26.5046 53.2243C26.7057 53.3045 26.8891 53.4241 27.0443 53.5761C27.1995 53.7281 27.3234 53.9095 27.4089 54.11C27.4943 54.3104 27.5397 54.526 27.5423 54.7442ZM25.8904 55.6511C26.096 55.6264 26.277 55.6162 26.4523 55.5783C26.8592 55.4953 27.2134 55.1198 27.2263 54.7733C27.2365 54.5651 27.1712 54.3603 27.0428 54.197C26.9143 54.0338 26.7313 53.9232 26.5281 53.886C26.1179 53.8193 25.7003 53.8144 25.2887 53.8715C24.8992 53.9224 24.5674 54.381 24.5796 54.7274C24.5919 55.0855 24.9064 55.475 25.2758 55.5608C25.485 55.6103 25.7014 55.6242 25.8904 55.6511Z" fill="#D9D9D6"/>
<path d="M65.0642 79.5283C65.0786 78.6629 65.875 77.8542 66.6952 77.8673C67.5154 77.8804 68.2231 78.6971 68.2101 79.5909C68.2 80.4149 67.3863 81.1602 66.5286 81.1733C65.7611 81.185 65.0491 80.3537 65.0642 79.5283ZM66.3555 78.299C66.2499 78.2989 66.1454 78.3202 66.0481 78.3614C65.9508 78.4026 65.8626 78.4631 65.7887 78.5391C65.7148 78.6152 65.6567 78.7053 65.6177 78.8043C65.5788 78.9033 65.5598 79.0092 65.562 79.1156C65.554 79.7205 66.1282 80.5255 66.6996 80.7126C66.8165 80.7539 66.9417 80.7657 67.0642 80.747C67.1866 80.7283 67.3027 80.6796 67.4023 80.6053C67.5019 80.5309 67.582 80.4331 67.6355 80.3204C67.689 80.2076 67.7144 80.0834 67.7095 79.9585C67.7025 79.8014 67.6766 79.6457 67.6323 79.4949C67.4621 78.898 66.8186 78.299 66.3555 78.299Z" fill="#D9D9D6"/>
<path d="M80.498 54.064C80.4692 55.0495 79.8423 55.6653 78.9031 55.6332C77.8859 55.5968 77.2764 54.9381 77.2995 53.8995C77.3182 53.0799 78.0208 52.4437 78.8865 52.4685C79.8069 52.4918 80.5233 53.2022 80.498 54.064ZM78.9997 55.04L79.0091 55.0044C79.105 54.9993 79.201 55 79.2977 54.9869C79.7745 54.9236 80.1691 54.5502 80.1965 54.1382C80.2239 53.7262 79.9447 53.3419 79.4607 53.2415C79.0776 53.1664 78.6855 53.1512 78.2978 53.1963C78.117 53.2189 77.9494 53.3036 77.8232 53.4361C77.697 53.5687 77.6198 53.741 77.6046 53.9242C77.582 54.1187 77.6262 54.3151 77.7298 54.4806C77.8334 54.6462 77.9901 54.7709 78.1738 54.834C78.4371 54.9294 78.7227 54.9723 78.9997 55.04Z" fill="#D9D9D6"/>
<path d="M36.0986 76.2376C36.9815 76.2558 37.7577 76.9844 37.744 77.7828C37.7303 78.6701 36.9541 79.446 36.1051 79.4227C35.2127 79.398 34.4704 78.6432 34.4791 77.769C34.487 76.9771 35.287 76.2208 36.0986 76.2376ZM35.8915 79.0079C36.4225 78.8987 36.8293 78.4751 37.1409 77.9364C37.3256 77.6191 37.3696 77.2995 37.1106 76.9953C36.8372 76.6736 36.5097 76.5899 36.1051 76.7398C35.5626 76.9414 35.2113 77.3556 34.9992 77.8687C34.7691 78.4248 35.194 79.0144 35.8915 79.0079Z" fill="#D9D9D6"/>
<path d="M30.5349 37.6283L27.873 36.3072C28.1226 35.6681 28.3506 35.0203 28.8895 34.5559C29.3086 34.1919 30.0249 34.2218 30.5486 34.6665C31.3241 35.3267 31.4575 35.8806 31.0391 36.6645C30.8754 36.9673 30.7181 37.276 30.5349 37.6283ZM29.4045 34.9111C28.9717 34.9038 28.4602 35.3354 28.4184 35.6855C28.4174 35.7298 28.4267 35.7737 28.4456 35.8137C28.4645 35.8537 28.4925 35.8886 28.5273 35.9156C29.1631 36.2528 29.8039 36.5796 30.4498 36.896C30.4905 36.9069 30.5332 36.9076 30.5742 36.898C30.6152 36.8883 30.6533 36.8687 30.685 36.8407C30.9735 36.4862 30.9901 35.9672 30.7102 35.6302C30.3864 35.2257 29.9169 34.9671 29.4045 34.9111Z" fill="#D9D9D6"/>
<path d="M77.7978 38.2656C77.9724 38.8348 78.165 39.3895 78.3078 39.9565C78.398 40.3124 78.2248 40.605 77.9716 40.8648C77.1197 41.7383 75.8588 41.5301 75.3783 40.4172C75.2189 40.0475 75.097 39.6602 74.9585 39.2817L77.7978 38.2656ZM76.4279 40.8132C76.7165 40.7316 77.0101 40.6792 77.2813 40.5642C77.9529 40.2796 78.0813 39.9412 77.8771 39.2344C77.805 38.9768 77.6752 38.9389 77.4588 39.0161C76.8506 39.2344 76.2382 39.4411 75.6366 39.6777C75.545 39.7134 75.431 39.8961 75.4497 39.9827C75.5601 40.5133 75.8891 40.7644 76.4279 40.8132Z" fill="#D9D9D6"/>
<path d="M74.6021 69.5733C74.4492 69.4801 74.2991 69.3833 74.1433 69.296C73.9875 69.2086 73.8057 69.1177 73.5907 69.0048C73.691 68.8192 73.7841 68.6467 73.8908 68.4502C74.7276 68.9 75.5334 69.3236 76.3247 69.7727C76.3969 69.8142 76.4466 70.0377 76.4041 70.125C76.2474 70.4251 76.0752 70.7166 75.8883 70.9985C75.7346 71.2459 75.5276 71.393 75.2239 71.2998C74.895 71.1979 74.6108 71.0087 74.5833 70.6447C74.5588 70.3274 74.4275 70.2684 74.1505 70.2808C73.722 70.3004 73.2921 70.2859 72.8521 70.2859C72.9826 69.7968 73.1262 69.6905 73.5734 69.7036C73.9024 69.7109 74.232 69.7036 74.5617 69.7036L74.6021 69.5733ZM74.9397 69.772C74.7875 70.3012 75.076 70.7641 75.5276 70.7444C75.6762 70.7386 75.8162 70.5443 75.9604 70.4358C75.8883 70.3419 75.8263 70.2175 75.7289 70.1592C75.4851 70.0173 75.2203 69.9074 74.9397 69.772Z" fill="#D9D9D6"/>
<path d="M52.9793 82.86C52.9793 83.3695 52.9858 83.815 52.9793 84.2583C52.9728 84.7016 52.9375 85.1317 52.9367 85.5626C52.9367 85.7876 52.8805 85.8946 52.633 85.8822C52.2623 85.8633 51.89 85.8887 51.5193 85.8698C50.8852 85.8371 50.4798 85.4607 50.3687 84.8297C50.2028 83.8834 50.7034 83.0056 51.4868 82.884C51.6654 82.8638 51.8452 82.8562 52.0249 82.8615C52.3423 82.8578 52.6619 82.86 52.9793 82.86ZM52.3344 84.3646H52.3798C52.3798 84.0385 52.3979 83.7095 52.3697 83.387C52.3604 83.2807 52.2457 83.1155 52.1533 83.0959C51.9161 83.044 51.6682 83.0863 51.4611 83.214C51.254 83.3416 51.1035 83.5449 51.041 83.7815C50.9673 84.049 50.9316 84.3257 50.9349 84.6033C50.9458 85.2802 51.3721 85.6609 52.0451 85.6514C52.2406 85.6514 52.3337 85.5787 52.3337 85.3792C52.3315 85.0422 52.3344 84.7037 52.3344 84.3646Z" fill="#D9D9D6"/>
<path d="M77.8072 44.579C77.4963 44.6387 77.1839 44.694 76.8737 44.7595C76.6833 44.7996 76.5455 44.7886 76.5195 44.5412C76.4986 44.3432 76.4878 44.1954 76.746 44.1459C77.5467 43.9916 78.3424 43.8082 79.1439 43.6597C79.2319 43.6437 79.4086 43.758 79.4382 43.8482C79.5286 44.1488 79.6009 44.4545 79.6546 44.7639C79.7267 45.1082 79.5731 45.3615 79.2874 45.5216C78.9902 45.6883 78.6541 45.6999 78.4218 45.4379C78.165 45.1468 78.0149 45.2356 77.7949 45.4641C77.5374 45.732 77.2409 45.962 76.9596 46.2095C76.6847 45.8135 76.7114 45.6097 77.0591 45.3236L77.8526 44.6685L77.8072 44.579ZM78.1238 44.5208C78.4124 45.1031 78.9116 45.2137 79.2283 44.8301C79.3063 44.7156 79.3362 44.5745 79.3112 44.4378C79.2997 44.3759 79.1114 44.2981 79.0162 44.3126C78.7262 44.357 78.4427 44.4429 78.1238 44.5208Z" fill="#D9D9D6"/>
<path d="M25.2295 44.0846C25.3954 43.5838 25.5115 43.0656 25.7388 42.5968C25.9372 42.1914 26.6614 42.3268 26.9081 42.7795C27.1548 43.2322 27.157 43.2359 27.6468 43.0707C27.9527 42.9673 28.2607 42.8698 28.5694 42.7693C28.682 43.2279 28.5507 43.455 28.1294 43.5518C27.7954 43.6289 27.4592 43.6974 27.1245 43.7701L27.1202 43.8902C27.4152 43.9594 27.7067 44.0569 28.0053 44.0911C28.3213 44.1275 28.2939 44.3029 28.252 44.5279C28.208 44.7819 28.0969 44.8234 27.8495 44.7557C27.0091 44.5206 26.1593 44.3182 25.2295 44.0846ZM26.8742 43.8153C26.854 43.2475 26.5633 42.9418 26.0858 43.0146C25.9509 43.0335 25.7835 43.1929 25.7294 43.3276C25.6537 43.519 25.8073 43.6268 25.9985 43.6595C26.2892 43.7054 26.5777 43.7614 26.8749 43.8153H26.8742Z" fill="#D9D9D6"/>
<path d="M35.3841 30.0569C35.0955 30.4062 34.895 30.6748 34.4463 30.498C34.1577 30.3844 33.8245 30.3742 33.5085 30.3182L33.4631 30.415C33.6362 30.546 33.8064 30.6806 33.9824 30.808C34.4759 31.1654 34.4795 31.1938 34.0365 31.6815C33.5778 31.3023 33.1197 30.9208 32.6595 30.5438C32.4257 30.3546 32.192 30.1631 31.9446 29.9935C31.783 29.8836 31.7238 29.7868 31.8638 29.6201C32.0953 29.3443 32.3074 29.0502 32.5527 28.7874C32.7475 28.5778 32.9978 28.5058 33.2741 28.6484C33.5503 28.7911 33.7523 29.0073 33.7653 29.3501C33.7848 29.8494 33.787 29.8421 34.276 29.8967C34.6237 29.936 34.9714 29.9964 35.3841 30.0569ZM32.6847 29.083C32.6335 29.1274 32.482 29.198 32.4452 29.3072C32.4301 29.3716 32.4298 29.4386 32.4442 29.5031C32.4585 29.5677 32.4873 29.6281 32.5282 29.6798C32.6724 29.8341 32.8701 29.9382 33.0432 30.0656C33.2885 30.2454 33.3736 30.0481 33.4227 29.8778C33.502 29.6034 33.0663 29.0859 32.6847 29.083Z" fill="#D9D9D6"/>
<path d="M71.291 72.4914C71.4591 72.436 71.6243 72.3516 71.796 72.3305C72.5895 72.2315 73.383 72.15 74.2919 72.0503C73.8728 71.7693 73.5388 71.548 73.2099 71.3224C73.0058 71.1958 72.8103 71.0555 72.6248 70.9024C72.5527 70.8391 72.5527 70.6964 72.5209 70.5902L72.6118 70.5625C73.3866 71.0815 74.1642 71.5961 74.9325 72.1238C75.0284 72.1893 75.0768 72.3225 75.1489 72.4244C75.0378 72.487 74.9325 72.5903 74.8163 72.6042C74.0784 72.6923 73.3375 72.7599 72.5981 72.8349C72.5044 72.8444 72.4113 72.856 72.2187 72.8786C72.4048 73.0198 72.5246 73.1188 72.6515 73.2054C73.0086 73.4492 73.3729 73.6814 73.7264 73.9333C73.8425 74.017 73.9269 74.1458 74.0257 74.2543L73.968 74.3547C73.8649 74.3292 73.7437 74.3307 73.6614 74.2746C72.8723 73.7302 72.0903 73.1763 71.3054 72.6246C71.3011 72.5809 71.2961 72.5358 71.291 72.4914Z" fill="#D9D9D6"/>
<path d="M79.2998 56.5902C78.6268 56.5036 78.0562 56.4373 77.4892 56.3471C77.3976 56.3325 77.3233 56.2073 77.2418 56.1331C77.342 56.1018 77.4466 56.0326 77.5419 56.0443C78.3866 56.1455 79.2299 56.2626 80.0732 56.3733C80.33 56.4075 80.348 56.5567 80.2001 56.7205C80.059 56.8686 79.9014 56.9997 79.7305 57.1113C79.2746 57.4258 78.8115 57.7278 78.3512 58.0365C78.2474 58.1056 78.1456 58.182 77.9754 58.2978L79.6519 58.5656C79.724 58.5765 79.8077 58.5656 79.864 58.5962C79.9314 58.6506 79.9909 58.7143 80.0407 58.7854C79.9686 58.8226 79.8892 58.8975 79.82 58.8903C79.4153 58.8444 79.0113 58.7825 78.608 58.7214C78.0641 58.6384 77.5202 58.5511 76.8638 58.4477C77.0686 58.2526 77.2071 58.0838 77.3774 57.9659C77.9069 57.5888 78.4493 57.2307 78.9839 56.8609C79.0762 56.7969 79.1563 56.7139 79.2998 56.5902Z" fill="#D9D9D6"/>
<path d="M75.6475 63.8184C75.8098 63.6947 75.9317 63.5673 76.0803 63.4945C76.6624 63.2092 77.2532 62.9421 77.8404 62.6655C77.9805 62.6057 78.1042 62.5129 78.2011 62.3947L77.096 62.0431C76.8998 61.992 76.707 61.9283 76.5189 61.8524C76.4352 61.8139 76.389 61.6945 76.3256 61.6122C76.4186 61.594 76.5218 61.5395 76.6018 61.562C77.1869 61.7382 77.7676 61.9318 78.3512 62.1152C78.5676 62.1829 78.7919 62.2309 79.0076 62.3023C79.092 62.3299 79.224 62.3969 79.224 62.4478C79.2221 62.4991 79.2089 62.5494 79.1855 62.5949C79.162 62.6405 79.1289 62.6802 79.0884 62.7113C78.7905 62.8889 78.4788 63.0454 78.1672 63.2005C77.7221 63.4225 77.272 63.6372 76.8262 63.948C77.3492 64.0979 77.8743 64.2391 78.3923 64.4036C78.5005 64.4379 78.5813 64.5587 78.6751 64.6387C78.551 64.6613 78.4139 64.729 78.305 64.6977C77.4769 64.4575 76.6538 64.1984 75.8307 63.9422C75.7655 63.9075 75.7041 63.866 75.6475 63.8184Z" fill="#D9D9D6"/>
<path d="M51.8359 30.5975C52.1569 30.5837 52.4202 30.5517 52.6792 30.572C52.7629 30.5786 52.9014 30.7227 52.9028 30.8057C52.9144 31.7476 52.9028 32.6901 52.9028 33.632C52.9047 33.6552 52.903 33.6785 52.8978 33.7012C52.6203 33.7524 52.3402 33.7886 52.0588 33.8096C51.9867 33.8096 51.8496 33.6786 51.8489 33.6058C51.8316 32.6166 51.8359 31.6275 51.8359 30.5975Z" fill="#D9D9D6"/>
<path d="M62.7545 81.3812C62.9796 82.0894 63.5091 82.5887 63.6375 83.3079C63.3229 83.2045 62.1038 80.9983 62.0923 80.5274C63.0394 80.7057 63.8827 81.1708 64.845 81.4693C64.5976 80.7334 64.1049 80.194 63.939 79.5193L64.0616 79.4414C64.1489 79.5222 64.2672 79.587 64.3199 79.6867C64.7137 80.4342 65.0953 81.189 65.4777 81.9431C65.5063 82.0273 65.5271 82.1141 65.5397 82.2022C65.3399 82.1891 65.1653 82.211 65.0146 82.1607C64.3992 81.9562 63.7918 81.7277 63.1808 81.5107C63.0589 81.4678 62.9327 81.435 62.7545 81.3812Z" fill="#D9D9D6"/>
<path d="M27.8264 57.7803C27.729 57.9783 27.6822 58.1348 27.5884 58.2534C27.1635 58.7943 26.7227 59.3227 26.2899 59.8584C26.2084 59.9596 26.1391 60.0702 26.0014 60.2617C26.458 60.1852 26.8244 60.1212 27.1916 60.0622C27.4405 60.0229 27.6894 59.9807 27.9397 59.961C27.9981 59.9567 28.0623 60.0404 28.1244 60.0841C28.0739 60.1387 28.0291 60.2333 27.9722 60.2413C27.0582 60.3752 26.1435 60.499 25.2309 60.6212C25.1776 60.6285 25.1198 60.6009 24.9424 60.5652L26.7227 58.3452L26.6722 58.252C26.2048 58.3182 25.7381 58.3976 25.2684 58.4441C25.073 58.4638 24.871 58.4121 24.6719 58.3932C24.8407 58.3204 25.003 58.2083 25.1768 58.1748C25.9667 58.0293 26.7639 57.9084 27.5538 57.7803C27.6446 57.775 27.7356 57.775 27.8264 57.7803Z" fill="#D9D9D6"/>
<path d="M42.6823 81.7145C42.3281 82.3521 42.209 83.0458 41.8 83.5822L41.6709 83.5342C41.694 83.4039 41.6925 83.2627 41.743 83.1448C42.077 82.3681 42.4204 81.5959 42.7659 80.8243C42.7919 80.7675 42.8612 80.7304 42.9102 80.6846C42.9824 80.7683 43.0949 80.8396 43.1266 80.9371C43.3474 81.6031 43.5494 82.275 43.7629 82.9431C43.811 83.0964 43.9019 83.2323 44.0247 83.3347C44.2411 82.8332 44.4576 82.3281 44.687 81.8324C44.7476 81.7036 44.8644 81.601 44.9546 81.4867L45.1212 81.5849C44.6999 82.5253 44.2794 83.4657 43.8228 84.4833C43.1714 83.647 43.162 82.5996 42.6823 81.7145Z" fill="#D9D9D6"/>
<path d="M73.7058 34.3187L75.4299 33.2327L75.5294 33.3652C75.4573 33.4525 75.3931 33.5639 75.3 33.6221C74.5274 34.1076 73.7498 34.5836 72.8603 35.1361C72.8805 34.8675 72.8603 34.6746 72.913 34.5021C73.1402 33.7291 73.3876 32.9619 73.6582 32.0957C73.1121 32.4335 72.6526 32.7319 72.1772 33.0019C72.0394 33.0806 71.8576 33.0798 71.6953 33.1155C71.8035 32.9947 71.8922 32.8425 72.0235 32.7574C72.6386 32.358 73.2614 31.9698 73.8919 31.5928C74.0116 31.52 74.1696 31.5149 74.3103 31.4785C74.3161 31.6285 74.3579 31.7886 74.3197 31.9269C74.1033 32.7057 73.8702 33.4794 73.6423 34.2561L73.7058 34.3187Z" fill="#D9D9D6"/>
<path d="M29.9052 68.4717C29.323 68.7759 28.8498 69.0321 28.3672 69.2687C28.2691 69.3167 28.1356 69.2912 28.0181 69.2993C28.096 69.2017 28.1544 69.0663 28.2554 69.0125C28.9457 68.6485 29.6448 68.2992 30.3416 67.9483C30.4534 67.8923 30.5724 67.8515 30.7831 67.7656C30.5775 68.8283 30.0812 69.6879 29.7609 70.7157C30.18 70.4893 30.5198 70.3023 30.8624 70.121C31.0745 70.0089 31.288 69.8968 31.5117 69.8059C31.5658 69.7833 31.6559 69.8422 31.7281 69.8634C31.7007 69.9296 31.6906 70.0308 31.6422 70.0562C30.8437 70.4697 30.0408 70.8744 29.2386 71.2791C29.1606 71.3044 29.0808 71.3239 28.9999 71.3373C29.0352 71.0964 29.0338 70.8889 29.0994 70.7055C29.3021 70.137 29.5322 69.5788 29.7486 69.0139C29.7941 68.8749 29.8294 68.7257 29.9052 68.4717Z" fill="#D9D9D6"/>
<path d="M24.436 50.3414C24.4505 50.1129 24.4613 49.936 24.4735 49.7409C25.1949 49.781 25.8845 49.8312 26.5763 49.8552C27.0423 49.8705 27.2818 49.6135 27.2862 49.1455C27.2862 48.802 27.1477 48.5305 26.8065 48.4701C26.1933 48.3616 25.5708 48.3099 24.9554 48.2138C24.835 48.1949 24.6366 48.0872 24.633 48.0129C24.6221 47.7655 24.8328 47.8332 24.9778 47.8514C25.5614 47.9241 26.1478 47.9846 26.7264 48.0894C27.3828 48.208 27.6764 48.6564 27.6079 49.3661C27.5488 49.9833 27.1635 50.5518 26.4955 50.4935C25.8276 50.4353 25.1574 50.3938 24.436 50.3414Z" fill="#D9D9D6"/>
<path d="M38.9 81.4017C37.9081 81.4017 37.4147 81.0807 37.0857 80.5065C37.0259 80.4016 37.08 80.2306 37.0814 80.0901C37.1745 80.1702 37.3043 80.232 37.3548 80.3332C37.7155 81.0502 38.3417 81.2212 38.9418 80.6972C39.2001 80.4693 39.3905 80.1389 39.5478 79.8237C39.7346 79.4481 39.6077 79.0958 39.322 78.7989C38.9743 78.4349 38.768 78.4597 38.5105 78.8789C38.46 78.9612 38.4232 79.0747 38.3489 79.114C38.2284 79.1781 38.0827 79.1919 37.9485 79.2276C37.9485 79.1017 37.9096 78.9648 37.9485 78.8542C38.0033 78.6984 38.1252 78.5674 38.1974 78.4175C38.3907 78.0142 38.4527 77.9705 38.8423 78.2056C39.1972 78.424 39.5637 78.6482 39.8407 78.9517C40.2014 79.3535 40.2735 79.8718 40.0225 80.3747C39.7289 80.9556 39.3133 81.4112 38.9 81.4017Z" fill="#D9D9D6"/>
<path d="M24.3438 52.66C24.3697 52.1047 24.3805 51.657 24.4195 51.2123C24.4267 51.1242 24.5428 51.0456 24.6092 50.9619C24.6482 51.0522 24.7145 51.141 24.721 51.2334C24.7376 51.462 24.7268 51.692 24.7268 51.954H25.6523C25.6302 51.7469 25.622 51.5385 25.6278 51.3302C25.6372 51.2218 25.7266 51.1199 25.78 51.0158C25.8435 51.1126 25.9077 51.2087 25.9704 51.3069C25.9762 51.3157 25.9704 51.3309 25.9704 51.3426C25.9928 51.5544 25.9546 51.9074 26.0505 51.9496C26.2878 52.0537 26.5872 52.0319 26.8606 52.0224C26.9234 52.0224 27.0208 51.8703 27.033 51.7786C27.0568 51.6003 27.0164 51.4147 27.033 51.2349C27.0395 51.1715 27.1427 51.0682 27.1975 51.0711C27.2639 51.0747 27.38 51.1701 27.3807 51.2269C27.3879 51.651 27.3793 52.0751 27.3548 52.4992C27.3548 52.5567 27.2336 52.6528 27.1679 52.6535C26.2503 52.663 25.3284 52.66 24.3438 52.66Z" fill="#D9D9D6"/>
<path d="M77.2863 48.9177C77.0988 48.3085 77.1024 48.3157 77.6247 48.0552C77.8007 47.9671 78.0575 47.9445 78.0099 47.6184C77.9002 46.9102 77.8721 46.8738 77.4443 46.7777C77.2229 46.7282 76.8672 46.8221 76.899 46.333C77.6773 46.5252 78.4376 46.7159 79.1994 46.9C79.4086 46.951 79.625 46.9728 79.8313 47.0325C79.9258 47.0594 80.0045 47.1417 80.0903 47.1992C80.029 47.2923 79.9893 47.4248 79.9028 47.4736C79.0436 47.9584 78.178 48.4278 77.2863 48.9177ZM78.3121 47.7225L79.0645 47.2909C79.0645 47.2538 79.0645 47.2181 79.0595 47.1795L78.1347 46.9109C78.2003 47.2116 78.2501 47.4314 78.3121 47.7225Z" fill="#D9D9D6"/>
<path d="M33.7978 31.9482C33.717 32.0982 33.6701 32.2605 33.5648 32.3595C33.4612 32.4373 33.3325 32.4732 33.2041 32.4599C33.0663 32.4475 32.9372 32.358 32.7994 32.3143C32.6248 32.2634 32.4647 32.2634 32.4012 32.4898C32.3828 32.5476 32.3503 32.5999 32.3067 32.6419C31.9907 32.9512 32.0311 33.2242 32.3413 33.5248C32.4856 33.6653 32.6003 33.8771 32.3644 34.1486C31.744 33.1856 31.0724 32.2903 30.5098 31.323L30.6093 31.2051L33.7978 31.9482ZM31.3776 31.9402L31.2989 32.0603L31.8551 32.8253L31.9756 32.7889C32.034 32.6011 32.1783 32.2743 32.1372 32.2481C31.9085 32.1047 31.6351 32.0348 31.3776 31.9402Z" fill="#D9D9D6"/>
<path d="M61.6494 80.7969C61.6749 80.9017 61.6927 81.0082 61.7027 81.1157C61.7143 82.0233 61.7237 82.9303 61.7251 83.8379C61.7251 83.9376 61.6732 84.0374 61.6458 84.1371C61.5498 84.1043 61.4229 84.1007 61.3623 84.0352C60.7051 83.3306 60.0587 82.6173 59.4102 81.9047C59.3918 81.8761 59.3774 81.845 59.3677 81.8123C59.7817 81.4716 59.9361 81.4956 60.2333 81.9076C60.3408 82.0532 60.3935 82.34 60.6784 82.2111C61.3565 81.9054 61.3615 82.0728 61.3738 81.5182C61.381 81.2707 61.2259 80.9432 61.6494 80.7969ZM60.6625 82.5314L61.3904 83.1748V82.1238L60.6625 82.5314Z" fill="#D9D9D6"/>
<path d="M71.4237 74.1097C71.2246 73.7458 70.8776 73.4357 70.8978 72.9786L70.9981 72.9189C71.0973 73.0277 71.1879 73.144 71.2694 73.2669C71.6791 73.9947 72.0795 74.7226 72.4834 75.4505C72.5112 75.4903 72.5319 75.5346 72.5447 75.5815C72.5592 75.6921 72.5613 75.805 72.5678 75.917C72.4661 75.917 72.3565 75.936 72.2634 75.9054C71.5803 75.6812 70.9 75.4461 70.2183 75.2168C69.9702 75.1331 69.7198 75.0574 69.4717 74.9781C69.7025 74.4074 69.8208 74.3463 70.3518 74.6142C70.6158 74.7452 70.7846 74.7794 70.9505 74.462C71.0327 74.3048 71.2614 74.2255 71.423 74.1105C71.328 74.2713 71.2449 74.4389 71.1741 74.612C71.1417 74.7066 71.151 74.8995 71.2015 74.9235C71.4385 75.0269 71.6813 75.1161 71.9287 75.1906C71.9424 75.1615 71.9561 75.1331 71.9705 75.104L71.4237 74.1097Z" fill="#D9D9D6"/>
<path d="M28.7836 42.4342L25.9399 41.5731C26.1109 41.0491 26.1838 40.4661 26.5416 39.9951L26.6815 40.0264C26.649 40.2069 26.6433 40.3984 26.5798 40.5665C26.3901 41.0673 26.3807 41.0658 26.8958 41.2172C27.0299 41.2565 27.1699 41.2762 27.2918 41.3016C27.4952 41.0105 27.382 40.5614 27.9151 40.4064C27.8076 40.7812 27.7239 41.0738 27.6265 41.4254C27.9151 41.5186 28.2036 41.635 28.4986 41.6896C28.5708 41.7027 28.7223 41.528 28.7663 41.4123C28.8622 41.1612 28.8694 40.8591 29.3022 40.798C29.1183 41.3737 28.9517 41.9051 28.7836 42.4342Z" fill="#D9D9D6"/>
<path d="M32.3416 75.2845C32.4859 75.893 32.7066 76.476 33.4424 76.3814C34.0916 76.2984 34.5757 75.8719 34.7957 75.2547C35.059 74.5173 34.3975 74.24 33.8846 73.7953C34.0873 73.7851 34.2006 73.7487 34.29 73.78C34.8866 73.9911 35.4384 74.9643 35.2942 75.5866C35.1499 76.2089 34.7171 76.6333 34.1292 76.8152C33.4799 77.0161 32.8884 76.8458 32.4599 76.2773C32.3176 76.0979 32.2032 75.8976 32.1209 75.6834C32.0841 75.5764 32.1757 75.4228 32.2096 75.2903L32.3416 75.2845Z" fill="#D9D9D6"/>
<path d="M79.0829 43.1079C78.992 42.9019 78.8665 42.7039 78.8189 42.4877C78.7583 42.214 78.6349 42.1238 78.3716 42.1966C78.2794 42.2231 78.185 42.2414 78.0896 42.2512C77.8623 42.2737 77.7671 42.3603 77.8558 42.6085C77.9135 42.7933 77.9503 42.984 77.9655 43.177C77.9727 43.2447 77.9215 43.3226 77.8969 43.3895C77.8248 43.3408 77.7209 43.3058 77.6942 43.2396C77.6221 43.0613 77.612 42.8546 77.5233 42.6893C77.4721 42.594 77.3162 42.5554 77.2052 42.4965C77.1886 42.4877 77.159 42.5052 77.133 42.5096C76.4051 42.6617 76.4116 42.661 76.5804 43.3954C76.6079 43.514 76.5804 43.645 76.5804 43.7702L76.3835 43.7993L75.9507 42.241L78.0917 41.6274C78.1379 41.6143 78.1855 41.6063 78.2317 41.5932C78.8153 41.4236 78.8196 41.4221 78.9869 42.0372C79.0778 42.3705 79.1514 42.709 79.2329 43.0453L79.0829 43.1079Z" fill="#D9D9D6"/>
<path d="M39.5674 82.028C39.7471 82.1008 39.944 82.151 40.102 82.2587C40.3003 82.3934 40.4417 82.4655 40.5997 82.2078C40.8782 81.7529 40.8883 81.6255 40.617 81.4559C40.4641 81.362 40.309 81.2732 40.146 81.1764C40.2181 80.8576 40.3948 80.9449 40.5709 81.0476C41.0672 81.3387 41.0664 81.3387 41.3521 80.8438C41.6096 80.399 41.5779 80.3284 41.1242 80.1159C40.9741 80.0431 40.8587 79.8975 40.7274 79.7905L40.8291 79.6348L42.2942 80.3728C41.9999 80.9085 41.7352 81.3918 41.469 81.8744C41.3521 82.0862 41.2266 82.2929 41.1162 82.5084C40.8601 83.0077 40.8609 83.0143 40.353 82.7391C40.0558 82.5783 39.7673 82.3999 39.4751 82.2296C39.5054 82.1619 39.5364 82.095 39.5674 82.028Z" fill="#D9D9D6"/>
<path d="M25.6319 62.8421C25.5453 62.3624 25.4573 61.8791 25.3736 61.3958C25.3686 61.366 25.3974 61.3303 25.4248 61.2633C25.8981 61.4249 25.6413 61.9323 25.9031 62.2329C26.1366 62.1837 26.3673 62.122 26.5942 62.048C26.6555 62.0254 26.7089 61.8791 26.7031 61.7947C26.6894 61.6025 26.6252 61.4155 26.605 61.2233C26.5978 61.1585 26.6606 61.0865 26.6916 61.0173C26.7543 61.0617 26.8539 61.0938 26.8726 61.152C26.9289 61.323 26.9289 61.5159 26.9982 61.679C27.0349 61.7656 27.167 61.8129 27.2593 61.874C27.2752 61.8842 27.3062 61.874 27.3314 61.8675C28.1971 61.7066 28.1091 61.8638 27.9886 60.994C27.9772 60.9218 27.9709 60.8488 27.9698 60.7757C27.9792 60.6988 27.9937 60.6227 28.0131 60.5479C28.1228 60.6621 28.2295 60.7211 28.2512 60.8041C28.3623 61.1862 28.4604 61.5734 28.5397 61.9636C28.5549 62.0363 28.4813 62.1936 28.4236 62.2081C27.5074 62.4338 26.587 62.6448 25.6672 62.8552C25.6571 62.861 25.6456 62.8494 25.6319 62.8421Z" fill="#D9D9D6"/>
<path d="M71.1692 28.1897C71.1411 28.1271 71.1086 28.0674 71.0862 28.0033C70.7883 27.1415 70.2206 26.9042 69.4848 27.413C69.1768 27.6256 68.9178 27.9757 68.7533 28.32C68.5167 28.8149 68.7973 29.3062 69.3239 29.4933C69.4401 29.5348 69.5512 29.5916 69.6998 29.6563C69.4834 29.8871 69.2965 29.8099 69.1162 29.7233C68.5838 29.4664 68.1164 28.7341 68.1784 28.202C68.257 27.4945 68.6834 27.0374 69.3146 26.7834C69.6089 26.6727 69.9301 26.6574 70.2334 26.7396C70.5367 26.8218 70.8071 26.9974 71.0069 27.242C71.1549 27.4424 71.2705 27.6652 71.3495 27.9022C71.3798 27.9808 71.3012 28.1023 71.2724 28.205L71.1692 28.1897Z" fill="#D9D9D6"/>
<path d="M49.9653 82.7496C49.8261 83.6915 49.6912 84.5394 49.5823 85.3903C49.5462 85.6691 49.438 85.7317 49.1798 85.6815C48.9215 85.6312 48.6308 85.6247 48.3603 85.5723C48.2382 85.5381 48.1251 85.4769 48.0292 85.3932C48.0083 85.3779 48.0552 85.212 48.0746 85.2113C48.1865 85.2028 48.299 85.2151 48.4065 85.2476C48.9222 85.426 48.9965 85.3801 49.0557 84.8189C49.068 84.6996 49.0788 84.5809 49.0896 84.4615C48.8097 84.2432 48.3552 84.4324 48.1886 83.9586C48.405 83.987 48.6214 84.0023 48.8328 84.0467C49.0442 84.0911 49.187 84.0605 49.2065 83.8086C49.2137 83.7242 49.2382 83.642 49.2519 83.559C49.3478 82.9832 49.3478 82.9832 48.7715 82.9163C48.457 82.8799 48.457 82.8799 48.3574 82.5283L49.9653 82.7496Z" fill="#D9D9D6"/>
<path d="M31.9217 70.3096C32.291 70.7033 32.3271 70.9181 32.0162 71.2092C31.7276 71.4822 31.7536 71.67 31.9556 71.999C32.1965 72.3906 32.4396 72.4553 32.8335 72.3047C32.99 72.245 33.1819 72.2785 33.368 72.3491C32.3076 72.7603 31.1931 72.8862 30.0605 73.0769C30.6009 72.0979 31.2739 71.2383 31.9217 70.3096ZM31.9174 72.4983L31.9621 72.3825C31.8135 72.2282 31.6651 72.0734 31.517 71.9182L30.9514 72.5485L31.0322 72.6548L31.9174 72.4983Z" fill="#D9D9D6"/>
<path d="M77.4403 67.8228C77.2061 68.3289 76.9704 68.8384 76.7333 69.3513L76.5631 69.2931C76.628 69.0653 76.6561 68.8171 76.7665 68.6147C76.9108 68.3461 76.8278 68.2122 76.5898 68.1052C76.4917 68.0601 76.3914 68.0193 76.2954 67.9698C76.1007 67.8686 76.0004 67.9218 75.9218 68.135C75.8366 68.3636 75.6953 68.5718 75.5791 68.7858L75.4067 68.7086C75.4579 68.5141 75.5225 68.3234 75.6 68.1379C75.7443 67.8541 75.7183 67.6583 75.3894 67.5556C75.3103 67.5273 75.2335 67.4925 75.16 67.4516C74.8585 67.3023 74.655 67.3635 74.5829 67.7201C74.5613 67.8264 74.5483 67.956 74.4812 68.0251C74.4141 68.0943 74.2792 68.111 74.1746 68.151L74.1133 68.0681C74.3117 67.5848 74.5093 67.1014 74.7091 66.6123L77.4403 67.8228Z" fill="#D9D9D6"/>
<path d="M24.7533 47.2095C24.7489 46.5821 24.7807 46.5494 25.2957 46.4642C25.8469 46.3732 26.3965 46.2684 26.9469 46.1687L26.9679 46.0755C26.8575 46.0027 26.7515 45.9147 26.6353 45.8477C26.189 45.5871 25.7406 45.3302 25.29 45.0769C25.1204 44.9815 25.018 44.876 25.1753 44.6787C26.0409 45.1824 26.9029 45.6788 27.757 46.1869C27.8342 46.2327 27.9244 46.3856 27.9013 46.4431C27.8744 46.4927 27.8374 46.5361 27.7928 46.5705C27.7482 46.6048 27.6969 46.6294 27.6424 46.6425C26.6916 46.8383 25.7379 47.0188 24.7533 47.2095Z" fill="#D9D9D6"/>
<path d="M74.8375 38.8839C74.6139 38.4006 74.3903 37.9173 74.1602 37.418L76.8711 36.209L77.5362 37.7834L77.4085 37.8562C77.2642 37.6327 77.0933 37.4238 76.993 37.1829C76.8566 36.8532 76.6489 36.9354 76.4404 37.0424C76.2319 37.1494 75.9059 37.1836 76.092 37.5679C76.1601 37.7089 76.2107 37.8578 76.2428 38.0112C76.2586 38.084 76.2117 38.1728 76.193 38.2536C76.1208 38.2026 76.0235 38.1677 75.9823 38.0985C75.9131 37.9714 75.8589 37.8366 75.8208 37.6968C75.7486 37.4631 75.6274 37.3663 75.3973 37.5133C75.3871 37.5196 75.3762 37.5247 75.3648 37.5286C74.7156 37.8059 74.7156 37.8045 74.945 38.4617C74.9861 38.5811 74.9703 38.7209 74.9811 38.8512L74.8375 38.8839Z" fill="#D9D9D6"/>
<path d="M57.6459 85.3086C57.1907 85.3988 56.7702 85.492 56.3475 85.559C56.2753 85.5706 56.1851 85.4731 56.1036 85.425C56.1714 85.3624 56.2364 85.2955 56.3092 85.2394C56.333 85.2205 56.3814 85.2321 56.4153 85.2285C57.0428 85.1652 57.0284 85.1674 56.9202 84.5254C56.8726 84.2342 56.7579 84.1469 56.4874 84.2277C56.3726 84.2642 56.2529 84.2827 56.1325 84.2823C56.0459 84.2823 55.9608 84.2248 55.8757 84.1935C55.9529 84.1265 56.02 84.0202 56.1101 84.0006C56.3332 83.9651 56.5582 83.943 56.7839 83.9343C56.7291 83.5886 56.6908 83.2581 56.6129 82.9386C56.5985 82.8797 56.421 82.8258 56.3244 82.8323C56.1347 82.8447 55.9493 82.9139 55.7588 82.9328C55.7004 82.9386 55.6333 82.86 55.5698 82.8149C55.6189 82.7603 55.66 82.6693 55.7184 82.6562C56.1851 82.5543 56.6562 82.4677 57.1373 82.373C57.3069 83.3622 57.4749 84.3216 57.6459 85.3086Z" fill="#D9D9D6"/>
<path d="M47.9579 83.0463C47.8187 82.8629 47.7285 82.7195 47.6146 82.5994C47.4414 82.4174 47.2301 82.3286 47.0086 82.5069C46.9559 82.5522 46.9128 82.6077 46.8819 82.6701C46.851 82.7326 46.8329 82.8007 46.8288 82.8704C46.8246 82.94 46.8344 83.0099 46.8576 83.0756C46.8808 83.1414 46.917 83.2017 46.9639 83.253C47.1349 83.4393 47.3246 83.6097 47.4912 83.7989C47.8007 84.1483 47.8166 84.4729 47.5634 84.8507C47.2676 85.2874 46.9646 85.401 46.5195 85.2488C46.0196 85.0778 45.9338 84.9482 46.0975 84.5574C46.2193 84.6861 46.3484 84.8076 46.4842 84.9213C46.671 85.0596 46.9235 85.1396 47.0555 84.9176C47.1413 84.7721 47.1276 84.4897 47.0367 84.3354C46.904 84.1017 46.6761 83.9227 46.4777 83.7261C46.1935 83.4423 46.2187 83.1154 46.3601 82.7864C46.5116 82.4334 46.7994 82.2267 47.1753 82.2325C47.4392 82.2361 47.6995 82.2956 47.9392 82.4072C48.2523 82.5572 48.082 82.7923 47.9579 83.0463Z" fill="#D9D9D6"/>
<path d="M29.0176 65.4155C29.0805 65.3181 29.1385 65.2175 29.1915 65.1142C29.3314 64.8078 29.1749 64.4591 28.8373 64.3135C28.5631 64.1956 28.3994 64.2888 28.2703 64.6775C28.1938 64.9046 28.1642 65.1477 28.1015 65.3799C27.9889 65.794 27.7076 65.992 27.2272 66.0611C26.8189 66.1194 26.6349 65.8632 26.4805 65.564C26.4042 65.413 26.3498 65.2517 26.319 65.0851C26.2584 64.7692 26.3716 64.6717 26.6796 64.7102C26.6796 64.9286 26.6385 65.1469 26.6941 65.3427C26.7323 65.4759 26.9011 65.6535 27.0187 65.6594C27.1363 65.6652 27.3245 65.5138 27.3895 65.3864C27.4832 65.1986 27.5085 64.9708 27.5381 64.7568C27.6232 64.1403 28.0957 63.7793 28.6807 63.8972C29.1951 64.0006 29.6387 64.6447 29.4908 65.1346C29.4454 65.2845 29.2535 65.3886 29.1301 65.5131L29.0176 65.4155Z" fill="#D9D9D6"/>
<path d="M28.8621 40.49C29.0915 40.2527 29.2798 40.1013 29.4096 39.9077C29.5178 39.7483 29.5539 39.5562 29.3331 39.4048C29.1124 39.2534 28.914 39.2221 28.7005 39.3713C28.544 39.4812 28.4062 39.618 28.254 39.7352C27.7966 40.0875 27.244 40.0264 26.8834 39.5933C26.5797 39.2293 26.7211 38.4476 27.1431 38.2285C27.2202 38.1885 27.34 38.2285 27.4403 38.2343C27.4262 38.3212 27.3992 38.4053 27.3602 38.484C27.2931 38.5815 27.156 38.6456 27.1236 38.749C27.0709 38.9135 27.0031 39.15 27.0781 39.2636C27.2166 39.471 27.4698 39.4819 27.6848 39.3211C27.8291 39.2126 27.9539 39.0801 28.0924 38.9644C28.6695 38.4825 29.3613 38.6325 29.7039 39.3131C29.8244 39.5533 29.6455 40.3758 29.4096 40.4777C29.2523 40.5439 29.0453 40.49 28.8621 40.49Z" fill="#D9D9D6"/>
<path d="M75.2969 36.4119L74.8093 35.51L73.5613 36.1746L73.2432 35.6447L75.9173 34.2275L76.6488 35.7903C76.3494 35.724 76.2773 35.6563 76.0536 35.2225C75.97 35.0602 75.8913 34.8251 75.6778 35.0129C75.4953 35.1738 75.004 35.1286 75.2233 35.6207C75.3236 35.8463 75.3676 36.0974 75.4397 36.3369L75.2969 36.4119Z" fill="#D9D9D6"/>
<path d="M71.6957 76.885L70.0985 78.5009L69.9701 78.3976C70.0372 78.2898 70.0985 78.1792 70.1721 78.0758C70.2457 77.9725 70.3395 77.8713 70.3409 77.8422L68.6558 75.8296L68.5454 75.8755L69.01 75.3252C69.5467 75.8791 70.056 76.4054 70.566 76.9302C70.8906 77.265 70.8856 77.257 71.2152 76.9447C71.3112 76.853 71.454 76.8108 71.5759 76.7453L71.6957 76.885Z" fill="#D9D9D6"/>
<path d="M78.4481 65.1868C78.1441 65.9763 77.8407 66.7666 77.5377 67.5575L77.3934 67.516C77.449 67.1987 77.5045 66.8813 77.5702 66.5086L75.1377 65.6097C75.1954 65.4234 75.2538 65.2349 75.3274 64.999L76.6555 65.5027C76.944 65.6141 77.2477 65.708 77.529 65.8419C77.7851 65.9635 77.8897 65.8667 77.9885 65.6359C78.0772 65.4532 78.1782 65.2769 78.2908 65.1082L78.4481 65.1868Z" fill="#D9D9D6"/>
<path d="M36.3388 28.9547C36.0589 29.5086 35.9637 29.5218 35.5763 29.1265C35.1377 28.6796 34.6803 28.2531 34.2403 27.8047C34.0578 27.6191 33.9272 27.5863 33.7635 27.8338C33.674 27.9699 33.5139 28.0587 33.3855 28.1686L33.2881 28.0922C33.3436 27.9743 33.3761 27.8353 33.4591 27.7428C33.8212 27.3386 34.1927 26.9441 34.5736 26.5593C34.6334 26.4982 34.7597 26.504 34.8556 26.4785C34.8347 26.5833 34.8462 26.7143 34.7878 26.7879C34.456 27.2027 34.4524 27.1955 34.8412 27.5565C35.3469 28.0223 35.8461 28.4918 36.3388 28.9547Z" fill="#D9D9D6"/>
<path d="M79.9269 49.4185C79.9077 49.2263 79.9009 49.0329 79.9067 48.8398C79.9147 48.7568 80.002 48.6811 80.051 48.6025C80.1138 48.6615 80.2263 48.7161 80.2314 48.7794C80.2833 49.4272 80.3179 50.0758 80.3583 50.7388C80.1152 50.6806 80.1152 50.6806 79.9666 50.0364C79.2568 50.0707 78.5376 50.0794 77.8242 50.1485C77.3913 50.1908 77.2593 50.2512 77.33 49.559L79.9269 49.4185Z" fill="#D9D9D6"/>
<path d="M27.7642 67.7212C27.8284 68.0393 27.8883 68.3326 27.9474 68.626L27.7909 68.6769C27.6791 68.4323 27.5586 68.1907 27.4569 67.9418C27.2967 67.5509 27.1438 67.1571 27.0046 66.7589C26.9808 66.6927 27.0399 66.5959 27.0608 66.5136C27.1319 66.5616 27.1983 66.6162 27.2592 66.6767C27.2924 66.7275 27.3127 66.7857 27.3184 66.8463C27.3768 67.1622 27.5348 67.1979 27.8104 67.0712C28.4214 66.7888 29.0425 66.5275 29.6621 66.2654C29.8064 66.205 29.9838 66.0682 30.0639 66.3441C30.1224 66.542 30.1938 66.7233 29.8958 66.8332C29.2466 67.0741 28.6046 67.3536 27.9618 67.6186C27.8875 67.6499 27.8183 67.6928 27.7642 67.7212Z" fill="#D9D9D6"/>
<path d="M58.3628 82.3256C58.1703 82.3962 57.9743 82.4567 57.7756 82.5068C57.7035 82.5214 57.6155 82.4617 57.5347 82.434C57.5859 82.3612 57.6234 82.2572 57.6905 82.2339C58.0512 82.1079 58.4198 81.9915 58.792 81.902C58.8569 81.8859 59.0084 81.9966 59.0308 82.0752C59.2631 82.8758 59.4744 83.6845 59.6995 84.4888C59.7529 84.6773 59.7218 84.7989 59.5163 84.8346C59.3273 84.8666 59.1498 84.9292 59.0834 84.6322C58.924 83.948 58.735 83.2711 58.5467 82.5942C58.5157 82.4966 58.4248 82.4151 58.3628 82.3256Z" fill="#D9D9D6"/>
<path d="M69.7073 78.7943C69.6352 78.8838 69.563 79.0258 69.4476 79.0854C69.3545 79.1364 69.1554 79.1444 69.0977 79.0854C68.5206 78.4697 67.9623 77.8393 67.4111 77.2017C67.3664 77.15 67.3816 76.9935 67.427 76.9266C67.5056 76.8108 67.6297 76.7271 67.7459 76.6201L69.7073 78.7943Z" fill="#D9D9D6"/>
<path d="M80.4763 51.9361C79.7419 51.9361 79.1057 51.9361 78.4745 51.9361C78.2941 51.9361 78.1138 51.9395 77.9334 51.9463C77.3419 51.9674 77.326 51.9463 77.4422 51.2527C78.336 51.2527 79.2456 51.2417 80.1553 51.2578C80.5758 51.265 80.3342 51.6151 80.4763 51.9361Z" fill="#D9D9D6"/>
<path d="M76.5244 60.8833C76.572 60.6388 76.6088 60.4539 76.6463 60.2617L79.5556 60.8935C79.539 61.074 79.5203 61.2676 79.4979 61.5078L76.5244 60.8833Z" fill="#D9D9D6"/>
<path d="M31.6332 75.0227C31.1687 74.6522 31.168 74.5794 31.6037 74.2526C32.1808 73.8203 32.7559 73.387 33.3292 72.9527C33.5355 72.7976 33.7353 72.7612 33.8507 73.0393C33.8897 73.1324 33.8688 73.3239 33.8024 73.3755C33.0868 73.9367 32.3561 74.479 31.6332 75.0227Z" fill="#D9D9D6"/>
<path d="M48.9423 26.1264C49.4148 25.8877 49.4761 25.4153 49.6053 24.9873L49.756 25.0026C49.8339 25.5914 49.9118 26.181 49.9898 26.767C49.6384 26.8397 49.6291 26.8325 49.6024 26.4532C49.5879 26.2567 49.5613 26.0602 49.5403 25.8637L49.4018 25.8418L49.0736 26.8477L48.6213 26.0056L48.4814 26.0384C48.5004 26.2146 48.5098 26.3917 48.5095 26.569C48.5095 26.6418 48.4374 26.7087 48.3941 26.7779C48.3616 26.7051 48.2967 26.6279 48.3032 26.5595C48.353 26.0609 48.4172 25.5638 48.4828 25.0179C48.9106 25.2595 48.7764 25.7457 48.9423 26.1264Z" fill="#D9D9D6"/>
<path d="M44.3667 28.5633C44.3321 28.7263 44.322 28.9003 44.2585 29.0524C44.0176 29.6347 43.3864 29.7475 42.9506 29.3013C42.5149 28.8551 42.6571 27.9628 43.2233 27.6905C43.8408 27.3928 44.3458 27.7844 44.3667 28.5633ZM43.9938 28.5851C43.9938 28.5247 43.9988 28.4635 43.9938 28.4046C43.9649 28.1258 43.9483 27.8223 43.6035 27.7582C43.3763 27.7175 43.0985 28.0494 43.043 28.3769C43.0329 28.4362 43.0264 28.496 43.0235 28.556C43.0076 28.9862 43.2565 29.4003 43.5285 29.4032C43.8004 29.4061 44.0017 29.0553 43.9938 28.5851Z" fill="#D9D9D6"/>
<path d="M52.3748 25.6795C52.3748 25.9619 52.39 26.2451 52.3669 26.5246C52.3582 26.6279 52.2579 26.7226 52.1995 26.8215C52.1548 26.716 52.0805 26.6119 52.0733 26.5042C52.0545 26.2363 52.0668 25.9663 52.0668 25.6977L51.8879 25.6744C51.8406 25.7894 51.8051 25.9089 51.7818 26.0311C51.7624 26.2356 51.7818 26.4438 51.7624 26.6483C51.7566 26.7065 51.6679 26.7568 51.6181 26.8106C51.5705 26.7568 51.4817 26.7036 51.481 26.649C51.4636 26.3576 51.4735 26.0651 51.5106 25.7756C51.5258 25.6824 51.7003 25.5638 51.8143 25.5485C52.1097 25.5096 52.4082 25.5015 52.7052 25.5245C52.8019 25.5317 52.9526 25.662 52.9671 25.7545C53.0067 26.0409 53.0207 26.3303 53.0089 26.6192C53.0089 26.6847 52.9065 26.7488 52.8516 26.8143C52.8049 26.7424 52.7692 26.6639 52.7456 26.5813C52.7261 26.4263 52.7564 26.2618 52.7247 26.1111C52.6777 25.9501 52.6173 25.7933 52.5443 25.6424L52.3748 25.6795Z" fill="#D9D9D6"/>
<path d="M41.1301 28.1399V29.4173L41.2658 29.4443C41.3134 29.2922 41.3942 29.1415 41.4021 28.9879C41.4209 28.6029 41.4021 28.2171 41.4093 27.8313C41.4228 27.7053 41.447 27.5806 41.4815 27.4586L41.581 27.4434C41.6142 27.5161 41.6726 27.5838 41.6762 27.6559C41.7008 28.1261 41.7152 28.597 41.7296 29.0672C41.7375 29.3307 41.6474 29.52 41.3531 29.5353C41.0587 29.5505 40.8048 29.4967 40.776 29.1473C40.7557 28.921 40.7723 28.6928 40.825 28.4718C40.8503 28.3576 40.9989 28.2746 41.1301 28.1399Z" fill="#D9D9D6"/>
<path d="M53.7479 26.7806L53.3872 26.7413C53.3872 26.1496 53.3872 25.5614 53.3915 24.9733C53.3915 24.9165 53.4521 24.8605 53.4853 24.8037C53.5575 24.8547 53.6765 24.894 53.6916 24.9573C53.7234 25.0949 53.7017 25.2484 53.7017 25.3831C54.3221 25.6291 54.558 26.0331 54.3567 26.5477C54.2471 26.8287 54.0141 26.8891 53.7385 26.7719C54.0704 26.7581 54.0797 26.5055 54.0509 26.2813C54.022 26.0571 54.1641 25.7376 53.6801 25.6262C53.7039 26.0455 53.7234 26.413 53.7479 26.7806Z" fill="#D9D9D6"/>
<path d="M57.5045 27.6279C57.6848 28.219 57.8652 28.81 58.0506 29.4163C57.8515 29.5553 57.6986 29.5037 57.6336 29.2889C57.5838 29.0799 57.5486 28.8675 57.5283 28.6535C57.5088 28.5283 57.4901 28.4038 57.4562 28.1833C57.2398 28.6804 57.0688 29.0837 56.8957 29.4862L56.7471 29.4265L57.3739 27.6345L57.5045 27.6279Z" fill="#D9D9D6"/>
<path d="M48.2902 28.3725C48.2902 28.6491 48.301 28.9257 48.2851 29.2015C48.2794 29.2991 48.213 29.393 48.1704 29.4883C48.1106 29.3995 48.0218 29.3173 47.9988 29.2197C47.9714 29.0653 47.9595 28.9085 47.9634 28.7517C47.9475 28.2604 48.0529 28.1541 48.5369 28.1818C48.609 28.1818 48.7281 28.2153 48.7317 28.2444C48.7786 28.6513 48.811 29.0603 48.8399 29.4694C48.8399 29.4825 48.7396 29.5262 48.7259 29.5131C48.673 29.4708 48.6353 29.4123 48.6184 29.3464C48.6011 29.1426 48.6184 28.9344 48.5932 28.7321C48.5759 28.5996 48.5052 28.4737 48.459 28.3448L48.2902 28.3725Z" fill="#D9D9D6"/>
<path d="M55.48 29.5311C55.48 29.1424 55.493 28.876 55.4721 28.6147C55.4656 28.5332 55.3661 28.4597 55.3098 28.3818C55.2579 28.4641 55.1735 28.5412 55.1619 28.6278C55.1381 28.8062 55.1727 28.9918 55.1468 29.1701C55.1302 29.2815 55.0472 29.3826 54.9938 29.4889L54.8358 29.4438C54.8358 29.1089 54.8221 28.7727 54.8467 28.44C54.8524 28.3672 54.9909 28.2457 55.0725 28.2428C55.3047 28.2348 55.6308 28.0732 55.7347 28.4036C55.8212 28.6824 55.8003 29.0005 55.7917 29.2996C55.7902 29.3601 55.6344 29.4183 55.48 29.5311Z" fill="#D9D9D6"/>
<path d="M54.0019 29.4579C54.328 28.9782 54.2905 28.4832 53.8418 28.27C53.8295 28.4789 53.8137 28.6601 53.8079 28.8414C53.8021 29.0226 53.8079 29.2264 53.8079 29.4236C53.4991 29.3683 53.4378 29.1915 53.5129 28.623C53.5264 28.4913 53.5902 28.3701 53.6908 28.285C53.7914 28.2 53.9208 28.1578 54.0517 28.1674C54.3403 28.187 54.5422 28.516 54.5192 28.9156C54.4939 29.3319 54.3641 29.4695 54.0019 29.4579Z" fill="#D9D9D6"/>
<path d="M50.838 25.5211C50.5956 25.8166 50.5552 26.2621 50.6692 26.6937L51.0912 26.6573C51.0955 26.6981 51.0998 26.7388 51.1049 26.7796C50.9253 26.7941 50.737 26.8473 50.5703 26.8072C50.4679 26.7825 50.3496 26.6253 50.3265 26.5095C50.2766 26.2871 50.2698 26.057 50.3063 25.8319C50.3597 25.5546 50.5913 25.4556 50.8553 25.5007C51.1359 25.5487 51.2059 25.7824 51.1871 26.0204C51.1813 26.0932 51.0212 26.1529 50.9087 26.2351C50.8798 25.9644 50.8625 25.786 50.838 25.5211Z" fill="#D9D9D6"/>
<path d="M60.7059 27.4023C60.7528 27.497 60.835 27.5894 60.8387 27.6855C60.8589 28.2154 60.8668 28.746 60.8574 29.2766C60.8574 29.3538 60.7427 29.4295 60.6814 29.5059C60.6309 29.4484 60.5371 29.3909 60.5371 29.3327C60.5263 28.7001 60.5306 28.0669 60.5306 27.4344L60.7059 27.4023Z" fill="#D9D9D6"/>
<path d="M45.9544 28.5386C46.3086 28.5269 46.2264 28.7693 46.1831 28.9636C46.1398 29.158 46.111 29.305 46.3577 29.4273C46.6044 29.5496 46.5892 29.7992 46.4204 30.0722L45.9876 29.3334C45.87 29.5569 45.7849 29.7206 45.6991 29.8837L46.1903 30.1428L46.2011 30.2054C45.9955 30.1537 45.7762 30.1326 45.5945 30.0336C45.5425 30.0059 45.5945 29.7694 45.606 29.6289C45.637 29.2344 46.0655 28.9738 45.9667 28.5371L45.9544 28.5386Z" fill="#D9D9D6"/>
<path d="M51.1917 29.5115C50.8801 29.5501 50.9032 29.3659 50.9248 29.1927C50.9576 28.8992 51.0058 28.6076 51.0691 28.3192C51.0843 28.2567 51.2574 28.1649 51.3101 28.1897C51.5358 28.2945 51.7544 28.4219 51.7292 28.7414C51.7155 28.9205 51.7631 29.1053 51.74 29.2815C51.7277 29.3761 51.6253 29.4584 51.4998 29.4999C51.4829 29.1277 51.4666 28.756 51.4507 28.3848L51.3064 28.3789C51.2711 28.756 51.2307 29.1366 51.1917 29.5115Z" fill="#D9D9D6"/>
<path d="M30.4445 34.194C30.1408 33.8577 29.8176 33.5389 29.5485 33.1749C29.4886 33.0942 29.6207 32.8685 29.6647 32.7091L29.8089 32.6895L30.5707 34.0943L30.4445 34.194Z" fill="#D9D9D6"/>
<path d="M58.8497 27.4541C58.7848 27.818 58.7148 28.0786 58.699 28.3377C58.6795 28.6624 58.7127 28.9928 58.699 29.3145C58.699 29.3786 58.5936 29.439 58.5374 29.5009C58.4948 29.439 58.4119 29.3735 58.4162 29.3153C58.4623 28.7432 58.5143 28.1703 58.5915 27.6019C58.6016 27.5371 58.7733 27.4934 58.8497 27.4541Z" fill="#D9D9D6"/>
<path d="M45.6866 29.0555C45.5993 28.8823 45.5726 28.7884 45.5149 28.7243C45.4155 28.6244 45.3102 28.5306 45.1997 28.4434C45.1275 28.5511 45.0172 28.6501 44.9926 28.7673C44.9534 29.0124 44.9277 29.2595 44.9154 29.5075L44.8087 29.5294C44.759 29.4117 44.7194 29.2899 44.6904 29.1654C44.6709 29.0359 44.6983 28.8997 44.6904 28.768C44.6485 28.2796 44.7279 28.1981 45.2069 28.2585C45.6044 28.3116 45.7623 28.5271 45.6866 29.0555Z" fill="#D9D9D6"/>
<path d="M59.2933 27.8398C59.3381 27.9337 59.4167 28.0269 59.421 28.1237C59.4369 28.4877 59.4398 28.8465 59.421 29.2061C59.4167 29.2985 59.3128 29.3851 59.2544 29.4739C59.201 29.3844 59.1101 29.2971 59.1007 29.2039C59.0767 28.8801 59.0699 28.5552 59.0805 28.2307C59.0841 28.1019 59.1483 27.9752 59.1851 27.8471L59.2933 27.8398Z" fill="#D9D9D6"/>
<path d="M52.1321 28.6472C52.1075 28.4685 52.0956 28.2883 52.0968 28.1078C52.104 28.0103 52.1876 27.9179 52.2367 27.8232C52.2886 27.9055 52.381 27.9856 52.3853 28.0707C52.407 28.4907 52.412 28.9121 52.407 29.3329C52.407 29.3904 52.3197 29.4471 52.2728 29.5039C52.2259 29.4471 52.1422 29.3933 52.1379 29.3336C52.122 29.1058 52.1321 28.8765 52.1321 28.6472Z" fill="#D9D9D6"/>
<path d="M63.823 29.4628C63.4428 29.6142 63.2278 29.5298 63.0922 29.2524C62.9378 28.9365 63.0201 28.3892 63.2596 28.2334C63.4688 28.6192 63.1622 29.216 63.823 29.4628Z" fill="#D9D9D6"/>
<path d="M56.356 26.7374C55.9325 26.915 55.693 26.8371 55.5704 26.5248C55.4196 26.1427 55.4982 25.7889 55.807 25.6514C55.8373 25.8079 55.9051 25.9607 55.8878 26.1041C55.8445 26.4666 55.9599 26.6886 56.356 26.7374Z" fill="#D9D9D6"/>
<path d="M62.175 28.1885C62.1894 28.6754 62.0437 29.1791 62.5631 29.4732C62.5188 29.5065 62.4682 29.5301 62.4144 29.5427C62.3606 29.5552 62.3049 29.5563 62.2506 29.546C62.1964 29.5357 62.1448 29.5141 62.0993 29.4826C62.0537 29.4512 62.0152 29.4105 61.986 29.3633C61.7862 29.0619 61.8814 28.3799 62.175 28.1885Z" fill="#D9D9D6"/>
<path d="M47.4101 29.5522C47.2875 29.0929 47.1677 28.6424 47.04 28.1692C47.2218 28.1059 47.3675 28.1743 47.4656 28.3796C47.6417 28.7443 47.6258 29.3855 47.4101 29.5522Z" fill="#D9D9D6"/>
<path d="M55.1613 25.5894C55.1036 25.925 55.0588 26.2445 54.9874 26.5597C54.9658 26.6572 54.872 26.738 54.8114 26.8268C54.7672 26.7321 54.7352 26.632 54.7162 26.5291C54.7061 26.3253 54.7263 26.12 54.7285 25.9155C54.7335 25.4992 54.81 25.4548 55.1613 25.5894Z" fill="#D9D9D6"/>
<path d="M61.5469 29.5496C61.4517 29.511 61.3392 29.4906 61.3363 29.46C61.3009 29.091 61.2786 28.7198 61.2642 28.3493C61.2642 28.318 61.3695 28.2467 61.3868 28.2568C61.4488 28.2969 61.5368 28.3617 61.539 28.4199C61.5541 28.778 61.5469 29.1376 61.5469 29.5496Z" fill="#D9D9D6"/>
<path d="M59.9737 28.2109C60.0278 28.2728 60.1215 28.331 60.128 28.3973C60.1562 28.7103 60.1684 29.0254 60.1663 29.3391C60.1663 29.3945 60.0696 29.4491 60.0177 29.5036C59.9643 29.4491 59.8662 29.3959 59.864 29.3391C59.8496 28.9803 59.8568 28.6207 59.8568 28.2619L59.9737 28.2109Z" fill="#D9D9D6"/>
<path d="M49.2739 29.5661V28.2363C49.5985 28.4139 49.6288 29.3238 49.2739 29.5661Z" fill="#D9D9D6"/>
<path d="M53.0578 28.1436C53.0954 28.2423 53.1237 28.3444 53.1422 28.4485C53.166 28.747 53.1797 29.0476 53.1819 29.3467C53.1819 29.3889 53.0924 29.4312 53.0448 29.4734C52.9907 29.4064 52.8933 29.3424 52.8897 29.2725C52.8731 28.9515 52.8825 28.6283 52.8825 28.3059L53.0578 28.1436Z" fill="#D9D9D6"/>
<path d="M50.2278 38.8367C49.813 38.3228 50.3815 38.0251 50.5056 37.6299C50.5582 38.0666 50.4197 38.4538 50.2278 38.8338V38.8367Z" fill="#D9D9D6"/>
<path d="M63.7614 28.955C63.6705 28.6944 63.5789 28.4338 63.4829 28.1602C63.8551 28.2024 64.0304 28.5932 63.7614 28.955Z" fill="#D9D9D6"/>
<path d="M56.4568 26.1986C55.9367 26.2415 56.2577 25.6425 55.8862 25.5821C56.2729 25.435 56.4208 25.6054 56.4568 26.1986Z" fill="#D9D9D6"/>
<path d="M45.9659 28.5342C45.8267 28.4913 45.686 28.3937 45.8476 28.2802C45.9609 28.2009 46.1859 28.2074 46.3244 28.2686C46.4153 28.3071 46.4406 28.5029 46.4954 28.6281L46.3771 28.6783L46.1751 28.3792L45.9587 28.5386L45.9659 28.5342Z" fill="#D9D9D6"/>
<path d="M49.9554 28.2939C49.9439 28.5422 50.503 28.6732 50.1062 29.0145C49.8061 28.7372 49.7708 28.5938 49.9554 28.2939Z" fill="#D9D9D6"/>
<path d="M46.991 29.5517C46.8957 29.4061 46.7565 29.2758 46.7212 29.1193C46.701 29.0269 46.8445 28.8966 46.9578 28.7139C47.0299 29.0494 47.0732 29.2707 47.1186 29.4912L46.991 29.5517Z" fill="#D9D9D6"/>
<path d="M62.5454 28.9368L62.3838 28.2373C62.7402 28.3101 62.8087 28.5161 62.6608 28.9099L62.5454 28.9368Z" fill="#D9D9D6"/>
<path d="M42.1283 28.3861C42.0482 27.7841 42.1102 27.6684 42.494 27.6582C42.3642 27.9159 42.2466 28.1481 42.1283 28.3861Z" fill="#D9D9D6"/>
<path d="M50.347 28.7559C50.7258 29.0426 50.6919 29.2858 50.2749 29.4735C50.298 29.2406 50.3203 29.0223 50.347 28.7559Z" fill="#D9D9D6"/>
<path d="M46.2983 54.7051C46.9519 54.2203 46.8552 53.4975 46.9541 52.8301C47.1106 51.7732 47.8118 51.1247 48.8758 51.049C48.9624 51.0431 49.1095 51.2251 49.1485 51.3459C49.4304 52.2162 49.9653 52.9809 50.6836 53.5405C51.3552 54.0784 52.1111 54.4474 52.9818 54.1708C53.401 54.0376 53.8028 53.7712 54.1425 53.4823C54.709 53.007 55.1443 52.3922 55.4064 51.6975C55.4465 51.6167 55.4918 51.5387 55.542 51.4639C55.6913 51.6014 55.8378 51.7033 55.9424 51.8387C56.3117 52.3133 56.7928 52.6103 57.3469 52.8111C57.696 52.9385 58.0401 53.0812 58.3791 53.234C58.8552 53.4524 59.0493 53.8833 59.2253 54.3259L59.1243 54.4219C59.0255 54.2967 58.9288 54.1694 58.8264 54.0471C58.5501 53.7166 58.2067 53.6591 57.7883 53.7123C57.1629 53.7909 56.5238 53.8695 55.9012 53.8171C55.5131 53.7843 55.1452 53.5092 54.7095 53.3163C54.4873 53.4954 54.2046 53.753 53.8922 53.9714C52.5216 54.9213 51.7779 54.7975 50.4938 53.7603C50.1905 53.5029 49.9138 53.2151 49.6679 52.9014C49.4457 52.6306 49.2271 52.5462 48.8946 52.6961C48.3546 52.9367 47.8833 53.3104 47.5239 53.7829C47.2909 54.0735 47.0357 54.3453 46.7607 54.5959C46.6619 54.6898 46.5039 54.7196 46.3734 54.7786L46.2983 54.7051Z" fill="#D9D9D6"/>
<path d="M61.6586 47.8586C61.5143 47.8586 61.4465 47.8753 61.3888 47.8586C60.8528 47.6817 60.4647 47.9379 60.1004 48.2866C59.7361 48.6352 59.3682 49.0276 58.9592 49.3413C57.7632 50.254 56.9848 49.9847 55.9735 49.176C55.7195 48.9737 55.6734 48.5057 55.5312 48.157L55.6337 48.0566C55.8609 48.1046 56.0961 48.1294 56.3125 48.2021C57.0396 48.4591 57.6889 48.3353 58.3323 47.911C58.7456 47.6435 59.189 47.4268 59.6532 47.2654C60.2937 47.0455 61.088 47.2916 61.6586 47.8586Z" fill="#D9D9D6"/>
<path d="M48.9274 48.8766C48.5992 48.7237 48.3106 48.5854 48.0185 48.4544C47.1939 48.0861 46.3759 48.2317 45.5572 48.4857C44.926 48.6815 44.289 48.7841 43.665 48.458C43.5101 48.3772 43.382 48.2525 43.2964 48.0992C43.3945 48.0992 43.5005 48.0745 43.59 48.1036C44.0639 48.255 44.4643 48.0948 44.8401 47.8226C45.3566 47.4478 45.8565 47.0482 46.3889 46.6981C47.2329 46.1441 47.9355 46.249 48.6583 46.9601C49.006 47.3029 49.2542 47.6319 49.0003 48.1596C48.9079 48.351 48.9505 48.6087 48.9274 48.8766Z" fill="#D9D9D6"/>
<path d="M43.9791 51.6587C44.0897 51.6394 44.2016 51.6287 44.3138 51.6267C45.0027 51.6631 45.437 51.3144 45.7306 50.7154C45.942 50.2837 46.1454 49.8376 46.4246 49.451C47.0276 48.6176 47.7952 48.483 48.6522 49.0223C48.7742 49.1087 48.8589 49.2389 48.8888 49.3863C48.945 49.7684 48.9551 50.1571 48.984 50.5436C48.9984 50.7314 48.9364 50.8791 48.7286 50.8347C47.5549 50.5975 46.5703 51.064 45.6094 51.6529C45.1319 51.944 44.6045 51.9309 44.075 51.8327C44.0361 51.8254 44.0029 51.7788 43.9697 51.7511L43.9791 51.6587Z" fill="#D9D9D6"/>
<path d="M61.0204 51.5984C60.3135 50.9826 59.6693 51.0648 59.0006 51.4957C58.4722 51.8384 57.8522 52.0092 57.2245 51.9849C56.5868 51.9688 56.1771 51.5532 55.7371 51.1842C55.7124 51.1587 55.6933 51.1284 55.6808 51.095C55.6684 51.0617 55.663 51.0261 55.6649 50.9906C55.7046 50.468 55.7537 49.9461 55.8027 49.4023C56.1295 49.6127 56.4519 49.8391 56.7881 50.0334C57.5614 50.4854 58.4321 50.4534 59.2761 50.4701C60.0227 50.4876 60.5558 50.8072 60.9764 51.3873C60.9995 51.4149 60.9952 51.4542 61.0204 51.5984Z" fill="#D9D9D6"/>
<path d="M52.2326 50.3697C52.1734 50.1717 52.102 49.9766 52.0573 49.7757C51.7486 48.3869 51.4607 48.1598 50.0468 48.2021C49.8955 48.2126 49.7436 48.1959 49.5981 48.1526C50.2669 48.007 50.9471 47.8949 51.6086 48.106C51.8113 48.17 52.0169 48.451 52.084 48.6745C52.2283 49.1563 52.2903 49.6651 52.3776 50.1644C52.3762 50.232 52.363 50.2987 52.3386 50.3617L52.2326 50.3697Z" fill="#D9D9D6"/>
<path d="M54.9758 48.1694C54.3526 48.3281 53.7971 48.4001 53.3023 48.6141C52.6689 48.8885 52.9041 49.5749 52.7742 50.1878C52.7021 50.0422 52.6466 49.9782 52.6451 49.9156C52.6386 49.5516 52.5881 49.1811 52.666 48.8383C52.7209 48.5981 52.9142 48.2844 53.1212 48.205C53.6976 47.9845 54.3093 48.0697 54.9758 48.1694Z" fill="#D9D9D6"/>
<path d="M53.135 52.4682L53.6399 52.2426L53.7005 52.3292C53.3983 52.7397 53.0845 53.1742 52.5463 53.2754C51.7413 53.421 51.3849 52.7659 50.9658 52.2266L51.5516 52.4209C51.931 53.0709 52.5802 53.0862 53.1487 52.458L53.135 52.4682Z" fill="#D9D9D6"/>
<path d="M50.766 49.563C50.6075 49.5295 50.452 49.4832 50.3008 49.4247C49.8982 49.2347 49.8917 49.0047 50.2683 48.7493C50.4668 48.6203 50.7053 48.5695 50.9385 48.6065C51.1717 48.6436 51.3833 48.7659 51.5329 48.9502C51.7132 49.1831 51.6692 49.3548 51.3886 49.4393C51.1916 49.4975 50.9868 49.5201 50.766 49.563ZM50.8086 48.814C50.7112 48.825 50.6138 48.8097 50.5496 48.849C50.4696 48.8985 50.4155 48.9946 50.3505 49.0673C50.5056 49.1445 50.6549 49.2624 50.818 49.2857C50.9442 49.3039 51.087 49.2034 51.2219 49.1561C51.1736 49.0571 51.1455 48.9378 51.0697 48.865C51.0084 48.814 50.8887 48.8279 50.8079 48.814H50.8086Z" fill="#D9D9D6"/>
<path d="M53.4666 48.8876C53.5452 49.3083 53.8338 49.3658 54.1505 49.2966C54.2572 49.2733 54.3344 49.1139 54.4253 49.0164C54.3301 48.9684 54.2385 48.8934 54.1368 48.8781C53.9688 48.8642 53.8001 48.862 53.6318 48.8716C54.0646 48.5877 54.4506 48.6081 54.6857 48.9516C54.7178 49.0185 54.7331 49.0924 54.7302 49.1666C54.7273 49.2409 54.7063 49.3133 54.6691 49.3774C54.3907 49.7217 53.5806 49.6919 53.2985 49.3563C53.1204 49.146 53.1463 49.0441 53.4666 48.8876Z" fill="#D9D9D6"/>
<path d="M53.1467 50.7158C53.159 50.8614 53.1958 50.9633 53.1698 51.0462C53.0818 51.3214 52.5732 51.6344 52.2811 51.6118C51.8699 51.5812 51.4645 51.277 51.3988 50.9363C51.3851 50.8635 51.4248 50.7857 51.4399 50.71C51.5049 50.7434 51.6145 50.7646 51.6275 50.8119C51.722 51.1671 51.9067 51.3898 52.3027 51.3847C52.6987 51.3796 52.874 51.1343 53.0039 50.8133C53.0125 50.7951 53.0428 50.7849 53.1467 50.7158Z" fill="#D9D9D6"/>
<path d="M51.5596 52.4181C51.6317 52.3606 51.7038 52.2587 51.7796 52.2521C52.1843 52.2194 52.5904 52.2004 52.9965 52.1982C53.1625 52.1982 53.3363 52.2456 53.1408 52.4676L53.1588 52.4552L51.5596 52.4181Z" fill="#D9D9D6"/>
<path d="M71.8594 62.7568C71.7238 62.7983 71.5896 62.8645 71.4511 62.8769C70.8654 62.9293 70.2746 62.9359 69.6939 63.0152C68.9451 63.1178 68.3232 63.4556 67.995 64.1907C67.8847 64.4375 67.6755 64.4091 67.4749 64.4091C65.8653 64.4135 64.2559 64.4159 62.6468 64.4164H61.6621V62.5967H71.8125C71.8298 62.6535 71.8443 62.7051 71.8594 62.7568Z" fill="#D9D9D6"/>
<path d="M33.0923 64.3915V62.5879H42.3201V64.3915H33.0923Z" fill="#D9D9D6"/>
</svg>
