<svg width="105" height="106" viewBox="0 0 105 106" fill="none" xmlns="http://www.w3.org/2000/svg">
<rect x="0.176758" y="0.652344" width="104.47" height="104.696" rx="52.235" fill="#313131"/>
<path d="M23.4408 25.8728C22.7865 25.8869 22.2302 26.1965 21.7485 26.5957C21.2819 26.9841 20.8906 27.4621 20.4617 27.9103C20.4466 27.8696 20.4181 27.8315 20.4232 27.7991C20.6544 26.3259 20.894 24.8544 21.121 23.3813C21.3179 22.1023 21.5165 22.3671 20.1995 21.7006C19.1464 21.167 18.0866 20.6466 17.031 20.1188C16.9747 20.0768 16.922 20.0301 16.8735 19.9793C19.2779 18.6091 21.7946 17.8339 24.6221 17.9551C24.4193 17.5658 24.2426 17.2438 24.0825 16.9127C23.6444 16.008 23.7081 15.1366 24.4378 14.4278C24.9999 13.8825 25.6106 13.3489 26.2951 12.9696C27.8341 12.1073 29.3982 11.2698 31.0126 10.5552C34.1366 9.17172 37.3712 8.11852 40.7047 7.30102C45.8905 6.02953 51.1341 5.78968 56.4229 6.09676C59.7489 6.29014 62.9776 7.06199 66.2098 7.84712C68.94 8.51108 71.4877 9.61823 74.0504 10.6831C75.6631 11.3528 77.187 12.2475 78.7118 13.1082C79.2982 13.4402 79.8176 13.9082 80.2834 14.3946C81.0416 15.1847 81.1162 16.1549 80.5825 17.1102C80.4418 17.3592 80.2658 17.5932 80.0313 17.9493C82.9852 17.8015 85.6443 18.536 88.2054 19.9519C88.0478 20.0652 87.8845 20.1705 87.7161 20.2673C86.5432 20.8483 85.3787 21.4334 84.1975 21.9919C83.8867 22.1388 83.7476 22.3082 83.8037 22.6559C84.076 24.3465 84.3357 26.0388 84.6005 27.731C84.6106 27.7989 84.6022 27.8683 84.5762 27.9319C83.7644 26.7202 82.713 25.9085 81.1555 25.8794C81.4203 26.1716 81.6674 26.4811 81.9523 26.7517C85.3412 29.9764 88.1563 33.7447 90.2788 37.8979C91.5095 40.2973 92.5182 42.7946 93.2203 45.4139C93.9516 48.1461 94.626 50.8833 94.8053 53.7076C95.1404 58.9363 94.6897 64.0778 93.0996 69.1214C92.2711 71.7482 91.2674 74.2871 89.9798 76.7047C88.9272 78.6852 87.7096 80.5751 86.3397 82.355C84.3567 84.9253 82.0979 87.2748 79.6032 89.3622C77.6779 90.9793 75.6002 92.4092 73.3986 93.6323C70.8853 95.0275 68.2882 96.2317 65.5353 97.065C63.2809 97.7456 61.0114 98.4021 58.6723 98.7249C57.5397 98.8809 56.3986 99.027 55.2584 99.0644C51.3896 99.1913 47.5158 99.2611 43.7265 98.2892C41.571 97.7364 39.4037 97.1853 37.3126 96.4367C34.8652 95.5501 32.5151 94.4192 30.2988 93.0613C25.9395 90.4272 22.0896 87.0436 18.9303 83.0696C17.2653 80.9899 15.8064 78.7561 14.5739 76.3993C12.2281 71.886 10.7034 67.0947 10.1337 62.0553C9.85807 59.6194 9.93011 57.1403 9.91838 54.6803C9.90414 51.656 10.5928 48.7362 11.3728 45.8306C12.0203 43.4179 12.9302 41.1173 14.0126 38.8648C15.2809 36.2516 16.8162 33.774 18.5943 31.4708C19.8907 29.7901 21.3092 28.2054 22.8385 26.7293C23.0806 26.4936 23.2934 26.2313 23.5204 25.9823L23.4408 25.8728ZM14.1784 57.0233H14.0679C14.1768 58.7197 14.1935 60.4261 14.413 62.11C14.9207 65.9992 16.0793 69.7074 17.7733 73.2571C18.8026 75.433 20.0439 77.5042 21.4796 79.441C24.1026 82.9584 27.2024 85.9976 30.9078 88.4045C32.1059 89.1805 33.3432 89.9034 34.594 90.6014C36.8108 91.8463 39.1959 92.6829 41.6179 93.4439C46.606 95.0109 51.7163 95.2698 56.8653 94.7511C60.9569 94.3411 64.8492 93.1045 68.594 91.4056C71.6634 90.0033 74.5226 88.1879 77.0907 86.0109C79.8889 83.6753 82.333 80.9525 84.3474 77.9264C85.5689 76.0804 86.6337 74.1371 87.531 72.1167C88.646 69.6103 89.4059 66.9769 89.9798 64.297C90.8586 60.1937 90.8661 56.058 90.3576 51.9149C90.0133 49.1163 89.2006 46.4198 88.2514 43.7814C87.2888 41.1065 85.9752 38.6167 84.4002 36.2472C82.7127 33.6878 80.7107 31.346 78.4403 29.2756C77.2055 28.1568 75.8927 27.1227 74.6075 26.0595C74.5086 25.9955 74.3891 25.9703 74.2724 25.989C73.8175 26.0554 73.3685 26.1824 72.9127 26.2164C72.0272 26.282 71.1291 26.3932 70.252 26.316C69.0138 26.2064 68.3075 25.2711 68.4014 24.0428C68.4399 23.7279 68.51 23.4176 68.6108 23.1165C68.6837 22.8675 68.6527 22.7016 68.3779 22.5995C67.2377 22.1629 66.1109 21.6865 64.964 21.2716C61.0499 19.8424 57.0161 19.0996 52.8306 19.1544C50.3173 19.1867 47.7897 19.1436 45.3317 19.7278C43.0815 20.2557 40.8664 20.9288 38.6488 21.5795C37.9987 21.7704 37.3922 22.1007 36.7571 22.3513C36.4271 22.4816 36.3106 22.6542 36.453 23.0153C36.5573 23.3012 36.6249 23.599 36.6541 23.9017C36.8041 25.1117 36.283 25.9085 35.1 26.2396C34.7155 26.3475 34.2975 26.4413 33.9071 26.4056C32.8263 26.3069 31.7532 26.1251 30.6741 26.0039C30.4632 25.9808 30.2509 26.0336 30.0759 26.1525C28.9416 27.043 27.7947 27.9277 26.7106 28.8814C24.4324 30.8827 22.4231 33.1658 20.7323 35.6745C18.8968 38.3967 17.3812 41.2667 16.2963 44.374C14.8662 48.4781 13.9715 52.6536 14.1784 57.0233ZM75.127 25.8421C76.0158 26.5841 76.8821 27.2381 77.6679 27.9759C79 29.2274 80.327 30.4906 81.5744 31.8244C83.477 33.8602 84.9841 36.1783 86.3723 38.5868C87.8686 41.1895 88.8613 43.9765 89.7452 46.8149C90.6667 49.7596 90.934 52.8022 91.0563 55.8613C91.1694 58.9467 90.9183 62.0345 90.3082 65.0622C90.0485 66.3843 89.5542 67.6616 89.1822 68.9629C88.4282 71.5847 87.2336 74.0256 85.863 76.3661C84.5426 78.6141 82.9912 80.7209 81.2335 82.6529C79.6082 84.4473 77.8438 86.1039 75.8969 87.543C74.3369 88.6966 72.7494 89.8187 70.9808 90.6752C69.4804 91.4014 68.0403 92.2322 66.446 92.7792C63.8079 93.6846 61.1856 94.5835 58.3934 94.9603C53.8837 95.5686 49.3966 95.4765 44.9179 94.7727C42.361 94.371 39.9373 93.4605 37.5455 92.5318C35.9051 91.8994 34.3251 91.0695 32.8012 90.1905C29.0306 88.0128 25.6674 85.2071 22.8594 81.8969C21.4528 80.2436 20.1258 78.5239 19.0651 76.6483C17.9787 74.7532 17.0179 72.7901 16.1891 70.7714C14.6468 66.9536 13.9556 62.9973 13.6816 58.938C13.468 55.7725 13.8492 52.6378 14.3167 49.518C14.7113 46.878 15.7409 44.4056 16.7152 41.9439C17.3393 40.3728 18.1939 38.8789 19.061 37.4166C20.3321 35.2856 21.8174 33.2874 23.4944 31.4525C25.2339 29.5256 27.159 27.7713 29.2424 26.2147C29.3772 26.1143 29.4937 25.9931 29.6814 25.8305C29.456 25.7757 29.3253 25.7226 29.1921 25.7134C28.1214 25.6421 27.0505 25.5757 25.9793 25.5143C25.7479 25.4995 25.5159 25.5306 25.2968 25.6057C25.0778 25.6808 24.876 25.7984 24.7033 25.9516C24.0867 26.4903 23.4911 27.0538 22.9005 27.6198C19.9365 30.4595 17.4481 33.7489 15.5289 37.3643C13.7644 40.6618 12.4376 44.1714 11.5814 47.8059C9.89577 54.9434 10.2686 61.9806 12.2516 68.9613C13.2569 72.4952 14.842 75.8175 16.8124 78.9306C18.1084 80.9789 19.5536 82.9318 21.2115 84.7212C22.6575 86.2823 24.1697 87.7737 25.8326 89.1058C27.6338 90.5482 29.4996 91.9069 31.5546 92.9825C32.8825 93.678 34.2229 94.3536 35.5759 94.9951C38.7737 96.5073 42.175 97.3538 45.6501 97.9365C50.99 98.8311 56.2839 98.6004 61.5794 97.4692C64.4714 96.8534 67.2092 95.8583 69.8934 94.6988C71.3838 94.0556 72.8139 93.2489 74.2029 92.4048C76.4656 91.0315 78.5909 89.4474 80.5498 87.6741C85.021 83.6265 88.4952 78.8767 90.8301 73.3309C91.6511 71.3789 92.411 69.4144 92.8776 67.3362C93.4942 64.5941 94.0019 61.8395 94.1854 59.0334C94.4962 54.2795 93.7355 49.6434 92.4579 45.0994C91.414 41.3821 89.7393 37.9129 87.6265 34.6644C85.6 31.5605 83.1731 28.7319 80.4074 26.2504C80.0522 25.9301 79.5696 25.6338 79.1097 25.5641C77.7877 25.3674 76.4733 25.6105 75.1244 25.8421H75.127ZM52.8323 6.65781C48.2899 6.64702 42.6751 7.30849 39.0928 8.3426C37.0621 8.92855 35.0548 9.61658 33.086 10.3834C30.7931 11.2888 28.5831 12.3879 26.4802 13.6684C26.0006 13.9489 25.5551 14.2831 25.1524 14.6643C24.3984 15.4022 24.3322 16.1582 24.9588 17.0056C25.9474 18.3402 26.9653 19.6548 28.0008 20.9545C28.914 22.1007 28.5512 22.0144 29.8623 21.2923C31.2865 20.5088 32.6496 19.6324 34.1425 18.9568C36.3089 17.9714 38.5457 17.1453 40.8346 16.4852C45.7618 15.0521 50.915 14.5385 56.0317 14.9706C59.5587 15.2635 62.9684 16.101 66.3069 17.1973C68.8337 18.0275 71.263 19.1246 73.5528 20.4698C74.2356 20.8707 74.9234 21.2649 75.5969 21.6807C75.8667 21.8467 76.0493 21.8666 76.2588 21.5844C76.8109 20.8375 77.3873 20.1113 77.9561 19.3776C78.566 18.5908 79.2128 17.8256 79.7833 17.0139C80.4208 16.1142 80.2818 15.2328 79.4482 14.5033C79.2672 14.3315 79.0681 14.1796 78.8542 14.0502C77.7877 13.4551 76.7053 12.8882 75.6439 12.2857C73.7865 11.2325 71.8102 10.4598 69.8096 9.71866C67.3382 8.8113 64.7922 8.11709 62.2002 7.64379C58.9371 7.03626 55.6639 6.64619 52.8323 6.65781ZM70.8501 19.854C64.3667 16.7724 57.6637 15.349 50.6264 15.6387C44.8902 15.8761 39.3953 17.1874 34.1173 19.7428C34.8127 20.5121 35.4762 21.2516 36.1531 21.9795C36.2059 22.0368 36.3693 22.0442 36.4564 22.011C37.1568 21.7488 37.8454 21.4533 38.5508 21.2002C39.6784 20.7946 40.8103 20.4031 41.9463 20.0258C44.1245 19.3013 46.3923 19.0954 48.6526 18.8564C51.4818 18.5568 54.3118 18.6307 57.135 18.9643C59.0049 19.1851 60.879 19.3793 62.6786 19.9793C64.6817 20.6433 66.7174 21.2242 68.615 22.172C68.6613 22.189 68.7098 22.1996 68.7591 22.2036L70.8501 19.854ZM86.6454 20.0548L86.6588 19.8781C86.2726 19.7079 85.9049 19.4838 85.4977 19.3801C83.7384 18.9153 81.9531 18.6473 80.1243 18.6771C79.7305 18.6838 79.4632 18.8058 79.2454 19.1129C78.437 20.254 77.6311 21.3969 76.8042 22.5248C76.4121 23.0601 75.9957 23.5805 75.5542 24.076C74.9904 24.7109 74.2833 24.8503 73.5109 24.4951C73.1758 24.339 72.8658 24.1166 72.5542 23.91C72.0691 23.5888 71.6175 23.2095 71.1065 22.9381C70.5268 22.6285 69.9965 22.8808 69.534 23.2701C69.0917 23.6402 69.0598 24.1233 69.1989 24.6337C69.4209 25.4429 69.9227 25.8512 70.8845 25.8064C71.9233 25.7574 72.989 25.696 73.9842 25.4263C75.7704 24.9399 77.5665 24.7051 79.4013 24.8528C80.3094 24.9258 81.2142 25.12 82.1022 25.3366C82.6242 25.4645 83.1075 25.7442 83.6688 25.9799C83.451 24.7134 83.2567 23.5008 83.0246 22.2957C82.971 22.016 83.0397 21.8957 83.2759 21.7828C84.1053 21.3889 84.9303 20.9855 85.7507 20.5727C86.059 20.4126 86.3464 20.2266 86.6454 20.0548ZM18.3815 19.8158V19.9727C18.5926 20.1179 18.7912 20.2881 19.0182 20.4034C19.9364 20.8682 20.8596 21.3227 21.7879 21.767C22.0711 21.9023 22.1632 22.0492 22.0702 22.3804C21.9169 22.9232 21.8373 23.4875 21.7351 24.0452C21.6212 24.6777 21.5181 25.3126 21.4 26.0031C21.4892 25.9763 21.5765 25.9439 21.6614 25.906C23.8212 24.676 26.1703 24.6611 28.5378 24.9192C29.5565 25.0321 30.5484 25.384 31.5638 25.53C32.5691 25.6743 33.5833 25.7487 34.5991 25.7524C35.2483 25.7524 35.7166 25.2661 35.8767 24.666C36.0526 23.988 35.8993 23.4668 35.379 23.124C34.8236 22.758 34.2405 22.6783 33.6616 23.0842C33.1271 23.4593 32.5968 23.8419 32.0698 24.2253C31.165 24.8835 30.2502 24.8345 29.482 24.0452C29.1307 23.6711 28.8018 23.277 28.4967 22.8651C27.5422 21.6235 26.595 20.3766 25.655 19.1245C25.4188 18.8099 25.1356 18.6863 24.7335 18.6796C23.1522 18.6606 21.5752 18.847 20.0428 19.234C19.4757 19.3735 18.9336 19.6183 18.3799 19.8158H18.3815Z" fill="#D9D9D6"/>
<path d="M28.7556 47.4836C28.5754 47.3691 28.5503 46.9857 28.1993 47.1649C28.1607 46.9525 28.02 46.6836 28.1021 46.5383C28.2956 46.1972 28.5444 45.8395 28.8645 45.6254C29.3923 45.2718 29.6746 44.7514 30.0633 44.2975C30.359 43.9522 30.8458 43.7522 31.1524 43.3679C31.1767 43.3372 31.3568 43.4011 31.4448 43.4509C31.7841 43.6509 32.1368 43.5903 32.3345 43.2774C32.435 43.1181 32.4861 42.8865 32.6277 42.8069C32.74 42.743 32.9561 42.86 33.2024 42.9131C32.8673 42.4716 32.9578 42.1993 33.411 42.0126C33.5702 41.947 33.7051 41.801 33.8249 41.6682C34.0427 41.4267 34.2538 41.2316 34.6141 41.4192C34.6794 41.4524 34.7959 41.3702 34.888 41.3719C35.0287 41.3765 35.1689 41.3926 35.3069 41.42C35.4108 41.4383 35.5239 41.518 35.6119 41.4939C36.1447 41.3486 36.5493 41.5653 36.9573 41.8723C37.1123 41.9885 37.3661 42.0251 37.5714 42.0159C38.1101 41.9927 38.6471 41.9246 39.1841 41.8723C39.4195 41.8499 39.6616 41.8516 39.887 41.7893C40.2967 41.6798 40.6845 41.4574 41.1327 41.6034C41.146 41.6085 41.1606 41.6085 41.1738 41.6034C41.9437 41.0349 42.7496 41.8599 43.5321 41.5487C43.6159 41.5163 43.7499 41.5843 43.8496 41.6317C45.1163 42.2076 46.4467 42.0732 47.7603 41.9304C48.1063 41.8931 48.4305 41.6748 48.7657 41.547C48.8813 41.503 49.0296 41.4233 49.1217 41.464C49.2848 41.5394 49.4649 41.5714 49.6443 41.5569C49.8237 41.5423 49.9961 41.4817 50.1446 41.381C50.1684 41.3668 50.1951 41.3583 50.2227 41.3562C50.2504 41.354 50.2781 41.3582 50.3038 41.3686C50.819 41.7835 51.4993 41.415 52.0455 41.7221C52.1192 41.7644 52.3463 41.6458 52.4317 41.5429C52.7861 41.1212 52.8699 41.1229 53.3859 41.3088C53.7822 41.4524 54.2153 41.5121 54.6384 41.5653C54.9559 41.6104 55.2784 41.6081 55.5951 41.5586C55.8666 41.5097 56.1137 41.337 56.3818 41.2491C56.51 41.2067 56.732 41.1735 56.7898 41.2399C57.0487 41.5412 57.3762 41.5346 57.7063 41.4889C58.2685 41.4159 58.3581 41.5105 58.1822 42.0383C58.1762 42.0507 58.172 42.0638 58.1696 42.0773C58.1696 42.2674 57.8789 42.5139 58.2333 42.6342C58.5684 42.7479 58.6161 42.4865 58.6672 42.2392C58.6899 42.128 58.7753 42.03 58.8289 41.9321C58.8976 41.9562 58.9445 41.9628 58.9462 41.9744C59.0367 42.6766 59.6231 42.5139 60.0563 42.5803C60.4894 42.6467 60.9125 42.7081 61.2543 43.0675C61.5098 43.3355 61.8717 43.4243 62.2286 43.1505C62.4506 42.9845 62.6793 42.9695 62.9105 43.1679C63.0463 43.2841 63.2255 43.3488 63.3629 43.4642C63.6092 43.6717 63.7994 43.7074 64.0239 43.4136C64.0943 43.3223 64.3255 43.3447 64.4839 43.3306C64.597 43.3214 64.7838 43.3853 64.8139 43.338C65.0016 43.0467 65.2253 43.1447 65.4691 43.2243C65.9148 43.3687 65.9994 43.2924 65.9248 42.8392C65.8411 42.3521 65.888 42.294 66.3789 42.396C66.8698 42.4981 67.3591 42.645 67.85 42.7654C67.9179 42.7773 67.9874 42.7773 68.0553 42.7654C68.7255 42.6824 68.9986 42.904 69.0531 43.582C69.0606 43.6758 69.074 43.7688 69.0958 43.9522C69.4435 43.8534 69.7903 43.8236 70.0559 43.6625C70.391 43.4575 70.6029 43.5696 70.8099 43.8003C71.0813 44.1057 71.3125 44.1323 71.6543 43.8551C72.0263 43.5546 72.5047 43.6285 72.9411 43.7455C73.2344 43.8285 73.386 43.7372 73.6172 43.5372C73.9615 43.2393 74.419 43.0683 74.8337 42.855C74.867 42.8453 74.9022 42.8433 74.9365 42.8492C74.9708 42.8551 75.0033 42.8687 75.0314 42.889C75.3179 43.1206 75.596 43.3621 75.8809 43.6044C75.3263 44.0825 75.3263 44.0825 75.741 44.7083C76.1146 45.2726 76.0937 45.6162 75.5734 46.0528C74.713 46.7773 73.82 47.4637 72.9604 48.1874C72.7916 48.3346 72.6774 48.5336 72.6362 48.7526C72.5876 49.0846 72.4887 49.2937 72.1545 49.4423C70.9355 49.9834 69.73 50.5569 68.5261 51.1304C68.379 51.1983 68.2584 51.3119 68.1826 51.4541C68.0226 51.8151 67.907 52.1961 67.7637 52.6003L68.5177 52.787L68.5529 52.899C68.4314 52.982 68.32 53.124 68.186 53.148C67.6883 53.2493 67.463 53.5945 67.256 54.0078C66.8983 54.7224 66.4442 55.3922 66.1351 56.125C65.6651 57.238 65.2546 58.3792 64.8785 59.5278C64.7285 59.9868 64.9019 60.4565 65.2136 60.8483C65.2814 60.9313 65.3887 61.0217 65.3995 61.1172C65.4875 61.8774 66.0245 62.2119 66.6562 62.4642C66.7224 62.4867 66.7852 62.518 66.843 62.5571C67.0215 62.6933 67.1949 62.8368 67.37 62.9779C67.2125 63.1672 67.0893 63.4535 66.8891 63.5249C66.4308 63.6909 66.3194 64.1116 66.0706 64.4212C65.6182 64.9839 65.2379 65.6031 64.7896 66.1683C64.6137 66.3898 64.4755 66.5641 64.5568 66.8654C64.5678 66.9344 64.563 67.005 64.5425 67.0718C64.522 67.1387 64.4865 67.2001 64.4386 67.2513C64.2216 67.4422 64.2099 67.6456 64.2929 67.8862C64.3197 67.9643 64.3473 68.0431 64.3699 68.122C64.6464 69.1021 64.5375 69.254 63.5414 69.3146C63.4459 69.3204 63.3512 69.3287 63.2281 69.3378C63.2599 69.7022 63.2842 70.0425 63.321 70.3811C63.3529 70.6699 63.2482 70.8384 62.939 70.8417C62.5626 70.8596 62.1855 70.8267 61.8181 70.7438C62.1038 70.7438 62.3903 70.7562 62.6751 70.7388C62.8754 70.7272 63.146 70.8218 63.1778 70.4641C63.2205 69.9495 63.0898 69.6773 62.743 69.6125C62.2403 69.5188 62.0225 69.63 61.7377 70.0549C61.6262 70.2209 61.4528 70.3495 61.3045 70.4923C61.1688 70.6226 61.0289 70.7479 60.8672 70.8973L61.2316 71.0857C60.7726 71.1023 60.6326 71.4127 60.5179 71.7654C60.3679 72.2252 60.2096 72.6833 60.0387 73.1365C59.8778 73.5631 59.722 73.9947 59.2487 74.2088C59.1548 74.2503 59.1096 74.4013 59.0467 74.5051C58.8465 74.8371 58.6647 75.179 58.4427 75.4952C58.3422 75.6396 58.1646 75.7301 58.0029 75.8604L59.0744 74.2005C58.7443 73.7697 58.4134 73.7025 57.9451 73.9698C57.6577 74.1358 57.4114 74.3681 57.1316 74.5507C57.0319 74.6155 56.8501 74.6794 56.7722 74.6337C56.0509 74.208 55.3715 74.5839 54.6778 74.7076C54.43 74.7481 54.1803 74.7758 53.9297 74.7906C53.1003 74.8512 52.2709 74.8968 51.4432 74.9682C51.1836 75.003 50.9272 75.0585 50.6766 75.1342C50.5702 75.1607 50.4378 75.189 50.375 75.2637C50.0525 75.6488 49.7467 76.048 49.4409 76.4463C49.404 76.4945 49.4015 76.57 49.368 76.6837C49.5155 76.6704 49.6193 76.6679 49.7241 76.6505C50.5308 76.516 51.3376 76.3758 52.1452 76.2463C52.2181 76.2347 52.3027 76.3052 52.379 76.2994C52.6882 76.2822 52.996 76.2454 53.3005 76.189C53.8032 76.0812 54.2974 75.9359 54.7976 75.8139C54.8314 75.8061 54.8666 75.8053 54.9007 75.8115C54.9349 75.8178 54.9674 75.8311 54.9961 75.8504C55.4502 76.2579 55.8079 76.0538 56.1816 75.711C56.4036 75.506 56.6842 75.3608 56.9356 75.189L56.9992 75.2819C56.6005 75.589 56.2134 75.9135 55.7954 76.1949C55.7232 76.2299 55.6435 76.247 55.5632 76.2445C55.4829 76.242 55.4044 76.2201 55.3346 76.1807C54.9207 75.8488 54.4968 75.9791 54.0687 76.0978C53.7747 76.1807 53.4982 76.3169 53.21 76.4181C53.0818 76.4629 52.9386 76.5202 52.8112 76.5011C51.7372 76.3478 50.6414 76.4686 49.6277 76.8522C49.5736 76.8699 49.5171 76.8794 49.4602 76.8804C49.3915 76.8845 49.3219 76.8804 49.2532 76.8804C49.2181 76.5119 48.9592 76.4131 48.6785 76.4978C48.02 76.6978 47.4219 77.0306 47.0323 77.6116C46.9611 77.7178 47.0742 77.9436 47.0935 78.0639L45.9114 79.1478C45.2864 78.8847 44.6698 78.6332 44.0616 78.3627C43.9098 78.2991 43.7783 78.1958 43.6812 78.0639C43.4383 77.6946 43.2406 77.2954 42.9993 76.9244C42.8317 76.6688 42.6064 76.4521 42.438 76.1982C42.3601 76.0803 42.2981 75.8994 42.3299 75.7732C42.4614 75.262 42.3668 75.0263 41.9035 74.7823C41.6823 74.6669 41.493 74.4885 41.2668 74.3881C40.6494 74.1125 40.0369 73.798 39.3885 73.6295C39.0207 73.534 38.5851 73.6959 38.0883 73.7515C37.9651 72.9489 37.8319 72.0767 37.6987 71.2077C36.9598 71.3646 36.4211 73.2676 36.7537 74.6819C36.3968 74.1731 36.3089 73.2942 36.5594 72.7464C36.7152 72.407 36.8677 72.0659 37.0268 71.7281C37.2153 71.3297 37.4223 70.9662 37.9668 70.9878C38.0665 70.9878 38.2743 70.801 38.2609 70.7338C38.1252 70.0698 38.7007 69.9263 39.0735 69.7171C39.629 69.4051 39.7303 69.3021 39.5636 68.5809L39.1573 68.8299C38.8423 68.4075 38.4963 67.9999 38.224 67.546C38.1402 67.4099 38.2307 67.131 38.3078 66.9517C38.4251 66.6787 38.5876 66.4297 38.3137 66.1276C38.8121 65.9915 39.0333 65.6678 39.0559 65.1665C39.066 64.9574 39.2159 64.7582 39.2729 64.5465C39.3366 64.3125 39.2788 64.1656 38.9855 64.1174C38.4594 64.0345 37.9802 63.5257 37.9551 63.0103C37.9233 62.3289 37.3402 62.1032 36.9422 61.7239C36.9054 61.689 36.7428 61.7239 36.6909 61.7737C36.2955 62.1795 35.9009 62.6028 35.5029 63.0261C35.3111 63.2302 35.2901 63.417 35.6881 63.5713C35.193 63.5049 35.0815 63.3672 35.3044 63.0792C35.6756 62.5836 36.0991 62.1287 36.5677 61.7222C36.964 61.3902 37.2874 61.0508 37.4357 60.5495C37.5006 60.3379 37.599 60.1379 37.7272 59.9569C38.1076 59.415 38.1277 58.8249 38.0238 58.2074C37.9685 57.8804 37.9501 57.5434 37.8738 57.2239C37.7842 56.8446 37.6493 56.4769 37.5153 56.0421C37.599 56.096 37.7121 56.125 37.7364 56.1948C38.1112 57.1796 38.2667 58.2331 38.1922 59.283C38.1796 59.454 38.0841 59.6249 38.0062 59.7851C37.7415 60.3287 37.4675 60.8641 37.1425 61.5172C37.7666 61.4815 38.2977 61.4608 38.8264 61.4085C38.8917 61.4019 38.9613 61.2325 38.9939 61.128C39.0777 60.8392 39.1807 60.547 39.1967 60.2524C39.2126 59.9577 39.2025 59.6191 39.0844 59.3519C38.9328 59.0075 38.9671 58.7568 39.1246 58.4223C39.2846 58.0632 39.3657 57.6745 39.3625 57.282C39.3504 56.6607 39.3006 56.0407 39.2134 55.4254C39.1849 55.1839 39.0777 54.9515 39.004 54.7067C39.1874 54.3929 39.417 54.0427 39.6047 53.6684C39.7814 53.3173 39.8275 52.9538 39.4899 52.6467L39.4807 52.6584C39.7932 52.6285 39.8401 52.8443 39.8753 53.0733C39.9088 53.2908 40.0059 53.5016 40.2481 53.3132C40.7356 52.9256 41.2081 52.5023 41.2383 51.8135C41.2584 51.3553 41.018 51.1304 40.5488 51.1578C40.3586 51.1686 40.171 51.2093 39.9356 51.2408C39.9356 50.8789 39.9356 50.5536 39.9356 50.2274C39.9356 49.9934 39.8149 49.9428 39.5837 49.9494C38.9973 49.9668 38.4108 49.9369 37.8294 49.9494C37.7707 49.9606 37.7153 49.9848 37.6672 50.0201C37.6192 50.0555 37.5799 50.1011 37.5521 50.1536C37.3762 50.508 37.0402 50.6225 36.6306 50.5569C36.1782 50.4839 35.709 50.503 35.2483 50.4839C35.2072 50.4839 35.1561 50.5104 35.1276 50.4947C34.7272 50.2689 34.5093 50.4739 34.3736 50.8267C33.9103 50.6432 33.8433 50.5154 34.1282 50.1702C34.4859 49.7378 34.0561 49.5792 33.8768 49.3676C33.6682 49.1244 33.5308 49.4207 33.3624 49.5062C33.2284 49.5751 33.0516 49.6573 32.9235 49.6241C32.611 49.5411 32.4091 49.673 32.234 49.8822C31.996 50.166 31.7732 50.4631 31.5436 50.7536L31.3451 50.6291C31.3242 50.5063 31.3091 50.3801 31.2789 50.2623C31.2488 50.1444 31.2035 50.0224 31.1616 49.8921C30.9002 50.1361 30.6766 50.3445 30.4537 50.5561L30.3859 50.498L30.5425 50.21L30.4788 50.1478L30.1555 50.4042C30.137 50.2947 30.0918 50.2034 30.1153 50.1353C30.1923 49.9046 30.3297 49.6705 29.9108 49.644C29.8798 49.644 29.8271 49.5552 29.8329 49.5195C29.8391 49.4878 29.8521 49.4579 29.8711 49.4317C29.89 49.4055 29.9144 49.3836 29.9427 49.3676C30.0449 49.3369 30.2091 49.2913 30.2593 49.341C30.4713 49.5494 30.571 49.3294 30.7285 49.2232C30.8382 49.3958 30.9371 49.5552 31.0946 49.8042C31.4297 49.4431 31.7573 49.1153 32.053 48.7634C32.1301 48.6721 32.1158 48.5045 32.1435 48.3717C32.022 48.4123 31.9005 48.4489 31.7816 48.4945C31.7207 48.5182 31.6614 48.5457 31.604 48.5767C31.573 48.5443 31.5411 48.5128 31.5093 48.4804L32.1292 47.8944L32.0857 47.8239L31.3141 48.0945C31.3979 47.7235 31.475 47.4048 31.5353 47.0819C31.547 46.9585 31.547 46.8343 31.5353 46.7109C31.392 46.7259 31.2362 46.7109 31.1088 46.7665C31.0251 46.8031 30.9874 46.9433 30.9103 47.0197C30.8162 47.1019 30.7172 47.1784 30.6137 47.2487C30.6012 47.1143 30.5484 46.9682 30.5852 46.8495C30.6573 46.6172 30.7796 46.4014 30.9346 46.0603L30.106 46.2603C30.106 46.1291 30.1328 46.0171 30.0993 45.9283C30.0566 45.8129 29.977 45.637 29.8924 45.6237C29.5087 45.5664 29.099 45.505 28.8033 45.8495C28.552 46.1433 28.3233 46.457 28.0493 46.8072C28.7648 46.9458 28.7974 46.9832 28.7472 47.4919L28.7556 47.4836Z" fill="#D9D9D6"/>
<path d="M20.2782 70.2297C20 69.3325 19.6917 68.4486 19.4597 67.5448C19.3323 67.0468 19.6138 66.6128 20.0076 66.319C20.7834 65.738 21.6429 65.4816 22.5921 65.8799C22.8661 65.9953 23.073 65.987 23.3193 65.8077C24.013 65.3015 24.7251 64.8217 25.4682 64.3047C25.5953 64.657 25.7043 65.0154 25.7949 65.3786C25.8125 65.4616 25.6416 65.6152 25.5268 65.6882C24.9404 66.0609 24.3439 66.4169 23.7507 66.7788C23.3386 67.0277 23.4718 67.0078 23.6971 67.6975C23.801 68.0129 24.0322 67.8569 24.214 67.7921C24.8449 67.5705 25.4749 67.3473 26.1007 67.1149C26.326 67.0319 26.4601 67.0319 26.5196 67.3182C26.564 67.5406 26.6821 67.749 26.7776 67.9888L20.2782 70.2297ZM22.8074 68.1631C22.675 67.8013 22.5837 67.4992 22.4539 67.2103C22.3031 66.8784 22.0409 66.7024 21.6521 66.7563C21.1134 66.831 20.7599 67.0667 20.7549 67.4568C20.7499 67.8079 20.8387 68.1639 20.9224 68.5067C20.94 68.5781 21.1537 68.6669 21.2483 68.6412C21.7602 68.5075 22.257 68.3391 22.8074 68.1631Z" fill="#D9D9D6"/>
<path d="M53.4405 25.2108C53.4053 25.5635 53.3617 25.9154 53.3349 26.2682C53.2645 27.2185 53.1858 28.1688 53.1431 29.1207C53.1305 29.4178 53.0316 29.5008 52.7493 29.4958C52.446 29.4909 52.3304 29.3863 52.3497 29.0742C52.4561 27.1446 52.5474 25.2133 52.6429 23.2828C52.6505 23.121 52.6429 22.9583 52.6429 22.7633C53.0618 22.7633 53.4304 22.7417 53.7982 22.7774C53.9013 22.7882 54.0353 22.9517 54.0747 23.0712C54.2891 23.726 54.4626 24.3991 54.6829 25.0482C54.8563 25.5652 55.0775 26.0657 55.2777 26.5736L55.4453 26.5462C55.5391 25.3503 55.6338 24.1551 55.731 22.9185C55.953 22.9285 56.1884 22.9135 56.4112 22.9608C56.4647 22.9857 56.511 23.0235 56.5459 23.0708C56.5807 23.1181 56.603 23.1733 56.6106 23.2314C56.4682 25.298 56.3082 27.3637 56.1624 29.4295C56.1456 29.6627 56.0661 29.7399 55.8273 29.7266C55.209 29.6934 55.1571 29.6519 54.9669 29.0925C54.5759 27.9433 54.1786 26.7966 53.7748 25.6524C53.7068 25.4928 53.6279 25.3381 53.5385 25.1892L53.4405 25.2108Z" fill="#D9D9D6"/>
<path d="M75.5735 76.7598L73.7304 74.8509C73.9206 74.621 74.1342 74.3612 74.3596 74.0898L79.4163 78.7816C78.6364 79.4712 77.8916 80.151 77.1183 80.7975C76.9793 80.9137 76.7221 80.9485 76.5269 80.9328C75.4068 80.8407 74.4559 79.8049 74.4735 78.6919C74.4785 78.4081 74.3897 78.2828 74.1334 78.1657C73.3291 77.7931 72.5416 77.3856 71.6846 76.9615L72.4059 76.1996C73.1398 76.5208 73.8401 76.8187 74.5321 77.1324C74.9837 77.3341 75.2953 77.1806 75.5735 76.7598ZM76.5428 79.8364C76.9374 79.4878 77.2876 79.2397 77.5406 78.916C77.6084 78.8289 77.3973 78.501 77.2834 78.3068C77.1866 78.1559 77.0725 78.0166 76.9432 77.8918C76.4925 77.4113 76.4406 77.4121 76.0016 77.8661C75.9206 77.9415 75.844 78.0213 75.772 78.1051C75.5777 78.3591 75.3071 78.6562 75.5333 78.9542C75.7779 79.2745 76.1499 79.5028 76.5428 79.8364Z" fill="#D9D9D6"/>
<path d="M79.8593 52.2949C79.8291 52.2442 79.8057 52.2218 79.8023 52.1977C79.6926 51.2972 79.5845 51.4508 80.4214 51.3678C82.226 51.1896 84.0308 51.0126 85.8359 50.8366C86.481 50.7736 86.481 50.7711 86.5899 51.4002C86.6988 52.0293 86.6963 52.0235 86.1199 52.3222C85.221 52.7903 84.3271 53.2684 83.434 53.7473C83.2672 53.8338 83.1271 53.9634 83.0285 54.1224C83.4349 54.09 83.842 54.0602 84.2475 54.0245C84.9562 53.9614 85.6717 53.9216 86.3721 53.8203C86.7616 53.7647 86.935 53.8394 86.8798 54.2494C86.8723 54.3776 86.8723 54.5062 86.8798 54.6345C86.6133 54.6577 86.3427 54.6843 86.0713 54.705C84.2215 54.8445 82.3715 54.9828 80.5211 55.12C80.3418 55.1333 80.1332 55.1972 80.1064 54.925C80.0821 54.676 79.8383 54.4062 80.2271 54.2046C81.3379 53.6286 82.4396 53.0352 83.5429 52.4442C83.7691 52.3231 83.9853 52.1811 84.2064 52.0484L84.1729 51.9205L79.8593 52.2949Z" fill="#D9D9D6"/>
<path d="M77.5136 33.6445C77.9065 34.091 78.3606 34.5766 78.7794 35.0911C79.1983 35.6057 79.3089 36.2099 79.0308 36.8066C78.3287 38.3055 77.2455 39.387 75.5574 39.7787C74.356 40.0592 73.5509 39.587 72.828 38.6342C72.7811 38.5655 72.738 38.4943 72.6989 38.4209C72.3236 37.7951 72.337 37.7462 72.9101 37.2947C74.2186 36.2644 75.525 35.2317 76.8291 34.1964C77.0461 34.0271 77.2622 33.852 77.5136 33.6445ZM73.9045 37.898C74.5052 38.8467 74.9978 38.9836 75.9679 38.518C76.587 38.2217 77.057 37.776 77.4516 37.2241C78.038 36.4141 78.038 35.9435 77.3452 35.1318L73.9045 37.898Z" fill="#D9D9D6"/>
<path d="M33.3944 77.2539C32.9915 77.6797 32.6019 78.1312 32.1721 78.5395C31.0294 79.6267 29.875 80.7018 28.7088 81.7647C28.6443 81.8236 28.4315 81.8161 28.3544 81.7564C27.701 81.241 27.1816 80.6003 26.89 79.8309C26.7786 79.5379 26.8498 79.1487 26.9202 78.82C27.2553 77.2356 29.0883 75.5957 30.7019 75.4172C31.1735 75.365 31.6335 75.467 31.982 75.7982C32.4603 76.2538 32.9035 76.7452 33.3944 77.2539ZM31.8865 77.3037C31.3453 76.7634 30.8736 76.5783 30.3936 76.7227C29.3422 77.0265 28.5974 77.6863 28.0855 78.6358C27.8166 79.1337 27.8727 79.5827 28.2204 80.0201C28.5262 80.4044 28.6058 80.4235 28.9744 80.084C29.868 79.2541 30.7616 78.4192 31.6552 77.5792C31.7364 77.4919 31.8122 77.3999 31.8823 77.3037H31.8865Z" fill="#D9D9D6"/>
<path d="M27.9572 38.5127L24.8951 36.4162C25.0166 36.2104 25.1389 36.0012 25.2956 35.7373L30.8977 39.5385C30.7686 39.7588 30.6248 39.9704 30.4671 40.1717C30.4026 40.2448 30.2292 40.2771 30.122 40.2547C28.774 39.9709 27.4294 39.6738 26.0831 39.3816C25.9446 39.3624 25.8035 39.3778 25.6726 39.4264C26.8287 40.2954 27.891 41.283 29.2875 41.8814L28.779 42.684C27.6413 41.9013 26.517 41.1187 25.3835 40.3518C24.7535 39.9252 24.1112 39.5144 23.4567 39.1194C23.2514 38.9957 23.1567 38.8853 23.2833 38.6637C23.2967 38.6396 23.3067 38.6131 23.3184 38.5882C23.7047 37.7881 23.703 37.7964 24.5684 37.9873C25.6667 38.2296 26.7684 38.4562 27.8684 38.6903L27.9572 38.5127Z" fill="#D9D9D6"/>
<path d="M70.1313 86.1796C69.5792 86.1332 68.9584 85.9771 68.5395 85.4642C67.7017 84.4384 66.9846 83.342 66.745 82.0067C66.6512 81.4796 66.7232 80.9692 67.0508 80.5468C67.8534 79.5102 68.6953 79.4164 69.74 80.2737C70.9368 81.2323 71.7357 82.5936 71.9844 84.0981C72.1871 85.3032 71.4189 86.1896 70.1313 86.1796ZM70.8392 84.4451C70.6482 83.4649 70.4203 82.6192 69.8858 81.9137C69.6105 81.5695 69.2688 81.2831 68.8805 81.0713C68.4004 80.7991 67.8752 81.1701 67.907 81.7228C67.9799 83.0682 68.661 84.0932 69.6965 84.9024C69.8598 85.0302 70.2041 85.1032 70.3667 85.0177C70.5862 84.9024 70.7127 84.6094 70.8392 84.4451Z" fill="#D9D9D6"/>
<path d="M24.3322 47.4142C23.2515 47.3412 21.9973 46.8515 20.9401 45.9294C20.3922 45.4514 19.9758 44.8579 20.2104 44.0703C20.424 43.3524 20.9024 42.8777 21.6706 42.7549C22.913 42.5548 24.0348 42.9399 25.1247 43.4761C25.7882 43.8023 26.3529 44.2272 26.7282 44.8795C27.189 45.6813 27.0399 46.2763 26.2381 46.9884C25.8293 47.3536 25.3702 47.4358 24.3322 47.4142ZM24.7142 46.2481C25.5595 46.2805 25.8662 45.8746 25.5713 45.2024C25.4774 44.9891 25.294 44.7451 25.0904 44.6621C24.2576 44.3235 23.4148 43.9915 22.5486 43.7566C21.9161 43.5856 21.4411 43.8396 21.3012 44.2355C21.1688 44.6139 21.3933 45.0364 21.9261 45.3916C22.7999 45.9759 23.8027 46.1369 24.7142 46.2523V46.2481Z" fill="#D9D9D6"/>
<path d="M62.6464 26.0631C62.5827 27.498 62.07 28.7513 61.2222 29.8676C60.5905 30.6975 59.0976 30.583 58.5647 29.6833C57.9783 28.6874 57.9724 27.6084 58.29 26.5536C58.5103 25.8199 58.8538 25.1161 59.2015 24.4281C59.5717 23.6935 60.2738 23.5707 61.0244 23.6114C61.755 23.6512 62.163 24.0886 62.3573 24.736C62.4838 25.1717 62.5517 25.6199 62.6464 26.0631ZM61.4148 26.0232C61.4284 25.8021 61.4284 25.5804 61.4148 25.3593C61.3445 24.8073 60.7857 24.5642 60.3316 24.8986C60.1455 25.0424 59.9893 25.2205 59.8717 25.4232C59.4054 26.2122 59.1556 27.1083 59.147 28.0226C59.1328 28.7571 59.3321 29.1073 59.7946 29.216C60.2135 29.3131 60.5804 29.0501 60.908 28.46C61.3235 27.6997 61.4006 26.8673 61.4148 26.0232Z" fill="#D9D9D6"/>
<path d="M38.4189 27.903C38.0252 27.8117 37.6976 27.6723 37.3717 27.6756C36.9001 27.6814 36.6253 28.0358 36.6864 28.4325C36.7518 28.8566 37.0609 29.0541 37.551 28.9811C37.923 28.9255 38.2924 28.8516 38.6652 28.806C39.1495 28.7479 39.5725 28.9081 39.9361 29.221C40.4184 29.628 40.7528 30.1805 40.8878 30.7937C41.0319 31.4411 40.9038 32.0502 40.3466 32.4735C39.7175 32.9516 39.0154 33.2586 38.2095 32.9441C37.8292 32.7955 37.4806 32.5656 37.076 32.3507L37.8392 31.4792C38.0349 31.6198 38.2385 31.7492 38.4491 31.8668C38.9953 32.1382 39.7736 31.6544 39.7895 31.0468C39.8004 30.5646 39.5198 30.3123 38.9777 30.3356C38.4357 30.3588 37.8928 30.3953 37.3508 30.4302C36.9403 30.4567 36.5867 30.3132 36.379 29.9754C36.105 29.533 35.8152 29.0724 35.6752 28.5844C35.439 27.7544 35.8696 27.044 36.7694 26.5767C37.365 26.268 38.2187 26.4199 38.7197 26.966C38.8119 27.0672 38.8286 27.3179 38.7716 27.454C38.6895 27.6465 38.5061 27.7976 38.4189 27.903Z" fill="#D9D9D6"/>
<path d="M31.504 84.2918C31.505 84.2778 31.509 84.2643 31.5157 84.2519C32.2605 83.3631 31.8851 83.3788 32.9952 83.9673C33.2992 84.1376 33.5889 84.3318 33.8614 84.5482C34.0918 84.7225 34.2175 84.6503 34.3641 84.4362C34.9933 83.4967 34.9974 83.4983 34.0617 82.8659C33.8581 82.7282 33.6503 82.5962 33.4275 82.4509C33.621 82.163 33.7793 81.8866 33.9829 81.6501C34.0424 81.5803 34.2669 81.5671 34.3582 81.6235C34.6879 81.8261 35.0046 82.0487 35.3066 82.2899C35.547 82.4808 35.7104 82.4501 35.888 82.2069C36.1242 81.8858 36.3907 81.5828 36.6546 81.2517L34.4931 79.7968C34.7444 79.5046 34.9489 79.2274 35.1985 78.9967C35.2613 78.9386 35.4892 78.9909 35.5981 79.0598C36.1494 79.4059 36.6872 79.7752 37.2276 80.1337C37.5501 80.347 37.8752 80.5553 38.1919 80.762C38.1919 80.8035 38.1994 80.8367 38.1868 80.855C36.9696 82.5862 35.7573 84.3192 34.5233 86.0413C34.4613 86.1243 34.2141 86.1907 34.132 86.1401C33.2289 85.5807 32.3409 84.9964 31.4512 84.4196L31.504 84.2918Z" fill="#D9D9D6"/>
<path d="M84.5105 69.8518C83.0142 69.2584 81.5875 68.6791 80.1474 68.133C79.8014 68.0019 79.4034 67.9513 79.0985 68.2866C78.662 68.7654 78.7307 69.3779 79.3021 69.734C79.6383 69.9293 79.9933 70.0911 80.3619 70.217C81.4401 70.6237 82.5241 71.0171 83.6091 71.4063C83.8294 71.4893 83.8872 71.6097 83.8034 71.8163C83.757 71.9167 83.7191 72.0209 83.6903 72.1276C83.6216 72.4479 83.4742 72.4687 83.1818 72.3392C81.6462 71.6562 80.1013 70.9914 78.5565 70.3291C77.8863 70.0411 77.4079 69.3265 77.6039 68.6393C77.7562 68.1295 78.0129 67.6563 78.3579 67.2491C78.7852 66.747 79.4068 66.6366 80.0435 66.8665C80.7749 67.1305 81.4937 67.4284 82.2217 67.6965C83.0151 67.9928 83.8135 68.2891 84.6135 68.558C84.9151 68.6592 84.988 68.7787 84.8389 69.0634C84.7032 69.3323 84.606 69.6203 84.5105 69.8518Z" fill="#D9D9D6"/>
<path d="M64.6477 87.1845C64.858 87.304 65.0096 87.3945 65.1655 87.4783C65.5349 87.6767 65.8859 87.6078 66.1825 87.2858C66.4514 86.9928 66.4154 86.6915 66.2277 86.3728C66.0602 86.0848 65.7988 86.0483 65.5048 86.0956C65.147 86.1529 64.7918 86.2325 64.4316 86.2674C63.4464 86.3645 62.7217 85.8375 62.3162 84.7511C61.9861 83.868 62.2383 83.0082 62.9864 82.4654C63.8619 81.8313 64.6737 81.8396 65.5098 82.4911C65.8524 82.7584 65.9102 82.9833 65.705 83.2497C65.3498 83.7103 65.214 83.7419 64.8002 83.4273C64.4508 83.1609 64.1074 83.2066 63.7521 83.4041C63.4221 83.5883 63.2763 83.8481 63.355 84.2291C63.4304 84.5917 63.6323 84.7976 64.0127 84.7918C64.222 84.7918 64.4308 84.7712 64.636 84.7303C65.9354 84.4465 66.6517 84.7444 67.3101 86.2143C67.595 86.8484 67.5916 87.5156 67.0588 88.0269C66.526 88.5381 65.8658 88.7531 65.1319 88.539C64.8186 88.4468 64.4173 88.3149 64.2824 88.0759C64.1928 87.9165 64.4927 87.5339 64.6477 87.1845Z" fill="#D9D9D6"/>
<path d="M79.4922 50.8889C79.2158 49.8863 79.2116 49.8781 80.1122 49.4266C80.371 49.2963 80.4699 49.1469 80.3526 48.8771C80.3191 48.8016 80.3015 48.7203 80.2739 48.6423C79.8491 47.4422 80.1507 47.6322 78.8589 47.7127C78.7516 47.7194 78.574 47.677 78.5397 47.6057C78.4188 47.3233 78.3128 47.0349 78.2222 46.7417L83.8159 46.4188C84.136 46.4006 84.456 46.379 84.776 46.3591C84.8598 46.3541 84.9436 46.3508 85.0274 46.3416C85.3139 46.3109 85.3776 46.5417 85.3625 46.7135C85.339 47.0778 85.9447 47.4853 85.4337 47.7692C83.4959 48.8481 81.523 49.8681 79.5626 50.9088C79.5551 50.9105 79.5383 50.9005 79.4922 50.8889ZM81.1828 47.5127C81.2993 47.8405 81.3621 48.0937 81.4828 48.3186C81.5272 48.4016 81.7341 48.4796 81.8179 48.4439C82.2879 48.2439 82.747 48.0148 83.201 47.7799C83.3432 47.6916 83.4775 47.5914 83.6023 47.4803C83.5881 47.4455 83.5738 47.4098 83.5588 47.3749L81.1828 47.5127Z" fill="#D9D9D6"/>
<path d="M33.1761 28.9893L33.8882 30.0242C33.7206 30.1163 33.5589 30.2051 33.3973 30.2981C32.965 30.5471 32.5268 30.7869 32.1054 31.0533C31.865 31.2052 31.9965 31.7588 32.3618 32.3406C32.5444 32.6327 32.7346 32.4991 32.9248 32.3862C33.3755 32.1182 33.8203 31.8401 34.297 31.5472C34.4327 31.8451 34.5819 32.109 34.6656 32.3929C34.695 32.4892 34.5919 32.6751 34.4981 32.7481C34.187 32.9833 33.8601 33.1971 33.5196 33.388C33.285 33.5191 33.2724 33.637 33.4216 33.8411C33.5923 34.0767 33.747 34.3231 33.8848 34.579C34.0407 34.8678 34.2199 34.8952 34.4872 34.7142C35.0384 34.3433 35.6039 33.993 36.2113 33.6063L36.8321 34.6395L33.9167 36.5866L30.2012 30.8649L33.1761 28.9893Z" fill="#D9D9D6"/>
<path d="M21.8638 55.534C22.087 55.5469 22.3109 55.5453 22.534 55.529C23.0274 55.4626 23.298 55.2095 23.3349 54.8211C23.3826 54.3106 23.1941 54.0392 22.6948 53.8426C22.5273 53.7762 22.2542 53.6459 22.2567 53.5504C22.2634 53.2566 22.374 52.9628 22.4636 52.6756C22.4737 52.6441 22.6219 52.6225 22.6873 52.6458C23.4363 52.9188 24.1115 53.2948 24.4759 54.0451C24.7733 54.6542 24.6829 55.2286 24.2715 55.7531C23.8744 56.2618 23.3634 56.622 22.7166 56.7266C21.0721 56.9947 19.4987 56.8835 18.2404 55.6369C17.2728 54.6791 17.4479 53.2873 18.6367 52.7321C19.1142 52.5105 19.7174 52.5495 20.2661 52.4914C20.3223 52.4856 20.4337 52.6175 20.4513 52.7005C20.4848 52.8458 20.4588 53.0026 20.4731 53.1537C20.5007 53.4375 20.3784 53.5363 20.0927 53.557C19.7928 53.5795 19.4728 53.6218 19.2072 53.7504C18.64 54.0235 18.6099 54.5729 19.1318 54.924C19.3722 55.0891 19.6415 55.2085 19.926 55.2759C20.5627 55.4136 21.212 55.5008 21.8529 55.6078L21.8638 55.534Z" fill="#D9D9D6"/>
<path d="M24.6009 58.4922C24.6274 58.5328 24.6499 58.5759 24.6679 58.6208C24.8413 59.5487 24.8354 59.5595 23.9466 59.8658C23.139 60.1421 23.2839 60.0317 23.3836 60.816C23.4959 61.6983 23.4925 61.6991 24.3529 61.8078C25.127 61.9049 25.127 61.9049 25.1655 62.8951C24.2834 62.7905 23.4062 62.6909 22.5316 62.5822C21.2607 62.4237 19.9915 62.2502 18.7189 62.1025C18.3386 62.0593 18.1584 61.9215 18.1325 61.5215C18.0856 60.8575 18.0487 60.826 18.7063 60.5861C20.3232 59.9936 21.9535 59.4358 23.578 58.864C23.9147 58.742 24.2515 58.6183 24.6009 58.4922ZM20.1037 61.2518L20.1205 61.3671L22.3322 61.6003L22.2585 60.4666L20.1037 61.2518Z" fill="#D9D9D6"/>
<path d="M83.0051 41.0507C82.7244 41.2001 82.4404 41.3702 82.1405 41.5038C81.8607 41.6291 81.7828 41.3868 81.6889 41.2059C81.4661 40.7776 81.2533 40.3435 81.0263 39.9178C80.9377 39.7757 80.841 39.6388 80.7364 39.5078L79.344 40.3776L80.3837 41.9304L79.4244 42.5114C79.1639 42.1147 78.905 41.7296 78.6545 41.3395C78.487 41.0714 78.2868 41.0324 78.0329 41.2332C77.9405 41.2951 77.8417 41.3469 77.738 41.3876C76.9296 41.7868 76.9296 41.6474 77.3786 42.4732C77.5859 42.832 77.813 43.1791 78.0589 43.5131C78.2097 43.7289 78.2139 43.8601 77.9408 43.9887C77.7104 44.0974 77.5152 44.28 77.2412 44.4751L75.3403 41.5212C77.2563 40.3776 79.1396 39.2513 81.0321 38.1392C81.1159 38.0894 81.3547 38.13 81.3982 38.2023C81.9344 39.0853 82.448 39.9817 82.9657 40.8764C82.985 40.9329 82.9982 40.9913 83.0051 41.0507Z" fill="#D9D9D6"/>
<path d="M29.5026 72.5669L23.7354 76.2693L21.8613 73.2533C22.1897 73.0516 22.4871 72.8507 22.8047 72.6905C22.8616 72.6615 23.0501 72.7735 23.0995 72.8632C23.3861 73.3811 23.6609 73.9064 23.9164 74.4401C24.0496 74.7189 24.2054 74.7314 24.4366 74.572C24.7902 74.3289 25.1487 74.0932 25.5433 73.8251C25.1713 73.2881 24.8212 72.7852 24.471 72.2806L25.4285 71.6905C25.7452 72.1718 26.0585 72.6499 26.397 73.1678L27.8698 72.3694L26.6073 70.3493L27.5766 69.7227L29.5026 72.5669Z" fill="#D9D9D6"/>
<path d="M50.9696 29.404C50.8355 29.4471 50.7601 29.4787 50.6814 29.4953C49.9115 29.6571 49.9115 29.6563 49.6643 28.9326C49.3837 28.1126 49.3803 28.096 48.5241 28.2686C47.5422 28.4661 47.6503 28.2537 47.6101 29.1815C47.5732 30.0289 47.4802 30.1078 46.5269 30.0015C46.6486 28.9779 46.7701 27.9543 46.8913 26.9307C47.0245 25.792 47.1652 24.6542 47.28 23.5138C47.3068 23.2458 47.3864 23.1271 47.6671 23.0939C48.5886 22.986 48.6062 22.9685 48.9313 23.8408C49.5412 25.4841 50.1234 27.1374 50.7199 28.7857C50.7886 28.989 50.8724 29.1716 50.9696 29.404ZM48.1077 24.9388L48.0047 24.9662C47.9402 25.7132 47.8757 26.4601 47.8061 27.2693L48.979 27.1349C48.6749 26.3589 48.3926 25.6493 48.1077 24.9388Z" fill="#D9D9D6"/>
<path d="M43.2111 28.3295C43.408 29.1237 43.5956 29.8425 43.7565 30.5703C43.7791 30.6732 43.6727 30.8077 43.6207 30.9214C43.6073 30.9496 43.5487 30.9571 43.5093 30.972C42.8475 31.2301 42.8483 31.2301 42.6439 30.5429C42.1923 29.0216 41.7366 27.502 41.2909 25.9782C41.2214 25.7408 41.2222 25.4802 41.1435 25.2487C40.9114 24.5565 41.0697 24.6304 41.6017 24.4719C42.1211 24.3164 42.6442 24.1733 43.1709 24.0428C43.3942 23.9786 43.631 23.9767 43.8554 24.0371C44.0797 24.0976 44.2829 24.2181 44.4426 24.3855C45.1488 25.1034 45.5317 25.9624 45.3348 26.9775C45.2075 27.6414 44.8808 28.0564 44.1619 28.1394C43.8654 28.1668 43.5722 28.2539 43.2111 28.3295ZM43.2613 25.3151C43.0169 25.3465 42.7752 25.3962 42.5383 25.4636C42.4546 25.4927 42.3607 25.6861 42.3708 25.7898C42.4111 26.048 42.4808 26.3008 42.5786 26.5434C42.6858 26.8181 42.8793 27.3186 42.9497 27.3045C43.325 27.2314 43.6793 27.0766 43.9869 26.8513C44.3153 26.6023 44.2382 26.2139 44.0916 25.8637C43.9559 25.5367 43.7514 25.2943 43.2613 25.3151Z" fill="#D9D9D6"/>
<path d="M81.4149 76.0472C80.242 75.6397 79.1336 75.2447 78.0161 74.8637C77.0426 74.5317 76.0641 74.213 75.0839 73.8918C74.815 73.8039 74.7169 73.6802 74.9046 73.413C75.0722 73.1789 75.197 72.9191 75.3486 72.656C75.7407 72.8137 76.1026 72.988 76.4855 73.1001C76.6103 73.1374 76.7845 73.0171 76.9328 72.964C76.9655 72.9523 76.9839 72.9009 77.0074 72.866C77.6558 71.9315 77.6692 71.8527 76.9161 70.9961C76.6647 70.7131 76.767 70.4915 76.9538 70.3239C77.0376 70.2492 77.34 70.3164 77.4707 70.4152C77.7978 70.6716 78.1058 70.9512 78.3922 71.2518C79.4738 72.3481 80.5419 73.4578 81.626 74.5517C81.8949 74.823 81.9402 75.0704 81.7215 75.3916C81.5983 75.5808 81.5263 75.809 81.4149 76.0472ZM80.1264 74.516L80.2328 74.4155L78.5355 72.5614L77.8485 73.6495L80.1264 74.516Z" fill="#D9D9D6"/>
<path d="M83.1059 66.5375C83.1452 66.1956 83.1821 65.8736 83.2232 65.515C83.4561 65.53 83.6588 65.5582 83.8607 65.5516C84.3382 65.5366 84.742 65.2627 84.8426 64.9059C84.9263 64.6013 84.6985 64.0991 84.2779 63.9323C83.2483 63.5223 82.1676 63.324 81.055 63.4385C80.7132 63.4742 80.3278 63.5929 80.2759 64.0087C80.2239 64.4245 80.4962 64.7009 80.8246 64.9216C80.8707 64.9523 80.9227 64.9739 80.9721 65.0005C81.1246 65.0835 81.4052 65.1665 81.4052 65.2495C81.4052 65.4868 81.3038 65.7283 81.215 65.9582C81.191 65.995 81.158 66.0252 81.119 66.046C81.08 66.0667 81.0364 66.0774 80.9922 66.0769C79.4247 65.7956 78.8643 64.7224 79.3167 63.3265C79.5529 62.5961 80.1879 62.3123 80.8598 62.2185C82.4197 62.001 83.8942 62.2683 85.1844 63.2236C85.7247 63.6236 86.1486 64.1099 86.1319 64.8395C86.116 65.4968 85.7968 65.969 85.2103 66.2603C84.5954 66.5641 83.9202 66.6546 83.1059 66.5375Z" fill="#D9D9D6"/>
<path d="M70.0784 35.7446L69.0982 35.0267C69.2557 34.7047 69.4107 34.371 69.58 34.0457C69.6906 33.8332 69.6512 33.7013 69.4409 33.5693C69.1125 33.3627 68.8034 33.1253 68.4925 32.8921C68.3141 32.7568 68.175 32.7585 68.0334 32.9444C67.9426 33.0489 67.844 33.1465 67.7386 33.2365C67.1521 33.8034 67.0432 33.7976 66.4375 33.1402C66.4714 33.0861 66.5107 33.0355 66.5548 32.9892C68.0862 31.6673 69.6185 30.3461 71.1516 29.0253C71.6886 28.5614 71.661 28.6029 72.2591 28.9589C72.7099 29.227 72.7057 29.5216 72.5323 29.9159C71.9006 31.3583 71.2614 32.7983 70.6439 34.2449C70.4345 34.7221 70.2745 35.2184 70.0784 35.7446ZM70.189 32.6962C70.4848 31.882 70.7487 31.1575 71.0117 30.4321L70.8793 30.3358L69.1083 31.9957L70.189 32.6962Z" fill="#D9D9D6"/>
<path d="M42.3765 82.6992C42.1487 83.1789 41.9199 83.6205 41.7256 84.0761C41.2229 85.258 40.7404 86.4481 40.2402 87.6308C40.0953 87.9747 39.9294 88.3095 39.7434 88.6334C39.6965 88.7164 39.513 88.8052 39.436 88.7761C38.5806 88.4541 37.7378 88.0989 36.8833 87.7802C36.554 87.6565 36.5096 87.5005 36.6479 87.1926C36.7627 86.9361 36.797 86.644 36.8774 86.3253C37.4639 86.5743 38.0503 86.8125 38.625 87.0656C39.1 87.2739 39.1126 87.2739 39.3103 86.7925C39.4251 86.512 39.5466 86.2332 39.663 85.9526C39.6738 85.9029 39.6806 85.8524 39.6831 85.8016C39.2533 85.6099 38.8085 85.3957 38.3502 85.214C38.1542 85.1368 38.0687 85.0546 38.1617 84.8521C38.2983 84.5533 38.4315 84.2529 38.5806 83.9184C39.0229 84.1234 39.4678 84.3035 39.8867 84.5309C40.1958 84.6969 40.329 84.6031 40.4463 84.3143C40.6948 83.6996 40.9587 83.0915 41.238 82.4901C41.2782 82.4021 41.4441 82.2867 41.5078 82.3083C41.7884 82.4062 42.0548 82.549 42.3765 82.6992Z" fill="#D9D9D6"/>
<path d="M52.0163 87.9007C51.6292 88.9797 51.243 90.0586 50.8199 91.2363C50.5518 90.8296 50.3173 90.5093 50.1271 90.1648C50.0785 90.0769 50.1271 89.8918 50.195 89.7914C50.7303 88.9846 51.2782 88.1862 51.8261 87.3845C51.9811 87.1588 52.1469 86.9405 52.3195 86.7031C52.3655 86.7306 52.4075 86.7641 52.4444 86.8027C53.1372 87.7713 53.8242 88.744 54.5203 89.7075C54.6745 89.9208 54.6695 90.096 54.512 90.3043C54.2983 90.5848 54.1098 90.8852 53.8711 91.2346C53.3634 89.847 52.885 88.5365 52.4058 87.2268L52.219 87.265C52.2183 87.4418 52.2303 87.6185 52.255 87.7937C52.5432 89.1573 52.8658 90.5142 53.1229 91.8828C53.2327 92.4638 52.6421 92.697 52.3354 93.1535C52.0581 92.8215 51.7968 92.5559 51.5949 92.2505C51.5111 92.1235 51.5211 91.9077 51.5479 91.7417C51.7264 90.6238 51.9216 89.5075 52.1076 88.3904C52.1319 88.2427 52.1327 88.0908 52.1444 87.9406L52.0163 87.9007Z" fill="#D9D9D6"/>
<path d="M86.047 55.9707C86.2631 55.9707 86.3879 55.9707 86.5128 55.9707C87.3371 55.9973 87.3296 55.9973 87.2726 56.8405C87.2131 57.7202 87.1704 58.6008 87.1202 59.4847C86.785 59.4847 86.4633 59.5104 86.1542 59.4689C86.0704 59.4565 85.9406 59.2415 85.9473 59.1261C85.9934 58.3128 86.0034 58.3111 85.2084 58.2696C83.7596 58.1922 82.3108 58.1167 80.862 58.0431C80.7104 58.0356 80.5596 58.0223 80.3594 58.0082C80.3837 57.6464 80.4063 57.3119 80.4314 56.9392C82.1421 56.9857 83.8143 57.0289 85.4865 57.0762C86.0369 57.0911 86.0378 57.0961 86.0453 56.5633C86.0495 56.3774 86.047 56.184 86.047 55.9707Z" fill="#D9D9D6"/>
<path d="M66.0102 25.4531L66.9845 25.8623C66.414 27.0923 65.8677 28.2808 65.309 29.4643C65.1578 29.7907 64.9869 30.1078 64.7971 30.4137C64.6572 30.637 64.7032 30.7557 64.9278 30.8661C65.34 31.0677 65.7412 31.2902 66.1526 31.4935C66.3495 31.5906 66.4324 31.6977 66.3084 31.9135C66.1585 32.1741 66.0286 32.4471 65.8527 32.7849L63.0947 31.4786L66.0102 25.4531Z" fill="#D9D9D6"/>
<path d="M75.4051 61.8012C75.3005 61.7676 75.1981 61.7277 75.0984 61.6817C74.8153 61.5265 74.5463 61.5157 74.2908 61.7356C74.1048 61.8975 73.9482 61.8916 73.8183 61.6642C73.783 61.589 73.7273 61.525 73.6575 61.4792C73.5377 61.4202 73.386 61.3422 73.2788 61.3738C73.2093 61.3945 73.19 61.5954 73.1581 61.7174C73.1456 61.7967 73.1394 61.8769 73.1397 61.9572L72.0908 61.7456C72.2709 61.3605 72.5801 60.9812 72.6061 60.5837C72.6739 59.5388 73.4731 59.0358 74.0805 58.3818C74.1149 58.3445 74.1769 58.332 74.3126 58.2656C74.3511 58.5146 74.3721 58.7354 74.4215 58.9478C74.4433 59.0383 74.5246 59.1138 74.579 59.1968C74.6628 59.142 74.8035 59.103 74.8253 59.0308C74.9535 58.6009 75.2333 58.7238 75.5249 58.8059C75.8357 58.8889 75.8742 59.0831 75.8482 59.3728C75.8122 59.7778 75.6933 60.1579 75.7997 60.6069C75.8809 60.9497 75.5567 61.3862 75.4051 61.8012Z" fill="#D9D9D6"/>
<path d="M49.3226 89.1006L48.4932 88.039C49.4147 87.3635 50.343 86.6746 51.2779 85.9882C51.4454 85.8629 51.6222 85.7924 51.5686 85.4903C51.5108 85.1583 51.9967 84.7433 52.331 84.7541C52.708 84.7616 53.069 85.0944 53.0414 85.4753C53.0213 85.7509 53.1545 85.8563 53.3497 85.9932C54.2888 86.6572 55.2162 87.3311 56.1579 88.0092L55.331 89.118C55.1928 88.952 55.0629 88.7976 54.9381 88.6408C54.36 87.9154 53.7878 87.185 53.2031 86.4646C53.0146 86.2323 52.7943 86.0314 52.4541 86.2273C52.4313 86.2427 52.4055 86.2532 52.3784 86.258C52.3513 86.2629 52.3234 86.262 52.2966 86.2555C51.8174 85.9567 51.577 86.3136 51.3357 86.6099C50.7401 87.3394 50.1628 88.0814 49.5764 88.8175C49.4985 88.9113 49.4147 88.9943 49.3226 89.1006Z" fill="#D9D9D6"/>
<path d="M79.8276 60.9894C79.8754 60.6068 79.9198 60.2466 79.965 59.8848C82.1533 60.0732 84.2871 60.2582 86.4208 60.4383C86.6345 60.4558 86.7417 60.5014 86.7266 60.7579C86.6831 61.5048 86.6956 61.5115 85.9425 61.4583C84.0123 61.3239 82.0826 61.1856 80.1535 61.0434C80.0597 61.0367 79.9675 61.0127 79.8276 60.9894Z" fill="#D9D9D6"/>
<path d="M18.8935 48.2617C20.9879 48.8261 23.0279 49.3855 25.0729 49.9142C25.4398 50.0096 25.5756 50.1366 25.4524 50.5043C25.4013 50.6561 25.4072 50.8255 25.3795 51.0437L24.4831 50.8271C22.7796 50.4121 21.0762 49.9972 19.3727 49.5822C18.7025 49.4162 18.7025 49.412 18.8114 48.763C18.8374 48.6012 18.8642 48.4393 18.8935 48.2617Z" fill="#D9D9D6"/>
<path d="M74.6744 83.2994C73.9924 82.5591 73.344 81.8586 72.7006 81.1548C72.0829 80.4792 71.4685 79.8009 70.8575 79.1198C70.664 78.9031 70.4972 78.6633 70.3029 78.4483C70.1244 78.2508 70.1571 78.1089 70.3389 77.9255C70.8323 77.4275 70.8206 77.4217 71.2856 77.9412C72.5523 79.3579 73.8173 80.7755 75.0966 82.1806C75.3019 82.4064 75.3161 82.5524 75.0891 82.7616C74.9408 82.896 74.8377 83.0836 74.6744 83.2994Z" fill="#D9D9D6"/>
<path d="M78.6294 57.0588C77.9961 56.9941 77.3896 56.9534 76.7931 56.8547C76.6783 56.8364 76.5501 56.6015 76.525 56.4513C76.5083 56.3467 76.6289 56.1575 76.737 56.1044C77.7054 55.6238 78.2508 56.0463 78.6294 57.0588Z" fill="#D9D9D6"/>
<path d="M44.4486 80.695C43.5547 80.1364 42.438 79.9123 41.8206 78.9405C41.4503 78.3595 41.0858 77.7785 41.0373 77.0557C41.0017 76.8102 40.8728 76.5876 40.677 76.4332C39.923 75.8614 39.133 75.3177 38.1637 75.204C37.7063 75.1509 37.2288 75.263 36.6968 75.3053C36.8819 75.2173 37.0495 75.0878 37.2321 75.0688C37.8579 75.0024 38.4888 74.9899 39.0677 75.2995C39.5335 75.5485 40.016 75.7668 40.4651 76.0406C40.9141 76.3145 41.0842 76.7502 41.2425 77.2773C41.5382 78.2583 41.9002 79.2766 42.9834 79.7671C43.5087 80.0036 44.0097 80.2908 44.5215 80.5556L44.4486 80.695Z" fill="#D9D9D6"/>
<path d="M55.9954 21.0888C55.8345 21.8565 55.3009 22.1038 54.7463 21.7527C54.5125 21.6042 54.3006 21.4207 54.0006 21.6448C53.9328 21.6963 53.7828 21.6448 53.6597 21.6349C53.8373 20.9609 54.257 20.78 54.7622 21.1518C55.0546 21.3676 55.2984 21.4506 55.605 21.2033C55.6879 21.1344 55.8253 21.1344 55.9954 21.0888Z" fill="#D9D9D6"/>
<path d="M71.4312 63.5308C71.1154 63.8736 70.8196 64.233 70.4778 64.5425C70.3773 64.6338 70.0288 64.6455 69.997 64.5865C69.8943 64.4032 69.8585 64.1904 69.8956 63.984C70.0321 63.4445 70.9286 63.174 71.4312 63.5308Z" fill="#D9D9D6"/>
<path d="M18.5347 42.1162C19.0373 42.1361 19.2049 42.3063 19.2401 42.6797C19.2819 43.0947 19.3959 43.5039 19.478 43.9155L19.38 44.0151C19.23 43.9321 18.9837 43.8848 18.9477 43.7661C18.786 43.2449 18.6762 42.7022 18.5347 42.1162Z" fill="#D9D9D6"/>
<path d="M33.2407 52.3545L32.9332 52.5321C32.4105 52.1404 32.4096 52.108 32.6199 51.5221C32.6693 51.3835 32.6199 51.21 32.6199 51.0532C32.4574 51.0731 32.2923 51.0847 32.1315 51.1163C32.0402 51.1345 31.9463 51.2291 31.8684 51.2134C31.0734 51.0474 30.7366 51.6491 30.3169 52.1114C30.2406 52.1943 30.1669 52.284 30.0454 52.4242C30.0228 52.2848 29.996 52.2275 30.0086 52.1819C30.0924 51.8873 31.0407 51.1138 31.3549 51.0889C31.669 51.064 32.0142 51.1071 32.2823 50.8308C32.3275 50.7843 32.6032 50.8664 32.6802 50.9619C32.7799 51.0872 32.8042 51.2831 32.8268 51.4532C32.8344 51.5105 32.7246 51.5752 32.6928 51.6474C32.5252 52.025 32.6409 52.2284 33.0539 52.2939C33.1213 52.3102 33.1871 52.3321 33.2507 52.3595L33.2407 52.3545Z" fill="#D9D9D6"/>
<path d="M72.4633 65.5841C72.1829 65.6297 71.9001 65.6593 71.6163 65.6729C71.5141 65.6729 71.3448 65.5617 71.3239 65.4729C71.3095 65.4013 71.31 65.3276 71.3254 65.2562C71.3409 65.1848 71.3708 65.1174 71.4135 65.0579C71.4705 64.9898 71.6716 64.9832 71.778 65.0255C72.0314 65.1368 72.2789 65.2609 72.5194 65.3973L72.4633 65.5841Z" fill="#D9D9D6"/>
<path d="M36.8525 51.5029C37.4189 51.4598 37.9844 51.4066 38.5515 51.3867C38.6177 51.3867 38.7241 51.5527 38.7526 51.6573C38.7877 51.8164 38.8007 51.9794 38.7911 52.142C38.7911 52.4209 38.869 52.5918 39.1975 52.557C39.2863 52.5479 39.3834 52.6167 39.4773 52.6499L39.4865 52.6383C39.2553 52.6649 38.9905 52.7686 38.8045 52.6898C38.699 52.645 38.7099 52.3022 38.6923 52.0914C38.6529 51.6191 38.3882 51.4805 37.9383 51.5104C37.5822 51.5361 37.222 51.4954 36.8634 51.4847L36.8525 51.5029Z" fill="#D9D9D6"/>
<path d="M36.8315 68.6308C36.8726 67.9743 37.1951 67.2913 37.9341 66.2314C37.9441 66.7734 37.6149 67.0821 37.3937 67.449C37.1725 67.8158 37.0159 68.2358 36.8315 68.6308Z" fill="#D9D9D6"/>
<path d="M44.5532 80.6795L45.732 79.3574C45.7378 79.7824 45.0307 80.5625 44.5532 80.6795Z" fill="#D9D9D6"/>
<path d="M28.7461 47.4973C29.1591 47.8292 29.1591 47.8292 29.7422 47.5537L29.8369 47.6259C29.6886 47.7977 29.5428 48.1089 29.3912 48.1123C29.0376 48.1197 28.7897 47.8757 28.757 47.4873L28.7461 47.4973Z" fill="#D9D9D6"/>
<path d="M49.0297 76.96C48.3947 77.8314 47.9616 78.1219 47.5645 78.0954L49.0297 76.96Z" fill="#D9D9D6"/>
<path d="M36.7864 65.2705C36.644 64.9178 36.5242 64.5543 36.3516 64.2173C36.2486 64.0165 36.0626 63.8571 35.9453 63.7193C36.3072 63.7036 36.4396 63.8023 36.5317 64.2173C36.6097 64.575 36.6993 64.9302 36.778 65.2871L36.7864 65.2705Z" fill="#D9D9D6"/>
<path d="M36.7744 65.2817L38.2271 65.9631L38.1525 66.1034C37.7412 65.7473 37.0718 65.8544 36.7861 65.2734L36.7744 65.2817Z" fill="#D9D9D6"/>
<path d="M37.7681 55.9766L38.5975 54.6777L38.7198 54.7557L37.887 56.0662L37.7681 55.9766Z" fill="#D9D9D6"/>
<path d="M36.8222 69.0156L37.8979 70.4415L37.8041 70.5129L36.7041 69.0862L36.8222 69.0156Z" fill="#D9D9D6"/>
<path d="M33.2493 52.3587L33.3817 51.9346L33.4479 52.0375L34.4113 51.8848C34.1022 51.9296 33.9857 52.5205 33.5233 52.1719C33.4923 52.1479 33.3356 52.2873 33.2393 52.352L33.2493 52.3587Z" fill="#D9D9D6"/>
<path d="M29.8292 48.3213C29.7328 48.4641 29.6282 48.6013 29.5159 48.7321C29.4483 48.7919 29.3631 48.8285 29.2729 48.8367C29.247 48.8409 29.1707 48.7288 29.1783 48.679C29.1918 48.5978 29.2365 48.525 29.3031 48.4757C29.46 48.3902 29.6214 48.313 29.7865 48.2441L29.8292 48.3213Z" fill="#D9D9D6"/>
<path d="M36.8639 51.4912C36.3856 51.3725 36.3839 51.9128 36.084 52.0547C36.2222 51.4613 36.4099 51.2646 36.7768 51.3393C36.812 51.3468 36.8288 51.4456 36.853 51.5053C36.8564 51.5004 36.86 51.4957 36.8639 51.4912Z" fill="#D9D9D6"/>
<path d="M34.5908 51.916L35.1228 52.0887L35.1437 52.1899C35.0231 52.2406 34.8765 52.3559 34.7893 52.326C34.6662 52.2796 34.5874 52.1194 34.4902 52.0081L34.5908 51.916Z" fill="#D9D9D6"/>
</svg>
