<svg width="105" height="106" viewBox="0 0 105 106" fill="none" xmlns="http://www.w3.org/2000/svg">
<rect x="0.353516" y="0.652344" width="104.47" height="104.696" rx="52.235" fill="#313131"/>
<path d="M99.5109 52.6609C99.5893 77.669 79.6699 98.3561 54.5181 99.1141C41.3968 99.5094 29.9371 95.0773 20.5338 85.8786C11.3516 76.8952 6.69095 65.8047 6.5535 52.9503C6.2795 27.2663 26.7143 6.1336 52.7648 5.97742C78.3043 5.82478 99.4853 25.9551 99.5109 52.6609ZM56.0643 98.6403C61.0739 98.4973 70.5388 96.5349 78.6188 91.0404C88.4671 84.3485 94.8702 75.2343 97.8281 63.6976C102.048 47.1576 96.8035 25.8095 78.055 13.6779C60.5347 2.33942 36.9757 4.07151 21.2281 19.0153C6.06189 33.4059 2.01264 57.1963 13.4899 76.341C19.6272 86.5765 28.5222 93.4034 39.9272 96.9073C42.8661 97.8252 45.9052 98.3831 48.9781 98.5688C48.9781 97.0485 48.9781 95.6093 48.9781 94.1693C48.9781 94.0908 49.0221 93.9469 49.0565 93.9434C49.3014 93.9196 49.5596 93.8852 49.7922 93.9434C49.8706 93.9619 49.9287 94.2337 49.9287 94.3846C49.9287 95.6787 49.9167 96.9729 49.8926 98.267C49.8847 98.7232 50.1851 98.7391 50.5093 98.7603C50.8706 98.785 50.9499 98.597 50.9437 98.2723C50.9358 97.2876 50.9569 96.302 50.964 95.3173C50.964 94.8664 50.964 94.4155 50.964 93.9461C51.0741 93.9293 51.1728 93.9072 51.2723 93.9019C51.9313 93.8675 51.941 93.8684 51.9401 94.5108C51.9401 95.7902 51.9401 97.0696 51.9093 98.3482C51.8961 98.9085 52.2961 98.7488 52.5754 98.7805C52.8547 98.8123 53.0688 98.7488 53.0582 98.3535C53.0326 97.4129 53.0582 96.4714 53.0582 95.5299C53.0582 95.0075 53.0582 94.4852 53.0582 93.9416H54.0458V98.7241H55.0335V93.909L56.0572 93.969L56.0643 98.6403Z" fill="#D9D9D6"/>
<path d="M46.9193 49.4459C46.2241 49.3506 45.5695 49.2694 44.9193 49.1688C44.0982 49.0365 43.8065 48.6068 43.9731 47.7897C44.2294 46.5385 44.5017 45.2908 44.7537 44.0396C44.8515 43.5543 44.9219 43.0637 45.0259 42.4514C44.7369 42.5917 44.5193 42.6817 44.3211 42.799C43.574 43.2308 42.8315 43.6682 42.0938 44.1111C41.9846 44.1764 41.8559 44.2655 41.8119 44.3758C41.6216 44.8488 41.4595 45.3332 41.2577 45.8891L42.6876 45.5767C42.7079 45.6411 42.729 45.7064 42.7493 45.7717C42.2762 45.9623 41.8101 46.1785 41.3247 46.3311C41.1211 46.3947 41.0181 46.4476 40.9432 46.6647C40.6401 47.532 40.2877 48.3826 39.9925 49.2535C39.7811 49.8712 39.6621 50.5277 39.4445 51.1462C39.0754 52.1927 38.6516 53.2198 38.2683 54.261C37.9203 55.2078 37.5944 56.1625 37.2648 57.1163C36.9204 58.1116 36.5926 59.1122 36.2402 60.1049C36.1318 60.4084 36.1803 60.6008 36.4772 60.7446C37.2278 61.1073 37.9803 61.4691 38.7168 61.8582C39.0921 62.0558 39.5899 62.1741 39.5732 62.812C38.1274 62.7238 37.0913 61.762 35.842 61.2308C35.6393 61.7399 35.4508 62.2138 35.2658 62.6885C34.9653 63.45 34.6631 64.2114 34.368 64.9747C34.2385 65.3073 34.2297 65.5712 34.5636 65.8571C35.1504 66.3556 35.2217 67.0615 34.8253 67.8636C34.6226 68.28 34.3319 68.6577 34.1204 69.0662C34.057 69.1898 34.1204 69.3795 34.1292 69.5392C34.138 69.7562 34.1486 69.9724 34.1583 70.1895C33.953 70.1242 33.7504 70.0518 33.5416 69.9945C33.3989 69.9548 33.242 69.893 33.1072 69.9204C32.9351 69.9599 32.7751 70.0407 32.6412 70.156C32.0244 70.6854 31.2315 70.7816 30.4994 71.0163C30.2492 71.0966 30.0694 71.0224 29.9214 70.7701C29.7734 70.5177 29.5408 70.3086 29.3047 70.0368C30.3928 69.8048 31.5813 69.9892 32.3954 68.9877C32.6139 69.2524 32.865 69.1509 33.0843 68.8809C33.6359 68.2086 34.3962 67.6615 34.3847 66.6635C34.3847 66.3503 34.4068 66.03 34.027 65.7371C33.746 66.5162 33.479 67.2168 33.2438 67.9271C33.1116 68.325 32.8324 68.5403 32.391 68.6692C32.6156 67.9518 32.8015 67.2177 33.0773 66.5206C33.3416 65.8518 33.2614 65.0321 33.835 64.5529C33.8817 64.1859 33.8711 63.8382 33.9768 63.5303C34.279 62.6479 34.6376 61.7779 34.946 60.8946C34.9874 60.7755 34.9336 60.5249 34.8429 60.4711C33.9539 59.9417 33.0597 59.4122 32.1407 58.9375C31.6896 58.7037 31.1875 58.5643 30.7029 58.3975C30.0095 58.1575 29.3003 58.0499 28.6025 58.3499C28.0935 58.5555 27.6043 58.8072 27.1409 59.1017C26.4307 59.5781 26.1717 60.367 26.0889 61.1505C26.0184 61.8361 26.11 62.5535 26.2334 63.2382C26.3444 63.8559 26.1567 64.2159 25.5286 64.2203C25.1912 64.2187 24.855 64.1803 24.5259 64.1056C24.37 64.0712 24.2405 63.9238 24.0986 63.8276L24.1524 63.6741L25.7206 63.7623C25.6396 63.5576 25.5849 63.3997 25.5153 63.2497C24.7524 61.6208 25.0863 59.2102 27.0598 58.1011C28.3717 57.3643 29.776 57.2081 31.2174 57.689C32.6725 58.1666 34.0285 58.9058 35.2191 59.8702C35.6367 58.7769 36.0429 57.696 36.4613 56.6204C36.8798 55.5448 37.3327 54.463 37.7441 53.3742C38.0225 52.6357 38.3908 51.8945 38.4701 51.1277C38.5415 50.443 38.9529 49.9665 39.1432 49.3709C39.4075 48.5521 39.708 47.7465 40.0119 46.8826C38.8525 46.932 37.7944 47.0662 36.7521 46.9964C35.7274 46.9285 34.716 46.6523 33.6156 46.4529C32.7901 49.0921 32.8227 51.8424 33.7442 54.6025L36.8613 54.4207L36.923 54.5804C36.797 54.6642 36.6807 54.7957 36.5442 54.8239C35.9715 54.9431 35.3988 55.0498 34.8164 55.1266C34.005 55.2342 33.1909 55.3322 32.3751 55.3992C30.6491 55.5395 29.0272 55.146 27.495 54.3669C27.2977 54.2663 27.1426 54.0774 26.9285 53.8913C28.0563 54.0907 29.0985 54.3175 30.1558 54.4516C31.213 54.5857 32.2764 54.628 33.4482 54.7163C32.457 53.2163 32.1619 51.6386 32.1266 50.0124C32.1011 48.9306 32.4218 47.8947 32.8887 46.9285C33.2271 46.2226 33.2359 46.1661 32.6429 45.7038C32.4447 45.5485 32.3125 45.3076 32.1504 45.1064L32.2385 45.0182C32.4967 45.0958 32.7531 45.1832 33.0138 45.2476C33.3275 45.3252 33.6306 45.3702 33.6905 44.9088C33.7019 44.8144 33.7786 44.7323 33.8332 44.6352C33.5381 44.1226 32.6879 44.134 32.6447 43.3681C33.2059 43.1555 33.4041 43.774 33.79 43.8826C34.3786 43.0276 34.2306 42.0296 34.4068 41.1049L34.5733 41.1155C34.6106 41.2281 34.636 41.3443 34.649 41.4622C34.6614 42.2061 34.7636 42.9623 34.4261 43.6682C34.2623 44.0132 34.3759 44.187 34.7645 44.2699C36.7635 44.7005 38.7318 44.5611 40.6991 44.1199C40.7701 44.1063 40.8368 44.076 40.8938 44.0317C41.3696 43.6346 41.6956 42.2872 41.4788 41.7075C41.033 40.5137 40.604 39.3137 40.1573 38.1198C39.4718 36.2792 38.1265 34.9654 36.6754 33.7203C36.1979 33.3074 35.6622 33.0462 35.0896 32.8203C34.9455 32.7723 34.7983 32.7343 34.649 32.7065C34.6922 33.6965 34.7372 34.6477 34.7759 35.6121C35.0737 35.4727 34.9134 35.1798 34.9195 34.9327C34.9319 34.6415 34.983 34.3512 35.0015 34.0609C35.0156 33.7856 35.0015 33.5103 35.0015 33.1221C35.2252 33.2359 35.4869 33.2924 35.5054 33.3947C35.5442 33.6056 35.4772 33.8474 35.4085 34.0627C35.36 34.2136 35.2393 34.3424 35.1504 34.4809L35.2596 34.5515L35.5142 34.2206L35.6226 34.2709C35.4464 34.8339 35.2755 35.3968 35.1045 35.9474C35.6887 35.5133 35.6182 34.7668 35.8984 34.1792C35.9935 33.9762 36.1627 33.8068 36.2913 33.6215C36.36 33.8571 36.516 34.1059 36.4816 34.3274C36.3635 35.0862 36.1195 35.8045 35.4887 36.326C35.2684 36.5077 35.0755 36.5907 34.857 36.303L34.5698 36.6198C34.3795 36.5016 34.1513 36.2748 34.0614 36.3207C33.8905 36.4089 33.7971 36.6507 33.6773 36.8298C33.109 37.6557 32.2773 37.9584 31.3258 37.961C31.0095 37.961 30.6483 37.8913 30.5328 37.4254C30.6665 37.4128 30.801 37.4128 30.9346 37.4254C32.176 37.6786 33.3434 36.453 33.4244 35.2645C33.5037 34.0953 32.9354 33.355 32.0421 32.7497C31.8773 32.6386 31.7275 32.5062 31.5566 32.373C31.8007 32.0641 32.0562 32.0712 32.3354 32.1815C33.1284 32.4938 33.657 33.078 34.0094 33.8386C34.0623 33.9533 34.1187 34.0662 34.1742 34.18L34.3398 34.1333C34.264 33.8509 34.2332 33.5447 34.1019 33.2915C33.9442 32.995 33.7107 32.7374 33.4975 32.478C33.3081 32.2468 33.0975 32.0324 32.9363 31.7721C34.146 31.7447 35.242 31.9071 36.301 32.5036C37.4058 33.1221 38.2287 34.0248 39.0639 34.9124C39.5749 35.456 39.9635 36.1477 40.2824 36.8324C40.7327 37.8139 41.1252 38.8209 41.4577 39.8484C41.6436 40.4104 41.6797 41.0219 41.8982 41.6572C42.0224 41.3925 42.1502 41.1366 42.2718 40.8746C42.4172 40.5596 42.5625 40.2437 42.7 39.9234C42.746 39.8014 42.7848 39.6767 42.8163 39.5501C43.0224 38.8513 43.2189 38.1489 43.433 37.4528C43.6568 36.7416 43.9052 36.041 44.1378 35.3271C44.2735 34.9107 44.3968 34.4898 44.5264 34.0715C44.5519 33.9877 44.5554 33.8748 44.6145 33.8253C45.0937 33.4089 44.8153 33.0639 44.5079 32.7418C44.1255 32.3394 43.7378 31.9432 43.322 31.5727C41.7167 30.1609 39.9018 29.102 37.8287 28.5532C36.7979 28.2805 35.7274 28.1623 34.6984 27.8844C33.9636 27.6837 33.1917 27.6611 32.4465 27.8182C31.5733 27.9946 30.6888 28.1208 29.8086 28.2594C29.7293 28.2717 29.6421 28.2391 29.4501 28.2126C29.6016 28.0661 29.68 27.9594 29.7848 27.8949C30.7725 27.2914 31.8456 27.0293 33.0015 26.994C34.9236 26.9243 36.8412 27.2266 38.649 27.8844C40.8692 28.6935 42.7396 29.9906 44.3801 31.6574C44.5131 31.7924 44.6197 31.9538 44.7396 32.0985C44.8594 32.2433 44.9572 32.3685 45.1211 32.5697C45.2893 32.1833 45.4303 31.8638 45.5281 31.6344C45.2532 31.2912 44.9995 31.0468 44.833 30.7521C43.803 28.9714 42.2964 27.7211 40.5176 26.7373C39.2735 26.0534 37.9386 25.5501 36.553 25.2425C35.76 25.0661 34.8957 25.1975 34.0632 25.194C33.9751 25.194 33.887 25.2293 33.7988 25.224C32.0694 25.1164 30.6051 25.7896 29.2377 26.7602C28.7505 27.1035 28.258 27.4432 27.7497 27.7644C27.6554 27.8226 27.4792 27.7476 27.3408 27.7344C27.3964 27.587 27.4069 27.3726 27.5171 27.3011C28.3787 26.724 29.2862 26.2114 30.1267 25.6061C31.5416 24.5869 33.1372 24.3028 34.8235 24.2825C36.1133 24.2693 37.3547 24.4519 38.5494 24.9822C39.2648 25.299 40.0287 25.5117 40.7705 25.7676C40.857 25.7854 40.9386 25.8222 41.0093 25.8752C41.922 26.8458 43.1828 27.4229 43.9519 28.555C44.5325 29.41 45.151 30.2403 45.7765 31.1138C45.8268 30.9215 45.8805 30.7194 45.9316 30.5262L45.5827 30.302C45.5959 30.2632 45.6083 30.2244 45.6215 30.1856L45.9809 30.22C46.3087 29.3323 46.6382 28.4438 46.9615 27.5535C47.04 27.3373 47.0082 27.1758 46.7633 27.0532C46.2532 26.7982 45.9351 26.357 45.7563 25.8249C45.5889 25.3246 45.4611 24.8119 45.3008 24.3099C45.1404 23.8078 45.3528 23.3834 45.5951 22.9802C45.6752 22.8451 45.8664 22.7763 46.0065 22.6775L46.1246 22.7878C45.9968 23.0225 45.8691 23.2563 45.7422 23.4937C45.6867 23.5952 45.5977 23.6949 45.5906 23.8008C45.5836 23.9066 45.6576 24.0275 45.6964 24.1413C45.783 24.0798 45.8605 24.0061 45.9263 23.9225C46.0323 23.7465 46.1231 23.5617 46.1977 23.3702C46.5906 22.3537 47.4038 22.0572 48.3897 22.1348C48.8073 22.1684 48.9518 22.0034 49.0796 21.6522C49.6372 20.1266 50.2249 18.6107 50.7941 17.0912C51.1553 16.133 51.5297 15.1791 51.868 14.2129C52.1553 13.395 51.7306 12.8117 50.8778 12.8126C50.5248 12.8056 50.1717 12.8203 49.8205 12.8567C49.7524 12.8725 49.6887 12.9031 49.6339 12.9464C49.579 12.9898 49.5345 13.0447 49.5033 13.1073C49.3594 13.4434 49.253 13.7943 49.1862 14.1538C49.1368 14.4565 49.1906 14.7768 49.1985 15.0997L47.5069 15.2277C47.4981 15.1994 47.4893 15.1712 47.4814 15.1394C47.5316 15.1015 47.5783 15.0415 47.6347 15.0291C48.1377 14.9206 48.3245 14.5394 48.4743 14.1035C49.0781 12.357 49.6881 10.6132 50.3042 8.87197C50.3747 8.67167 50.4936 8.48814 50.6513 8.17578L52.5764 12.3953H52.6936C52.7861 12.0247 52.8698 11.6514 52.979 11.2861C53.0169 11.1617 53.1288 11.0602 53.2072 10.9482C53.3138 11.0364 53.4222 11.1247 53.5253 11.2129C53.5561 11.2411 53.5658 11.2905 53.5905 11.3267C53.7993 11.64 54.1614 11.9444 54.1737 12.2656C54.1852 12.5629 53.8037 12.8638 53.6319 13.1832C53.164 14.0462 53.2081 14.1829 54.0495 14.7327C54.1085 14.7715 54.1614 14.8209 54.2363 14.8782C53.8319 15.2938 53.4433 14.9991 53.0539 14.8897L52.2698 16.6783C53.1799 16.6783 54.0539 16.6421 54.9226 16.6977C55.257 16.7248 55.5702 16.8728 55.8036 17.1142C56.3411 17.7433 57.1525 17.8889 57.7816 18.3442C57.8582 18.3989 58.0705 18.2639 58.2221 18.2171C58.1269 18.1218 58.0371 18.0204 57.9357 17.9312C57.8741 17.8765 57.7639 17.858 57.7296 17.7936C57.5216 17.4018 57.3287 16.9995 57.1234 16.59C57.4212 16.4471 57.6653 16.4903 57.845 16.7665C58.0247 17.0427 58.1974 17.3427 58.3789 17.6268C58.4206 17.6829 58.4758 17.7275 58.5392 17.7565C59.1762 18.0759 59.4282 18.5939 59.3507 19.2936C59.3521 19.3956 59.3651 19.4972 59.3894 19.5963C59.4379 19.9572 59.5119 20.3172 59.5269 20.6789C59.5366 20.9304 59.5516 21.2745 59.1613 21.2534C58.8044 21.2339 58.763 20.896 58.8088 20.6507C58.9093 20.1283 58.771 19.6748 58.5498 19.2204C58.4291 18.9716 58.2855 18.8066 57.9331 18.9698C58.1172 19.2848 58.3049 19.5672 58.4476 19.8707C58.4681 19.9346 58.4758 20.002 58.4702 20.069C58.4646 20.1359 58.4459 20.2011 58.415 20.2607C58.2476 20.5942 57.9851 20.8739 58.1146 21.3195C58.156 21.459 57.9313 21.6637 57.8582 21.849C57.5314 22.6763 57.0513 23.4344 56.4433 24.0831C55.6882 24.9046 54.6812 25.2011 53.6336 25.4067C53.5843 25.4164 53.527 25.3828 53.3191 25.3325C53.5746 25.1702 53.72 25.0502 53.8865 24.9796C54.6847 24.6319 55.4627 24.2613 56.001 23.5325C57.0767 22.0748 57.186 20.018 55.8961 18.5136C54.7208 17.1415 52.4865 16.8759 51.0804 18.3504C50.7812 18.6868 50.5641 19.0883 50.446 19.523C50.3068 20.0066 50.3156 20.5325 50.3201 21.0716C50.4223 20.7519 50.5916 20.4577 50.8167 20.2089C51.0417 19.9601 51.3173 19.7624 51.6249 19.6289C52.342 19.3051 52.9764 19.5627 53.5209 19.958C54.1173 20.3913 54.4477 21.0266 54.483 21.811C54.5182 22.5954 54.2627 23.2113 53.5834 23.6693C54.4327 23.6763 55.1446 23.2828 55.8882 23.0128L55.9701 23.1196C55.853 23.2678 55.7605 23.4496 55.6177 23.5608C54.5288 24.3849 51.95 24.459 50.8557 23.296C50.6487 23.0763 50.5033 22.7957 50.3341 22.5398C50.209 22.3501 50.0927 22.1551 49.9456 21.9222C49.6919 22.306 49.5879 22.5672 49.9588 22.8928C50.587 23.439 50.7297 24.774 50.3641 25.5399C49.9703 26.3676 49.3174 26.8635 48.4945 27.167C48.3709 27.2032 48.2577 27.2686 48.1646 27.3579C48.0715 27.4471 48.0013 27.5575 47.9598 27.6796C47.2294 29.6376 46.4796 31.5885 45.7378 33.543C45.6497 33.7724 45.5351 33.9842 45.8506 34.1827C46.0646 34.3203 45.9387 34.6027 45.6638 34.6133C45.3889 34.6239 45.2999 34.7298 45.2136 34.9795C44.5087 37.0089 43.788 39.0313 43.0647 41.0528C42.7951 41.8055 42.507 42.5528 42.2101 43.347C42.7599 43.399 43.1026 43.1334 43.4251 42.8793C43.877 42.5264 44.3131 42.1734 44.9017 42.0481C45.0277 42.0208 45.1607 41.7419 45.1854 41.5637C45.3316 40.5172 45.4338 39.4646 45.5774 38.4172C45.6726 37.7219 45.8417 37.0363 45.9228 36.3392C46.0039 35.6421 46.0039 34.9627 46.04 34.2736C46.0532 34.0177 46.1131 33.7609 46.4347 33.8324C46.699 33.8898 47.0585 33.9524 46.9915 34.3706C46.8708 35.1233 46.7272 35.8707 46.5977 36.6233C46.573 36.7645 46.5668 36.9092 46.5519 37.0522L46.669 37.1254C46.7651 37.0125 46.8955 36.9145 46.9519 36.7848C47.5413 35.4251 48.4646 34.383 49.8311 33.7847C50.9315 33.3021 52.0927 33.5853 52.8988 34.4624C53.1259 34.7088 53.3808 34.9279 53.6583 35.1154C54.8644 35.9139 55.2019 37.1492 55.3534 38.4842C55.4891 39.6807 55.4671 40.8666 55.0609 42.0084C54.4847 43.6284 53.8645 45.2238 52.3773 46.2914C51.9852 46.5729 51.6592 46.985 51.3896 47.3944C50.9227 48.1056 50.3421 48.6482 49.5527 48.9694C49.4 49.0362 49.2355 49.0714 49.0689 49.0727C48.9023 49.0741 48.7372 49.0416 48.5835 48.9774C47.388 48.5362 46.9395 47.555 46.6338 46.4397C46.5107 46.0204 46.3654 45.6081 46.1986 45.2044C45.9413 44.5523 45.6699 43.9073 45.3907 43.2314C45.3585 43.2756 45.3333 43.3243 45.3158 43.3761C45.0937 44.9308 44.8876 46.4882 44.6453 48.0394C44.5871 48.4091 44.7114 48.4806 45.0356 48.5371C46.3034 48.7621 47.5633 49.0277 48.8293 49.2632C49.4055 49.3709 49.9932 49.4168 50.565 49.5394C51.5949 49.7609 52.616 50.0212 53.6407 50.263C53.7376 50.2859 53.8372 50.2956 53.9781 50.3186C54.0821 49.6347 54.1543 48.9677 54.2882 48.3129C54.5675 46.9497 54.8821 45.5935 55.1799 44.2338C55.3402 43.5032 55.4442 42.7549 55.6635 42.0428C56.4001 39.6719 56.8089 37.2304 57.2838 34.8004C57.3468 34.5516 57.4254 34.3069 57.519 34.068L57.6776 34.0909C57.7128 34.2259 57.7199 34.3777 57.7895 34.4915C57.9119 34.6901 58.0855 34.8568 58.2141 35.0527C58.2961 35.178 58.4141 35.3527 58.3833 35.471C57.9428 37.1475 57.4582 38.8037 57.0336 40.4793C56.5226 42.4928 56.0301 44.5108 55.5869 46.5403C55.3402 47.6697 55.2133 48.8256 55.0195 49.9665C55.0019 50.0724 54.8926 50.24 54.816 50.2453C54.4636 50.2718 54.4089 50.4986 54.349 50.7747C54.2213 51.3659 54.046 51.418 53.5561 51.0695C53.3852 50.9477 53.1825 50.8727 52.8988 50.728C52.9103 50.975 52.9094 51.1118 52.9244 51.2477C53.1887 53.6451 52.4398 55.7257 50.9949 57.6087C50.202 58.6411 49.4047 59.677 48.7139 60.7773C47.9968 61.9199 47.5228 63.1879 47.2021 64.5079C47.1668 64.6544 47.0259 64.7726 46.9289 64.9059L46.7607 64.8371C46.7712 64.5232 46.7982 64.2101 46.8417 63.8991C47.2038 61.9923 47.9474 60.2814 49.2205 58.7716C50.009 57.8337 50.6689 56.7757 51.2901 55.7151C51.6152 55.1592 51.6777 54.456 51.9553 53.8622C52.2962 53.1351 52.372 52.3798 52.4019 51.6033C52.4019 51.5301 52.4169 51.4568 52.4196 51.3836C52.446 50.66 52.4434 50.668 51.7315 50.5127C50.4422 50.2315 49.155 49.9441 47.8699 49.6506C47.4778 49.5624 47.3325 49.6727 47.2999 50.0918C47.2118 51.1815 47.5562 52.0709 48.8628 52.1909C49.024 52.2036 49.1828 52.2377 49.3351 52.2924C49.4232 52.3268 49.4884 52.4274 49.5632 52.4971C49.4857 52.5536 49.4108 52.656 49.3307 52.6595C48.432 52.7018 47.5924 52.6454 46.9633 51.8204C46.5933 51.3342 46.595 50.8568 46.6902 50.3318C46.7369 50.0556 46.8311 49.7768 46.9193 49.4459ZM50.2866 35.463C51.9235 36.0516 53.0883 37.0839 53.5852 38.7869C53.6794 38.6492 53.7358 38.561 53.7429 38.4666C53.8187 37.5189 53.6618 36.5969 53.4107 35.6907C53.3288 35.3942 53.0892 35.2495 52.7632 35.2777C52.609 35.2918 52.453 35.2777 52.2989 35.2777L52.2927 35.1498L52.7041 34.9645C52.4513 34.2692 51.6469 33.6886 50.9879 33.8174C50.1174 33.9877 49.247 34.2895 48.7042 35.0245C48.0514 35.9068 47.2822 36.6886 46.869 37.7766C46.2592 39.3659 45.9529 41.0558 45.966 42.7584C45.973 43.7811 46.5052 44.6299 46.9263 45.5123C46.9959 45.657 47.1201 45.777 47.2479 45.9429C47.2831 45.837 47.3025 45.8097 47.2981 45.7867C47.2899 45.7435 47.2738 45.7022 47.2505 45.665C46.81 44.9494 46.5589 44.1826 46.5897 43.332C46.6109 42.7443 46.5677 42.1505 46.6347 41.5672C46.7853 40.2552 46.9536 38.9369 47.6919 37.7881C48.1606 37.0557 48.6558 36.333 49.5562 36.0692C49.9139 35.9668 50.2513 35.8566 50.2866 35.463ZM50.1623 36.3613C49.491 36.3842 49.01 36.6066 48.6346 37.0072C47.6981 38.0086 47.3298 39.2343 47.2479 40.5657C47.2408 40.6902 47.3474 40.9099 47.4435 40.9381C48.0778 41.1234 48.7245 41.2672 49.4364 41.4419V40.2375C48.8196 40.1007 48.0981 40.2375 47.6884 39.4434L49.6549 39.7293L50.1623 36.3613ZM33.9821 44.6335C33.8887 45.7294 33.8887 45.7302 34.775 46.0364C34.9127 46.0848 35.0534 46.124 35.1962 46.1538C36.797 46.4697 38.4084 46.3223 40.0172 46.2676C40.0956 46.2676 40.2216 46.2244 40.2419 46.1705C40.4181 45.7047 40.5784 45.2317 40.7846 44.6379C38.4375 45.0782 36.2173 45.6402 33.9821 44.6335ZM48.4813 46.227C48.7104 44.727 48.9315 43.2667 49.1588 41.7719L47.0567 41.3846C46.7871 43.0964 47.18 44.6176 48.1439 45.9994C48.217 46.1035 48.3677 46.1494 48.4813 46.227ZM50.8152 46.3444L50.9412 46.4132C51.0795 46.3303 51.2548 46.2773 51.3526 46.16C52.0874 45.2819 52.6529 44.2748 53.0204 43.1899C53.0504 43.1017 52.9834 42.9005 52.9235 42.882C52.3235 42.7055 51.7165 42.5573 51.039 42.3817C50.9614 43.7564 50.8883 45.0499 50.8152 46.3444ZM47.0523 46.1944C46.8963 47.1544 47.9633 48.5715 48.8003 48.7135C49.6372 48.8556 50.9967 47.9335 51.1183 47.1103C49.6328 47.5373 48.2549 47.4156 47.0523 46.1944ZM51.0874 39.9825C51.3183 38.9237 51.5491 37.9407 51.7359 36.9463C51.7685 36.7698 51.676 36.4707 51.5412 36.3833C51.2769 36.2069 50.9377 36.1433 50.5949 36.0198C50.3897 37.3592 50.1985 38.6078 50.0029 39.8801L51.0874 39.9825ZM52.1156 36.9392L51.9967 37.008C51.8487 38.0413 51.7006 39.0745 51.5473 40.1422L53.4601 40.2304C53.6098 38.8187 52.9041 37.8604 52.1156 36.9392ZM48.7122 22.9837C48.7589 22.561 48.5527 22.366 48.2012 22.4543C47.7871 22.5575 47.3545 22.6907 47.0047 22.9228C46.4259 23.3075 46.5219 23.9816 46.4884 24.5693C46.4743 24.8234 46.5994 25.104 46.7184 25.344C47.0074 25.9255 47.5236 26.2458 48.128 26.4249C48.3042 26.4787 48.5157 26.4329 48.7113 26.432V26.2555C48.336 26.1523 47.9633 26.0384 47.5844 25.9476C47.3104 25.8823 47.1668 25.7543 47.2637 25.4102C47.5739 25.4411 47.8884 25.4834 48.2038 25.4984C48.8707 25.5373 48.8716 25.532 49.0311 25.2417C48.876 25.2231 48.7333 25.2143 48.5906 25.187C48.1201 25.0925 47.6452 25.0105 47.1809 24.8799C47.0725 24.8499 47.0118 24.6514 46.9289 24.5269C47.0523 24.4864 47.1774 24.4096 47.299 24.414C47.6241 24.4255 47.9474 24.4731 48.2681 24.5022L48.2972 24.3946L47.1518 23.9296C47.3254 23.191 47.7765 22.9069 48.7122 22.9837ZM53.8222 35.876L53.7024 35.9554C53.7905 36.2563 53.9473 36.5554 53.9561 36.8589C53.9869 37.8683 53.9667 38.8787 53.9561 39.889C53.9561 40.0972 53.9103 40.2878 54.2037 40.3681C54.2768 40.3884 54.3446 40.6928 54.2988 40.8278C54.1808 41.1808 53.9896 41.5046 53.8424 41.8469C53.6874 42.2096 53.8424 42.4452 54.1614 42.612C54.2001 42.567 54.2292 42.5475 54.2371 42.5237C54.8777 40.5755 54.9843 38.6113 54.3446 36.6445C54.2565 36.3595 54.0019 36.1301 53.8222 35.876ZM49.6091 41.9917C49.4716 43.3946 49.3227 44.7499 49.2144 46.1079C49.1738 46.6109 49.3641 46.6956 49.9756 46.5226C49.9914 46.22 49.9844 45.9103 50.0267 45.6067C50.1676 44.5902 50.3341 43.5773 50.4672 42.5599C50.4857 42.4214 50.4267 42.1796 50.3359 42.1381C50.1236 42.0411 49.8663 42.0367 49.6091 41.9917ZM51.2293 41.8875C51.8108 41.9758 52.3253 42.0137 52.8151 42.1408C53.3438 42.2758 53.4319 42.2555 53.52 41.7146C53.5558 41.5274 53.572 41.3369 53.5684 41.1463C53.5631 41.0502 53.4856 40.8887 53.4178 40.8763C52.7667 40.7519 52.1103 40.654 51.4425 40.5455C51.3623 41.044 51.3006 41.4446 51.2293 41.8875ZM49.6936 12.39L51.4161 12.2664L50.4469 10.2423L49.6936 12.39ZM49.8549 40.3046C49.8085 40.6358 49.7791 40.9692 49.7668 41.3034C49.7668 41.3916 49.9245 41.5443 50.0205 41.5522C50.2399 41.5716 50.6178 41.5875 50.6619 41.4869C50.8073 41.1543 50.8319 40.7687 50.913 40.354L49.8549 40.3046ZM54.0838 42.8873L53.8883 42.7637C53.7217 43.0178 53.5402 43.2623 53.3931 43.527C53.246 43.7917 53.1438 44.0829 53.0055 44.3538C52.7958 44.7658 52.572 45.1717 52.3544 45.5802C53.3579 44.9211 53.6372 43.8552 54.0882 42.8846L54.0838 42.8873ZM49.943 24.6672C49.8901 24.414 49.876 24.1581 49.7791 23.9375C49.6596 23.6753 49.5026 23.4318 49.313 23.2149C49.2663 23.1602 49.0663 23.236 48.9368 23.2528C48.9835 23.3684 49.0029 23.559 49.0813 23.5872C49.4047 23.7037 49.4628 23.9605 49.5016 24.2419C49.5386 24.489 49.6082 24.6981 49.9465 24.6672H49.943ZM48.5677 23.5202C48.1457 23.2978 48.0082 23.3216 47.8179 23.6869C48.1095 23.7425 48.3747 23.874 48.5694 23.5246L48.5677 23.5202ZM50.091 25.0608L49.9271 24.9611L49.5007 25.5787L49.7007 25.704L50.091 25.0608Z" fill="#D9D9D6"/>
<path d="M45.4856 81.5942C45.2847 81.5122 45.0398 81.4786 44.89 81.341C44.0248 80.5469 42.9738 80.0589 41.9526 79.5198C40.7104 78.8633 39.2743 79.5471 38.6109 80.396C38.4452 80.6077 38.3765 80.9422 38.3695 81.2236C38.3307 82.8119 38.9959 84.0596 40.2196 85.0734C41.7535 86.3431 43.505 87.0446 45.4292 87.4805C46.5561 87.7364 47.6679 88.032 48.8203 88.1608C51.2379 88.4255 53.6546 88.2773 56.0713 88.1855C57.6835 88.1377 59.2786 87.84 60.7998 87.3031C61.3055 87.1214 61.8659 87.0878 62.3645 86.8928C63.4447 86.4684 64.5425 86.0599 65.5557 85.504C66.797 84.8237 67.9583 83.9969 69.1565 83.2381C69.2947 83.1637 69.4374 83.098 69.5838 83.0413C69.6172 83.4719 69.5838 83.7719 69.2313 84.0401C68.4825 84.6031 67.8155 85.2755 67.0499 85.8163C66.3045 86.3299 65.4905 86.7446 64.6922 87.1796C64.0977 87.5123 63.485 87.8113 62.857 88.0752C61.3073 88.6999 59.7223 89.1914 58.0351 89.3105C57.221 89.3705 56.4175 89.5752 55.6043 89.6635C55.006 89.7276 54.404 89.7503 53.8026 89.7314C52.1198 89.6846 50.4353 89.6388 48.7551 89.532C47.993 89.4835 47.2406 89.1932 46.4829 89.1879C45.5138 89.1817 44.7596 88.579 43.8654 88.3937C42.9359 88.2093 42.2081 87.544 41.328 87.2678C39.6884 86.7525 38.6206 85.5278 37.6523 84.2678C37.1111 83.5346 36.7998 82.6568 36.758 81.746C36.7378 80.9775 37.1536 80.118 37.5933 79.4404C38.0241 78.776 38.847 78.5951 39.6522 78.5201C41.6337 78.3348 43.2055 79.203 44.646 80.4163C44.9984 80.7101 45.2918 81.0666 45.6151 81.3939L45.4856 81.5942Z" fill="#D9D9D6"/>
<path d="M83.3314 44.7375C83.5296 45.3472 84.0776 45.7134 84.6018 45.6145C84.7093 45.5951 84.8098 45.4566 84.8811 45.3498C84.993 45.1831 85.0785 44.9969 85.1745 44.8204C85.2943 44.8945 85.504 44.9572 85.5164 45.0472C85.5481 45.2854 85.5886 45.6198 85.4582 45.7654C85.1164 46.1457 85.1058 46.5393 85.1939 46.9875C85.4829 47.111 85.9604 46.8869 86.0045 47.3493C85.6194 47.4737 85.2327 47.5258 84.9402 47.7137C84.5349 47.9784 84.5358 48.4196 84.8803 48.7725C85.0732 48.9702 85.3164 49.1184 85.5225 49.302C85.7807 49.5173 86.0208 49.7534 86.2406 50.0079C86.6811 50.5646 86.6529 50.6935 86.3084 51.3314C86.1183 51.6916 85.9733 52.0739 85.8767 52.4697C85.7005 53.1835 85.1137 53.5956 84.2653 53.4129C84.4589 53.2961 84.6462 53.1691 84.8265 53.0326C85.0092 52.8611 85.183 52.6803 85.3472 52.4909C85.0089 52.4644 84.8089 52.4503 84.6089 52.4335C84.1005 52.3903 83.8864 52.0426 83.7622 51.6058C83.6494 51.2097 83.9552 51.0244 84.1737 50.7976C84.4829 50.4764 84.8239 50.5232 85.1736 50.7235C85.1985 50.7394 85.2251 50.7524 85.2529 50.7623C85.4291 50.8188 85.6106 50.8735 85.7895 50.9291C85.7014 50.7341 85.6538 50.4879 85.5076 50.3529C85.067 49.9479 84.5842 49.587 84.1367 49.2243C83.608 49.9637 83.1305 50.7102 82.5781 51.3994C81.6111 52.6143 80.4816 53.6901 79.2213 54.5962C78.6883 54.9774 78.1711 55.3815 77.6355 55.7539C76.1782 56.7624 74.6065 57.5186 72.8726 57.9315C71.921 58.1601 70.9968 58.5007 70.0532 58.7442C69.1334 58.9816 68.2031 59.1642 67.2692 59.3619C67.1088 59.3954 66.9344 59.3663 66.767 59.3663L66.7167 59.2207C66.8432 59.1382 66.9778 59.069 67.1185 59.0142C69.0207 58.4848 70.9836 58.1054 72.8127 57.3862C74.4717 56.7377 76.1923 56.0733 77.5491 54.7965C77.6154 54.7383 77.6858 54.685 77.7597 54.6368C79.994 53.0759 81.9887 51.2785 83.3772 48.889C83.7878 48.1831 84.2327 47.4993 84.6556 46.8013C84.7281 46.6655 84.792 46.5252 84.8468 46.3813C84.4344 46.2834 84.0212 46.2393 83.6547 46.0831C83.2882 45.9269 82.9754 45.6604 82.6442 45.446C82.5446 45.7663 82.3332 46.0981 82.3737 46.3963C82.4389 46.8781 82.2856 47.1155 81.9552 47.4631C81.5755 47.8611 81.4363 48.4884 81.1764 49.0514L81.9755 49.2579V49.4149C81.7834 49.4264 81.5852 49.474 81.401 49.4414C81.0812 49.384 80.8821 49.4687 80.7191 49.7608C79.9552 51.1294 78.9306 52.2994 77.8363 53.4015C77.3016 53.9397 76.6284 54.3385 76.0795 54.8653C75.0793 55.8129 73.9149 56.57 72.6435 57.0995C71.2435 57.6995 69.7528 57.913 68.2603 58.1583C66.648 58.423 65.1088 58.0154 63.5415 57.8521C63.4322 57.8415 63.3336 57.7242 63.2305 57.6571L63.2824 57.5318C63.8692 57.5812 64.4595 57.6095 65.0445 57.6845C67.1282 57.9492 69.181 57.7542 71.188 57.1957C72.4699 56.8427 73.5897 56.1077 74.6355 55.2968C76.5562 53.8074 78.2892 52.1317 79.5975 50.0582C79.6474 49.9682 79.7031 49.8816 79.7641 49.7987C80.0504 49.452 80.0786 49.1608 79.6715 48.8573C79.3826 48.6428 79.335 48.2996 79.5077 47.9793C79.8848 47.2822 80.3006 46.6275 81.246 46.6557C81.3579 46.6557 81.5464 46.4863 81.5772 46.3646C81.6997 45.8819 81.7534 45.3825 81.8697 44.8963C82.0089 44.3033 82.1658 43.7122 82.3446 43.1316C82.4415 42.813 82.5314 42.5827 82.1129 42.3921C81.5904 42.1539 81.5138 41.553 81.8574 41.088C82.4266 40.3168 83.2618 40.18 84.1217 40.1544C84.5455 40.1421 84.9084 40.9089 84.6767 41.2574C84.6442 41.2924 84.6035 41.3188 84.5583 41.3342C84.5131 41.3496 84.4648 41.3535 84.4177 41.3456C84.3209 41.2973 84.2442 41.2164 84.201 41.1171C84.1129 40.9459 84.2891 40.6371 83.9243 40.6168C83.5975 40.5992 82.9843 40.953 82.9094 41.2821C82.8565 41.5159 82.8574 41.8698 82.9975 42.0109C83.1675 42.1874 83.5023 42.2042 83.7719 42.266C84.2424 42.3727 84.5877 42.6065 84.8115 43.0601C85.1146 43.6725 84.6952 44.5425 84.0089 44.6484C83.7922 44.6784 83.5763 44.7031 83.3314 44.7375ZM82.8186 44.0236C83.1517 44.0236 83.4353 44.0333 83.7234 44.0236C84.1499 44.006 84.3208 43.7236 84.1525 43.3327C83.971 42.9083 83.4574 42.6057 82.9481 42.6507C82.9041 43.1148 82.8591 43.5904 82.8186 44.0219V44.0236ZM81.4169 47.1534C80.6706 47.119 80.0196 47.9634 80.2169 48.5555C80.2451 48.6437 80.3288 48.7523 80.4019 48.7646C80.4503 48.7643 80.498 48.7521 80.5406 48.7292C80.5833 48.7063 80.6198 48.6733 80.6469 48.6331C80.9032 48.1628 81.1429 47.6837 81.4169 47.1516V47.1534ZM84.6036 52.017L85.2045 51.4788C85.0151 51.3526 84.8371 51.1638 84.6318 51.1258C84.519 51.1047 84.26 51.3297 84.2477 51.4602C84.2353 51.5908 84.4318 51.7638 84.6036 52.017Z" fill="#D9D9D6"/>
<path d="M76.9147 72.6794C76.9808 73.0518 77.0381 73.4312 77.1191 73.8053C77.1513 74.0056 77.2172 74.1989 77.3138 74.3771C77.7297 75.0477 78.1764 75.7007 78.5869 76.373C78.6327 76.4489 78.5578 76.6924 78.475 76.7357C78.1587 76.9024 77.8098 76.9448 77.5614 76.6174C77.3305 76.3154 77.1256 75.9942 76.9491 75.6574C75.7932 73.4259 75.4407 71.077 75.9694 68.609C76.0327 68.3381 76.1172 68.0726 76.2222 67.8149C76.3755 67.4196 76.3412 67.0887 75.9332 66.8805C75.5694 66.6952 75.1967 66.5275 74.8275 66.3511C73.9033 65.9152 73.1201 65.3116 72.6346 64.3966C72.4637 64.0728 72.3985 63.6907 72.2822 63.3378L72.4091 63.2495C72.5034 63.3051 72.6232 63.3378 72.6875 63.4207C73.2311 64.1054 73.8408 64.7001 74.6645 65.0531C75.1127 65.2526 75.5484 65.4789 75.9694 65.7308C76.1456 65.834 76.2839 66.0105 76.4398 66.1552C76.7218 65.811 76.7218 65.811 77.5852 65.8737C77.772 66.5708 77.7112 66.7975 77.1834 67.319C77.2759 67.4355 77.3711 67.5537 77.4953 67.7081C76.9244 67.9305 76.9376 68.4873 76.8654 68.9099C76.7077 69.8417 76.6848 70.7973 76.6204 71.7441C76.6143 71.8394 76.6768 72.0088 76.7447 72.03C77.1535 72.165 77.5728 72.3582 77.9905 72.3644C79.0847 72.3803 80.1834 72.3415 81.275 72.2576C81.7715 72.2112 82.2574 72.0858 82.7146 71.8862C83.135 71.7202 83.5181 71.4718 83.8414 71.1556C84.948 69.9988 85.5154 68.5799 85.1894 67.0084C84.9392 65.7899 84.3841 64.6384 83.163 64.0145C82.8774 63.8609 82.5643 63.7651 82.2417 63.7327C81.9191 63.7003 81.5933 63.7319 81.2829 63.8257C80.9551 63.9281 80.63 64.229 80.4336 64.5263C79.8979 65.3363 80.2371 66.7958 81.0168 67.2793C81.2115 67.3986 81.439 67.453 81.6665 67.4346C81.894 67.4162 82.1098 67.326 82.2829 67.177C82.5965 66.8955 82.6494 66.4993 82.4326 66.0502C82.1745 65.5146 81.6062 65.4484 81.2318 65.9116C81.1569 65.9999 81.0855 66.0969 80.9816 66.2284C80.8292 65.661 81.2864 65.0504 81.8027 65.0231C82.5824 64.9825 83.519 65.729 83.6071 66.4675C83.689 67.1452 82.9463 68.0452 82.1771 68.2023C81.208 68.399 80.0221 67.7408 79.6627 66.8046C79.6309 66.7225 79.6089 66.6361 79.5746 66.5566C79.3103 65.9866 79.1684 65.4484 79.4618 64.8025C79.8001 64.0604 80.208 63.4075 80.8714 62.9407C81.0117 62.8596 81.1703 62.8158 81.3322 62.8136C82.3956 62.7448 83.4687 62.781 84.4229 63.2769C84.8106 63.4781 85.0916 63.9545 85.3277 64.3604C85.6352 64.8899 85.9339 65.451 86.081 66.0369C86.2519 66.7217 86.3973 67.469 86.3004 68.1546C86.1183 69.4245 85.5667 70.6125 84.7145 71.5703C83.8335 72.5665 82.7322 73.0871 81.3666 73.0112C80.2988 72.9512 79.2266 72.9556 78.1587 72.8947C77.7121 72.8674 77.2724 72.7438 76.9147 72.6794Z" fill="#D9D9D6"/>
<path d="M43.5704 9.41859L45.706 8.91211C45.232 9.618 45.2364 9.618 45.4364 10.4615C45.6267 11.2601 45.7774 12.0692 45.9959 12.8598C46.3069 13.9884 46.0514 14.9325 45.2294 15.7602C44.6232 16.3708 44.1087 17.0696 43.3545 17.5249C42.0911 18.2926 40.7114 18.4373 39.2824 18.319C39.1799 18.3127 39.0778 18.3007 38.9767 18.2829C38.1767 18.1258 37.5106 18.2502 36.7882 18.7646C35.6789 19.5588 34.3662 19.7352 33.1424 18.9561C31.9971 18.2308 31.3433 17.1623 31.39 15.7513C31.4035 15.36 31.4942 14.9752 31.6569 14.6192C31.8196 14.2631 32.0511 13.9429 32.338 13.6769C33.5151 12.5422 35.686 11.8575 37.1688 13.1589C38.2912 14.1463 38.8172 15.5325 38.1837 17.0025C38.1393 17.1217 38.1011 17.243 38.0692 17.3661C39.9194 17.9767 43.7078 17.2399 44.5149 16.0637C44.2955 16.1061 44.1334 16.1343 43.9721 16.1678C42.4744 16.4846 41.5052 16.0602 41.0066 14.5751C40.7211 13.7298 40.5299 12.851 40.2964 11.988C40.1264 11.3607 40.1431 10.5763 39.0912 10.6724C39.1132 10.631 39.1352 10.5895 39.1564 10.548L41.6171 9.95772C41.5061 10.1015 41.4145 10.1845 41.3687 10.2886C41.3017 10.4377 41.1977 10.6177 41.2303 10.7563C41.4947 11.8972 41.766 13.0398 42.0911 14.1657C42.2568 14.7419 42.5123 15.3066 43.1202 15.5819C44.1968 16.0708 45.5527 15.1478 45.4038 13.969C45.2955 13.1157 45.0241 12.2828 44.8179 11.4427C44.714 11.0166 44.5624 10.5983 44.4902 10.1668C44.425 9.77771 44.2532 9.59153 43.8558 9.60918C43.7517 9.6003 43.6492 9.57776 43.551 9.54212L43.5704 9.41859ZM37.5027 16.639C37.4965 15.2325 36.4031 13.7378 35.1045 13.241C33.9539 12.7998 32.1583 13.8234 32.383 15.3181C32.6076 16.8128 33.286 17.9749 34.7706 18.5299C36.1309 19.0373 37.5097 18.0799 37.5027 16.639Z" fill="#D9D9D6"/>
<path d="M25.1559 73.6525C25.4651 74.1007 25.7647 74.5895 26.1197 75.0343C26.4748 75.479 26.8554 75.9422 27.3003 76.3022C27.7232 76.6446 28.2439 76.8652 28.7223 77.1387C28.9752 77.2834 29.2439 77.4034 29.4827 77.5728C30.0113 77.9426 30.6007 78.1181 31.2368 78.2099C32.4007 78.3784 33.5636 78.5311 34.7372 78.3449C35.1389 78.2796 35.5301 78.1376 35.9275 78.052C36.1223 78.0226 36.319 78.007 36.516 78.0052L36.5627 78.1102C36.4385 78.2126 36.3274 78.344 36.1865 78.4137C35.3959 78.8034 34.5424 79.0487 33.6658 79.1382C32.4914 79.2643 31.3073 79.3146 30.1681 79.0349C28.8839 78.7187 27.6945 78.0977 26.7003 77.2243C25.6625 76.3252 24.8202 75.2928 24.5039 73.9145C24.4317 73.6004 24.2017 73.6992 24.0158 73.6922C23.2652 73.6631 22.5956 73.1001 22.4678 72.3783C22.3577 71.7607 22.6026 71.3195 23.3321 71.0371C23.7594 70.8695 23.9198 70.6233 23.9092 70.1803C23.9013 69.8194 23.9674 69.4577 24.0052 69.0412C23.4299 69.523 22.8898 69.958 22.37 70.4159C21.9586 70.7795 21.8414 70.7812 21.7049 70.2536C21.5506 69.659 21.4471 69.0524 21.3956 68.4403C21.289 67.0488 21.2317 65.6529 21.1568 64.2596C21.1489 64.1158 21.1568 63.9711 21.1568 63.8273L21.2916 63.7461C21.4035 63.8705 21.5903 63.9835 21.6132 64.1229C21.7286 64.8288 21.8026 65.5417 21.8881 66.252C22.0194 67.3409 22.1471 68.4297 22.2925 69.6518C22.5771 69.4012 22.8 69.2468 22.9709 69.0483C23.5709 68.3477 24.1418 67.6223 24.7462 66.9306C25.1101 66.5114 25.0466 66.1126 24.7955 65.6829C24.6616 65.4535 24.4114 65.2126 24.7074 64.947C24.9101 64.7643 25.3242 64.9179 25.5788 65.2382C25.6431 65.3185 25.7065 65.3997 25.7717 65.4791C26.2898 66.1029 26.3056 66.1135 25.8334 66.7947C25.5012 67.2738 25.1171 67.7176 24.7603 68.18C24.6916 68.2682 24.5947 68.3688 24.5841 68.4685C24.5383 69.1824 24.5136 69.898 24.4854 70.5201C24.8228 70.7415 25.1154 70.9524 25.4281 71.1298C25.54 71.1924 25.7021 71.158 25.8352 71.1924C26.0757 71.2533 26.3946 71.2639 26.5241 71.4236C26.6307 71.5542 26.5911 71.9318 26.4722 72.0933C26.0774 72.6263 25.6167 73.116 25.1559 73.6525ZM23.7691 71.623C23.437 72.0695 23.4414 72.6386 23.7427 72.7772C24.3673 73.0639 25.6387 72.5345 25.9021 71.8604C25.8005 71.8112 25.704 71.752 25.614 71.6839C25.5189 71.5957 25.4546 71.4765 25.3656 71.3821C25.3058 71.3136 25.2285 71.2627 25.1421 71.2347C25.0556 71.2068 24.9632 71.2029 24.8748 71.2235C24.7863 71.244 24.705 71.2883 24.6397 71.3515C24.5744 71.4147 24.5274 71.4946 24.5039 71.5824C24.4616 71.7174 24.429 71.8551 24.3726 72.0633L23.7691 71.623Z" fill="#D9D9D6"/>
<path d="M70.791 49.3544C70.9202 49.2782 71.0565 49.215 71.1981 49.1655C74.524 48.3379 76.7098 46.0825 78.6323 43.4028C79.6234 42.021 79.4076 40.588 79.2789 39.1171C79.2323 38.5877 79.0146 38.068 78.9142 37.5368C78.8023 36.9633 78.7124 36.3836 78.6499 35.8021C78.6102 35.4429 78.4737 35.1844 78.1292 35.0671C77.7054 34.9206 77.5829 34.6003 77.6376 34.1988C77.6896 33.8212 77.6825 33.477 77.4129 33.1664C77.3442 33.0879 77.3706 32.9264 77.4429 32.7526L78.2208 33.5185L78.397 33.3897C78.279 33.125 78.1776 32.8541 78.0367 32.6026C77.8517 32.2717 77.6208 31.9655 77.4411 31.632C77.3715 31.5041 77.3882 31.3311 77.3627 31.1608C77.8279 31.1264 78.0076 31.4388 78.1909 31.707C78.3882 31.9992 78.5598 32.308 78.7036 32.63C78.8798 33.02 79.0834 33.2944 79.5679 33.095C79.634 33.0676 79.7292 33.1091 79.812 33.1197C79.8032 33.1735 79.812 33.2079 79.7935 33.2273C79.664 33.372 79.3917 33.5873 79.4217 33.6429C79.6331 34.0365 79.5706 34.5862 80.0825 34.8165C80.8754 35.1694 80.9961 35.4809 80.7071 36.3165C80.6137 36.5856 80.5115 36.8521 80.4111 37.1274C80.3723 37.1194 80.4252 37.1142 80.4463 37.1371C80.9106 37.6445 81.4454 37.5253 81.9996 37.333C82.1 37.2977 82.2269 37.3383 82.4137 37.348C82.385 37.5049 82.342 37.6587 82.2851 37.8077C82.2146 37.9498 82.0613 38.0583 82.0146 38.2039C81.9265 38.4862 81.8102 38.7977 81.8604 39.0686C81.8807 39.1798 82.3009 39.2451 82.5423 39.2786C82.8135 39.2989 83.0857 39.3016 83.3573 39.2865L83.4207 39.4251C83.3229 39.5133 83.2286 39.6792 83.1256 39.6845C82.6066 39.7127 82.0683 39.7727 81.567 39.6845C80.9935 39.5813 80.8965 39.3104 81.056 38.7439C81.115 38.5374 81.1644 38.3283 81.2164 38.1262L79.5494 37.7071C80.6234 42.3748 79.6763 46.7134 77.1592 50.7194C75.6544 53.1132 73.7998 55.2133 71.2888 56.6039L71.1743 56.4839C72.1002 55.6492 73.0914 54.8745 73.9337 53.9612C74.81 53.0195 75.5983 51.9993 76.2887 50.9135C76.9555 49.8276 77.5269 48.6856 77.9962 47.5005C78.4728 46.3331 78.7891 45.0996 79.1248 43.8828C77.3768 46.387 75.1821 48.2867 72.28 49.2829C71.8236 49.4391 71.3232 49.4673 70.8439 49.5547C70.8289 49.485 70.8104 49.4197 70.791 49.3544ZM79.249 36.5856C79.5159 36.4674 79.9344 36.373 79.9344 36.2662C79.93 35.9551 79.8385 35.6515 79.6701 35.39C79.582 35.2497 79.3063 35.2285 79.0049 35.1112L79.249 36.5856ZM79.0138 34.7326C79.0534 34.6973 79.2023 34.6294 79.2287 34.5297C79.2913 34.3003 78.8675 33.7956 78.6314 33.8379C78.5507 33.861 78.4767 33.9029 78.4154 33.9603C78.3541 34.0177 78.3073 34.0889 78.279 34.1679C78.2155 34.4529 78.5354 34.7053 79.0102 34.7282L79.0138 34.7326Z" fill="#D9D9D6"/>
<path d="M62.7039 28.2364L62.2325 28.4526C62.3761 28.5911 62.4801 28.7111 62.6034 28.8056C62.8589 29.005 62.9347 29.2035 62.7558 29.5203C62.6677 29.6826 62.6677 29.9394 62.7144 30.1335C62.829 30.6118 63.0528 31.0662 62.7823 31.5727C62.7092 31.7112 62.7708 31.9194 62.7603 32.0959C62.6995 33.1398 62.6475 34.1854 62.5594 35.2274C62.5488 35.3571 62.3453 35.471 62.1814 35.6448C62.1981 35.7077 62.2227 35.7681 62.2545 35.8248C62.577 36.3542 62.5788 36.3542 62.0343 36.4919C61.9708 36.8889 62.0158 37.346 61.8228 37.6513C61.4739 38.2072 61.5074 38.8601 61.1682 39.4425C60.829 40.0249 60.481 40.6319 60.1251 41.2072C59.5964 42.0605 58.955 42.8396 58.3462 43.6399C58.1091 43.9549 57.8491 44.2519 57.5683 44.5285C57.4071 44.6668 57.2025 44.744 56.9903 44.7464C57.2781 44.2664 57.5662 43.7864 57.8546 43.3064C58.3727 42.4426 58.9656 41.6131 59.3991 40.7069C59.9427 39.5716 60.4135 38.4027 60.8087 37.2075C61.3735 35.4992 61.8431 33.7592 61.6766 31.923C61.629 31.4015 61.5761 30.8818 61.5268 30.3771C60.0334 30.3365 58.6194 30.3082 57.1974 30.2473C57.0467 30.2412 56.904 30.047 56.7568 29.9403C56.8925 29.8688 57.0326 29.7276 57.1648 29.7347C58.5665 29.8035 59.9665 29.8953 61.4087 29.9835C61.4112 29.8973 61.4056 29.811 61.392 29.7259C61.0273 27.79 60.3269 25.9331 59.3224 24.2393C59.0334 23.754 58.6079 23.3481 58.222 22.9272C57.9824 22.6625 57.941 22.4772 58.2634 22.2531C58.4396 22.1304 58.5656 21.939 58.7735 21.7148C58.9409 21.9054 59.1321 22.0387 59.2035 22.2196C59.3797 22.6607 59.7092 22.899 60.0845 23.1425C60.3527 23.3333 60.5843 23.5709 60.7682 23.844C60.8299 23.9322 60.7189 24.1396 60.7612 24.2596L61.0255 25.1305C61.5136 25.119 61.7145 25.4605 61.6237 26.0579C61.6008 26.2114 61.7039 26.3967 61.7832 26.5493C62.073 27.0938 62.3744 27.6302 62.7039 28.2364Z" fill="#D9D9D6"/>
<path d="M62.1248 78.476C61.4958 78.2246 60.8852 77.9219 60.3813 77.4534C58.6394 75.836 56.9452 74.1692 55.1629 72.5942C54.5514 72.0533 53.7726 71.6845 53.0316 71.3121C52.2625 70.9248 51.4546 70.6115 50.6528 70.3009C50.2757 70.1418 49.8769 70.0404 49.4696 70.0001C47.6547 69.8906 45.8477 69.9921 44.1517 70.698C43.1587 71.1118 42.2354 71.6915 41.2821 72.198C41.1817 72.2518 41.0874 72.3154 40.9015 72.4274C41.0892 71.9563 40.846 71.8098 40.5562 71.6333C39.8452 71.1921 39.3729 70.5798 39.4214 69.6842C39.43 69.5265 39.4712 69.3724 39.5424 69.2315C39.6135 69.0906 39.7132 68.9661 39.8349 68.8658C39.9567 68.7655 40.0979 68.6917 40.2497 68.6489C40.4014 68.6061 40.5604 68.5954 40.7165 68.6174C40.2698 69.0356 40.1879 69.5324 40.291 70.0759C40.3676 70.4704 40.6927 70.6327 40.9958 70.3927C41.0839 70.3221 41.1024 70.1165 41.0945 69.9762C41.068 69.5227 41.0064 69.07 40.9773 68.6165C40.972 68.5547 41.0284 68.44 41.0733 68.4312C41.5799 68.32 42.0892 68.2203 42.6019 68.1436C42.6204 68.1436 42.7112 68.4083 42.7121 68.5459C42.7121 68.9059 42.6548 69.2668 42.6759 69.6242C42.683 69.7503 42.8521 69.8668 42.9402 69.9877L43.083 69.9118C43.0539 69.7645 42.9949 69.6162 43.0028 69.4706C43.0082 69.1409 43.0445 68.8124 43.1112 68.4894C43.1409 68.421 43.1871 68.361 43.2457 68.3148C43.3043 68.2686 43.3734 68.2376 43.4468 68.2247C43.5219 68.2305 43.5945 68.2542 43.6585 68.2938C43.7226 68.3334 43.7763 68.3878 43.8151 68.4524C43.9272 68.7369 44.0157 69.0303 44.0794 69.3295C44.1208 69.4839 44.1402 69.6436 44.1825 69.8721C44.4962 69.8095 44.8054 69.7909 45.0812 69.685C46.3393 69.2033 47.6362 68.8644 48.9824 68.9747C50.2053 69.0762 51.4282 69.2147 52.5753 69.7768C53.5629 70.2612 54.5083 70.7862 55.3849 71.4533C56.9135 72.611 58.0069 74.1816 59.3249 75.5387C60.1724 76.4104 61.0579 77.2451 61.9266 78.0975C62.0147 78.1857 62.1098 78.2696 62.2015 78.356C62.1786 78.3949 62.1521 78.4355 62.1248 78.476ZM43.794 70.2101L43.7235 70.0812C42.9129 70.3459 42.1006 70.6009 41.2953 70.8754C41.2072 70.9071 41.1509 71.0518 41.0804 71.1462C41.1738 71.1983 41.2689 71.2989 41.3588 71.2954C42.3209 71.2557 43.0513 70.7183 43.794 70.2101ZM41.3782 69.1424C41.4231 69.3586 41.4231 69.5174 41.4909 69.6383C41.5464 69.7353 41.6839 69.7856 41.7843 69.8571C41.8442 69.7495 41.9403 69.6462 41.9544 69.5324C41.9669 69.4005 41.9383 69.2679 41.8724 69.153C41.8037 69.0365 41.676 68.9562 41.5729 68.8609L41.3782 69.1424Z" fill="#D9D9D6"/>
<path d="M25.9469 31.4808C26.992 30.5388 28.2727 29.8984 29.6525 29.6279C30.0124 29.5581 30.3777 29.5203 30.7442 29.5149C30.8693 29.5149 30.9979 29.6411 31.1239 29.7099C31.0049 29.8123 30.8992 29.9517 30.7609 30.0046C30.6226 30.0576 30.4428 30.0426 30.2816 30.0382C29.5636 30.0188 28.9319 30.2614 28.3433 30.6514C27.6385 31.1155 26.9337 31.5708 26.1795 32.0632L28.694 41.1516C29.153 41.0395 29.4411 41.1604 29.3741 41.7022C29.3745 41.7612 29.3897 41.8191 29.4182 41.8707C29.6402 42.3684 30.9362 43.1616 31.4922 43.1501C31.8305 43.1431 31.9661 43.0098 31.8983 42.6525C31.7723 41.9889 31.6622 41.321 31.5776 40.6513C31.5609 40.5198 31.6877 40.3707 31.7485 40.2304C31.9203 40.3266 32.1891 40.3848 32.2463 40.5277C32.4349 41.0139 32.5476 41.5292 32.6868 42.0331C32.8794 41.9489 33.0341 41.7963 33.121 41.6047C33.2078 41.4131 33.2208 41.196 33.1573 40.9954C32.7917 39.9269 32.0366 39.4592 30.8569 39.7601C30.8508 39.7063 30.8437 39.6524 30.8375 39.5977C30.9574 39.5148 31.0657 39.3948 31.1988 39.3542C32.041 39.0957 32.7256 39.4424 33.3185 39.9922C34.2084 40.8128 34.1265 41.6889 33.137 42.4019C33.0445 42.4681 32.9203 42.5528 32.9009 42.6481C32.7635 43.3116 32.175 43.354 31.6992 43.5207C31.2005 43.6972 30.7063 43.7643 30.1697 43.5207C29.2746 43.1113 28.7169 42.5051 28.6402 41.5019C28.6341 41.4136 28.6182 41.291 28.5618 41.2557C27.783 40.773 27.7601 39.8942 27.4826 39.1618C26.939 37.7227 26.4103 36.2756 25.9504 34.8082C25.3073 32.7523 24.717 30.6805 24.1399 28.6052C23.9945 28.0758 24.0007 27.512 23.998 26.9287C24.96 27.7141 25.8341 28.6017 26.605 29.5758L26.4852 29.717L24.8218 28.3502C25.1901 29.372 25.5557 30.3902 25.9469 31.4808Z" fill="#D9D9D6"/>
<path d="M64.3795 79.0998C65.887 78.806 67.0764 78.0569 67.7495 76.616C68.3116 75.4124 68.9019 74.2106 69.8851 73.3115C70.6314 72.635 71.5959 72.2504 72.6022 72.228C72.8551 72.2191 73.0674 72.3515 73.0198 72.6127C72.9943 72.7565 72.7908 72.8844 72.6436 72.9841C72.5705 73.0327 72.441 73.0194 72.3423 73.0036C71.1432 72.813 70.404 73.578 69.8552 74.6942C69.4737 75.4671 69.197 76.2921 68.8261 77.0704C68.3944 77.9739 67.7089 78.6789 66.7759 79.0292C65.983 79.3284 65.1407 79.6125 64.2509 79.294C64.1407 79.2542 63.9284 79.376 63.8192 79.481C63.3134 79.9654 62.8729 80.5293 62.3214 80.9537C61.6289 81.4884 60.8615 81.9243 60.1117 82.3822C59.7341 82.6046 59.3431 82.8032 58.9408 82.977C58.5426 83.1534 58.1241 83.2893 57.7233 83.464C56.5065 83.9934 55.2088 84.1955 53.911 84.3737C53.1736 84.4761 52.4212 84.4752 51.6749 84.5158C51.5873 84.5255 51.4986 84.5133 51.4168 84.4805C51.3301 84.4228 51.2508 84.3546 51.1807 84.2776C51.2617 84.2299 51.3393 84.1487 51.4238 84.1408C51.8917 84.0993 52.3604 84.0482 52.8335 84.0526C53.9639 84.0526 54.9753 83.6114 56.0123 83.2584C56.2766 83.1702 56.5479 83.1155 56.814 83.0378C57.0248 82.9849 57.231 82.9153 57.4307 82.8296C57.8546 82.6389 58.2665 82.4227 58.6642 82.1819C59.5611 81.6075 60.4809 81.0552 61.3073 80.3934C62.0121 79.8331 62.5919 79.1254 63.2456 78.4981C63.4412 78.3101 63.7108 78.1998 63.9029 78.0092C64.2165 77.6986 64.4861 77.3448 64.7901 77.0236C64.9446 76.8794 65.1082 76.7453 65.2799 76.6221C65.2729 76.8339 65.331 77.0783 65.2464 77.2522C64.9513 77.8504 64.6059 78.4248 64.2773 79.0081L64.3795 79.0998Z" fill="#D9D9D6"/>
<path d="M70.9372 83.5381C71.2095 83.5116 71.4244 83.4781 71.6421 83.4763C71.7302 83.4763 71.8641 83.5222 71.8976 83.5884C71.931 83.6546 71.8685 83.7958 71.8042 83.8425C71.3055 84.1955 70.8112 84.5678 70.2844 84.8784C69.9276 85.0884 69.6447 84.8555 69.6632 84.394C69.7064 83.329 70.1637 82.4122 70.7452 81.5563C71.346 80.674 72.087 79.8666 72.568 78.9242C73.0214 78.0057 73.3424 77.0274 73.5213 76.0186C73.7777 74.6624 73.8799 73.2621 73.5116 71.9041C73.1592 70.5929 72.6182 69.3267 71.635 68.3676C71.0835 67.8302 70.3461 67.4737 69.6668 67.0811C69.1258 66.7678 68.5135 66.5746 67.9928 66.2384C67.0853 65.6561 66.2202 65.0031 65.3409 64.381C65.2321 64.2936 65.1286 64.2 65.0308 64.1004C65.0537 64.0537 65.0775 64.0078 65.1012 63.9619C65.2703 64.0119 65.4348 64.0762 65.5929 64.1543C66.4202 64.6502 67.2122 65.2131 68.0721 65.6455C69.0483 66.1343 70.0923 66.4855 71.0896 66.9328C72.5566 67.5911 73.5345 68.6349 73.8966 70.2779C74.212 71.7082 74.4719 73.1271 74.3838 74.5936C74.2711 76.4774 73.849 78.2836 72.8165 79.8825C72.1328 80.9413 71.5751 82.0575 71.0315 83.1861C70.9893 83.3002 70.9577 83.4181 70.9372 83.5381Z" fill="#D9D9D6"/>
<path d="M17.562 65.3314C17.732 65.9235 17.902 66.5147 18.08 67.1306C17.1937 66.4432 16.2448 66.8535 15.3426 66.9267C14.0281 67.0326 12.7224 67.2408 11.4123 67.4023C11.3064 67.4095 11.2008 67.3846 11.1092 67.3308C12.37 65.9597 13.8404 64.8135 15.2959 63.4767L9.71542 62.4902L9.68018 62.3667C9.78302 62.273 9.89521 62.1902 10.015 62.1196C11.5832 61.4049 13.1524 60.6902 14.7276 59.9913C15.2395 59.7646 15.6801 59.5149 15.5488 58.8125L15.6871 58.8196L16.2289 60.5843L12.2898 62.2546L12.3295 62.4055L16.8924 63.1361C16.9109 63.189 16.9302 63.2429 16.9496 63.2958C15.9444 64.464 14.7356 65.4258 13.4625 66.4926C13.6845 66.5076 13.777 66.5314 13.8642 66.5173C14.7893 66.3664 15.71 66.1811 16.6395 66.0647C17.1302 66.002 17.4263 65.8008 17.562 65.3314Z" fill="#D9D9D6"/>
<path d="M52.4722 25.166C52.5982 25.3275 52.7303 25.4863 52.851 25.6522C53.2255 26.1693 53.3541 26.2328 53.962 26.0484C54.6898 25.8278 55.4078 25.5728 56.132 25.3425C56.3417 25.2745 56.5585 25.2295 56.7717 25.1748L56.8659 25.3372C56.7452 25.451 56.643 25.616 56.4994 25.6707C55.6272 26.006 54.7435 26.3104 53.8695 26.6413C53.7479 26.6872 53.6537 26.8055 53.5462 26.891C53.6819 26.966 53.8264 27.1196 53.9515 27.1046C55.0722 26.974 56.1884 26.8037 57.3082 26.6705C57.495 26.6475 57.8228 26.4005 57.8703 26.8116C57.9117 27.1752 57.5664 27.1408 57.3338 27.1796C56.2501 27.3614 55.1664 27.5396 54.0801 27.709C53.859 27.7425 53.7832 27.8281 53.8017 28.0531C53.9365 29.6679 53.8176 31.2508 53.185 32.7641C53.1753 32.7879 53.185 32.8206 53.1973 32.9212C53.7303 32.9794 54.2757 33.0482 54.8237 33.0976C55.2034 33.1312 55.5849 33.1418 55.9691 33.1523C56.3215 33.162 56.725 33.2918 56.8783 32.7809C56.8933 32.7306 57.0545 32.6926 57.1426 32.7023C58.4512 32.8717 59.7584 33.0482 61.0641 33.2318C61.1785 33.2615 61.2888 33.305 61.3927 33.3615C61.3883 33.4091 61.383 33.4568 61.3786 33.5044C61.1954 33.5367 61.0096 33.5527 60.8236 33.5521C59.7284 33.4523 58.6333 33.35 57.5408 33.2238C57.1884 33.1832 57.0122 33.2423 56.9778 33.6509C56.9179 34.3109 56.7911 34.3038 56.1453 34.1494C55.191 33.9244 54.2243 33.7558 53.2502 33.6447C51.4458 33.4338 49.6379 33.2794 47.8265 33.0959C47.6705 33.08 47.4741 33.0641 47.3763 32.9662C47.2194 32.8047 47.1313 32.5762 47.0142 32.3759C47.2009 32.3441 47.3948 32.2664 47.5754 32.2876C48.985 32.4706 50.3929 32.6659 51.7991 32.8735C52.1744 32.93 52.3356 32.8109 52.4748 32.4517C53.1999 30.5873 53.3039 28.6734 52.9568 26.7305C52.8687 26.2222 52.5955 25.7457 52.407 25.2551L52.4722 25.166Z" fill="#D9D9D6"/>
<path d="M61.5444 59.6482C62.2061 59.7171 62.866 59.7753 63.5294 59.8582C64.3091 59.9571 65.0827 60.1424 65.8642 60.1759C67.859 60.25 69.8564 60.1324 71.8288 59.8247C73.6964 59.5411 75.5232 59.0339 77.2701 58.3141C77.441 58.247 77.5814 58.1196 77.6648 57.9559C77.8348 57.5226 78.1837 57.295 78.5793 57.3144C79.6093 57.3664 80.3097 56.7188 81.0277 56.1858C81.9881 55.4738 82.8488 54.6285 83.7589 53.8449C83.8782 53.7553 84.0029 53.6734 84.1325 53.5996C84.3343 53.9808 84.3598 54.234 84.0444 54.5623C83.0409 55.6061 81.9493 56.5273 80.6841 57.2314C80.4277 57.3744 80.4612 57.4961 80.5758 57.7194C80.6727 57.9091 80.981 58.1394 80.6727 58.337C80.5846 58.3909 80.2595 58.1694 80.1185 58.0079C79.93 57.7926 79.7661 57.7326 79.515 57.8659C79.1626 58.0485 78.8102 58.2109 78.4498 58.3785C78.1388 58.525 78.2304 58.7482 78.3899 58.9079C78.672 59.1848 78.97 59.445 79.2824 59.6871C79.5943 59.9403 79.5846 60.0612 79.2075 60.2262C78.9529 60.3374 78.6965 60.4468 78.4357 60.5447C78.0683 60.6815 77.7503 60.8509 77.6022 61.2612C77.5652 61.3636 77.3327 61.4783 77.2216 61.4527C77.0454 61.4103 76.8296 61.2886 76.7547 61.1377C76.6939 61.0159 76.76 60.723 76.8692 60.6453C77.1264 60.4812 77.4064 60.3561 77.7 60.2738C78.0296 60.1653 78.3723 60.0974 78.7908 59.9924L77.4833 58.8126C77.1186 58.9741 76.7106 59.2282 76.2675 59.335C74.6904 59.7162 73.1037 60.0568 71.5169 60.3938C69.7275 60.7759 67.9126 60.8306 66.0897 60.7971C64.8148 60.7741 63.6052 60.4441 62.3938 60.1C62.0968 60.0171 61.8008 59.9297 61.5039 59.8441L61.5444 59.6482Z" fill="#D9D9D6"/>
<path d="M73.2656 20.6955C73.3478 20.6843 73.4311 20.6843 73.5132 20.6955C73.907 20.834 74.1713 20.6822 74.4136 20.3663C75.3748 19.109 76.3519 17.8639 77.321 16.6145C77.5298 16.3498 77.6435 16.0913 77.299 15.8283C77.2109 15.7586 77.1695 15.6183 77.1686 15.4551C77.4452 15.6757 77.7219 15.8963 78.0003 16.1169C78.7571 16.7142 79.565 17.2578 80.261 17.9195C81.4566 19.0596 82.1367 20.5516 80.7271 22.3649C79.7721 23.6002 78.1448 24.0352 76.7704 23.3302C76.2332 23.0405 75.7226 22.7039 75.2444 22.3243C74.5837 21.8178 73.9572 21.2655 73.2656 20.6955ZM78.41 17.0636C77.3457 18.4666 76.2999 19.8369 75.2735 21.2214C75.2109 21.3096 75.2488 21.5567 75.3308 21.6423C75.6402 21.9732 75.9758 22.2786 76.3343 22.5555C77.2364 23.2349 78.2602 23.1608 79.0804 22.379C79.2784 22.2056 79.459 22.0132 79.6196 21.8046C80.2214 20.9487 80.6434 20.0602 80.172 18.981C79.8152 18.1631 79.1818 17.6186 78.41 17.0636Z" fill="#D9D9D6"/>
<path d="M15.2457 50.1302C14.9153 49.5779 14.384 49.5487 13.8624 49.4817C12.629 49.3246 11.3955 49.1693 10.1621 48.992C9.67748 48.9214 9.22375 48.8455 9.02551 49.4552C9.00789 49.5099 8.9286 49.5434 8.81494 49.6449C9.03608 48.2331 9.18234 46.8981 9.46691 45.586C9.83078 43.9096 11.0369 43.0051 12.6343 43.0642C14.3347 43.1278 15.5831 44.2051 15.8483 45.8808C15.9131 46.2876 15.9131 46.7022 15.8483 47.109C15.6835 48.1061 15.458 49.0899 15.2457 50.1302ZM9.55325 47.7372C10.044 47.8158 10.4872 47.8917 10.9312 47.9561C12.0466 48.1184 13.1611 48.2825 14.2792 48.4317C15.0236 48.5323 15.1954 48.4317 15.2827 47.6631C15.3505 47.0849 15.347 46.5005 15.2721 45.9231C15.1998 45.3831 14.8377 44.9896 14.3611 44.6878C13.6977 44.2749 12.9646 44.2466 12.2395 44.3031C11.8079 44.347 11.3921 44.4891 11.0237 44.7187C9.95501 45.3893 9.75854 46.5205 9.55325 47.7372Z" fill="#D9D9D6"/>
<path d="M91.4759 74.7626L84.6355 76.1117C84.8117 76.2661 84.943 76.4144 85.1033 76.5132C86.0725 77.1132 87.0416 77.7256 88.0363 78.2779C88.2469 78.3935 88.5931 78.2629 88.9323 78.2417L87.8724 79.8556L87.7614 79.8344C87.9729 79.3359 87.6892 79.0809 87.3438 78.8435C85.9183 77.8653 84.4954 76.8835 83.0752 75.8982C82.9178 75.795 82.7805 75.6641 82.6699 75.5117C84.8628 74.8843 87.0813 74.4529 89.4407 74.0549C88.8654 73.6914 88.3693 73.3755 87.8716 73.0649C87.4742 72.8169 87.0584 72.5955 86.6786 72.3237C86.1817 71.9708 85.7033 71.6884 85.1077 72.1825L86.2099 70.3887C86.2645 70.4257 86.3104 70.4469 86.3077 70.4566C86.1253 71.1493 86.6363 71.406 87.0848 71.706C88.3881 72.5761 89.6894 73.4487 90.9886 74.324C91.1602 74.4596 91.323 74.6061 91.4759 74.7626Z" fill="#D9D9D6"/>
<path d="M21.8613 28.5721C21.286 28.1706 20.8173 27.8326 20.338 27.5132C19.716 27.0985 19.0816 26.7032 18.4578 26.2911C18.1486 26.0864 17.8993 26.0776 17.6913 26.4323C17.6482 26.5056 17.5248 26.5312 17.4385 26.5788L17.3609 26.4906L18.6147 24.6641L18.6887 24.6985C18.6912 24.7953 18.683 24.8921 18.664 24.987C18.5636 25.3091 18.7001 25.5076 18.9583 25.6929C20.3468 26.6717 21.7297 27.6603 23.1071 28.6585C23.278 28.783 23.3952 28.9806 23.5379 29.1438L23.4806 29.3124L16.9231 30.4806C17.0341 30.5863 17.1518 30.6848 17.2755 30.7753C18.2346 31.3689 19.1964 31.9592 20.1609 32.5463C20.4525 32.7227 20.7362 32.7571 20.9838 32.451C21.0287 32.3954 21.1247 32.3804 21.2604 32.406L20.0005 34.2492C19.9741 34.161 19.923 34.0816 19.9442 34.0427C20.1785 33.6122 19.9001 33.418 19.5979 33.201C18.2878 32.2595 16.9874 31.3056 15.6826 30.3545C15.4359 30.178 15.1839 30.0015 14.9346 29.825L14.976 29.6486L21.8613 28.5721Z" fill="#D9D9D6"/>
<path d="M48.8062 86.2084C49.1277 86.2445 49.3982 86.2843 49.6696 86.3037C51.657 86.4466 53.6545 86.304 55.6016 85.8801C57.1108 85.5484 58.62 85.1954 60.1028 84.7621C61.8552 84.2382 63.5167 83.4471 65.0287 82.4168C65.3811 82.1803 65.8851 82.1777 66.3124 82.0435C66.463 81.9968 66.589 81.8759 66.73 81.7965C66.834 81.7382 66.9943 81.62 67.0445 81.6562C67.1797 81.7539 67.2862 81.8861 67.3529 82.0391C67.3714 82.0806 67.2163 82.2156 67.1247 82.288C66.9168 82.4657 66.6966 82.6285 66.4657 82.775C65.5459 83.3115 64.6155 83.8339 63.6895 84.3633C61.8966 85.3728 59.9345 85.8942 57.946 86.3266C57.1311 86.5031 56.2923 86.5701 55.4791 86.7546C54.4148 86.9955 53.3409 87.0369 52.2633 87.0034C51.3092 86.9743 50.3559 86.8975 49.4044 86.8207C49.089 86.7943 48.8837 86.6001 48.8062 86.2084Z" fill="#D9D9D6"/>
<path d="M24.6933 77.6953C24.2872 77.2258 23.9559 77.3988 23.5753 77.6953C22.489 78.5406 21.3806 79.3568 20.2714 80.1721C19.7428 80.5612 19.1965 80.9239 19.6829 81.7259C19.6178 81.6943 19.5583 81.6523 19.5067 81.6015C19.0327 80.9544 18.5628 80.3021 18.097 79.6444C17.9613 79.4529 17.8503 79.2447 17.7199 79.0497C16.8556 77.7606 17.9481 76.7114 18.9349 76.6011C19.2564 76.5798 19.5793 76.5937 19.8978 76.6426C20.1437 76.6708 20.2688 76.6205 20.326 76.3496C20.4881 75.574 20.7278 74.8125 20.8467 74.0316C20.9102 73.6178 20.7903 73.174 20.7419 72.7451C20.7108 72.5988 20.6684 72.4551 20.615 72.3154C21.3613 72.9887 22.0793 73.8552 21.6837 74.9723C21.4767 75.5672 21.3214 76.1789 21.2194 76.8005C21.1754 77.0599 21.2996 77.3591 21.3956 77.6211C21.4168 77.6767 21.7013 77.7138 21.7886 77.652C22.2397 77.3282 22.6784 76.9841 23.0978 76.6196C23.3216 76.4255 23.4326 76.1714 23.2009 75.8837C23.1559 75.8273 23.1612 75.7302 23.2379 75.5961L24.7453 77.57L24.6933 77.6953ZM20.0679 77.0917C19.5331 77.0917 18.5701 77.7853 18.3939 78.3006C18.2327 78.7779 18.3877 79.4282 18.7587 79.7079C18.8468 79.775 19.0538 79.8147 19.1261 79.7609C19.7296 79.3065 20.3155 78.8291 20.9022 78.3491C20.9745 78.2909 21.0652 78.2 21.0688 78.1206C21.0811 77.7676 20.4115 77.0935 20.0635 77.0917H20.0679Z" fill="#D9D9D6"/>
<path d="M23.2595 82.972C22.9749 84.367 23.5802 85.4824 24.9414 86.0197C25.5767 86.2703 26.1987 86.2086 26.7916 85.8433C28.1061 85.0394 28.7299 83.5941 28.3854 82.1373C28.1934 81.3334 27.6163 80.8411 26.9669 80.4184C26.9118 80.3939 26.8514 80.3838 26.7913 80.3891C26.7312 80.3943 26.6734 80.4147 26.6233 80.4484C26.2445 80.857 25.8736 81.2743 25.5344 81.7155C25.322 81.9908 25.2084 82.3111 25.4762 82.6402C25.5256 82.7002 25.5361 82.7911 25.6066 82.98L23.6542 81.3308C23.6542 81.3255 23.6736 81.2796 23.6842 81.2814C24.3185 81.3696 24.6771 80.9876 25.0163 80.5331C25.2533 80.2172 25.559 79.9543 25.8093 79.6446C25.9952 79.4099 26.2084 79.4011 26.4313 79.5175C27.5766 80.1158 28.6224 80.8587 29.2206 82.0482C29.8744 83.3461 29.781 84.735 28.5387 85.943C28.0359 86.4437 27.3841 86.7672 26.6817 86.8646C25.9793 86.962 25.2643 86.8281 24.6445 86.483C23.6754 85.9333 22.9459 85.1462 22.2657 84.2938C22.2031 84.2153 22.1362 84.045 22.1732 83.9982C22.4807 83.6047 22.8119 83.2297 23.1362 82.8511L23.2595 82.972Z" fill="#D9D9D6"/>
<path d="M55.5754 8.44629C56.763 8.61482 57.8925 8.74188 59.0115 8.94306C59.8969 9.10189 60.659 10.1687 59.9163 11.2805C59.7022 11.6008 59.3877 11.8584 59.0925 12.1169C58.8952 12.2934 58.8212 12.4443 58.985 12.6773C59.3974 13.2623 59.778 13.8746 60.2185 14.4332C60.5013 14.7861 60.8819 15.0632 61.2193 15.3738C61.2916 15.4399 61.3647 15.5044 61.4467 15.5785C61.0008 15.785 59.9172 15.6235 59.5965 15.2176C59.126 14.6033 58.6991 13.9567 58.319 13.2826C57.9604 12.6578 57.8714 12.5581 57.0591 12.499C56.9939 13.2049 56.9172 13.9108 56.8758 14.6167C56.8705 14.7111 57.03 14.8311 57.134 14.9141C57.2458 14.9901 57.3637 15.0567 57.4864 15.1135L57.4467 15.2326L55.4873 14.9273C56.0565 13.204 56.0811 11.3925 56.3569 9.62072C56.4291 9.15218 56.3569 8.8513 55.9014 8.67835C55.7939 8.63865 55.7058 8.54158 55.5754 8.44629ZM59.0696 10.774C59.1101 9.94632 58.5912 9.25454 57.8969 9.14248C57.7762 9.12307 57.5234 9.24748 57.5102 9.33484C57.3833 10.129 57.2881 10.9231 57.2071 11.7234C57.1983 11.8116 57.3067 11.9652 57.3992 12.0093C58.148 12.3684 58.7745 12.0728 58.985 11.2699C59.0225 11.1063 59.0508 10.9407 59.0696 10.774Z" fill="#D9D9D6"/>
<path d="M95.4115 65.0317C95.1119 65.8364 94.8129 66.6415 94.5146 67.4468C94.5243 66.8591 94.0802 66.6959 93.6882 66.5388C92.5895 66.0976 91.4944 65.637 90.3658 65.2858C89.2371 64.9347 88.1279 65.8726 88.2283 67.0612C88.2697 67.3918 88.4331 67.6949 88.6865 67.9109C89.1309 68.2407 89.6145 68.514 90.1261 68.7244C90.9569 69.0836 91.8159 69.3774 92.6582 69.7118C93.2344 69.9412 93.2899 69.9262 93.5507 69.3589C93.5657 69.328 93.6177 69.3139 93.652 69.2909L93.7763 69.3439C93.6556 69.6686 93.5401 69.9959 93.4115 70.3145C93.2741 70.6612 93.1234 71.0036 92.978 71.3468C92.9525 71.3407 92.9076 71.3363 92.9076 71.3292C92.8855 70.8465 92.6212 70.5907 92.1719 70.4248C91.1895 70.0542 90.2151 69.6571 89.2645 69.2203C88.8793 69.0418 88.5302 68.7938 88.2345 68.4888C87.5579 67.7874 87.5068 66.6217 88.0627 65.6141C88.8935 64.1096 89.8671 63.7611 91.6019 64.4317C92.571 64.8067 93.5269 65.2011 94.4978 65.5611C94.6194 65.6061 94.8256 65.5338 94.9445 65.4482C95.111 65.3291 95.2317 65.1464 95.3718 64.9902L95.4115 65.0317Z" fill="#D9D9D6"/>
<path d="M88.6847 40.6358L87.9561 38.6602C88.0151 38.6655 88.0574 38.6602 88.0671 38.6716C88.5261 39.3396 89.2371 39.284 89.9172 39.344C91.6705 39.4966 93.4211 39.6731 95.1727 39.8425C95.2858 39.8628 95.3976 39.8899 95.5074 39.9237C95.3947 40.079 95.3312 40.2202 95.222 40.3075C94.0018 41.2878 92.7674 42.2558 91.5463 43.237C91.1648 43.5337 90.8071 43.86 90.4767 44.2129C90.3146 44.3894 90.2582 44.6708 90.1719 44.9117C90.1413 45.029 90.1224 45.149 90.1155 45.27L90.0062 45.2797C89.8212 44.6347 89.6371 43.9896 89.4573 43.3614C90.0018 42.9723 90.5498 42.5673 91.1128 42.187C91.3348 42.0361 91.3868 41.9037 91.2661 41.6461C91.1034 41.3007 90.975 40.9402 90.8829 40.5696C90.7948 40.2043 90.5886 40.0508 90.2291 40.0605C90.1264 40.0605 90.0238 40.0552 89.9217 40.0446C89.6441 40.0243 89.3331 39.9184 89.0996 40.0102C88.9208 40.0825 88.8327 40.3993 88.6847 40.6358ZM91.7683 41.6999L93.5022 40.4196L93.422 40.3146L91.3648 40.1761L91.7683 41.6999Z" fill="#D9D9D6"/>
<path d="M17.7719 39.3715L17.0512 41.2871H16.8592C17.32 40.4153 16.668 40.0236 16.2116 39.5709C14.9614 38.3312 13.6927 37.1118 12.4355 35.88C12.2896 35.7171 12.1526 35.5466 12.0249 35.3691C12.3209 35.3356 12.5165 35.295 12.7121 35.295C14.4293 35.295 16.1482 35.3126 17.8618 35.3082C18.4785 35.3082 19.1428 35.4362 19.6397 34.8564C19.4503 35.3859 19.2785 35.9153 19.0583 36.4297C19.0168 36.5259 18.7798 36.5947 18.6415 36.5824C18.0741 36.5338 17.5094 36.4491 16.9446 36.3768C16.675 36.3415 16.5112 36.42 16.4275 36.7129C16.3103 37.1206 16.1385 37.5124 15.9869 37.9103C15.8874 38.175 15.8477 38.4071 16.1579 38.5889C16.342 38.6974 16.4724 38.895 16.6424 39.03C16.9499 39.2797 17.2222 39.6909 17.7288 39.2171L17.7719 39.3715ZM15.431 37.9341C15.6477 37.3747 15.8328 36.8982 16.0477 36.3459H13.9535L13.8654 36.4632L15.431 37.9341Z" fill="#D9D9D6"/>
<path d="M91.7984 35.7662C91.8927 35.663 91.9746 35.535 92.0856 35.4618C92.49 35.2015 92.6275 34.7956 92.5024 34.3897C92.3068 33.7527 92.0786 33.1023 91.7297 32.5429C91.357 31.9456 90.6619 31.7991 90.0055 31.8891C88.6091 32.0806 87.5386 32.7538 87.01 34.1435C86.6726 35.048 87.1827 36.6521 88.0311 37.1048C88.3192 37.2574 88.7077 37.2221 89.0408 37.2715C88.7765 37.7683 87.7941 37.9536 87.4355 37.5168C86.5193 36.4015 85.9254 35.1239 86.1387 33.6653C86.4223 31.7409 88.2963 30.5611 90.1729 30.9194C91.5473 31.1841 92.2345 32.1741 92.7764 33.3168C93.0081 33.8047 93.1684 34.3253 93.3438 34.8415C93.379 34.9456 93.3755 35.153 93.32 35.183C92.8521 35.4397 92.3685 35.6656 91.8892 35.9012L91.7984 35.7662Z" fill="#D9D9D6"/>
<path d="M72.2183 85.1496L73.783 83.9479C74.3539 84.3635 74.8473 84.7243 75.3424 85.0826C75.568 85.2449 75.7909 85.2591 76.027 85.0826C76.3891 84.8099 76.7741 84.5664 77.123 84.2779C77.1718 84.2224 77.2073 84.1566 77.2268 84.0853C77.2464 84.0141 77.2494 83.9393 77.2358 83.8667C77.1444 83.436 77.0092 83.0159 76.8323 82.6128C76.7442 82.424 76.4702 82.3225 76.2446 82.1549L77.775 81.0078C77.2208 82.3252 77.8323 83.452 78.0878 84.6061C78.3671 85.8652 78.7177 87.1085 79.034 88.3597C79.0463 88.41 79.0234 88.4691 79.0058 88.6244C78.5362 88.3597 78.1019 88.1373 77.6913 87.8788C76.3527 87.0335 75.0197 86.1805 73.6922 85.3199C73.2297 85.0208 72.7627 85.0429 72.2755 85.2758L72.2183 85.1496ZM76.0878 85.6341L78.0155 86.8694C77.8393 86.1211 77.6737 85.4479 77.4869 84.6688L76.0878 85.6341Z" fill="#D9D9D6"/>
<path d="M83.4453 25.3251C82.8462 25.8696 82.3431 26.3363 81.8286 26.7899C81.5519 27.0343 81.5801 27.2919 81.7405 27.5769C82.0982 28.2202 82.6409 28.4787 83.4012 28.3711C83.4382 28.3658 83.4796 28.3914 83.6453 28.439C83.2735 28.6923 82.9863 28.9261 82.6629 29.0849C82.5528 29.1396 82.2902 29.0558 82.1986 28.949C81.4171 28.0384 80.6603 27.1084 79.8198 26.0902C80.5502 26.4131 80.9652 26.0107 81.3907 25.6296C82.4198 24.7181 83.4497 23.8066 84.4981 22.918C84.9025 22.5748 84.7492 22.1901 84.7298 21.7568C84.8549 21.9236 84.9668 22.1018 85.1051 22.2563C85.8003 23.0301 86.5051 23.7951 87.1958 24.5725C87.2654 24.6501 87.3227 24.8619 87.2892 24.8875C86.9738 25.1348 86.6323 25.3466 86.2707 25.5193C86.8443 24.8742 86.3588 24.4975 86.0064 24.0951C85.8523 23.9186 85.6928 23.7483 85.5122 23.5498L83.7818 25.0225C84.1871 25.4196 84.5924 25.8563 85.0426 26.2393C85.2611 26.4255 85.3157 26.519 85.0611 26.6884C84.7871 26.8702 84.521 27.0643 84.1986 27.2443C84.7985 26.2075 83.692 25.986 83.4453 25.3251Z" fill="#D9D9D6"/>
<path d="M97.2186 53.9705C96.905 54.1091 96.5966 54.2635 96.275 54.3844C95.3605 54.7267 94.4416 55.0594 93.5227 55.3894C93.002 55.5765 92.4654 55.7247 91.958 55.9409C91.3509 56.2003 90.6434 56.3591 90.4056 57.1532C90.3834 57.0665 90.3692 56.9779 90.3633 56.8885C90.3686 56.6238 90.388 56.3591 90.3985 56.0944C90.4109 55.7882 90.3148 55.4079 90.462 55.1979C90.5835 55.0214 90.9959 55.0656 91.2699 54.9791C91.6998 54.8432 92.1271 54.6914 92.5447 54.5194C92.5978 54.49 92.6436 54.4489 92.6785 54.3992C92.7135 54.3496 92.7367 54.2926 92.7465 54.2326C92.7773 53.72 92.7905 53.2047 92.7773 52.692C92.7773 52.5923 92.6469 52.4564 92.5438 52.4052C92.2963 52.2835 92.024 52.2129 91.7712 52.0999C91.0663 51.7876 91.0725 51.7832 90.5509 52.3293V50.4173L90.6531 50.3008C90.6921 50.3902 90.7256 50.4818 90.7536 50.5752C90.8628 51.0437 91.2452 51.1929 91.6284 51.3534C93.0901 51.9835 94.5456 52.6258 96.0037 53.2629C96.4107 53.4394 96.8186 53.6158 97.2257 53.7923C97.223 53.8505 97.2213 53.9141 97.2186 53.9705ZM93.2081 54.3747L95.3817 53.5955L93.2081 52.6629V54.3747Z" fill="#D9D9D6"/>
<path d="M15.4299 70.3537L16.5621 69.8569C16.4652 70.1384 16.2846 70.3863 16.3365 70.569C16.4572 70.9854 16.689 71.3719 16.8898 71.7602C16.9119 71.8008 17.0863 71.8043 17.1603 71.7663C17.7823 71.4416 18.4026 71.1116 19.0105 70.7587C19.1092 70.7013 19.2202 70.4807 19.1867 70.4057C18.959 69.9192 18.692 69.452 18.3885 69.0089C18.2951 68.8801 17.9867 68.9066 17.7841 68.8634C18.0193 68.4116 18.7532 68.2986 18.9867 68.7292C19.5285 69.7351 20.0299 70.764 20.5444 71.7849C20.5594 71.8158 20.5373 71.866 20.5241 71.9825C20.0774 71.4796 19.6642 71.7425 19.2475 71.9631C17.9806 72.6337 16.7224 73.3202 15.4423 73.9617C15.0141 74.1761 14.8449 74.4399 14.9612 74.8979C14.9719 75.0109 14.9719 75.1246 14.9612 75.2376C14.2969 73.9379 13.6784 72.7264 13.0229 71.4434L14.1445 71.0022L14.2106 71.1178C14.1886 71.1804 14.1815 71.2854 14.1419 71.2987C13.7014 71.4531 13.8291 71.7469 13.9533 72.0372C14.0414 72.2402 14.1419 72.4352 14.2238 72.639C14.422 73.1314 14.5207 73.1684 14.9974 72.9231C15.3595 72.7343 15.711 72.5216 16.0837 72.3566C16.3912 72.2199 16.4361 72.009 16.2925 71.7593C16.0282 71.2969 15.7366 70.8487 15.4299 70.3537Z" fill="#D9D9D6"/>
<path d="M78.6876 80.1202L80.5123 78.209C80.0902 79.0534 80.7026 79.4046 81.0893 79.8564C81.758 80.6364 82.632 80.9823 83.6311 81.0855C83.9672 81.1163 84.2991 81.1822 84.6214 81.2823C85.2382 81.4835 85.8452 81.5788 86.5042 81.3467L84.8699 82.6703C84.7888 82.3597 84.2822 82.2732 83.8038 82.1514C83.1792 81.9917 82.5519 81.8435 81.8602 81.6741C81.8777 81.8546 81.9071 82.0339 81.9483 82.2105C82.1457 82.8706 82.3298 83.5341 82.5774 84.1791C82.6655 84.4032 82.9228 84.5612 83.106 84.7553L81.7378 85.9439L81.8065 86.0471C81.8065 85.9986 81.7783 85.9394 81.7977 85.9024C82.0135 85.4691 81.9906 85.0271 81.8858 84.5691C81.7519 83.9673 81.6541 83.3576 81.5237 82.7558C81.3695 82.0429 81.1255 81.3767 80.529 80.8923C80.3087 80.6975 80.0987 80.4913 79.8999 80.2746C79.5863 79.9623 79.2717 79.6658 78.818 80.0646C78.7663 80.092 78.7081 80.1045 78.6497 80.1008C78.6259 80.1078 78.5978 80.0884 78.6876 80.1202Z" fill="#D9D9D6"/>
<path d="M27.9751 24.4991C27.3725 25.0697 26.7702 25.6409 26.1681 26.2127C26.3928 25.6709 26.0254 25.3824 25.7276 25.0656C24.7496 24.0333 23.7699 23.0018 22.7999 21.9623C22.5136 21.6553 22.2616 21.5812 21.9946 21.9712C21.9465 22.0262 21.8931 22.0765 21.8352 22.1212C21.3947 22.55 20.8784 22.9444 21.2317 23.7094L21.0748 23.7606C20.8396 23.4262 20.5947 23.0988 20.3841 22.7503C20.3577 22.7062 20.4986 22.535 20.5876 22.4503C21.762 21.327 22.9488 20.217 24.1118 19.084C24.3567 18.8458 24.5417 18.8087 24.7743 19.0532C24.962 19.2508 25.1488 19.4502 25.3329 19.6452C25.2871 19.6964 25.2624 19.7335 25.2518 19.7335C24.3964 19.4608 23.9567 20.1429 23.4105 20.5576C23.34 20.6105 23.3426 20.9053 23.4193 20.9847C24.4836 22.0988 25.5596 23.2015 26.6474 24.2927C27.1381 24.7859 27.1487 24.7744 27.761 24.4497C27.8112 24.4306 27.8636 24.4179 27.917 24.4118L27.9751 24.4991Z" fill="#D9D9D6"/>
<path d="M96.1708 47.5297C95.4148 47.6294 94.6906 47.7141 93.9682 47.8217C93.0871 47.9541 92.2061 48.12 91.3251 48.2418C90.8467 48.3079 90.5004 48.4473 90.5542 49.0218C90.5603 49.0924 90.4987 49.1691 90.3832 49.2406C90.2552 48.3512 90.1275 47.4612 90 46.5705C90.0388 46.5705 90.0881 46.56 90.0881 46.5705C90.3084 47.1309 90.7498 47.1229 91.2423 47.0523C92.8061 46.8308 94.3708 46.6253 95.9338 46.4144C96.0377 45.5638 95.7937 44.7873 95.1303 44.0205C95.5391 44.054 95.8606 44.0567 96.169 44.1229C96.2571 44.1405 96.3346 44.3452 96.3514 44.4758C96.5514 46.0473 96.7382 47.6206 96.9302 49.1929C97.006 49.8194 97.0016 49.8282 96.362 49.8432C96.2095 49.8432 96.0571 49.8432 95.888 49.8432C95.9012 49.7312 95.888 49.6624 95.9117 49.6527C96.5479 49.3509 96.302 48.8065 96.2739 48.3291C96.2598 48.0767 96.2113 47.8332 96.1708 47.5297Z" fill="#D9D9D6"/>
<path d="M70.939 13.7569C70.9495 13.2399 70.9143 12.7519 70.4412 12.4166C70.0553 12.1431 69.5513 12.1122 69.2218 12.3963C68.8527 12.714 68.7813 13.1402 69.0086 13.5884C69.3408 14.2396 69.7082 14.8767 69.9848 15.5508C70.4315 16.6388 69.7778 18.3744 67.8967 18.1141C67.2357 18.0368 66.6212 17.7346 66.1558 17.2582C66.0844 17.185 65.999 17.042 66.0254 16.9723C66.184 16.5594 66.3778 16.1579 66.554 15.7529L66.6818 15.789C66.6818 15.909 66.688 16.029 66.6818 16.1491C66.6603 16.5002 66.7685 16.8471 66.9856 17.1236C67.2028 17.4002 67.5139 17.5872 67.8597 17.6491C68.5276 17.7629 69.1698 17.0058 68.9469 16.3202C68.8024 15.879 68.5725 15.4617 68.3778 15.0355C68.2562 14.7708 68.1364 14.5008 68.0016 14.2414C67.6492 13.5637 67.7593 12.9513 68.2148 12.3602C68.6826 11.7513 69.3434 11.6357 69.9945 11.7857C70.531 11.9093 71.0165 12.2578 71.5213 12.5119C71.5671 12.5349 71.6315 12.616 71.6209 12.6416C71.4544 13.0308 71.2773 13.4155 71.102 13.8011L70.939 13.7569Z" fill="#D9D9D6"/>
<path d="M96.6088 58.9627C96.4529 59.8636 96.3084 60.7071 96.1498 61.6257C96.0828 61.5225 96.0185 61.4695 96.022 61.4219C96.0643 60.8695 95.7049 60.7566 95.267 60.6701C93.83 60.3886 92.3974 60.0886 90.9658 59.7877C90.7076 59.733 90.5164 59.7939 90.4371 60.0418C90.2843 60.5133 90.1552 60.9921 90.0504 61.4766C90.0266 61.5966 90.1508 61.7651 90.2407 61.886C90.3904 62.0854 90.5675 62.2636 90.6724 62.5248C90.3138 62.3819 89.9464 62.2557 89.6028 62.0836C89.5147 62.0395 89.446 61.8366 89.4645 61.7219C89.6609 60.491 89.8768 59.2636 90.09 58.0362C90.09 58.0168 90.1332 58.0036 90.1904 57.9639C90.3605 58.5886 90.8776 58.6027 91.3887 58.6945C92.7102 58.9318 94.0318 59.2045 95.3533 59.4771C96.0582 59.6236 96.0582 59.636 96.4106 59.0527C96.43 59.0209 96.4864 59.0157 96.6088 58.9627Z" fill="#D9D9D6"/>
<path d="M32.2313 63.6337L30.3477 63.1837C30.3239 63.2331 30.3001 63.2816 30.2754 63.331C30.4516 63.6125 30.6349 63.8869 30.7873 64.179C31.5124 65.5722 31.3538 66.9275 30.5177 68.2026C30.1653 68.7461 29.6984 69.2252 29.2455 69.6964C29.123 69.8243 28.8605 69.8146 28.6614 69.8685C28.6825 69.6752 28.6499 69.4555 28.7319 69.2932C29.1336 68.499 29.5979 67.7278 29.9776 66.9205C30.5433 65.7205 30.2939 64.5725 29.6147 63.4951C29.5565 63.4069 29.3028 63.3451 29.1874 63.3919C28.3512 63.7281 27.4447 63.9284 26.7583 64.5804C26.6923 64.6431 26.5548 64.6307 26.4209 64.5946C27.0112 63.6857 27.8958 63.2084 28.9363 62.8519L28.6367 62.1769L28.7248 62.0957C28.8534 62.1654 29.02 62.2042 29.1063 62.3092C29.4384 62.7142 29.8895 62.7504 30.3618 62.8289C30.9582 62.9313 31.5336 63.1528 32.115 63.3345C32.1802 63.3548 32.2216 63.4519 32.2745 63.511L32.2313 63.6337Z" fill="#D9D9D6"/>
<path d="M60.3181 62.4727C60.0378 62.9829 59.627 63.4093 59.1278 63.708C58.5331 64.0786 57.9489 64.4748 57.3225 64.7836C56.7562 65.0557 56.1664 65.276 55.5604 65.4418C54.86 65.6404 54.1367 65.7595 53.4257 65.9219C52.298 66.1813 51.179 66.0013 50.0584 65.8698C49.7676 65.8363 49.4742 65.8248 49.1826 65.7904C48.4355 65.7021 48.3271 65.5451 48.491 64.7201C49.8319 64.8471 51.142 65.2645 52.5297 65.1454C53.9173 65.0262 55.2741 64.8807 56.5437 64.3053C57.7815 63.7486 58.9877 63.1203 60.3181 62.4727Z" fill="#D9D9D6"/>
<path d="M47.7641 53.3926C47.4831 54.5961 47.2029 55.7141 46.9632 56.8409C46.5589 58.7406 45.4593 60.2821 44.4038 61.8404C44.0823 62.3142 43.5325 62.6583 43.0329 62.9769C42.1211 63.5583 41.1687 64.0781 40.2321 64.6198C40.107 64.6922 39.9678 64.7901 39.8348 64.7884C39.6735 64.7884 39.5123 64.694 39.3511 64.6401C39.4242 64.4575 39.4462 64.1795 39.5793 64.1063C40.4004 63.6572 41.2391 63.2389 42.0849 62.8383C43.3854 62.2207 44.3977 61.3242 45.0558 60.0218C45.7879 58.5739 46.3959 57.0959 46.6417 55.4741C46.7298 54.8714 46.9659 54.2864 47.1703 53.7094C47.3703 53.1438 47.6883 52.9964 48.2619 53.1341C48.5324 53.1985 48.8081 53.2461 49.0725 53.3317C49.1703 53.3635 49.2416 53.48 49.3244 53.5576C49.2134 53.5964 49.0936 53.682 48.9923 53.6635C48.5782 53.5885 48.1694 53.4844 47.7641 53.3926Z" fill="#D9D9D6"/>
<path d="M64.8509 45.0479C66.5249 45.2243 68.1715 45.4423 69.7574 46.0882C70.7459 46.4823 71.6986 46.9612 72.6049 47.5194C72.7073 47.5771 72.8013 47.6486 72.8842 47.732C72.9466 47.8203 72.9989 47.9153 73.0401 48.0153C72.9238 48.0567 72.7943 48.1529 72.6939 48.1291C72.481 48.0756 72.2773 47.9905 72.0895 47.8767C70.2226 46.7799 68.2218 46.0626 66.0676 45.8473C64.0518 45.6487 62.0862 45.812 60.3339 46.9944C60.2458 47.0526 60.1021 47.0199 59.9814 47.0297C60.0281 46.8982 60.0369 46.7208 60.1295 46.6405C61.1109 45.8014 62.2254 45.2667 63.5347 45.1784C63.9725 45.1511 64.4086 45.0902 64.8509 45.0479Z" fill="#D9D9D6"/>
<path d="M46.6407 78.4323L46.3552 79.0729C46.29 79.2177 46.1403 79.3906 46.179 79.5C46.2301 79.6491 46.4125 79.8318 46.5588 79.853C46.8698 79.8944 47.194 79.8397 47.5138 79.8291C47.5843 79.8291 47.6548 79.8433 47.875 79.8671C47.6697 80.0021 47.5755 80.1141 47.4715 80.123C47.0786 80.1556 46.6786 80.1591 46.2865 80.1636C45.9262 80.168 45.6257 80.0506 45.446 79.71C45.313 79.4594 45.1121 79.3862 44.8293 79.4197C44.1482 79.5009 43.535 79.3085 42.972 78.9106C42.0857 78.2823 42.3315 76.8352 42.9491 76.3429C43.3738 76.004 43.8029 75.6432 44.4469 75.6873C43.454 76.1964 42.913 76.9226 43.2134 78.0617C43.259 78.2693 43.3469 78.4652 43.4717 78.6371C43.5965 78.809 43.7554 78.9532 43.9385 79.0606C43.6372 78.0229 43.7024 77.1052 44.6795 76.4885C44.8962 76.3517 45.187 76.3332 45.4434 76.2608L45.5068 76.4205C45.4407 76.4832 45.3861 76.5749 45.3077 76.6032C44.6795 76.8317 44.483 77.3205 44.5271 77.9267C44.5539 78.245 44.6159 78.5593 44.7121 78.8638C44.7385 78.9521 44.9103 79.0403 45.024 79.0482C45.0804 79.0544 45.1755 78.9053 45.2178 78.81C45.4566 78.2753 45.6583 77.7194 45.9323 77.2058C46.0416 77.0038 46.3596 76.7338 46.5068 76.7744C46.7217 76.8335 46.9473 77.1158 47.0301 77.3514C47.2143 77.8659 47.0222 78.2912 46.6292 78.4385L46.216 78.1032C46.1156 78.3265 46.016 78.5497 45.9156 78.7738L46.0301 78.8082L46.6407 78.4323ZM46.1905 77.4776L46.4451 77.7864C46.5173 77.6611 46.6275 77.5411 46.6477 77.4079C46.6601 77.3294 46.5297 77.2314 46.4636 77.1379L46.1905 77.4776Z" fill="#D9D9D6"/>
<path d="M30.0524 22.7562C30.4929 22.1235 30.0973 21.6824 29.7502 21.2112C28.9775 20.1594 28.2251 19.0935 27.4595 18.0346C27.1661 17.627 26.9089 17.1311 26.2261 17.6102C26.2261 17.5573 26.2261 17.5035 26.2261 17.4505L28.2005 16.0264L28.2798 16.1005C28.2557 16.1736 28.2206 16.2426 28.1758 16.3052C27.9423 16.5408 27.9881 16.772 28.1599 17.0111C28.9987 18.1943 29.8339 19.3803 30.6744 20.5617C30.7845 20.7162 30.9255 20.8476 31.0462 20.9959C31.2876 21.2932 31.5687 21.3418 31.9017 21.1556C31.9713 21.1168 32.0594 21.1115 32.1924 21.1803L30.0524 22.7562Z" fill="#D9D9D6"/>
<path d="M63.6834 9.77051L65.982 10.4146C65.9362 10.4967 65.923 10.5435 65.908 10.5435C65.3106 10.5558 65.1089 10.9467 64.9758 11.455C64.6234 12.8009 64.2546 14.1424 63.8693 15.4795C63.7318 15.9577 63.7027 16.3477 64.2833 16.5286C64.345 16.5471 64.3829 16.6477 64.5036 16.803L62.2129 16.1712C62.9909 15.0303 63.1882 13.6715 63.5433 12.3709C63.671 11.905 63.7521 11.4232 63.9186 10.9723C64.0851 10.5214 64.1248 10.1226 63.6834 9.77051Z" fill="#D9D9D6"/>
<path d="M15.4099 54.9898L15.646 57.3722C15.6023 57.3743 15.5585 57.371 15.5156 57.3625C15.3685 56.8128 14.9755 56.7713 14.4954 56.826C13.0549 56.9902 11.6117 57.1313 10.1704 57.284C9.72455 57.3316 9.33778 57.4711 9.15805 57.9722C9.11223 57.1905 9.06671 56.4075 9.02148 55.6234C9.06642 55.6234 9.11752 55.6234 9.1184 55.6313C9.22853 56.2446 9.662 56.1828 10.1157 56.136C11.6003 55.9843 13.0875 55.8502 14.5738 55.7063C15.0046 55.664 15.3667 55.5413 15.2786 54.9404L15.4099 54.9898Z" fill="#D9D9D6"/>
<path d="M26.5108 54.8755C26.2606 55.4676 26.0835 56.0782 25.7654 56.6041C24.517 58.6794 23.1955 60.7018 21.5338 62.478C21.2836 62.7427 21.0237 62.9633 20.6008 62.8724C20.4933 62.5141 20.6501 62.2388 20.8986 62.0235C22.377 60.7424 23.4131 59.1117 24.295 57.4132C24.7064 56.6191 25.2641 55.9317 25.6403 55.1288C25.7945 54.797 26.0782 54.7343 26.5108 54.8755Z" fill="#D9D9D6"/>
<path d="M61.0738 51.5605C61.4887 51.7088 61.8967 51.8808 62.3204 52.0017C63.3433 52.292 64.36 52.6344 65.4041 52.8126C66.4093 52.9838 67.4445 53.012 68.4683 53.0394C70.0075 53.08 71.4815 52.675 72.9519 52.2779C73.144 52.2259 73.3378 52.1773 73.5307 52.1279L73.6074 52.2585C73.4611 52.3635 73.3219 52.4782 73.1669 52.5709C71.3 53.7021 69.2278 53.6738 67.1591 53.5997C65.397 53.537 63.7345 53.0103 62.1081 52.3714C61.7152 52.2161 61.3522 51.9823 60.9751 51.7847C61.0095 51.7079 61.0412 51.6355 61.0738 51.5605Z" fill="#D9D9D6"/>
<path d="M48.7207 78.5121C48.7824 78.415 48.8203 78.2756 48.9092 78.2262C49.8387 77.6968 50.7788 77.2397 51.9048 77.5459C53.7056 78.033 54.2387 79.833 52.992 81.1918C52.2986 81.9489 51.4942 82.3389 50.5251 82.4792C50.4524 82.4853 50.3792 82.4818 50.3075 82.4686C50.2837 82.4686 50.2634 82.4342 50.1498 82.3389C50.318 82.2383 50.4458 82.106 50.5903 82.0821C51.5418 81.9233 52.0933 81.2756 52.5065 80.4939C52.9894 79.5815 52.6158 78.625 51.6431 78.2527C50.8969 77.9677 50.1453 78.0215 49.4211 78.3603C49.2176 78.4547 49.0088 78.5368 48.8044 78.625L48.7207 78.5121Z" fill="#D9D9D6"/>
<path d="M35.6434 68.1113C35.5077 68.8454 35.424 69.599 34.9835 70.2449C34.3961 71.1008 33.7988 71.9482 33.1914 72.787C33.1498 72.8319 33.0979 72.8659 33.0402 72.8862C32.9825 72.9065 32.9207 72.9124 32.8602 72.9035C32.5633 72.8029 32.3765 72.9555 32.1404 73.0932C31.6342 73.3858 31.1111 73.648 30.5739 73.8785C30.2682 74.0118 30.0805 73.7982 29.9087 73.252C29.8109 72.9414 30.0188 72.8894 30.2215 72.8532C31.625 72.6044 32.8179 71.9267 33.8091 70.9428C34.2399 70.5158 34.5139 69.9175 34.8117 69.374C34.9879 69.0563 35.0689 68.6875 35.2152 68.3513C35.2689 68.2269 35.3835 68.1298 35.4707 68.0195L35.6434 68.1113Z" fill="#D9D9D6"/>
<path d="M43.527 48.4843C43.3834 48.7217 43.216 48.9017 43.1579 49.1117C42.9984 49.687 42.8628 50.272 42.7588 50.8605C42.683 51.2885 42.7147 51.7067 43.142 51.9882C43.2297 52.0662 43.2912 52.1695 43.3182 52.2838C43.6601 53.3276 44.3755 54.082 45.2001 54.7597C45.4391 54.9535 45.6657 55.1621 45.8785 55.3844C45.9569 55.4665 45.9666 55.6103 46.0133 55.7259C45.8803 55.7462 45.7367 55.8088 45.6168 55.7779C45.423 55.7285 45.2072 55.6579 45.0662 55.5256C44.5253 55.0191 44.009 54.4862 43.4865 53.9585C43.4152 53.887 43.3773 53.782 43.305 53.7106C42.1412 52.5494 42.2918 51.0952 42.4319 49.6587C42.4637 49.3367 42.6645 49.0314 42.794 48.7208C42.9235 48.4102 43.1438 48.3546 43.527 48.4843Z" fill="#D9D9D6"/>
<path d="M28.5929 35.2498C27.8951 35.2401 27.4951 34.8863 27.4722 34.1822C27.4519 33.5945 27.3726 32.9645 28.0731 32.6336C28.3797 32.4889 28.6572 32.4307 28.9101 32.6936C29.2167 33.013 29.629 33.3016 29.7761 33.6872C30.1285 34.611 29.5893 35.2648 28.5929 35.2498ZM28.318 34.4813C28.5999 34.3154 28.8863 34.2448 28.9788 34.071C29.1356 33.7745 28.8704 33.4736 28.3805 33.2601C28.3629 33.5963 28.3453 33.9483 28.318 34.4813Z" fill="#D9D9D6"/>
<path d="M39.6867 65.8829C39.5713 65.3235 39.899 65.1435 40.2338 65.1285C42.1051 65.0455 43.9782 65.0014 45.8513 64.9476C46.1068 64.9396 46.268 65.0896 46.1967 65.3252C46.1623 65.4373 45.9368 65.5493 45.7914 65.559C44.6866 65.6323 43.58 65.6808 42.4743 65.7355C41.5451 65.7843 40.6159 65.8335 39.6867 65.8829Z" fill="#D9D9D6"/>
<path d="M30.5142 74.9193C31.4489 74.3272 32.3547 73.8798 33.1027 73.2428C33.8357 72.6251 34.4092 71.808 35.0524 71.0801L35.2286 71.1895C35.1784 71.3757 35.1687 71.5874 35.0709 71.7436C34.2965 72.9878 33.3441 74.0739 32.1547 74.9396C31.8348 75.1725 31.5379 75.4328 31.1705 75.7266L30.5142 74.9193Z" fill="#D9D9D6"/>
<path d="M69.2119 56.592C68.9819 56.6679 68.7572 56.7835 68.522 56.8117C66.1608 57.0932 63.8428 56.9714 61.6164 56.0317C61.0649 55.7996 60.501 55.5958 59.9469 55.3673C59.8588 55.332 59.798 55.2384 59.7539 55.1025C62.8217 56.1129 65.9027 56.9017 69.1643 56.4067L69.2119 56.592Z" fill="#D9D9D6"/>
<path d="M52.3579 56.7203C52.8249 56.5023 53.3156 56.3241 53.7526 56.0567C54.3401 55.7014 54.9016 55.3045 55.4327 54.8691C56.3843 54.0802 56.8213 52.9684 57.2212 51.8407C57.2706 51.7004 57.3975 51.5893 57.4944 51.4648C57.5349 51.6078 57.6177 51.7525 57.6107 51.8937C57.5137 53.7793 56.3446 54.9405 54.8653 55.8591C54.305 56.2076 53.6795 56.4635 53.076 56.7371C52.8619 56.8324 52.6116 56.8438 52.3782 56.8941C52.372 56.8341 52.3658 56.7776 52.3579 56.7203Z" fill="#D9D9D6"/>
<path d="M70.6184 54.3828C70.4079 54.4904 70.2079 54.6475 69.9841 54.6977C69.4132 54.8257 68.8388 54.9563 68.2537 54.9968C67.0467 55.0851 65.8362 55.251 64.6362 54.8548C64.0565 54.6633 63.4398 54.5901 62.8416 54.4445C62.721 54.4024 62.6055 54.3471 62.4971 54.2795C62.5094 54.2257 62.5209 54.171 62.5332 54.1172C62.7799 54.134 63.0345 54.1172 63.2724 54.1728C65.0333 54.5806 66.8504 54.6865 68.6467 54.486C69.2766 54.4207 69.9066 54.3492 70.5356 54.2813L70.6184 54.3828Z" fill="#D9D9D6"/>
<path d="M77.4082 77.2188C77.3553 77.367 77.3474 77.539 77.2575 77.6167C76.4426 78.3173 76.4435 79.2517 76.4831 80.2056C76.506 80.7676 76.1695 81.125 75.6021 81.1761C75.0682 79.6373 76.0902 77.2329 77.4082 77.2188Z" fill="#D9D9D6"/>
<path d="M30.2207 77.5979C30.3969 77.4109 30.5035 77.2565 30.6462 77.1568C31.8709 76.2876 32.9995 75.325 33.8241 74.0447C33.9122 73.9017 34.1158 73.8303 34.321 73.6855C34.3096 74.927 31.2876 77.8415 30.2207 77.5979Z" fill="#D9D9D6"/>
<path d="M51.4355 83.0148C51.9562 82.8312 52.4285 82.6618 52.9025 82.4986C53.9923 82.1174 55.1183 81.8139 56.0072 81.0047C56.1315 80.8918 56.3262 80.8574 56.5359 80.7656C56.6011 81.295 56.2469 81.4786 55.9905 81.6674C54.9209 82.4527 53.7456 82.991 52.3897 83.0386C52.1166 83.0492 51.8461 83.1268 51.5739 83.1648C51.558 83.1674 51.536 83.126 51.4355 83.0148Z" fill="#D9D9D6"/>
<path d="M29.7749 31.5284C30.1432 31.4189 30.2736 31.5098 30.337 31.8442C30.6242 33.339 30.9449 34.8267 31.2507 36.317C31.2682 36.4289 31.2799 36.5417 31.2859 36.6549L31.1881 36.7511C31.0771 36.6558 30.893 36.5746 30.8648 36.4617C30.5132 35.0411 30.1811 33.6196 29.8533 32.1901C29.8149 31.9712 29.7888 31.7502 29.7749 31.5284Z" fill="#D9D9D6"/>
<path d="M36.4453 75.0256C36.3818 75.9618 35.9704 76.8653 35.4691 77.738C35.4067 77.8382 35.3204 77.9213 35.218 77.9798C34.9951 78.1086 34.8365 78.0548 34.8603 77.7706C34.8877 77.6124 34.9313 77.4575 34.9907 77.3083C35.2752 76.3571 35.5545 75.4041 35.8506 74.4565C35.8946 74.3144 35.9986 74.1035 36.1008 74.0841C36.3827 74.0409 36.4038 74.2862 36.4162 74.4997C36.4241 74.6435 36.432 74.79 36.4453 75.0256Z" fill="#D9D9D6"/>
<path d="M32.8604 77.636C32.8797 77.5565 32.8736 77.4533 32.922 77.4012C33.7661 76.4783 34.2498 75.3718 34.5731 74.1841C34.6321 73.9662 34.7079 73.7968 34.989 73.8586C35.2956 73.9256 35.2577 74.1612 35.1951 74.3439C35.0189 74.8547 34.8189 75.3577 34.6083 75.8562C34.3505 76.4824 33.9379 77.0326 33.4092 77.4551C33.2596 77.5603 33.1027 77.6546 32.9396 77.7374L32.8604 77.636Z" fill="#D9D9D6"/>
<path d="M36.4575 77.3167C36.6258 76.85 36.8099 76.3929 36.9553 75.9252C37.1315 75.3693 37.2707 74.802 37.4399 74.2487C37.4725 74.1402 37.5685 74.0511 37.6364 73.9531C37.6989 74.0546 37.7967 74.149 37.8196 74.2593C38.0196 75.2043 37.7844 76.0955 37.4434 76.9655C37.3077 77.3088 36.9518 77.4359 36.4575 77.3167Z" fill="#D9D9D6"/>
<path d="M60.8155 29.3552C60.4349 29.3552 60.0534 29.3552 59.6701 29.3552C58.9113 29.3505 58.153 29.3444 57.3953 29.3367C57.1478 29.3427 56.9001 29.3309 56.6543 29.3014C56.383 29.2599 56.2138 29.102 56.2341 28.772C57.7873 28.7323 59.3177 28.7623 60.8155 29.1426V29.3552Z" fill="#D9D9D6"/>
<path d="M41.882 59.8399C41.8124 60.7611 41.7692 61.6885 41.245 62.5135C41.2221 62.5506 41.1913 62.5965 41.1569 62.6079C40.9147 62.6812 40.6688 62.7465 40.4248 62.8153C40.4407 62.5682 40.3904 62.2929 40.4838 62.0812C40.7913 61.3867 41.1472 60.7144 41.4944 60.0394C41.5612 59.9393 41.6402 59.848 41.7296 59.7676L41.882 59.8399Z" fill="#D9D9D6"/>
<path d="M43.4294 74.4908C42.9995 74.5146 42.6718 74.3602 42.4383 74.024C42.2151 73.7173 42.0092 73.3982 41.8216 73.0684C41.6022 72.659 41.7264 72.2046 42.0533 72.0299C42.2418 71.9284 42.3784 71.932 42.4691 72.1543C42.7792 72.9202 43.0964 73.6852 43.4294 74.4908Z" fill="#D9D9D6"/>
<path d="M61.0747 31.3956C60.8597 31.4273 60.6403 31.5014 60.4298 31.4838C59.1963 31.3779 57.9567 31.2509 56.7109 31.1309C56.5725 30.8176 56.7814 30.7259 57.0113 30.7223C57.4344 30.7148 57.8575 30.7334 58.2782 30.7779C59.0333 30.8591 59.7848 30.965 60.5372 31.0717C60.7164 31.1085 60.893 31.1568 61.0659 31.2164C61.0685 31.2747 61.0712 31.3356 61.0747 31.3956Z" fill="#D9D9D6"/>
<path d="M61.0043 32.472C60.8281 32.4906 60.6519 32.5382 60.4757 32.5223C59.3391 32.4191 58.2026 32.3088 57.0687 32.1809C56.9436 32.1667 56.8335 32.03 56.7163 31.9506C56.8449 31.8879 56.9806 31.7635 57.1004 31.7741C57.829 31.835 58.5541 31.9276 59.281 32.0088C59.6589 32.0511 60.0396 32.0811 60.4158 32.1341C60.6195 32.1713 60.8213 32.219 61.0201 32.277L61.0043 32.472Z" fill="#D9D9D6"/>
<path d="M40.5333 72.9736C40.7562 73.8348 40.9738 74.6722 41.187 75.4972C40.7985 75.5158 40.0593 74.7313 39.9535 74.1084C39.8566 73.5745 40.0954 73.128 40.5333 72.9736Z" fill="#D9D9D6"/>
<path d="M58.4275 27.6924C58.7799 27.6924 59.1324 27.6783 59.4804 27.7004C59.5817 27.7074 59.6768 27.816 59.7746 27.8768C59.6865 27.9368 59.6028 28.041 59.5103 28.0533C58.4619 28.1477 57.4117 28.2298 56.3615 28.3039C56.2452 28.3118 56.1219 28.2007 56.0029 28.1442C56.0981 28.056 56.1862 27.9086 56.2919 27.8936C56.9967 27.7983 57.7121 27.7321 58.4231 27.6562L58.4275 27.6924Z" fill="#D9D9D6"/>
<path d="M79.6948 76.1403C79.3028 76.6953 78.9239 77.2609 78.5125 77.8018C78.2312 78.1583 77.9312 78.4997 77.6138 78.8244C77.5016 78.9382 77.3677 79.0282 77.22 79.0891C77.1469 79.12 77.0367 79.0635 76.9434 79.0468C76.9698 78.9462 76.9663 78.8191 77.0271 78.7485C77.7383 77.9368 78.4564 77.1312 79.1812 76.3318C79.294 76.2073 79.4561 76.1279 79.5953 76.0273L79.6948 76.1403Z" fill="#D9D9D6"/>
<path d="M39.0486 73.8855C39.1111 74.7776 39.1702 75.6238 39.2248 76.4638C38.8557 76.2511 38.52 75.9238 38.4469 75.4129C38.3997 75.0806 38.39 74.7441 38.4178 74.4096C38.4601 73.9138 38.5834 73.837 39.0486 73.8855Z" fill="#D9D9D6"/>
<path d="M12.2212 41.1432C11.4626 40.8635 10.9877 39.9962 10.0618 40.4735L10.0054 40.3262C10.1648 40.0659 10.312 39.7967 10.4943 39.5505C10.541 39.4888 10.7481 39.4561 10.7974 39.502C11.2697 39.9361 11.7252 40.3844 12.178 40.8415C12.2168 40.8803 12.2 40.9756 12.2212 41.1432Z" fill="#D9D9D6"/>
<path d="M53.3992 57.5684C53.6309 57.7148 53.8891 57.8331 54.0882 58.0095C54.4124 58.3078 54.7049 58.6184 55.1754 58.6969C55.2538 58.7101 55.3005 58.9078 55.3613 59.0207C55.2247 59.0586 55.0282 59.1751 54.9595 59.1231C54.4415 58.7278 53.9463 58.3016 53.4503 57.8781C53.3979 57.8126 53.3571 57.7386 53.3296 57.6592L53.3992 57.5684Z" fill="#D9D9D6"/>
<path d="M49.1703 54.2442C49.1439 54.4303 49.1183 54.5856 49.1024 54.7418C49.069 55.0709 48.8998 55.1565 48.6434 54.9324C48.4318 54.7309 48.2395 54.5099 48.069 54.2724C48.0472 54.239 48.034 54.2008 48.0307 54.161C48.0273 54.1213 48.0338 54.0813 48.0496 54.0448C48.0806 54.0183 48.1172 53.9994 48.1566 53.9895C48.196 53.9795 48.2372 53.9788 48.2769 53.9874C48.5738 54.0606 48.8655 54.1542 49.1703 54.2442Z" fill="#D9D9D6"/>
<path d="M59.3574 58.8047L61.2217 59.4735L61.2129 59.6429C61.0243 59.657 60.8243 59.7179 60.649 59.6764C59.8904 59.4929 59.4473 59.1841 59.3574 58.8047Z" fill="#D9D9D6"/>
<path d="M55.1831 91.7681C54.6078 91.8352 54.8439 91.1646 54.4633 90.974C54.2871 91.4249 54.6087 91.9569 54.2157 92.3461C54.1 92.0907 54.0611 91.8071 54.1037 91.5299C54.1462 91.2527 54.2684 90.994 54.4554 90.7852C54.8606 90.9943 55.1523 91.2837 55.1743 91.7796L55.1831 91.7681Z" fill="#D9D9D6"/>
<path d="M63.6422 90.6465C63.6315 90.5427 63.6087 90.4406 63.5743 90.3421C63.5021 90.2053 63.4087 90.0774 63.3241 89.9485C63.2559 90.0949 63.197 90.2456 63.1479 90.3995C63.1323 90.5141 63.1306 90.6303 63.1426 90.7454C62.8783 90.6165 62.7805 90.3792 62.8607 89.9847C62.8801 89.8894 63.0193 89.7376 63.0845 89.7465C63.3136 89.7782 63.5972 89.8074 63.7426 89.9538C63.888 90.1003 63.9875 90.395 63.6422 90.6465Z" fill="#D9D9D6"/>
<path d="M41.8736 89.3164C42.0665 89.6923 41.8595 90.1397 42.4022 90.1741V89.4532C42.7872 89.5714 42.7475 89.8635 42.6665 90.0558C42.6217 90.145 42.5575 90.2229 42.4787 90.284C42.3999 90.3451 42.3084 90.3877 42.211 90.4088C41.8313 90.4414 41.6877 90.1291 41.6533 89.8105C41.6401 89.6835 41.7678 89.5379 41.8736 89.3164Z" fill="#D9D9D6"/>
<path d="M54.4883 14.9131C54.8936 15.0287 55.2292 15.1054 55.5455 15.2263C55.6283 15.2581 55.6583 15.4293 55.712 15.536C55.6054 15.574 55.4759 15.6693 55.3949 15.6384C55.0601 15.5096 54.5544 15.611 54.4883 14.9131Z" fill="#D9D9D6"/>
<path d="M55.1768 91.7742C55.3036 91.7034 55.4263 91.6253 55.5441 91.5404C55.6421 91.4533 55.7339 91.3595 55.819 91.2598C55.8754 91.318 55.982 91.3789 55.9793 91.4362C55.9685 91.5815 55.934 91.724 55.8771 91.858C55.8569 91.9109 55.7723 91.9383 55.7009 91.9877L55.9177 92.3336C55.4869 92.4262 55.2719 92.2559 55.1829 91.7645L55.1768 91.7742Z" fill="#D9D9D6"/>
<path d="M58.1664 91.4474C58.1664 91.4607 58.1664 91.4474 58.1664 91.4316L58.0404 90.9736C58.1285 90.9542 58.295 90.9013 58.3047 90.9215C58.3981 91.089 58.4616 91.2714 58.4924 91.4607C58.503 91.5719 58.4149 91.7174 58.3285 91.8066C58.2422 91.8957 58.0378 91.9592 58.0246 91.9398C57.9241 91.7771 57.8358 91.6072 57.7603 91.4316L58.1664 91.4474Z" fill="#D9D9D6"/>
<path d="M31.8189 68.2079C31.4488 68.1841 31.1863 68.0782 31.2083 67.7217C31.2277 67.4058 31.3916 67.172 31.7748 67.2126C31.795 67.2548 31.8093 67.2997 31.8171 67.3458C31.8207 67.622 31.8189 67.8991 31.8189 68.2079Z" fill="#D9D9D6"/>
<path d="M49.7456 92.0161C49.3976 91.9631 49.0513 91.1946 49.1333 90.6572C49.5826 90.8681 49.8425 91.4443 49.7456 92.0161Z" fill="#D9D9D6"/>
<path d="M47.0071 90.8046C46.9498 91.1187 46.9419 91.3464 46.8591 91.5431C46.8221 91.6314 46.6388 91.6931 46.519 91.6984C46.4732 91.6984 46.3684 91.5087 46.3781 91.4134C46.4108 91.0974 46.5383 90.7987 46.7437 90.5566L47.0071 90.8046Z" fill="#D9D9D6"/>
<path d="M52.5735 91.2705C53.0343 91.4849 52.9902 91.8696 52.9374 92.1802C52.9171 92.302 52.6043 92.3735 52.4246 92.4688L52.3232 92.3682C52.3999 92.032 52.4774 91.6896 52.5735 91.2705Z" fill="#D9D9D6"/>
<path d="M41.677 88.7888C41.1484 89.4444 41.1484 89.4444 41.5008 89.7303C40.9581 90.0198 40.884 90.0418 40.6973 89.9253C41.0603 89.74 41.1378 89.4727 41.0717 89.0809C41.018 88.7624 41.3228 88.6415 41.677 88.7888Z" fill="#D9D9D6"/>
<path d="M62.5397 90.9905C61.9441 91.2013 61.9477 91.2013 61.923 90.6128C61.9168 90.4548 61.8834 90.2986 61.8613 90.1389C62.1618 89.9916 62.3292 90.0383 62.3697 90.3966C62.3944 90.5978 62.4816 90.7963 62.5397 90.9905Z" fill="#D9D9D6"/>
<path d="M43.7589 89.385C43.8176 89.6144 43.8796 89.8447 43.9448 90.0759C43.5316 90.1968 43.4822 90.3406 43.6399 90.893C43.2162 90.7809 43.1862 90.7165 43.3307 90.3485C43.3897 90.17 43.4386 89.9882 43.4769 89.8041C43.5148 89.6612 43.5554 89.52 43.595 89.3779L43.7589 89.385Z" fill="#D9D9D6"/>
<path d="M43.9194 90.9033C44.1115 90.6474 43.9503 90.1868 44.4586 90.118C44.5467 90.1057 44.6048 89.8789 44.6771 89.751L44.796 89.7916C44.7652 89.9098 44.7432 90.0298 44.7026 90.1445C44.6515 90.2909 44.559 90.4277 44.5335 90.5777C44.4524 91.0542 44.4286 91.0736 43.9194 90.9033Z" fill="#D9D9D6"/>
<path d="M60.4165 91.1244C60.6385 91.0909 60.9733 91.2956 61.0253 90.842C60.9234 90.8349 60.8233 90.812 60.7284 90.7741C60.6283 90.7003 60.5362 90.6163 60.4535 90.5235C60.5822 90.4926 60.7672 90.3929 60.828 90.444C60.976 90.5676 61.168 90.7688 61.1548 90.9223C61.139 91.1059 60.9539 91.3088 60.7883 91.4271C60.7178 91.4774 60.509 91.3388 60.3628 91.2788L60.4165 91.1244Z" fill="#D9D9D6"/>
<path d="M47.6716 91.215C47.7888 91.5079 47.8989 91.7841 48.0187 92.0824C47.6716 92.0647 47.5394 91.8176 47.4408 91.5432C47.3192 91.2061 47.5985 91.0667 47.7932 90.9176C47.8743 90.855 48.0434 90.907 48.172 90.907C48.172 90.9547 48.172 91.0023 48.1765 91.05L47.6716 91.215Z" fill="#D9D9D6"/>
<path d="M59.731 90.2471C60.1716 90.66 60.0526 91.5706 59.6191 91.7418C59.6544 91.2715 59.6896 90.7968 59.731 90.2471Z" fill="#D9D9D6"/>
<path d="M51.1245 91.1377V92.1966C50.8029 92.2725 50.7368 92.0889 50.75 91.8639C50.7721 91.5992 50.6152 91.2374 51.1245 91.1377Z" fill="#D9D9D6"/>
<path d="M56.5162 92.108C56.5003 91.8433 56.4721 91.5715 56.4765 91.3042C56.4765 91.2363 56.5734 91.1577 56.6439 91.111C56.6642 91.0968 56.7954 91.1807 56.7937 91.2142C56.7752 91.5212 56.7382 91.8274 56.7056 92.1345L56.5162 92.108Z" fill="#D9D9D6"/>
<path d="M45.5596 90.4434C45.371 90.7901 45.2169 91.076 45.0142 91.4483C44.8962 90.7531 45.0451 90.4698 45.5596 90.4434Z" fill="#D9D9D6"/>
<path d="M30.8359 69.0093L31.2439 68.6943L31.4474 68.9934L30.9725 69.2202C30.9276 69.1496 30.8818 69.079 30.8359 69.0093Z" fill="#D9D9D6"/>
</svg>
