<svg width="105" height="106" viewBox="0 0 105 106" fill="none" xmlns="http://www.w3.org/2000/svg">
<rect x="0.530273" y="0.652344" width="104.47" height="104.696" rx="52.235" fill="#313131"/>
<path fill-rule="evenodd" clip-rule="evenodd" d="M60.0923 69.7781L60.0921 69.7782L60.092 69.7783C59.9636 69.8588 59.8558 69.9265 59.7654 70.0126C57.9713 71.7192 56.046 73.2484 53.8209 74.3311C50.1789 76.1039 46.4004 76.7216 42.4925 75.368C39.86 74.4538 37.9746 72.6113 36.7904 70.0681C35.5324 67.3759 35.2266 64.5142 35.535 61.5863C35.6675 60.3165 35.902 59.0599 36.2361 57.8289C36.9538 55.2002 38.4464 53.078 40.568 51.4005C43.1145 49.3877 46.0511 48.2899 49.1502 47.5566C52.4082 46.7854 55.7245 46.5154 59.0547 46.3892C59.6516 46.3671 59.6941 46.353 59.6681 45.7635C59.6573 45.5211 59.6475 45.2784 59.6377 45.0356V45.0355C59.5954 43.9855 59.5529 42.9338 59.4309 41.8932C59.1589 39.6051 57.9244 38.3688 55.6811 37.97C53.7202 37.617 51.7801 37.8279 49.86 38.2144C46.7192 38.8471 43.7349 39.9572 40.8686 41.3973C40.5402 41.5623 40.3786 41.5667 40.217 41.1864C39.3175 39.0686 38.403 36.9575 37.4733 34.8533C37.3395 34.5497 37.4073 34.405 37.6975 34.2823C38.5136 33.9394 39.3252 33.5838 40.1368 33.2281C41.8085 32.4956 43.4803 31.7631 45.191 31.1418C50.2935 29.2887 55.5455 28.5192 60.9522 29.4246C63.4656 29.8455 65.8644 30.6035 67.8506 32.3128C69.6859 33.8628 70.9 36.0408 71.2641 38.4368C71.49 39.7996 71.6158 41.1777 71.6403 42.5595C71.6865 46.2354 71.6906 49.9136 71.6946 53.5896C71.6957 54.5446 71.6967 55.4995 71.6985 56.4541C71.7095 62.3911 71.7171 68.328 71.7211 74.265V74.2933C71.7212 74.8739 71.7212 75.1634 71.5765 75.3074C71.4327 75.4506 71.1459 75.4501 70.574 75.4492L70.5404 75.4492C67.2829 75.4456 64.0255 75.4503 60.768 75.4633C60.3883 75.4633 60.3032 75.3221 60.3084 74.9727C60.3254 73.6913 60.3307 72.4088 60.336 71.1274V71.1272C60.3374 70.7771 60.3388 70.427 60.3405 70.077C60.3405 70.0057 60.3341 69.9349 60.3251 69.836V69.836C60.3201 69.7806 60.3143 69.7164 60.3084 69.6384C60.2305 69.6913 60.1586 69.7364 60.0923 69.7781ZM59.6733 57.9092H59.695C59.695 57.5481 59.6942 57.187 59.6934 56.826C59.6914 55.8638 59.6893 54.9023 59.7019 53.9436C59.7019 53.5836 59.5664 53.4742 59.2397 53.4953C56.2936 53.6939 53.3909 54.0795 50.7349 55.5249C49.1285 56.3985 47.9478 57.6798 47.3926 59.4482C46.9104 60.9572 46.9004 62.5809 47.3639 64.0959C47.8852 65.8166 49.2449 66.7864 51.019 66.7573C52.0051 66.7423 52.9347 66.474 53.8322 66.0902C55.8227 65.2404 57.5794 64.0112 59.2528 62.6434C59.3917 62.5412 59.5033 62.4053 59.5774 62.2481C59.6514 62.0909 59.6856 61.9174 59.6768 61.7434C59.6676 60.8454 59.6696 59.9471 59.6716 59.0489C59.6724 58.669 59.6733 58.2891 59.6733 57.9092ZM28.8998 49.7636C28.8383 49.7468 28.7805 49.7321 28.7253 49.7182C28.6154 49.6904 28.5163 49.6653 28.4202 49.6312C25.8329 48.7152 23.1935 48.0914 20.4315 48.3076C18.1596 48.484 16.3211 49.5024 15.0188 51.4437C13.9302 53.0656 13.4723 54.9028 13.2325 56.815C12.9215 59.3008 12.9866 61.7778 13.5418 64.2212C13.8711 65.6701 14.3559 67.0705 15.1926 68.3192C16.7677 70.6664 18.9345 71.5674 21.6861 71.1271C22.8607 70.9382 23.9285 70.4732 24.9962 69.9799C25.3151 69.8334 25.422 69.6137 25.4211 69.259C25.419 68.0431 25.4216 66.8273 25.4242 65.6114C25.4281 63.8429 25.4319 62.0744 25.4211 60.3059C25.4211 59.8567 25.5566 59.7147 25.9737 59.7173C27.6244 59.7297 29.2751 59.7288 30.9259 59.7252C31.1778 59.7252 31.2847 59.8064 31.2847 60.0835C31.2847 63.7015 31.2847 67.3194 31.3212 70.932C31.3273 71.5497 31.1474 71.8956 30.6261 72.2354C28.5175 73.6049 26.3073 74.7353 23.8955 75.4315C21.5662 76.1039 19.2039 76.3201 16.8085 75.8595C12.8989 75.1068 10.2151 72.7578 8.52615 69.1672C7.4636 66.9091 6.98228 64.4965 6.80938 62.0151C6.59652 58.9408 6.78679 55.9017 7.71903 52.9491C9.19601 48.2723 12.3237 45.4106 17.0023 44.2458C18.9788 43.7534 20.9884 43.7401 22.9971 43.8204C25.2663 43.922 27.5159 44.2949 29.6991 44.9314C29.9285 44.9976 30.0267 45.0814 29.9685 45.3205L29.8839 45.6728L29.8836 45.674C29.5599 47.0223 29.2354 48.3743 28.8998 49.7636ZM91.2886 75.6838C94.4354 74.962 97.0758 73.1742 99.6883 71.3441C99.6811 71.2993 99.6679 71.2556 99.6492 71.2144C99.4047 70.851 99.1593 70.4882 98.914 70.1254C98.4234 69.4002 97.9329 68.6749 97.4494 67.945C97.3069 67.7297 97.1844 67.7835 97.0219 67.8903C96.8256 68.0198 96.6304 68.1511 96.4352 68.2825C95.9454 68.6121 95.4558 68.9416 94.9489 69.2413C93.4806 70.1096 91.9576 70.8411 90.266 71.1261C87.6509 71.5673 85.5214 70.7846 84.0166 68.4992C83.1747 67.2223 82.6986 65.7919 82.3719 64.3041C81.8272 61.8183 81.8281 59.3131 82.1278 56.8035C82.3494 54.9513 82.8289 53.1715 83.7994 51.5619C85.0375 49.5067 86.8238 48.3887 89.2147 48.2899C91.3225 48.2043 93.3598 48.5881 95.3581 49.22C95.5936 49.2947 95.8243 49.3851 96.0598 49.4773C96.1746 49.5222 96.2904 49.5675 96.4085 49.6118C96.7717 48.0552 97.1192 46.5471 97.4728 44.9773C97.2044 44.9144 96.9391 44.8529 96.676 44.7919C96.1124 44.6614 95.5592 44.5332 95.0071 44.3984C92.6093 43.8206 90.1334 43.6527 87.6813 43.9016C85.7464 44.0887 83.9037 44.6199 82.1947 45.572C78.9106 47.4057 77.1234 50.3601 76.1999 53.9436C75.5882 56.3129 75.4709 58.7413 75.5413 61.1662C75.6352 64.4029 76.2824 67.525 77.8411 70.3981C78.8333 72.23 80.1686 73.7284 81.9975 74.722C84.961 76.3324 88.1018 76.4163 91.2886 75.6838Z" fill="#D9D9D6"/>
</svg>
