<svg width="1823" height="714" viewBox="0 0 1823 714" fill="none" xmlns="http://www.w3.org/2000/svg">
<g clip-path="url(#clip0_27_53)">
<path fill-rule="evenodd" clip-rule="evenodd" d="M144.87 1.36011C138.57 3.66011 132.77 7.86011 129.57 12.4601C128.17 14.5601 120.87 28.6601 113.47 43.7601C106.07 58.9601 99.07 72.5601 97.87 73.9601C93.27 79.8601 90.87 80.5601 55.87 85.7601C34.97 88.8601 21.17 91.3601 18.47 92.6601C3.66997 99.1601 -3.73003 116.96 1.86997 132.26C3.96997 137.76 6.06997 140.26 29.17 163.46C42.97 177.26 54.77 189.66 55.37 190.96C58.17 196.36 57.87 200.36 52.27 232.86C48.07 257.16 46.87 266.56 47.27 270.56C49.37 289.06 67.87 302.26 85.57 297.86C88.17 297.16 103.17 289.86 118.87 281.46L147.37 266.26H162.37L190.87 281.46C206.57 289.86 221.57 297.16 224.17 297.86C241.87 302.26 260.37 289.06 262.47 270.56C262.87 266.56 261.67 257.16 257.47 232.86C251.87 200.36 251.57 196.36 254.37 190.96C254.97 189.66 266.77 177.26 280.57 163.46C303.67 140.26 305.77 137.76 307.87 132.26C313.47 116.96 306.07 99.1601 291.27 92.6601C288.57 91.3601 274.77 88.8601 253.87 85.7601C218.87 80.5601 216.47 79.8601 211.87 73.9601C210.77 72.5601 203.37 58.2601 195.47 42.2601C179.97 10.6601 177.57 7.26011 168.37 2.86011C161.87 -0.239887 151.17 -0.939887 144.87 1.36011ZM166.67 14.0601C170.47 16.5601 172.17 19.4601 186.77 48.6601C200.77 76.4601 203.37 81.0601 207.37 84.5601C209.87 86.7601 213.97 89.2601 216.47 90.1601C218.97 90.9601 235.27 93.7601 252.67 96.3601C285.07 101.06 289.07 102.16 293.57 106.96C298.67 112.36 300.47 123.56 297.37 130.16C296.47 131.96 284.77 144.36 271.37 157.66C254.27 174.76 246.27 183.36 244.67 186.56C240.87 194.56 241.17 200.86 246.87 234.26C250.37 254.26 251.87 266.06 251.67 269.56C250.77 280.06 241.97 287.76 230.97 287.76C225.67 287.76 223.67 286.86 195.87 272.26C179.67 263.76 164.77 256.36 162.87 255.76C160.97 255.26 157.37 254.76 154.87 254.76C152.37 254.76 148.77 255.26 146.87 255.76C144.97 256.36 130.07 263.76 113.87 272.26C86.07 286.86 84.07 287.76 78.77 287.76C67.77 287.76 58.97 280.06 58.07 269.56C57.87 266.06 59.37 254.26 62.87 234.26C68.57 200.86 68.87 194.56 65.07 186.56C63.47 183.36 55.47 174.76 38.37 157.66C24.97 144.36 13.27 131.96 12.37 130.16C9.26997 123.56 11.07 112.36 16.17 106.96C20.67 102.16 24.67 101.06 57.07 96.3601C74.47 93.7601 90.77 90.9601 93.27 90.1601C95.77 89.2601 99.87 86.7601 102.37 84.5601C106.47 80.9601 108.97 76.6601 122.07 50.3601C130.37 33.7601 137.97 19.0601 138.97 17.6601C144.07 10.3601 158.37 8.56011 166.67 14.0601Z" fill="white" fill-opacity="0.5"/>
<path fill-rule="evenodd" clip-rule="evenodd" d="M147.87 72.5601C144.87 74.1601 143.07 76.9601 135.37 91.9601C126.07 110.06 124.77 112.16 121.77 113.86C120.77 114.36 111.97 115.96 102.17 117.36C79.27 120.66 76.37 122.06 73.87 130.86C71.97 137.26 73.77 140.26 88.87 155.26C97.87 164.26 103.27 170.46 103.97 172.56C104.87 175.26 104.47 179.46 101.77 195.56L98.47 215.26L100.47 219.26C101.47 221.46 103.97 224.26 105.87 225.56C111.67 229.46 115.97 228.36 133.87 218.86C143.27 213.76 150.97 210.36 153.47 210.06C157.27 209.56 159.37 210.46 175.27 218.66C194.87 228.76 197.97 229.46 203.97 225.46C205.87 224.26 208.27 221.46 209.27 219.26L211.27 215.26L207.97 195.56C205.27 179.46 204.87 175.26 205.77 172.56C206.47 170.46 211.87 164.26 220.87 155.26C235.97 140.26 237.77 137.26 235.87 130.86C233.37 122.06 230.47 120.66 207.57 117.36C197.77 115.96 188.97 114.36 188.07 113.86C184.87 112.16 183.07 109.26 174.47 92.1601C168.57 80.2601 165.07 74.4601 163.17 73.2601C159.07 70.5601 152.07 70.2601 147.87 72.5601Z" fill="white" fill-opacity="0.5"/>
</g>
<g clip-path="url(#clip1_27_53)">
<path fill-rule="evenodd" clip-rule="evenodd" d="M1657.87 416.36C1651.57 418.66 1645.77 422.86 1642.57 427.46C1641.17 429.56 1633.87 443.66 1626.47 458.76C1619.07 473.96 1612.07 487.56 1610.87 488.96C1606.27 494.86 1603.87 495.56 1568.87 500.76C1547.97 503.86 1534.17 506.36 1531.47 507.66C1516.67 514.16 1509.27 531.96 1514.87 547.26C1516.97 552.76 1519.07 555.26 1542.17 578.46C1555.97 592.26 1567.77 604.66 1568.37 605.96C1571.17 611.36 1570.87 615.36 1565.27 647.86C1561.07 672.16 1559.87 681.56 1560.27 685.56C1562.37 704.06 1580.87 717.26 1598.57 712.86C1601.17 712.16 1616.17 704.86 1631.87 696.46L1660.37 681.26H1675.37L1703.87 696.46C1719.57 704.86 1734.57 712.16 1737.17 712.86C1754.87 717.26 1773.37 704.06 1775.47 685.56C1775.87 681.56 1774.67 672.16 1770.47 647.86C1764.87 615.36 1764.57 611.36 1767.37 605.96C1767.97 604.66 1779.77 592.26 1793.57 578.46C1816.67 555.26 1818.77 552.76 1820.87 547.26C1826.47 531.96 1819.07 514.16 1804.27 507.66C1801.57 506.36 1787.77 503.86 1766.87 500.76C1731.87 495.56 1729.47 494.86 1724.87 488.96C1723.77 487.56 1716.37 473.26 1708.47 457.26C1692.97 425.66 1690.57 422.26 1681.37 417.86C1674.87 414.76 1664.17 414.06 1657.87 416.36ZM1679.67 429.06C1683.47 431.56 1685.17 434.46 1699.77 463.66C1713.77 491.46 1716.37 496.06 1720.37 499.56C1722.87 501.76 1726.97 504.26 1729.47 505.16C1731.97 505.96 1748.27 508.76 1765.67 511.36C1798.07 516.06 1802.07 517.16 1806.57 521.96C1811.67 527.36 1813.47 538.56 1810.37 545.16C1809.47 546.96 1797.77 559.36 1784.37 572.66C1767.27 589.76 1759.27 598.36 1757.67 601.56C1753.87 609.56 1754.17 615.86 1759.87 649.26C1763.37 669.26 1764.87 681.06 1764.67 684.56C1763.77 695.06 1754.97 702.76 1743.97 702.76C1738.67 702.76 1736.67 701.86 1708.87 687.26C1692.67 678.76 1677.77 671.36 1675.87 670.76C1673.97 670.26 1670.37 669.76 1667.87 669.76C1665.37 669.76 1661.77 670.26 1659.87 670.76C1657.97 671.36 1643.07 678.76 1626.87 687.26C1599.07 701.86 1597.07 702.76 1591.77 702.76C1580.77 702.76 1571.97 695.06 1571.07 684.56C1570.87 681.06 1572.37 669.26 1575.87 649.26C1581.57 615.86 1581.87 609.56 1578.07 601.56C1576.47 598.36 1568.47 589.76 1551.37 572.66C1537.97 559.36 1526.27 546.96 1525.37 545.16C1522.27 538.56 1524.07 527.36 1529.17 521.96C1533.67 517.16 1537.67 516.06 1570.07 511.36C1587.47 508.76 1603.77 505.96 1606.27 505.16C1608.77 504.26 1612.87 501.76 1615.37 499.56C1619.47 495.96 1621.97 491.66 1635.07 465.36C1643.37 448.76 1650.97 434.06 1651.97 432.66C1657.07 425.36 1671.37 423.56 1679.67 429.06Z" fill="white" fill-opacity="0.5"/>
<path fill-rule="evenodd" clip-rule="evenodd" d="M1660.87 487.56C1657.87 489.16 1656.07 491.96 1648.37 506.96C1639.07 525.06 1637.77 527.16 1634.77 528.86C1633.77 529.36 1624.97 530.96 1615.17 532.36C1592.27 535.66 1589.37 537.06 1586.87 545.86C1584.97 552.26 1586.77 555.26 1601.87 570.26C1610.87 579.26 1616.27 585.46 1616.97 587.56C1617.87 590.26 1617.47 594.46 1614.77 610.56L1611.47 630.26L1613.47 634.26C1614.47 636.46 1616.97 639.26 1618.87 640.56C1624.67 644.46 1628.97 643.36 1646.87 633.86C1656.27 628.76 1663.97 625.36 1666.47 625.06C1670.27 624.56 1672.37 625.46 1688.27 633.66C1707.87 643.76 1710.97 644.46 1716.97 640.46C1718.87 639.26 1721.27 636.46 1722.27 634.26L1724.27 630.26L1720.97 610.56C1718.27 594.46 1717.87 590.26 1718.77 587.56C1719.47 585.46 1724.87 579.26 1733.87 570.26C1748.97 555.26 1750.77 552.26 1748.87 545.86C1746.37 537.06 1743.47 535.66 1720.57 532.36C1710.77 530.96 1701.97 529.36 1701.07 528.86C1697.87 527.16 1696.07 524.26 1687.47 507.16C1681.57 495.26 1678.07 489.46 1676.17 488.26C1672.07 485.56 1665.07 485.26 1660.87 487.56Z" fill="white" fill-opacity="0.5"/>
</g>
<g clip-path="url(#clip2_27_53)">
<path fill-rule="evenodd" clip-rule="evenodd" d="M404.87 326.36C398.57 328.66 392.77 332.86 389.57 337.46C388.17 339.56 380.87 353.66 373.47 368.76C366.07 383.96 359.07 397.56 357.87 398.96C353.27 404.86 350.87 405.56 315.87 410.76C294.97 413.86 281.17 416.36 278.47 417.66C263.67 424.16 256.27 441.96 261.87 457.26C263.97 462.76 266.07 465.26 289.17 488.46C302.97 502.26 314.77 514.66 315.37 515.96C318.17 521.36 317.87 525.36 312.27 557.86C308.07 582.16 306.87 591.56 307.27 595.56C309.37 614.06 327.87 627.26 345.57 622.86C348.17 622.16 363.17 614.86 378.87 606.46L407.37 591.26H422.37L450.87 606.46C466.57 614.86 481.57 622.16 484.17 622.86C501.87 627.26 520.37 614.06 522.47 595.56C522.87 591.56 521.67 582.16 517.47 557.86C511.87 525.36 511.57 521.36 514.37 515.96C514.97 514.66 526.77 502.26 540.57 488.46C563.67 465.26 565.77 462.76 567.87 457.26C573.47 441.96 566.07 424.16 551.27 417.66C548.57 416.36 534.77 413.86 513.87 410.76C478.87 405.56 476.47 404.86 471.87 398.96C470.77 397.56 463.37 383.26 455.47 367.26C439.97 335.66 437.57 332.26 428.37 327.86C421.87 324.76 411.17 324.06 404.87 326.36ZM426.67 339.06C430.47 341.56 432.17 344.46 446.77 373.66C460.77 401.46 463.37 406.06 467.37 409.56C469.87 411.76 473.97 414.26 476.47 415.16C478.97 415.96 495.27 418.76 512.67 421.36C545.07 426.06 549.07 427.16 553.57 431.96C558.67 437.36 560.47 448.56 557.37 455.16C556.47 456.96 544.77 469.36 531.37 482.66C514.27 499.76 506.27 508.36 504.67 511.56C500.87 519.56 501.17 525.86 506.87 559.26C510.37 579.26 511.87 591.06 511.67 594.56C510.77 605.06 501.97 612.76 490.97 612.76C485.67 612.76 483.67 611.86 455.87 597.26C439.67 588.76 424.77 581.36 422.87 580.76C420.97 580.26 417.37 579.76 414.87 579.76C412.37 579.76 408.77 580.26 406.87 580.76C404.97 581.36 390.07 588.76 373.87 597.26C346.07 611.86 344.07 612.76 338.77 612.76C327.77 612.76 318.97 605.06 318.07 594.56C317.87 591.06 319.37 579.26 322.87 559.26C328.57 525.86 328.87 519.56 325.07 511.56C323.47 508.36 315.47 499.76 298.37 482.66C284.97 469.36 273.27 456.96 272.37 455.16C269.27 448.56 271.07 437.36 276.17 431.96C280.67 427.16 284.67 426.06 317.07 421.36C334.47 418.76 350.77 415.96 353.27 415.16C355.77 414.26 359.87 411.76 362.37 409.56C366.47 405.96 368.97 401.66 382.07 375.36C390.37 358.76 397.97 344.06 398.97 342.66C404.07 335.36 418.37 333.56 426.67 339.06Z" fill="white" fill-opacity="0.5"/>
<path fill-rule="evenodd" clip-rule="evenodd" d="M407.87 397.56C404.87 399.16 403.07 401.96 395.37 416.96C386.07 435.06 384.77 437.16 381.77 438.86C380.77 439.36 371.97 440.96 362.17 442.36C339.27 445.66 336.37 447.06 333.87 455.86C331.97 462.26 333.77 465.26 348.87 480.26C357.87 489.26 363.27 495.46 363.97 497.56C364.87 500.26 364.47 504.46 361.77 520.56L358.47 540.26L360.47 544.26C361.47 546.46 363.97 549.26 365.87 550.56C371.67 554.46 375.97 553.36 393.87 543.86C403.27 538.76 410.97 535.36 413.47 535.06C417.27 534.56 419.37 535.46 435.27 543.66C454.87 553.76 457.97 554.46 463.97 550.46C465.87 549.26 468.27 546.46 469.27 544.26L471.27 540.26L467.97 520.56C465.27 504.46 464.87 500.26 465.77 497.56C466.47 495.46 471.87 489.26 480.87 480.26C495.97 465.26 497.77 462.26 495.87 455.86C493.37 447.06 490.47 445.66 467.57 442.36C457.77 440.96 448.97 439.36 448.07 438.86C444.87 437.16 443.07 434.26 434.47 417.16C428.57 405.26 425.07 399.46 423.17 398.26C419.07 395.56 412.07 395.26 407.87 397.56Z" fill="white" fill-opacity="0.5"/>
</g>
<g clip-path="url(#clip3_27_53)">
<path fill-rule="evenodd" clip-rule="evenodd" d="M1581.87 1.36011C1575.57 3.66011 1569.77 7.86011 1566.57 12.4601C1565.17 14.5601 1557.87 28.6601 1550.47 43.7601C1543.07 58.9601 1536.07 72.5601 1534.87 73.9601C1530.27 79.8601 1527.87 80.5601 1492.87 85.7601C1471.97 88.8601 1458.17 91.3601 1455.47 92.6601C1440.67 99.1601 1433.27 116.96 1438.87 132.26C1440.97 137.76 1443.07 140.26 1466.17 163.46C1479.97 177.26 1491.77 189.66 1492.37 190.96C1495.17 196.36 1494.87 200.36 1489.27 232.86C1485.07 257.16 1483.87 266.56 1484.27 270.56C1486.37 289.06 1504.87 302.26 1522.57 297.86C1525.17 297.16 1540.17 289.86 1555.87 281.46L1584.37 266.26H1599.37L1627.87 281.46C1643.57 289.86 1658.57 297.16 1661.17 297.86C1678.87 302.26 1697.37 289.06 1699.47 270.56C1699.87 266.56 1698.67 257.16 1694.47 232.86C1688.87 200.36 1688.57 196.36 1691.37 190.96C1691.97 189.66 1703.77 177.26 1717.57 163.46C1740.67 140.26 1742.77 137.76 1744.87 132.26C1750.47 116.96 1743.07 99.1601 1728.27 92.6601C1725.57 91.3601 1711.77 88.8601 1690.87 85.7601C1655.87 80.5601 1653.47 79.8601 1648.87 73.9601C1647.77 72.5601 1640.37 58.2601 1632.47 42.2601C1616.97 10.6601 1614.57 7.26011 1605.37 2.86011C1598.87 -0.239887 1588.17 -0.939887 1581.87 1.36011ZM1603.67 14.0601C1607.47 16.5601 1609.17 19.4601 1623.77 48.6601C1637.77 76.4601 1640.37 81.0601 1644.37 84.5601C1646.87 86.7601 1650.97 89.2601 1653.47 90.1601C1655.97 90.9601 1672.27 93.7601 1689.67 96.3601C1722.07 101.06 1726.07 102.16 1730.57 106.96C1735.67 112.36 1737.47 123.56 1734.37 130.16C1733.47 131.96 1721.77 144.36 1708.37 157.66C1691.27 174.76 1683.27 183.36 1681.67 186.56C1677.87 194.56 1678.17 200.86 1683.87 234.26C1687.37 254.26 1688.87 266.06 1688.67 269.56C1687.77 280.06 1678.97 287.76 1667.97 287.76C1662.67 287.76 1660.67 286.86 1632.87 272.26C1616.67 263.76 1601.77 256.36 1599.87 255.76C1597.97 255.26 1594.37 254.76 1591.87 254.76C1589.37 254.76 1585.77 255.26 1583.87 255.76C1581.97 256.36 1567.07 263.76 1550.87 272.26C1523.07 286.86 1521.07 287.76 1515.77 287.76C1504.77 287.76 1495.97 280.06 1495.07 269.56C1494.87 266.06 1496.37 254.26 1499.87 234.26C1505.57 200.86 1505.87 194.56 1502.07 186.56C1500.47 183.36 1492.47 174.76 1475.37 157.66C1461.97 144.36 1450.27 131.96 1449.37 130.16C1446.27 123.56 1448.07 112.36 1453.17 106.96C1457.67 102.16 1461.67 101.06 1494.07 96.3601C1511.47 93.7601 1527.77 90.9601 1530.27 90.1601C1532.77 89.2601 1536.87 86.7601 1539.37 84.5601C1543.47 80.9601 1545.97 76.6601 1559.07 50.3601C1567.37 33.7601 1574.97 19.0601 1575.97 17.6601C1581.07 10.3601 1595.37 8.56011 1603.67 14.0601Z" fill="white" fill-opacity="0.5"/>
<path fill-rule="evenodd" clip-rule="evenodd" d="M1584.87 72.5601C1581.87 74.1601 1580.07 76.9601 1572.37 91.9601C1563.07 110.06 1561.77 112.16 1558.77 113.86C1557.77 114.36 1548.97 115.96 1539.17 117.36C1516.27 120.66 1513.37 122.06 1510.87 130.86C1508.97 137.26 1510.77 140.26 1525.87 155.26C1534.87 164.26 1540.27 170.46 1540.97 172.56C1541.87 175.26 1541.47 179.46 1538.77 195.56L1535.47 215.26L1537.47 219.26C1538.47 221.46 1540.97 224.26 1542.87 225.56C1548.67 229.46 1552.97 228.36 1570.87 218.86C1580.27 213.76 1587.97 210.36 1590.47 210.06C1594.27 209.56 1596.37 210.46 1612.27 218.66C1631.87 228.76 1634.97 229.46 1640.97 225.46C1642.87 224.26 1645.27 221.46 1646.27 219.26L1648.27 215.26L1644.97 195.56C1642.27 179.46 1641.87 175.26 1642.77 172.56C1643.47 170.46 1648.87 164.26 1657.87 155.26C1672.97 140.26 1674.77 137.26 1672.87 130.86C1670.37 122.06 1667.47 120.66 1644.57 117.36C1634.77 115.96 1625.97 114.36 1625.07 113.86C1621.87 112.16 1620.07 109.26 1611.47 92.1601C1605.57 80.2601 1602.07 74.4601 1600.17 73.2601C1596.07 70.5601 1589.07 70.2601 1584.87 72.5601Z" fill="white" fill-opacity="0.5"/>
</g>
<defs>
<clipPath id="clip0_27_53">
<rect width="309.74" height="298.71" fill="white"/>
</clipPath>
<clipPath id="clip1_27_53">
<rect width="309.74" height="298.71" fill="white" transform="translate(1513 415)"/>
</clipPath>
<clipPath id="clip2_27_53">
<rect width="309.74" height="298.71" fill="white" transform="translate(260 325)"/>
</clipPath>
<clipPath id="clip3_27_53">
<rect width="309.74" height="298.71" fill="white" transform="translate(1437)"/>
</clipPath>
</defs>
</svg>
