<svg width="548" height="624" viewBox="0 0 548 624" fill="none" xmlns="http://www.w3.org/2000/svg">
<g clip-path="url(#clip0_6_207)">
<path fill-rule="evenodd" clip-rule="evenodd" d="M37.1098 247.497L68.5806 28.5904H175.936L150.856 202.815C150.48 205.282 150.426 207.75 150.534 210.163C173.626 216.332 195.216 228.133 213.958 244.708C224.485 238.378 232.164 227.543 233.99 214.723L235.44 204.746L236.246 199.114H237.911L345.266 199.167L345.158 200.025C340.969 220.355 330.229 238.754 314.493 252.432C297.254 267.344 275.235 275.551 252.465 275.551H242.905C254.72 287.781 264.817 293.574 274.107 293.574C276.685 293.574 288.071 285.689 301.873 274.318C344.192 239.719 351.495 234.409 369.433 225.719C369.809 225.558 370.185 225.344 370.561 225.183L373.675 203.458C373.998 201.796 374.374 200.133 374.642 198.47L378.724 170.148H211.595L205.742 210.7C204.775 217.244 199.19 222.125 192.53 222.125C184.421 222.125 178.138 214.938 179.319 206.891L208.964 0H43.7691L0 304.142H7.84085C7.89455 303.766 7.94826 303.337 8.00196 302.962C11.815 283.49 22.6096 263.858 37.0561 247.444L37.1098 247.497Z" fill="white"/>
<path fill-rule="evenodd" clip-rule="evenodd" d="M539.192 340.724C534.896 357.192 521.094 383.691 506.809 402.733C500.096 411.637 473.297 439.906 440.806 473.217C493.597 465.01 536.131 423.384 543.972 369.1L548.054 340.778H539.246L539.192 340.724Z" fill="white"/>
<path fill-rule="evenodd" clip-rule="evenodd" d="M361.807 392.756C368.466 392.756 374.051 387.874 375.018 381.33L380.872 340.778H539.246C539.407 340.242 539.622 339.598 539.73 339.062C543.865 321.36 541.287 296.364 534.037 280.862C522.813 256.884 499.559 232.478 476.734 220.892C456.434 210.485 426.735 207.696 400.904 213.811C393.707 215.528 380.281 220.677 370.507 225.29L348.595 377.629C347.468 385.675 353.697 392.863 361.807 392.863V392.756ZM384.255 279.95C417.659 276.034 427.219 266.862 431.354 234.892C431.784 231.727 436.563 231.727 436.993 234.892C441.075 266.862 450.688 276.034 484.092 279.95C487.421 280.325 487.421 284.938 484.092 285.368C450.688 289.283 441.128 298.456 436.993 330.426C436.563 333.59 431.784 333.59 431.354 330.426C427.272 298.456 417.659 289.283 384.255 285.368C380.926 284.992 380.926 280.379 384.255 279.95Z" fill="white"/>
<path fill-rule="evenodd" clip-rule="evenodd" d="M213.958 244.762C207.621 248.57 200.21 250.769 192.423 250.769C180.232 250.769 168.686 245.513 160.684 236.286C154.347 228.938 150.802 219.765 150.48 210.217C147.096 209.305 143.713 208.501 140.276 207.857C124.111 204.692 118.418 204.692 102.468 207.267C79.2677 211.129 55.2619 226.792 37.0023 247.551L32.9745 275.605H242.851C239.898 272.547 236.89 269.168 233.668 265.306C227.546 257.85 220.94 250.984 213.958 244.815V244.762Z" fill="white"/>
<path fill-rule="evenodd" clip-rule="evenodd" d="M169.33 474.772L193.873 304.195H7.84085C4.77969 320.234 6.60564 342.548 12.1372 359.07C21.804 388.572 24.5429 391.737 141.887 509.156C201.929 569.126 253.539 619.709 256.492 621.264C264.763 625.609 280.337 624.805 291.132 619.28C299.08 615.203 379.959 535.386 440.752 473.217C434.523 474.182 428.239 474.772 421.741 474.772H169.33Z" fill="white"/>
<path fill-rule="evenodd" clip-rule="evenodd" d="M405.63 369.315L403.32 385.353C400.367 405.844 382.483 421.346 361.753 421.346C349.562 421.346 338.016 416.089 330.014 406.863C322.012 397.691 318.467 385.461 320.186 373.445L334.686 272.655C312.721 292.287 283.828 304.142 252.411 304.142H222.82L202.412 446.128H421.795C444.565 446.128 466.638 437.921 483.823 423.009C499.935 409.062 510.837 390.127 514.811 369.315H405.63Z" fill="white"/>
</g>
<defs>
<clipPath id="clip0_6_207">
<rect width="548" height="624" fill="white"/>
</clipPath>
</defs>
</svg>
